<svg width="124" height="130" viewBox="0 0 124 130" fill="none" xmlns="http://www.w3.org/2000/svg">
<path d="M123.45 68.6072H121.675V63.1715C121.113 63.6214 120.635 64.0023 120.159 64.387C119.698 64.7594 119.249 65.145 118.778 65.5042C118.532 65.6913 118.421 65.8946 118.432 66.215C118.457 66.9966 118.44 67.7792 118.44 68.6053C117.878 68.6053 117.363 68.6034 116.847 68.6053C116.49 68.6072 116.559 68.3444 116.558 68.1356C116.555 66.6091 116.556 65.0826 116.556 63.5562C116.556 62.0297 116.567 60.629 116.548 59.1659C116.544 58.7916 116.654 58.6583 117.033 58.6829C117.484 58.7122 117.938 58.6895 118.428 58.6895V63.8256C119.008 63.3587 119.511 62.9551 120.012 62.5486C120.472 62.1753 120.942 61.8124 121.379 61.4135C121.518 61.2868 121.634 61.0628 121.643 60.8785C121.673 60.1734 121.655 59.4655 121.655 58.6895H123.451V68.6063L123.45 68.6072Z" fill="#3A2911"/>
<path d="M16.7402 126.78C18.6036 125.578 20.3903 124.429 22.1733 123.275C26.9831 120.164 31.7901 117.047 36.6074 113.946C36.948 113.727 37.0813 113.506 37.0785 113.091C37.0596 109.407 37.0757 105.724 37.0567 102.042C37.0548 101.579 37.1929 101.439 37.6441 101.468C38.2088 101.504 38.7763 101.477 39.4233 101.477C39.4233 101.643 39.4233 101.791 39.4233 101.94C39.4233 106.111 39.4186 110.282 39.4328 114.453C39.4337 114.746 39.3325 114.909 39.1102 115.053C34.3534 118.132 29.6004 121.217 24.8416 124.294C21.9482 126.164 19.0443 128.02 16.1528 129.894C15.9248 130.042 15.7915 130.023 15.5455 129.915C14.5457 129.479 14.349 128.757 14.3509 127.701C14.3849 101.353 14.3764 75.0032 14.3897 48.6546C14.3897 48.1905 14.2487 47.9486 13.8562 47.7C10.1342 45.338 6.42915 42.9486 2.71846 40.5696C2.61914 40.5063 2.50942 40.46 2.33727 40.3702V121.452C1.54084 120.947 0.825753 120.497 0.119181 120.037C0.0567528 119.996 0.0283764 119.88 0.01608 119.794C-0.00094588 119.67 0.0113506 119.543 0.0113506 119.417C0.0122964 92.5636 0.0141882 65.7112 0 38.8589C0 38.408 0.192014 38.2379 0.527801 38.0091C1.51435 37.3362 2.29092 37.4969 3.29355 38.1613C7.5992 41.0186 11.9815 43.7624 16.3401 46.5393C16.6295 46.7236 16.7515 46.9202 16.7506 47.2851C16.7392 71.8085 16.7402 96.331 16.7402 120.854V126.781V126.78Z" fill="#3A2911"/>
<path d="M50.5771 0C50.5771 0.874285 50.5922 1.67485 50.5629 2.47446C50.5573 2.61624 50.3936 2.79393 50.2565 2.88278C46.9109 5.05573 43.5587 7.22017 40.2074 9.38462C36.5705 11.7334 32.9336 14.0831 29.2948 16.429C25.9417 18.5906 22.5876 20.7484 19.2316 22.9053C14.7529 25.7834 10.2722 28.6595 5.79444 31.5376C5.73012 31.5792 5.67904 31.6425 5.58256 31.7313C6.35629 32.2389 7.10732 32.7408 7.86875 33.2285C10.0244 34.6103 12.1839 35.9865 14.3424 37.3655C15.4679 38.0848 16.603 38.788 17.7116 39.5337C17.9717 39.7086 18.1372 39.6973 18.3718 39.5441C20.9626 37.8627 23.5571 36.1869 26.1507 34.5101C29.7365 32.1916 33.3214 29.8731 36.9082 27.5565C37.1778 27.3826 37.4256 27.2824 37.7368 27.548C38.0527 27.8174 38.415 28.0575 38.7943 28.2219C39.3401 28.4582 39.4413 28.8325 39.4394 29.3883C39.4214 37.3683 39.4271 45.3484 39.4271 53.3285V53.9306H37.0841V30.2096C36.8836 30.3211 36.7512 30.3864 36.6273 30.4657C32.5761 33.0905 28.5268 35.7181 24.4746 38.3419C22.4419 39.6585 20.4045 40.9676 18.3709 42.2832C18.1609 42.4193 18.0076 42.4666 17.7504 42.2993C13.9621 39.8428 10.1616 37.4052 6.36385 34.9629C5.44919 34.375 4.52696 33.7984 3.62648 33.1897C3.47798 33.0896 3.35217 32.8523 3.34177 32.6718C3.30772 32.0442 3.30015 31.4109 3.34461 30.7852C3.35974 30.5754 3.51014 30.3013 3.68418 30.1879C7.01462 28.0215 10.3593 25.876 13.6992 23.7229C18.1476 20.8543 22.5942 17.9829 27.0436 15.1143C30.8527 12.6587 34.6636 10.2079 38.4727 7.75231C42.3867 5.22964 46.2989 2.70319 50.2129 0.180528C50.3019 0.123818 50.4031 0.0860107 50.58 0L50.5771 0Z" fill="#3A2911"/>
<path d="M48.2663 91.4956C49.0986 91.884 49.6018 92.4814 49.7324 93.3954C49.8497 94.2129 49.7002 94.9398 49.2263 95.6269C48.7912 96.2583 48.1509 96.5768 47.4651 96.6326C46.1059 96.7432 44.7362 96.7139 43.3704 96.7488C43.098 96.7555 43.0185 96.6326 43.0185 96.3774C43.0233 93.2923 43.0242 90.2073 43.0176 87.1232C43.0176 86.8311 43.1311 86.7366 43.4101 86.7442C44.7429 86.7811 46.0813 86.7508 47.4084 86.8538C48.5254 86.9408 49.4259 87.7423 49.5366 88.8463C49.67 90.1752 49.4306 90.6789 48.2653 91.4946L48.2663 91.4956ZM44.9377 92.178V95.1534C45.4532 95.1534 45.9375 95.1619 46.4209 95.1496C46.6498 95.1439 46.891 95.1402 47.1047 95.0683C47.8633 94.8122 47.8539 94.1742 47.8406 93.5324C47.8264 92.8595 47.5285 92.4266 46.8683 92.3235C46.244 92.2262 45.6055 92.2243 44.9387 92.178H44.9377ZM44.9424 88.212V90.8462C45.6017 90.7999 46.2251 90.7801 46.8408 90.7045C47.4159 90.6345 47.712 90.2961 47.7422 89.7669C47.7924 88.9058 47.6174 88.4748 47.0045 88.3614C46.3395 88.2385 45.6481 88.2565 44.9424 88.212Z" fill="#3A2911"/>
<path d="M64.2036 77.2528C63.4299 77.8822 62.7479 78.437 62.065 78.9928C62.0404 79.0127 62.0234 79.0439 61.9969 79.058C61.1617 79.5032 60.9243 80.2064 61.052 81.1081C61.1087 81.5089 61.086 81.9276 61.0463 82.3321C61.034 82.4569 60.8524 82.6554 60.736 82.6639C60.2376 82.7007 59.7353 82.6799 59.2065 82.6799V72.7887H61.0397V77.8567C61.5779 77.421 62.0262 77.0571 62.4755 76.6942C62.9343 76.3227 63.4129 75.973 63.8432 75.5703C64.0135 75.4116 64.1573 75.1422 64.1715 74.9144C64.214 74.2254 64.1866 73.5316 64.1866 72.8019H66.0434V82.6506H64.2017V77.2528H64.2036Z" fill="#3A2911"/>
<path d="M34.626 82.68V72.7897H36.4648V77.8426C36.8072 77.5761 37.0692 77.3795 37.3246 77.1734C38.0018 76.6252 38.6857 76.0855 39.3431 75.5146C39.485 75.3908 39.5956 75.1555 39.6041 74.9664C39.6344 74.2481 39.6164 73.5279 39.6164 72.7869H41.4723V82.6497H39.6363V77.2471C38.8824 77.8568 38.2222 78.3889 37.5639 78.9248C37.3463 79.1025 37.159 79.3341 36.915 79.4588C36.4998 79.6706 36.4685 79.9966 36.4846 80.3955C36.5083 81.008 36.4742 81.6233 36.4969 82.2358C36.5102 82.5949 36.374 82.7055 36.0287 82.6866C35.5756 82.663 35.1207 82.6809 34.6279 82.6809L34.626 82.68Z" fill="#3A2911"/>
<path d="M76.2596 63.8237C77.2982 62.9702 78.2403 62.2075 79.1644 61.423C79.2921 61.3143 79.3895 61.0997 79.3952 60.9305C79.4207 60.2094 79.4056 59.4863 79.4056 58.7283H81.2661V68.5704H79.4283V63.2065C78.7804 63.732 78.2091 64.1971 77.6368 64.6602C77.3464 64.8955 77.057 65.1318 76.7619 65.3606C76.445 65.6054 76.235 65.8606 76.27 66.3228C76.3258 67.0572 76.2851 67.7982 76.2851 68.5723H74.4255V58.7179H76.2586V63.8247L76.2596 63.8237Z" fill="#3A2911"/>
<path d="M63.2954 96.7479C62.0667 96.7479 60.839 96.7394 59.6103 96.7535C59.2849 96.7573 59.1449 96.659 59.1752 96.3225C59.1969 96.073 59.1799 95.8197 59.179 95.5673C59.179 95.3178 59.1222 95.0513 59.5233 95.0352C59.5989 95.0324 59.6926 94.8084 59.7313 94.6732C60.4332 92.2101 61.1398 89.7489 61.8113 87.2772C61.9305 86.8396 62.1187 86.7092 62.552 86.7385C63.1318 86.7782 63.7182 86.7234 64.2981 86.7649C64.457 86.7763 64.6953 86.9615 64.7398 87.1128C65.4842 89.6591 66.2031 92.2129 66.9295 94.7639C66.9541 94.8509 66.9948 95.0002 67.0383 95.004C67.7089 95.0645 67.4753 95.5749 67.4819 95.9265C67.4989 96.8575 67.5916 96.7441 66.6495 96.7479C65.5315 96.7516 64.4134 96.7488 63.2954 96.7479ZM65.1058 95.0352C64.5355 92.7658 63.967 90.5069 63.3995 88.247C63.3427 88.2451 63.2869 88.2423 63.2302 88.2404C62.6626 90.4937 62.0942 92.7469 61.5181 95.0352H65.1058Z" fill="#3A2911"/>
<path d="M108.173 58.7028H109.91V63.8445C110.461 63.4069 110.921 63.0459 111.375 62.6782C111.872 62.2765 112.38 61.8843 112.852 61.4542C113.003 61.3171 113.125 61.0723 113.135 60.871C113.169 60.1669 113.148 59.4599 113.148 58.6924C113.705 58.6924 114.235 58.6801 114.763 58.7037C114.855 58.7075 114.963 58.8512 115.022 58.9542C115.063 59.026 115.032 59.1385 115.032 59.233C115.032 62.1763 115.023 65.1196 115.043 68.0628C115.046 68.5033 114.921 68.6517 114.484 68.6139C114.064 68.578 113.637 68.6063 113.176 68.6063V63.1867C112.591 63.6527 112.09 64.0487 111.592 64.4495C111.119 64.8313 110.638 65.2046 110.187 65.6111C110.057 65.7283 109.951 65.9419 109.946 66.1148C109.922 66.9286 109.935 67.7434 109.935 68.5817H108.175V58.7019L108.173 58.7028Z" fill="#3A2911"/>
<path d="M101.298 82.6686H99.5539V77.1856C98.451 78.0901 97.4304 78.92 96.423 79.7659C96.3417 79.834 96.3284 80.0126 96.3265 80.1412C96.318 80.971 96.3227 81.8009 96.3227 82.6799C95.7666 82.6799 95.252 82.6771 94.7365 82.6808C94.4263 82.6837 94.4386 82.472 94.4395 82.2593C94.4404 81.4729 94.4395 80.6856 94.4395 79.8992C94.4395 77.7121 94.4395 75.5249 94.4395 73.3378V72.7962H96.3095V77.8898C97.4001 76.9862 98.4056 76.161 99.3978 75.3179C99.4905 75.2395 99.5283 75.0571 99.5312 74.921C99.5444 74.2178 99.5368 73.5136 99.5368 72.7877H101.298V82.6686Z" fill="#3A2911"/>
<path d="M26.4885 68.6035V58.7302C26.6143 58.717 26.7334 58.6933 26.8517 58.6933C28.5836 58.6905 30.3155 58.7028 32.0465 58.6829C32.4286 58.6792 32.5544 58.8011 32.5241 59.1716C32.4976 59.4958 32.5184 59.8247 32.5184 60.1877H28.3991V62.5638C28.96 62.5638 29.521 62.5667 30.0819 62.5638C31.5584 62.5553 32.6178 63.2954 32.9517 64.4958C33.3149 65.7992 33.1995 67.1366 31.9793 68.0345C31.5849 68.3247 31.0542 68.5534 30.5737 68.5799C29.2277 68.6526 27.8751 68.6054 26.4866 68.6054L26.4885 68.6035ZM28.3878 67.0024C28.873 67.0024 29.3252 67.0024 29.7773 67.0024C30.6097 67.0005 30.9795 66.7188 31.1753 65.9381C31.3919 65.0799 30.9814 64.336 30.114 64.1649C29.5597 64.0553 28.9799 64.0789 28.3868 64.0421V67.0024H28.3878Z" fill="#3A2911"/>
<path d="M52.5719 82.6667H50.7104V72.7953H57.5435V82.679C57.0138 82.679 56.4983 82.678 55.9837 82.679C55.6328 82.6799 55.6896 82.4228 55.6896 82.2102C55.6877 80.5277 55.6886 78.8444 55.6886 77.162C55.6886 76.2518 55.6886 75.3406 55.6886 74.3964H52.5729V82.6667H52.5719Z" fill="#3A2911"/>
<path d="M84.7867 64.2869C84.7867 65.5922 84.7725 66.8511 84.7952 68.1092C84.8018 68.5033 84.6807 68.6413 84.2863 68.6139C83.8493 68.5836 83.4085 68.6073 82.9365 68.6073V58.6924C83.4539 58.6924 83.9685 58.6981 84.483 58.6905C84.7914 58.6858 84.7886 58.8871 84.7876 59.1036C84.7857 60.095 84.7876 61.0865 84.7876 62.078C84.7876 62.2491 84.7876 62.4211 84.7876 62.6253H87.8929V58.7321H89.7705V68.5836H87.9298V64.2869H84.7876H84.7867Z" fill="#3A2911"/>
<path d="M41.7369 63.2982C41.6111 64.9532 41.5136 66.2462 40.7513 67.3794C39.3816 69.4172 36.2877 69.3378 35.0069 67.3794C34.4366 66.507 34.2247 65.5553 34.1225 64.5401C33.9967 63.2991 34.097 62.095 34.5104 60.922C35.0486 59.3937 36.1259 58.4797 37.7557 58.4324C39.2492 58.389 40.5659 59.0459 41.2006 60.8332C41.5174 61.7245 41.612 62.6942 41.7378 63.2982H41.7369ZM39.7486 63.6498C39.7032 63.0751 39.69 62.4957 39.6058 61.9267C39.4942 61.1715 39.2454 60.4627 38.4755 60.1215C37.5428 59.7084 36.422 60.3464 36.2347 61.5014C36.0682 62.526 36.0342 63.5817 36.0436 64.6224C36.0484 65.1621 36.2167 65.7226 36.4154 66.2339C36.6414 66.8152 37.0917 67.1677 37.7717 67.2036C38.5039 67.2424 38.9929 66.9239 39.305 66.2991C39.724 65.4626 39.7269 64.5581 39.7477 63.6498H39.7486Z" fill="#3A2911"/>
<path d="M72.9167 66.9863C73.0577 66.9985 73.192 67.0099 73.3386 67.0222V68.5798C73.1882 68.5893 73.052 68.6053 72.9158 68.6053C70.4603 68.6072 68.0048 68.5987 65.5483 68.6138C65.1624 68.6167 64.9941 68.5146 65.0395 68.1129C65.0659 67.8794 65.048 67.6413 65.0432 67.4059C65.0385 67.1838 65.0536 67.0108 65.3525 66.9844C65.4462 66.9759 65.5635 66.7849 65.6004 66.6583C66.1764 64.6583 66.7401 62.6545 67.3077 60.6517C67.4637 60.1026 67.6321 59.5572 67.7768 59.0052C67.8383 58.7689 67.9518 58.6801 68.2006 58.6867C68.8296 58.7028 69.4614 58.7169 70.0886 58.682C70.4593 58.6621 70.6135 58.8067 70.7062 59.1404C71.2983 61.2642 71.9018 63.3842 72.5015 65.5061C72.6358 65.9815 72.7673 66.457 72.9158 66.9872L72.9167 66.9863ZM71.0231 66.9844C70.431 64.646 69.8549 62.371 69.2779 60.0959C69.2306 60.1035 69.1834 60.112 69.1361 60.1196C68.561 62.4003 67.9859 64.681 67.4051 66.9844H71.0231Z" fill="#3A2911"/>
<path d="M50.8174 91.7224C50.8098 90.4408 50.9867 89.2205 51.6876 88.1043C52.5162 86.7867 53.7647 86.402 55.1949 86.5722C56.5021 86.7281 57.377 87.5306 57.8708 88.7517C58.3958 90.0513 58.497 91.385 58.3456 92.7734C58.2321 93.8122 57.9834 94.7715 57.3799 95.6345C56.3687 97.0815 53.8451 97.3972 52.4906 96.2762C51.5873 95.5286 51.155 94.5523 50.9659 93.4464C50.8694 92.8802 50.8637 92.298 50.8174 91.7224ZM56.5494 91.7205C56.5125 91.7148 56.4756 91.7092 56.4387 91.7035C56.4387 91.3576 56.4898 91.0022 56.4274 90.6676C56.3205 90.0967 56.1919 89.5202 55.9847 88.9805C55.5364 87.8132 53.7893 87.9304 53.2833 88.8576C52.9797 89.4143 52.8794 89.9833 52.8122 90.5854C52.677 91.7886 52.6997 92.9842 53.0629 94.1439C53.2927 94.8783 53.9482 95.3519 54.6103 95.3349C55.2668 95.3178 55.9298 94.987 56.1483 94.0929C56.3385 93.316 56.4198 92.5126 56.5494 91.7215V91.7205Z" fill="#3A2911"/>
<path d="M80.0479 72.7859H81.8384V82.6431H80.0772V78.266H76.8754V82.679C76.2975 82.679 75.7678 82.6913 75.24 82.6676C75.1473 82.6639 75.0584 82.5098 74.9742 82.4191C74.9581 82.402 74.9695 82.3586 74.9695 82.3264C74.9695 79.1648 74.9695 76.0042 74.9695 72.8029H76.8451V76.6119H80.0469V72.7849L80.0479 72.7859Z" fill="#3A2911"/>
<path d="M58.971 62.6356H62.1917V58.7255H63.9699V68.5694H62.2153V64.2859H59.0135V68.6044C58.4205 68.6044 57.8747 68.6262 57.3337 68.5827C57.2457 68.5761 57.1152 68.2831 57.1142 68.1214C57.1 65.7131 57.1047 63.3048 57.1047 60.8965C57.1047 60.2982 57.1161 59.6999 57.1 59.1026C57.0925 58.802 57.188 58.6735 57.5049 58.6867C57.975 58.7066 58.447 58.6914 58.97 58.6914V62.6356H58.971Z" fill="#3A2911"/>
<path d="M101.894 64.2169C101.894 65.4475 101.894 66.6857 101.894 67.9239C101.894 68.3788 101.664 68.6063 101.203 68.6063C100.856 68.6063 100.51 68.6044 100.164 68.6016C100.135 68.6016 100.104 68.5874 100.043 68.5723V58.6924C100.575 58.6924 101.105 58.6725 101.631 58.7103C101.728 58.717 101.879 58.9608 101.882 59.0979C101.904 60.0884 101.893 61.0799 101.893 62.0704C101.893 62.2425 101.893 62.4145 101.893 62.5799C102.771 62.8058 102.933 62.7349 103.315 61.992C103.832 60.9854 104.345 59.9769 104.886 58.9835C104.962 58.8455 105.178 58.7132 105.337 58.7037C105.881 58.6697 106.43 58.6905 107.066 58.6905C106.849 59.1092 106.675 59.4646 106.483 59.8105C105.891 60.8823 105.299 61.9532 104.694 63.0175C104.557 63.2576 104.556 63.4494 104.682 63.7009C105.425 65.1829 106.151 66.6744 106.879 68.164C106.937 68.284 106.976 68.4135 107.05 68.6054C106.36 68.6054 105.736 68.6224 105.114 68.5912C104.993 68.5855 104.833 68.4154 104.773 68.284C104.253 67.1271 103.754 65.9617 103.246 64.8001C102.933 64.0827 102.894 64.0666 101.894 64.2169Z" fill="#3A2911"/>
<path d="M26.5139 72.7878H28.3555V76.7301C28.6961 76.7301 29.0082 76.7566 29.3099 76.7159C29.4187 76.7018 29.5341 76.5392 29.5975 76.4192C30.1546 75.3644 30.7098 74.3076 31.2452 73.2424C31.4145 72.906 31.6056 72.716 32.0218 72.7547C32.5051 72.7992 32.996 72.7651 33.5494 72.7651C33.2732 73.2897 33.0263 73.7812 32.7586 74.2623C32.2242 75.2226 31.669 76.1715 31.1497 77.1394C31.0749 77.2783 31.091 77.5241 31.1629 77.6734C31.947 79.3218 32.751 80.9607 33.5872 82.68C32.8835 82.68 32.2318 82.6989 31.5838 82.663C31.4656 82.6564 31.3218 82.4399 31.2556 82.2915C30.7306 81.1223 30.2237 79.9447 29.7072 78.7717C29.5098 78.3231 29.0668 78.1236 28.3782 78.1734V82.6516H26.5139V72.7888V72.7878Z" fill="#3A2911"/>
<path d="M36.5308 94.109C36.3265 94.8935 36.1099 95.6364 35.95 96.3916C35.8914 96.6694 35.794 96.7602 35.5244 96.7526C35.0146 96.7384 34.5028 96.7488 33.9504 96.7488C34.569 94.4984 35.1593 92.3462 35.7533 90.195C36.0285 89.1988 36.3237 88.2073 36.5828 87.2073C36.6661 86.886 36.7909 86.7272 37.1494 86.7432C37.7472 86.7688 38.3469 86.7659 38.9447 86.7432C39.2559 86.7319 39.3637 86.8463 39.4451 87.144C40.1195 89.6298 40.8156 92.109 41.5061 94.5901C41.6953 95.2696 41.8883 95.9483 42.1096 96.7347C41.474 96.7347 40.9017 96.7507 40.3332 96.7176C40.2453 96.7129 40.1308 96.4974 40.0939 96.3623C39.9218 95.7214 39.7865 95.0712 39.603 94.4341C39.5652 94.3037 39.3798 94.1279 39.2568 94.1241C38.3611 94.0976 37.4634 94.1099 36.5299 94.1099L36.5308 94.109ZM39.1622 92.5835C38.7971 91.0693 38.4453 89.6081 38.0934 88.1468C38.0452 88.1553 37.996 88.1629 37.9477 88.1714C37.6006 89.6364 37.2525 91.1014 36.9006 92.5835H39.1613H39.1622Z" fill="#3A2911"/>
<path d="M29.1235 90.9455C29.5236 90.8935 29.8764 90.8557 30.2274 90.8018C30.8252 90.7092 31.1808 90.2904 31.2063 89.6855C31.2319 89.091 31.2271 88.4984 30.6246 88.1647C29.7431 87.6761 28.5617 87.9615 28.277 89.3481C28.2145 89.6506 28.188 89.9615 28.1417 90.2971H26.4325C26.1374 88.332 27.6442 86.5731 29.5917 86.5476C30.4544 86.5362 31.2461 86.6771 31.982 87.1629C33.2986 88.0324 33.6912 90.5352 31.8089 91.5126C32.5485 91.9067 33.0385 92.4634 33.2059 93.2933C33.5341 94.9284 32.7131 96.4256 30.9907 96.8273C29.8641 97.09 28.7168 97.0683 27.7113 96.3717C26.8912 95.8036 26.4268 94.9851 26.2944 94.0012C26.1828 93.1685 26.2055 93.1657 27.0492 93.1657H27.2857C28.0755 93.1657 28.0433 93.1713 28.1861 93.9379C28.4548 95.3698 29.7677 95.8273 30.8223 95.1486C31.3028 94.8396 31.4967 94.0314 31.2924 93.2876C31.1553 92.7866 30.6435 92.4218 30.059 92.4076C29.4341 92.3919 29.1219 92.0718 29.1226 91.4473C29.1226 91.2791 29.1226 91.1099 29.1226 90.9483L29.1235 90.9455Z" fill="#3A2911"/>
<path d="M56.1266 68.6063C55.578 68.6063 55.0275 68.6243 54.4808 68.5912C54.372 68.5846 54.2169 68.4012 54.181 68.2727C54.0012 67.6347 53.8433 66.9891 53.7024 66.3408C53.6437 66.0704 53.5444 65.9476 53.2436 65.9551C52.3791 65.975 51.5145 65.9627 50.6254 65.9627C50.406 66.8417 50.1912 67.7037 49.9718 68.5865H48.0488C48.9635 65.2869 49.8744 61.9977 50.7909 58.6915C51.6072 58.6915 52.3933 58.682 53.1793 58.7028C53.2909 58.7057 53.4678 58.8361 53.4971 58.9401C54.39 62.1017 55.2678 65.267 56.1465 68.4324C56.1579 68.474 56.138 68.5241 56.1285 68.6063H56.1266ZM52.188 60.0932C52.1341 60.0979 52.0811 60.1026 52.0272 60.1073C51.6848 61.5449 51.3414 62.9826 50.9971 64.4296H53.2285C52.8766 62.9618 52.5323 61.527 52.187 60.0932H52.188Z" fill="#3A2911"/>
<path d="M98.6012 62.352H96.805C96.6707 61.8294 96.5837 61.3275 96.4087 60.8577C96.2053 60.3105 95.7466 60.0468 95.1724 60.0156C94.5236 59.9806 93.9154 60.1763 93.6127 60.7538C93.3488 61.2575 93.2343 61.8502 93.117 62.4173C92.9061 63.4399 93.0083 64.4702 93.2192 65.4787C93.3015 65.8747 93.4831 66.2821 93.7262 66.6044C94.1868 67.2168 94.8858 67.369 95.616 67.1167C96.2545 66.8964 96.6849 66.2906 96.6991 65.542C96.7142 64.7329 96.665 64.8369 97.4671 64.8312C97.8578 64.8284 98.2484 64.8312 98.6344 64.8312C98.7847 66.6724 97.4529 68.5354 95.7031 68.8132C93.4802 69.1677 91.8363 67.7546 91.404 65.99C90.9775 64.2462 90.9207 62.508 91.5932 60.8142C92.1248 59.4768 93.0631 58.6441 94.5737 58.4844C96.0152 58.3322 97.1427 58.7812 97.9353 59.9853C98.3941 60.6838 98.5719 61.4815 98.6012 62.3511V62.352Z" fill="#3A2911"/>
<path d="M85.3327 76.1119C86.1159 76.1639 86.8196 76.1724 87.512 76.265C88.7662 76.4333 89.5901 77.2281 89.8776 78.489C90.1188 79.5485 89.9675 80.5429 89.3744 81.4682C88.9261 82.1676 88.2337 82.4984 87.4713 82.5655C86.288 82.6695 85.0924 82.643 83.9035 82.6827C83.6169 82.6922 83.4703 82.6232 83.4712 82.2952C83.4816 79.1676 83.4797 76.0401 83.4835 72.9125C83.4835 72.8841 83.5005 72.8548 83.5194 72.7953H85.3327V76.1119ZM85.3819 81.1733C86.2814 81.1232 87.2963 81.4153 87.8166 80.4219C88.2025 79.6856 88.2157 78.799 87.6823 78.1223C87.0835 77.3633 86.1717 77.7348 85.3819 77.6752V81.1733Z" fill="#3A2911"/>
<path d="M44.9093 79.1856V82.6497H43.1367V72.8076C43.2256 72.7943 43.3287 72.765 43.4309 72.7669C44.652 72.7953 45.8892 72.7159 47.0896 72.887C48.6134 73.1044 49.3483 74.2716 49.4382 75.7575C49.5119 76.9824 49.1686 78.0618 48.0515 78.7073C47.6022 78.9663 47.0498 79.0911 46.5286 79.1695C46.0226 79.2461 45.4948 79.1865 44.9093 79.1865V79.1856ZM44.9292 77.7622C45.7511 77.7631 46.6062 77.9143 47.1681 77.1677C47.7006 76.4597 47.694 75.6421 47.2409 74.9021C46.6913 74.0061 45.77 74.3066 44.9292 74.2783V77.7622Z" fill="#3A2911"/>
<path d="M67.4962 72.783H69.2915C69.2915 73.8605 69.283 74.9247 69.2962 75.989C69.3009 76.3907 69.3218 76.7999 69.4003 77.1922C69.4816 77.6005 69.8079 77.8188 70.2052 77.8529C70.6394 77.8897 71.0782 77.8614 71.5493 77.8614V72.799H73.4221C73.4297 72.9427 73.4439 73.0797 73.4439 73.2168C73.4448 76.1913 73.4354 79.1657 73.4552 82.1392C73.4581 82.5872 73.32 82.7224 72.8896 82.6874C72.4696 82.6534 72.0449 82.6799 71.571 82.6799V79.6572C71.1 79.6572 70.6791 79.6572 70.2582 79.6572C68.7713 79.6572 67.6324 78.765 67.5217 77.2971C67.4101 75.8179 67.4972 74.3236 67.4972 72.783H67.4962Z" fill="#3A2911"/>
<path d="M43.0508 58.7141H48.2853V60.2803H44.8167V68.5845H43.0508V58.7151V58.7141Z" fill="#3A2911"/>
<path d="M91.0645 72.7849H92.8001V82.6572H91.0645V72.7849Z" fill="#3A2911"/>
<path d="M121.63 56.7321V57.8946H118.568V56.7321H121.63Z" fill="#3A2911"/>
<path d="M96.3312 70.7906H99.4989V71.9088C98.5294 71.9088 97.5476 71.9154 96.5657 71.8965C96.4863 71.8946 96.3548 71.7244 96.3416 71.6195C96.3094 71.3606 96.3312 71.095 96.3312 70.7897V70.7906Z" fill="#3A2911"/>
</svg>
