<svg width="100" height="131" viewBox="0 0 100 131" fill="none" xmlns="http://www.w3.org/2000/svg">
<path d="M119.731 96.6091H0.265137C0.368371 96.3688 0.430989 96.164 0.537609 95.9829C2.30783 92.9417 4.06959 89.8972 5.87705 86.878C6.04967 86.5886 6.50492 86.4532 6.85016 86.2907C6.98893 86.2247 7.18356 86.2789 7.3528 86.2789C42.4492 86.2789 77.5473 86.2823 112.644 86.2586C113.493 86.2586 113.94 86.5175 114.353 87.252C115.952 90.0986 117.628 92.9011 119.273 95.7206C119.423 95.9796 119.55 96.252 119.735 96.6091H119.731Z" fill="#3A2911"/>
<path d="M52.3428 0.746409H53.4293C56.5838 0.746409 59.7384 0.770104 62.893 0.729487C63.6123 0.719333 63.9914 0.966418 64.3468 1.57736C75.4724 20.6995 86.6184 39.8114 97.7593 58.9251C102.366 66.8285 106.974 74.7319 111.579 82.6352C111.728 82.8925 111.86 83.1599 112.056 83.5322C111.647 83.5542 111.378 83.5813 111.109 83.5813C107.785 83.5846 104.461 83.5677 101.137 83.5965C100.52 83.6016 100.183 83.3917 99.8764 82.862C84.1966 55.7739 68.5032 28.6959 52.8132 1.6146C52.688 1.39797 52.5746 1.17627 52.3411 0.746409H52.3428Z" fill="#3A2911"/>
<path d="M72.4211 41.6662C71.9032 41.6662 71.5681 41.6662 71.2313 41.6662C62.4428 41.6662 53.6543 41.6747 44.8659 41.651C44.1652 41.6493 43.7675 41.8321 43.407 42.465C35.7304 55.9414 28.0284 69.4025 20.3366 82.8704C20.1064 83.2749 19.9084 83.5981 19.3347 83.5948C15.7012 83.5677 12.0677 83.5812 8.43414 83.5778C8.30045 83.5778 8.16844 83.5423 7.91797 83.5084C8.08721 83.1767 8.21075 82.9077 8.35799 82.6521C18.1348 65.7741 27.9184 48.8977 37.6834 32.0129C37.9897 31.4832 38.3164 31.2818 38.9358 31.2818C47.8377 31.3021 56.7378 31.3004 65.6397 31.2852C66.2084 31.2852 66.5418 31.4358 66.8396 31.9571C68.5286 34.9154 70.2633 37.8448 71.9794 40.7879C72.1164 41.0231 72.2247 41.2736 72.4228 41.6662H72.4211Z" fill="#3A2911"/>
<path d="M43.0499 50.3972C49.5266 61.4416 55.9627 72.4184 62.4665 83.5102C62.0604 83.544 61.8217 83.5796 61.5814 83.5796C58.1188 83.583 54.6562 83.5694 51.1936 83.5948C50.6115 83.5999 50.2865 83.4086 49.9971 82.9043C45.8745 75.7016 41.7282 68.5141 37.6107 61.308C37.4482 61.0236 37.3703 60.5193 37.5108 60.2587C39.2252 57.0923 40.9869 53.9529 42.7402 50.8085C42.8045 50.6917 42.901 50.5935 43.0516 50.3955L43.0499 50.3972Z" fill="#3A2911"/>
<path d="M56.1592 21.657C56.1423 25.959 52.7118 29.3827 48.4251 29.3759C44.0977 29.3691 40.6706 25.915 40.6858 21.5724C40.7011 17.3127 44.1806 13.8772 48.4657 13.889C52.7305 13.8992 56.1761 17.3787 56.1592 21.657Z" fill="#3A2911"/>
<path d="M69.0768 116.274C72.7723 118.223 74.0468 120.699 73.497 124.446C73.0565 127.451 70.7075 130.05 66.9433 130.349C61.8484 130.756 56.6972 130.448 51.4492 130.448V104.341C54.0857 104.341 56.6191 104.307 59.1525 104.35C61.7952 104.397 64.4567 104.366 67.0776 104.652C69.6485 104.932 71.5852 106.344 72.1475 109.003C72.7317 111.774 72.2194 114.268 69.6297 115.956C69.4985 116.04 69.3611 116.112 69.08 116.27L69.0768 116.274ZM57.347 119.141C57.347 121.253 57.3126 123.249 57.3876 125.246C57.3969 125.519 57.9467 125.995 58.2497 125.998C60.4208 126.014 62.6012 126.039 64.7629 125.852C66.6809 125.687 67.5337 124.614 67.5649 122.795C67.5993 120.724 66.6777 119.334 64.7535 119.188C62.3513 119.004 59.9241 119.144 57.347 119.144V119.141ZM57.4688 109.183V115.067C59.9241 114.933 62.2607 114.936 64.5536 114.632C66.0499 114.433 66.5747 113.161 66.5434 111.724C66.5122 110.349 65.7594 109.329 64.4505 109.233C62.1514 109.062 59.8272 109.186 57.4688 109.186V109.183Z" fill="#3A2911"/>
<path d="M0.847412 104.497H6.74738V114.277H17.2613V104.51H23.2083C23.2491 105.077 23.3181 105.622 23.3181 106.167C23.3243 113.744 23.2867 121.324 23.3557 128.902C23.3682 130.326 22.9448 130.828 21.5083 130.713C20.1689 130.605 18.817 130.692 17.2801 130.692V119.507H6.81952V130.58H0.847412V104.504V104.497Z" fill="#3A2911"/>
<path d="M27.9284 130.557V104.497H47.5458V109.416H33.8642C33.8642 111.051 33.7861 112.485 33.9235 113.897C33.9547 114.216 34.7442 114.693 35.1905 114.703C38.4611 114.774 41.7317 114.792 44.9992 114.715C46.2569 114.684 46.6626 115.127 46.569 116.313C46.4941 117.276 46.5534 118.252 46.5534 119.364H33.8798C33.8798 121.321 33.8298 123.148 33.9422 124.97C33.9578 125.205 34.7973 125.564 35.2592 125.57C38.8419 125.62 42.4214 125.595 46.0041 125.605C46.6126 125.605 47.2181 125.666 47.8953 125.701V130.56H27.9253L27.9284 130.557Z" fill="#3A2911"/>
<path d="M83.0924 119.439C83.0924 121.323 83.1205 122.971 83.083 124.619C83.061 125.64 83.7184 125.622 84.4289 125.622C88.0223 125.619 91.6156 125.619 95.2089 125.625C95.8224 125.625 96.4328 125.675 97.1433 125.706V130.56H77.1733V104.497H96.8491V109.364H83.108C83.108 111.053 83.0423 112.53 83.1643 113.995C83.1863 114.274 83.9469 114.7 84.3726 114.706C87.5997 114.768 90.8299 114.818 94.0571 114.706C95.547 114.656 95.9946 115.187 95.8631 116.565C95.7755 117.471 95.8475 118.396 95.8475 119.436H83.0955L83.0924 119.439Z" fill="#3A2911"/>
</svg>
