<svg width="141" height="40" viewBox="0 0 141 40" fill="none" xmlns="http://www.w3.org/2000/svg">
<path d="M35.2908 25.5975C34.226 25.2101 33.2162 24.8505 32.2147 24.47C32.0672 24.4143 31.9501 24.2668 31.8317 24.1484C30.1154 22.4347 28.3973 20.7229 26.6873 19.0028C25.5433 17.8518 24.426 16.6731 23.2655 15.5392C22.8287 15.1125 22.5679 14.5928 22.2849 14.08C20.8402 11.4616 19.4107 8.83557 17.9585 6.22223C17.8122 5.95887 17.5786 5.7221 17.3361 5.53851C16.2618 4.72374 15.1691 3.93302 14.084 3.13218C14.0182 3.08343 13.9587 3.02519 13.8416 2.9239C14.1214 2.76246 14.3619 2.61053 14.6139 2.48074C15.5882 1.97935 16.5625 1.47858 17.5451 0.993648C17.7267 0.903751 17.9439 0.861335 18.1484 0.844875C19.9083 0.702432 21.6695 0.572018 23.4301 0.435907C23.6606 0.418181 23.8897 0.389059 24.1189 0.358038C24.9723 0.243451 25.7706 0.396656 26.5822 0.698634C29.6406 1.83564 32.7161 2.92833 35.7891 4.02609C36.0834 4.13118 36.281 4.28438 36.4456 4.55787C37.4882 6.2906 38.5486 8.0132 39.6122 9.73391C39.7971 10.0327 39.8534 10.3132 39.8047 10.6772C39.4432 13.3652 39.1216 16.059 38.7677 18.7483C38.7221 19.0939 38.6132 19.4497 38.4518 19.758C37.5123 21.5484 36.5487 23.3261 35.5915 25.1063C35.513 25.2519 35.4187 25.3893 35.2896 25.5982L35.2908 25.5975Z" fill="#3A2911"/>
<path d="M91.094 23.2685C89.7898 27.5012 88.4857 31.7334 87.1765 35.9819H84.2846C83.0305 31.8942 81.7694 27.783 80.5083 23.6718C80.4754 23.673 80.4424 23.6749 80.4102 23.6762C80.3962 23.8288 80.3709 23.9807 80.3703 24.1333C80.3684 27.6133 80.3595 31.094 80.3804 34.574C80.3829 35.0418 80.5399 35.5084 80.6273 35.9876H78.1387C78.5173 35.3362 78.5134 34.6455 78.5122 33.9479C78.5059 29.3922 78.5059 24.836 78.5128 20.2804C78.5134 19.7049 78.4717 19.1484 78.1703 18.6375C78.6641 18.509 82.4164 18.4881 83.1248 18.6122C84.334 22.5449 85.5495 26.4997 86.765 30.4545C86.8137 30.4577 86.8618 30.4609 86.9106 30.464C88.147 26.5244 89.322 22.5651 90.5634 18.5793H95.5135C95.0982 19.2301 95.095 19.9201 95.0956 20.6165C95.1001 25.0671 95.1013 29.5176 95.0944 33.9681C95.0931 34.6468 95.1298 35.3109 95.4831 35.9731H90.866C91.2864 35.3052 91.2548 34.5898 91.2535 33.8751C91.2484 30.585 91.251 27.2942 91.251 24.0041C91.251 23.7731 91.251 23.542 91.251 23.3109L91.094 23.2685Z" fill="#3A2911"/>
<path d="M70.7665 24.5865C68.8198 28.3799 66.8724 32.1727 64.9168 35.9819H61.571C61.9566 35.302 61.9306 34.5733 61.93 33.844C61.9249 29.4371 61.9275 25.0303 61.9275 20.6235C61.9275 19.9321 61.9965 19.2307 61.5305 18.5634H66.1722C65.7171 19.3649 65.8158 20.2094 65.8145 21.04C65.8107 23.6755 65.8133 26.3116 65.8133 28.9471C65.8133 29.177 65.8133 29.4061 65.8133 29.6359C65.8494 29.6492 65.8848 29.6625 65.9209 29.6758C66.1646 29.2282 66.4179 28.7851 66.6502 28.3318C67.7062 26.2699 68.7565 24.2048 69.8093 22.1409C70.3455 21.09 70.8887 20.0429 71.4154 18.9882C71.5724 18.6736 71.7661 18.514 72.1466 18.5267C73.0101 18.5552 73.8755 18.5337 74.7397 18.5368C74.8593 18.5368 74.979 18.5603 75.1417 18.5773C74.7428 19.325 74.7207 20.0993 74.7213 20.8779C74.7226 25.243 74.7188 29.6074 74.7251 33.9725C74.7257 34.6467 74.777 35.3191 75.1809 35.9673H70.536C70.9007 35.3893 70.9222 34.7658 70.9203 34.1282C70.9108 31.1762 70.9165 28.2242 70.9146 25.2721C70.9146 25.0525 70.895 24.8328 70.8849 24.6131C70.8456 24.6049 70.8057 24.5966 70.7665 24.5884V24.5865Z" fill="#3A2911"/>
<path d="M127.522 18.5728C127.697 18.5564 127.819 18.5342 127.941 18.5342C131.061 18.533 134.181 18.5355 137.302 18.533C138.423 18.5323 139.284 19.0021 139.906 19.9327C140.249 20.4455 140.35 21.0266 140.354 21.6167C140.371 23.7457 140.37 25.8754 140.36 28.0044C140.354 29.1832 139.891 30.1227 138.846 30.7368C138.316 31.0483 137.737 31.1128 137.142 31.1141C135.603 31.1173 134.064 31.116 132.525 31.116C132.298 31.116 132.07 31.116 131.809 31.116C131.787 31.3376 131.758 31.499 131.757 31.6598C131.753 32.4606 131.763 33.2621 131.753 34.063C131.744 34.7195 131.757 35.3671 132.161 35.985H127.462C127.932 35.3747 127.871 34.6998 127.871 34.0313C127.868 29.4985 127.866 24.9657 127.873 20.4328C127.873 19.7997 127.89 19.1711 127.522 18.5709L127.522 18.5728ZM131.801 20.9912V28.6502C133.044 28.6502 134.243 28.6843 135.438 28.6362C136.058 28.6109 136.472 28.0297 136.475 27.3378C136.48 25.6513 136.482 23.9648 136.474 22.2782C136.469 21.4356 136.035 21.0108 135.178 20.9937C134.63 20.983 134.082 20.9912 133.534 20.9912C132.969 20.9912 132.405 20.9912 131.801 20.9912Z" fill="#3A2911"/>
<path d="M103.154 35.9831H98.5598C98.965 35.2107 98.9751 34.4169 98.9745 33.6166C98.9688 29.232 98.9713 24.8466 98.9719 20.4619C98.9719 19.827 98.9219 19.2034 98.5782 18.6393C99.0467 18.5133 102.227 18.4779 103.157 18.5868C102.731 19.4123 102.769 20.2967 102.77 21.1773C102.773 23.2013 102.77 25.2252 102.77 27.2492C102.77 27.479 102.77 27.7088 102.827 27.962C103.554 26.9921 104.103 25.9222 104.72 24.896C105.338 23.8673 105.932 22.8246 106.532 21.7851C107.14 20.7297 107.742 19.6712 108.374 18.5646H110.85C110.318 19.5649 109.782 20.5563 109.261 21.5553C108.717 22.6011 108.197 23.6596 107.648 24.7036C107.489 25.0055 107.458 25.2638 107.593 25.5937C108.88 28.7527 110.146 31.92 111.429 35.0809C111.546 35.369 111.734 35.6292 111.89 35.9046C111.885 35.9198 111.882 35.9426 111.87 35.959C111.86 35.9736 111.841 35.9913 111.826 35.9913C110.415 35.9926 109.004 35.9926 107.512 35.9926C106.565 33.8021 105.608 31.5895 104.618 29.3003C104.421 29.5687 104.261 29.7827 104.106 29.9999C103.959 30.2056 103.811 30.4107 103.676 30.6241C103.372 31.1002 103.077 31.5813 102.778 32.0605C102.816 33.1317 102.841 34.2035 102.903 35.2734C102.917 35.5083 103.063 35.7355 103.154 35.9837V35.9831Z" fill="#3A2911"/>
<path d="M49.5224 31.1167C49.6401 32.7956 49.2622 34.3998 49.9142 35.9736H45.3257C45.7992 35.1912 45.7271 34.3321 45.7271 33.4831C45.7271 29.1605 45.7245 24.8385 45.7302 20.5158C45.7309 19.8593 45.6929 19.2167 45.3434 18.5792C45.558 18.5609 45.7169 18.5349 45.8758 18.5349C48.9121 18.533 51.9483 18.5412 54.9845 18.5305C56.2577 18.5261 57.2446 19.0192 57.8258 20.1613C58.0182 20.5392 58.1195 21.0039 58.1246 21.4312C58.1531 23.7078 58.1259 25.9856 58.143 28.2628C58.1544 29.7872 56.7787 31.1458 55.1346 31.1211C53.5323 31.0964 51.9299 31.1167 50.327 31.1173C50.0985 31.1173 49.8699 31.1173 49.5211 31.1173L49.5224 31.1167ZM49.5648 28.616C49.806 28.6331 49.9902 28.6565 50.1744 28.6572C51.0595 28.6603 51.9439 28.6616 52.8289 28.6565C53.814 28.6509 54.3192 28.1786 54.3299 27.1922C54.3477 25.5912 54.3331 23.9901 54.3299 22.3891C54.3299 22.2846 54.3173 22.1789 54.3002 22.0751C54.1951 21.4376 53.8013 21.0197 53.1663 21.0058C52.0097 20.9811 50.8512 21.0134 49.6939 21.0261C49.6604 21.0261 49.6274 21.0717 49.5648 21.1172V28.616Z" fill="#3A2911"/>
<path d="M113.637 18.5602H124.52C124.709 19.5732 124.895 20.5721 125.081 21.5711C124.539 21.0457 123.922 20.9697 123.241 20.9824C121.702 21.0109 120.162 20.9912 118.621 20.9912C118.413 20.9912 118.205 20.9912 118.013 20.9912C117.85 21.4863 117.824 25.3512 117.977 26.0483C118.4 26.0483 118.839 26.0483 119.277 26.0483C119.91 26.0483 120.543 26.0464 121.176 26.0483C121.681 26.0502 122.13 25.9267 122.515 25.3753V29.1174C122.051 28.5173 121.483 28.447 120.883 28.4546C120.124 28.4647 119.365 28.4571 118.605 28.4578C118.398 28.4578 118.191 28.4578 117.898 28.4578C117.865 30.1753 117.881 31.8283 117.888 33.5521C118.153 33.5686 118.376 33.5933 118.599 33.5933C120.117 33.5971 121.636 33.5781 123.155 33.6034C123.859 33.6154 124.505 33.5515 125.006 32.9317C124.927 33.9662 124.707 34.9468 124.529 35.9692H113.657C114.066 35.2855 114.035 34.5492 114.035 33.8136C114.031 29.2573 114.031 24.7011 114.035 20.1448C114.035 19.6105 113.96 19.1002 113.636 18.559L113.637 18.5602Z" fill="#3A2911"/>
<path d="M18.9321 24.1041C20.3774 24.6276 21.6639 25.3759 22.9591 26.2819C24.2506 24.967 25.5269 23.6666 26.8114 22.3581C27.1982 22.5195 27.542 22.6632 27.9541 22.8348C27.528 23.6369 27.1292 24.3934 26.7228 25.1455C26.6854 25.2151 26.6044 25.2626 26.5398 25.3152C25.5237 26.1331 24.507 26.951 23.4884 27.7658C23.4244 27.8171 23.3396 27.8418 23.2567 27.8829C22.3799 27.3828 21.5062 26.8839 20.5914 26.3616C20.228 27.0289 19.8843 27.6525 19.5487 28.2805C19.3006 28.7445 19.0758 29.2219 18.8125 29.6777C18.7004 29.8714 18.5384 30.0487 18.3636 30.1905C17.1367 31.1844 15.9003 32.167 14.6684 33.1546C14.4734 33.3109 14.2853 33.4768 14.0517 33.6737C15.0856 35.6489 16.1067 37.5988 17.1684 39.6271H16.2428C15.2476 37.9064 14.2296 36.1465 13.187 34.3441C12.5938 34.8101 12.0538 35.2342 11.4916 35.6761C7.78618 33.6509 4.09978 31.6358 0.300049 29.5593C1.69598 28.7293 3.00455 27.9519 4.36314 27.1448C6.58713 28.5673 8.81683 29.993 11.0946 31.4497C13.7168 28.9921 16.3213 26.5516 18.9328 24.1041H18.9321Z" fill="#3A2911"/>
<path d="M42.0254 36.5339C40.839 36.2535 39.7185 35.9889 38.5979 35.723C38.2092 35.6305 37.8243 35.516 37.4318 35.4444C35.7725 35.1431 34.3202 34.2967 32.7761 33.6921C32.678 33.6534 32.5888 33.5889 32.4887 33.5617C31.0776 33.1786 30.1141 32.1955 29.1796 31.149C28.4231 30.3019 27.6058 29.5093 26.7803 28.6566C27.364 26.9093 27.9477 25.1639 28.5504 23.3596C29.0093 23.6603 29.4208 23.9123 29.8133 24.1908C30.9706 25.0113 32.2418 25.6159 33.5206 26.2154C35.3509 27.0732 37.1634 27.9691 38.9879 28.8395C39.2538 28.9661 39.4146 29.1472 39.5146 29.4232C40.3408 31.6985 41.1764 33.97 42.0064 36.2434C42.0273 36.2997 42.0159 36.3681 42.0254 36.5327V36.5339Z" fill="#3A2911"/>
<path d="M9.37148 12.2485C9.18409 11.7192 9.01569 11.2722 8.87135 10.8183C8.83716 10.7113 8.85299 10.5664 8.89604 10.4594C9.17649 9.76489 9.53228 9.2464 10.3774 9.01406C11.1283 8.80768 11.6246 8.90011 12.1963 9.36732C13.1896 10.1789 14.2436 10.9171 15.2528 11.7103C15.4712 11.8819 15.6617 12.1332 15.7725 12.3884C16.1422 13.2361 16.4866 14.0958 16.8038 14.9644C16.9222 15.2879 17.1146 15.4328 17.4324 15.4784C17.8275 15.5354 18.2219 15.6006 18.6144 15.674C18.7315 15.6962 18.841 15.7589 18.9797 15.8133C18.9569 15.9798 18.9056 16.1254 18.924 16.2609C19.0303 17.0491 18.61 17.5258 18.0421 17.9974C16.2632 19.4744 14.5203 20.9944 12.7622 22.4961C12.7002 22.5492 12.623 22.5834 12.4862 22.667C12.3216 22.1713 12.1621 21.7079 12.0127 21.2407C11.7639 20.4595 11.5322 19.6725 11.2707 18.8958C11.1764 18.6159 11.1618 18.3861 11.3384 18.1272C11.5986 17.7455 11.8303 17.3422 12.05 16.9345C12.2058 16.6458 12.4077 16.5198 12.7464 16.5008C13.8575 16.4382 14.966 16.3394 16.0751 16.2501C16.1758 16.2419 16.2733 16.2027 16.4467 16.1596C16.3448 15.9285 16.2676 15.7221 16.1657 15.5284C15.6655 14.5788 15.1496 13.6381 14.6602 12.6827C14.5235 12.4156 14.3386 12.27 14.0588 12.1794C13.0174 11.8433 11.9779 11.4995 10.9459 11.1342C10.6117 11.0159 10.392 11.0937 10.1786 11.3558C9.94504 11.6432 9.68168 11.9072 9.37084 12.2478L9.37148 12.2485Z" fill="#3A2911"/>
<path d="M7.1985 21.5408C5.95641 20.5082 4.79978 19.5472 3.61719 18.5653C5.21254 16.787 6.75282 15.0701 8.34437 13.2956C8.71915 13.8628 9.07494 14.3762 9.39718 14.9105C9.46935 15.0296 9.46302 15.2334 9.42124 15.3778C9.19776 16.145 8.96859 16.9111 8.70206 17.6638C8.63179 17.8619 8.44693 18.0474 8.2684 18.1741C7.87716 18.4526 7.45617 18.69 6.90412 19.0331C7.36817 19.1211 7.6923 19.1819 8.08481 19.2566C7.79676 19.9979 7.51884 20.7152 7.19787 21.5414L7.1985 21.5408Z" fill="#3A2911"/>
<path d="M9.60107 7.87455C9.8562 7.33137 10.0949 6.82174 10.3443 6.29059C10.4886 6.30768 10.6165 6.29882 10.7267 6.33934C11.6149 6.66727 12.5063 6.98887 13.3812 7.34909C13.6192 7.44722 13.8427 7.63904 14.0117 7.83973C16.1781 10.4164 18.3135 13.0189 20.5058 15.5734C21.0604 16.2198 21.7701 16.7376 22.4361 17.2814C23.9839 18.5463 25.5489 19.7903 27.105 21.0451C27.2323 21.1476 27.3469 21.2673 27.4228 21.4509C27.3253 21.4009 27.2202 21.3622 27.1316 21.2996C25.0906 19.8467 23.0476 18.395 21.0148 16.9313C20.6755 16.687 20.3545 16.4072 20.0627 16.1071C18.2559 14.2515 16.4605 12.3852 14.6613 10.5221C14.1491 9.99219 13.63 9.46863 13.1324 8.92545C12.8614 8.62981 12.5493 8.4747 12.153 8.41646C11.4459 8.31264 10.7444 8.17209 10.0423 8.03661C9.90558 8.01003 9.77707 7.93975 9.60234 7.87391L9.60107 7.87455Z" fill="#3A2911"/>
<path d="M64.1186 15.0132H63.4818C63.4609 14.6909 63.4413 14.3845 63.4191 14.0325H61.0413C61.021 14.3307 60.9995 14.6352 60.9748 14.998C60.7665 15.0119 60.5696 15.0252 60.3271 15.041V13.1804C60.7051 13.0665 60.8703 12.7183 60.9317 12.3131C61.0444 11.5692 61.1419 10.8222 61.2533 10.0233H63.8388C63.8388 10.4791 63.8388 10.9153 63.8388 11.3514C63.8388 11.7516 63.8382 12.1517 63.8395 12.5518C63.8395 12.6569 63.804 12.8044 63.8591 12.8601C64.4111 13.4241 64.0832 14.1218 64.1636 14.7555C64.1712 14.8137 64.144 14.8764 64.1186 15.0138V15.0132ZM61.6243 13.0551H62.9221C62.9437 12.3156 62.9683 11.6161 62.9082 10.9197H61.9434C61.8339 11.6534 61.7326 12.3346 61.625 13.0551H61.6243Z" fill="#3A2911"/>
<path d="M80.5714 10.0092H81.585C81.8211 10.8354 82.0611 11.6742 82.3016 12.5137C82.3358 12.5156 82.3706 12.5168 82.4048 12.5187C82.6739 11.6862 82.9429 10.8531 83.2171 10.0042H84.1977C84.2313 11.3102 84.2053 12.6029 84.211 13.9254C84.0648 13.9508 83.9679 13.9754 83.8698 13.9811C83.7887 13.9856 83.7064 13.9672 83.557 13.9527V11.8426C83.0879 12.4839 82.998 13.243 82.6979 13.9514H81.9674C81.773 13.2841 81.5768 12.6093 81.3805 11.9344C81.3432 11.9376 81.3058 11.9401 81.2691 11.9433V13.9438H80.5708V10.0092H80.5714Z" fill="#3A2911"/>
<path d="M121.831 10.0024C122.172 10.0201 122.536 9.78206 122.709 10.291C122.781 10.2556 122.858 10.2315 122.919 10.1866C123.717 9.59846 124.498 10.0631 124.789 10.8311C125.05 11.518 125.05 12.2384 124.841 12.9424C124.522 14.0173 123.764 14.2953 122.778 13.6831C122.615 13.9572 122.712 14.2541 122.695 14.5314C122.677 14.8226 122.691 15.1164 122.691 15.4576H121.831V10.0024ZM124.106 11.9453C124.061 11.7028 124.04 11.4711 123.973 11.2533C123.887 10.976 123.701 10.7545 123.39 10.757C123.087 10.7595 122.885 10.9646 122.793 11.2426C122.63 11.7376 122.641 12.2384 122.842 12.7221C122.944 12.9677 123.121 13.1526 123.418 13.1304C123.701 13.1089 123.887 12.9411 123.961 12.6765C124.028 12.4365 124.06 12.1871 124.107 11.9453H124.106Z" fill="#3A2911"/>
<path d="M74.0407 13.6678V15.4576H73.2614C73.1234 15.0486 73.0918 10.757 73.2348 9.9998C73.5349 9.99473 73.8907 9.79468 74.0167 10.2872C74.0762 10.272 74.1262 10.2746 74.1541 10.2511C75.0973 9.47181 76.0052 10.2258 76.209 11.0767C76.3762 11.773 76.3616 12.4549 76.1166 13.1234C75.8811 13.7666 75.3221 14.1325 74.7637 14.0027C74.5478 13.9527 74.3522 13.816 74.0401 13.6678H74.0407ZM73.9939 11.9446C74.0642 12.2206 74.1117 12.5112 74.2136 12.7809C74.2997 13.0094 74.5054 13.1937 74.7536 13.119C74.9517 13.0595 75.1948 12.9056 75.2721 12.7296C75.4987 12.213 75.5202 11.654 75.2468 11.145C75.1531 10.9703 74.9049 10.7778 74.7264 10.7772C74.544 10.7766 74.2946 10.9627 74.1952 11.1368C74.0673 11.3609 74.0591 11.6534 73.9933 11.944L73.9939 11.9446Z" fill="#3A2911"/>
<path d="M46.8518 11.6907V10.8804C47.2925 10.7506 47.8325 10.6886 47.8306 10.0454C47.8299 9.7434 47.6774 9.53385 47.3881 9.42116C46.8291 9.20401 46.5258 9.54714 46.2435 9.97257C45.9744 9.889 45.7224 9.80987 45.4781 9.7339C45.6585 8.81151 46.1181 8.43039 47.0101 8.41077C47.9148 8.39051 48.5099 8.78998 48.6884 9.53005C48.7891 9.94788 48.6871 10.3227 48.4491 10.6639C48.3541 10.7994 48.2269 10.9121 48.0199 11.1393C48.1376 11.2045 48.2636 11.2457 48.3522 11.328C48.8511 11.7901 48.9689 12.3574 48.7707 12.9949C48.5725 13.633 48.0996 13.935 47.4653 14.0135C46.2694 14.1616 45.6503 13.7615 45.4021 12.6707C45.5097 12.6201 45.6199 12.5619 45.7357 12.5163C45.8712 12.4631 46.0105 12.4207 46.1801 12.3631C46.2549 12.4688 46.3251 12.5663 46.3929 12.6663C46.686 13.1 47.1589 13.2411 47.59 12.9601C47.759 12.8499 47.9338 12.6024 47.9319 12.4188C47.93 12.2346 47.7483 11.9984 47.5786 11.8845C47.3995 11.7642 47.1418 11.761 46.8525 11.6901L46.8518 11.6907Z" fill="#3A2911"/>
<path d="M53.0838 9.97763C53.8321 9.97763 54.5026 9.94344 55.1679 9.98649C55.9966 10.0397 56.4005 10.8703 55.989 11.6135C55.92 11.7382 55.8213 11.8458 55.7883 11.8895C55.9548 12.2485 56.177 12.5435 56.2226 12.8638C56.3106 13.4817 55.9207 13.9407 55.2983 13.9749C54.5893 14.0141 53.8771 13.9837 53.0743 13.9837C53.0648 12.6505 53.0591 11.3615 53.0832 9.97699L53.0838 9.97763ZM53.9999 13.2576C54.3177 13.2576 54.5868 13.276 54.8514 13.2525C55.173 13.224 55.3484 13.0424 55.3357 12.7885C55.3211 12.5061 55.135 12.3802 54.883 12.3631C54.6001 12.3441 54.3145 12.3586 53.9999 12.3586V13.257V13.2576ZM53.9999 11.6154C54.2588 11.6154 54.4652 11.6287 54.6691 11.6122C55.0343 11.5831 55.2224 11.4122 55.2097 11.1349C55.1951 10.8095 54.9628 10.7228 54.695 10.7044C54.4741 10.6892 54.2512 10.7012 53.9993 10.7012V11.6154H53.9999Z" fill="#3A2911"/>
<path d="M129.426 10.0087H130.259V12.0687C130.307 12.0814 130.354 12.094 130.402 12.1061C130.815 11.4527 131.017 10.6861 131.429 10.0005H132.282C132.407 10.4449 132.441 13.0145 132.329 13.9559C132.1 13.9661 131.859 13.9768 131.536 13.9914C131.455 13.245 131.527 12.5138 131.439 11.7718C130.958 12.4429 130.757 13.2564 130.332 13.9528H129.425V10.0093L129.426 10.0087Z" fill="#3A2911"/>
<path d="M88.0526 13.9533H87.2309V11.8053C87.1859 11.7914 87.141 11.7781 87.0966 11.7642C86.6567 12.4479 86.4522 13.2582 86.0362 13.9489H85.1252V10.0061C85.374 9.99407 85.6152 9.98204 85.9514 9.96622C85.9717 10.6879 85.9919 11.3849 86.0116 12.082C86.0502 12.0927 86.0888 12.1035 86.1274 12.1142C86.4579 11.4071 86.7883 10.6993 87.1118 10.0067H88.0532V13.954L88.0526 13.9533Z" fill="#3A2911"/>
<path d="M119.955 9.99289H120.795C120.944 10.4411 120.989 12.8189 120.868 13.9344H120.025V11.8332L119.881 11.8029C119.755 12.0776 119.629 12.3517 119.505 12.6278C119.411 12.8386 119.322 13.0525 119.228 13.2634C119.007 13.7618 118.592 13.9922 117.985 13.9547C117.924 12.6524 117.968 11.3445 117.955 10.0049H118.832V12.0782C118.879 12.0896 118.927 12.101 118.973 12.1131C119.293 11.423 119.612 10.7323 119.955 9.99289H119.955Z" fill="#3A2911"/>
<path d="M52.3122 13.9666C51.9944 13.9749 51.6316 14.1186 51.4145 13.6798C51.2771 13.7564 51.1549 13.8349 51.0245 13.8957C50.3908 14.1933 49.79 14.009 49.5254 13.4412C49.2265 12.8005 49.4658 12.0465 50.0818 11.7787C50.368 11.654 50.689 11.6116 50.9827 11.5002C51.1239 11.4463 51.317 11.3375 51.3417 11.2222C51.3676 11.1045 51.248 10.8753 51.1353 10.8266C50.9871 10.762 50.7668 10.786 50.6079 10.8481C50.4914 10.8937 50.4231 11.0627 50.2952 11.2241C50.0844 11.1798 49.847 11.1298 49.6115 11.0804C49.7216 10.303 50.0356 9.98331 50.7282 9.93772C50.9574 9.92253 51.1948 9.9257 51.4189 9.96811C51.8184 10.0441 52.121 10.2581 52.1893 10.6917C52.2311 10.9595 52.2621 11.2311 52.2697 11.5021C52.2913 12.2978 52.2989 13.0942 52.3128 13.9666H52.3122ZM51.3005 12.1206C51.065 12.187 50.8276 12.2117 50.6396 12.3213C50.4978 12.4036 50.3363 12.5928 50.3344 12.7372C50.3319 12.8841 50.4857 13.1101 50.6225 13.1607C50.758 13.2107 50.9966 13.1297 51.1213 13.0246C51.3796 12.8068 51.4366 12.5049 51.3005 12.1212V12.1206Z" fill="#3A2911"/>
<path d="M78.7457 13.6792C78.628 13.7482 78.5242 13.8166 78.414 13.8717C77.7512 14.2009 77.1371 14.0261 76.8611 13.4342C76.5528 12.7714 76.825 12.0142 77.484 11.7534C77.7556 11.6458 78.0456 11.5812 78.3292 11.5065C78.5767 11.4413 78.7831 11.352 78.6729 11.0361C78.5818 10.7734 78.2443 10.6525 77.9936 10.8139C77.8601 10.9 77.7695 11.0526 77.6163 11.2235C77.4156 11.1798 77.1782 11.1273 76.9174 11.0703C76.9763 10.5569 77.1782 10.1618 77.6423 10.0238C78.1924 9.86048 78.7679 9.81364 79.2655 10.2118C79.5573 10.4454 79.577 10.8006 79.601 11.1304C79.6301 11.528 79.601 11.93 79.6105 12.3295C79.6232 12.8524 79.6504 13.3747 79.6726 13.935C79.351 14.0014 78.992 14.116 78.7445 13.6786L78.7457 13.6792ZM78.6343 12.1206C78.4007 12.187 78.1633 12.2124 77.9746 12.3225C77.8335 12.4055 77.6733 12.596 77.6727 12.7404C77.672 12.8872 77.8271 13.112 77.9652 13.1613C78.1013 13.2101 78.3399 13.1278 78.4634 13.0214C78.7185 12.8024 78.7799 12.501 78.6343 12.1212V12.1206Z" fill="#3A2911"/>
<path d="M139.702 13.9515C139.35 13.9617 138.984 14.1446 138.758 13.673C138.629 13.7458 138.508 13.8217 138.38 13.8844C137.75 14.1921 137.134 14.0212 136.864 13.4679C136.546 12.8183 136.805 12.0276 137.447 11.763C137.737 11.6433 138.054 11.5927 138.353 11.4946C138.691 11.3844 138.769 11.2451 138.658 11.0064C138.549 10.7735 138.246 10.6589 138.017 10.8039C137.865 10.8995 137.758 11.0641 137.598 11.2312C137.381 11.1793 137.143 11.1223 136.905 11.0653C137.162 10.0283 138.189 9.58772 139.073 10.0765C139.487 10.305 139.557 10.6931 139.593 11.0919C139.623 11.4262 139.601 11.7655 139.602 12.1029C139.602 12.4188 139.59 12.736 139.606 13.0513C139.621 13.3406 139.667 13.628 139.703 13.9522L139.702 13.9515ZM138.648 12.1162C138.36 12.1998 138.13 12.2384 137.926 12.3327C137.629 12.4695 137.563 12.7607 137.739 13.0101C137.903 13.2431 138.15 13.2798 138.396 13.0861C138.69 12.8538 138.763 12.5486 138.649 12.1156L138.648 12.1162Z" fill="#3A2911"/>
<path d="M126.494 13.9533H125.635V10.0143H128.472C128.551 11.3134 128.51 12.6049 128.496 13.9413H127.64C127.579 12.9423 127.65 11.9199 127.597 10.8646H126.493V13.954L126.494 13.9533Z" fill="#3A2911"/>
<path d="M108.995 12.0743C109.039 11.3919 109.152 10.8455 109.573 10.4106C110.333 9.6256 111.557 9.78893 112.071 10.7544C112.507 11.5736 112.509 12.4029 112.058 13.2189C111.731 13.8121 111.214 14.0806 110.542 14.0248C109.859 13.9679 109.43 13.55 109.185 12.9537C109.06 12.6498 109.041 12.3029 108.994 12.0743H108.995ZM111.568 11.973C111.454 11.6711 111.392 11.3754 111.241 11.138C110.973 10.717 110.508 10.7145 110.184 11.0905C109.818 11.5141 109.811 12.4251 110.171 12.8575C110.491 13.2424 110.943 13.2595 111.23 12.8423C111.398 12.5966 111.456 12.275 111.568 11.9737L111.568 11.973Z" fill="#3A2911"/>
<path d="M106.011 12.0136C105.874 12.4257 105.784 12.8385 105.603 13.2063C105.304 13.8134 104.77 14.0755 104.099 14.0242C103.447 13.9742 103.003 13.6026 102.764 13.0208C102.474 12.3143 102.46 11.5844 102.794 10.8835C103.065 10.3176 103.504 9.95419 104.163 9.92887C104.842 9.90228 105.355 10.191 105.633 10.8038C105.803 11.1779 105.883 11.5926 106.01 12.0136H106.011ZM105.101 11.9788C105.012 11.7154 104.964 11.4407 104.834 11.2115C104.544 10.6981 104.001 10.6879 103.664 11.164C103.385 11.5578 103.381 12.3852 103.657 12.7866C103.985 13.2633 104.544 13.2671 104.837 12.7657C104.97 12.5397 105.01 12.2592 105.1 11.9788H105.101Z" fill="#3A2911"/>
<path d="M56.7192 12.0206C56.7844 11.34 56.9066 10.7766 57.3688 10.3429C58.0721 9.68262 59.2193 9.79911 59.7219 10.6196C60.2448 11.4736 60.2733 12.3637 59.77 13.2468C59.432 13.84 58.9021 14.0876 58.2374 14.0224C57.5878 13.9591 57.1592 13.5609 56.9282 12.9816C56.799 12.6575 56.7749 12.2909 56.7192 12.0206ZM59.2965 11.9579C59.1819 11.6642 59.1161 11.3704 58.9635 11.1336C58.6925 10.7126 58.2393 10.7145 57.9075 11.0963C57.541 11.5185 57.5384 12.434 57.9031 12.8607C58.2279 13.2405 58.6881 13.2538 58.9635 12.8379C59.1287 12.5884 59.1838 12.2668 59.2959 11.9579H59.2965Z" fill="#3A2911"/>
<path d="M95.4217 12.2751H93.3256C93.3959 12.7163 93.4782 13.0221 93.846 13.1683C94.2632 13.3342 94.3695 12.9265 94.631 12.7334C94.8589 12.7803 95.102 12.8303 95.3445 12.8797C95.214 13.5678 94.9203 13.904 94.3334 13.9996C93.739 14.0964 93.1806 14.0167 92.8337 13.452C92.2664 12.5296 92.2873 11.5692 92.7773 10.6322C93.0401 10.1296 93.4978 9.87698 94.0865 9.93206C94.6405 9.98397 95.0241 10.2821 95.2457 10.7816C95.4439 11.228 95.53 11.6945 95.4211 12.2751H95.4217ZM94.5278 11.5895C94.5088 11.0437 94.3024 10.7487 93.9612 10.75C93.6143 10.7519 93.4357 11.0165 93.411 11.5895H94.5278Z" fill="#3A2911"/>
<path d="M72.591 12.2523H70.4379C70.3492 12.686 70.491 12.9639 70.8164 13.1393C71.2412 13.3684 71.4014 12.9747 71.6325 12.7278C71.8838 12.7809 72.1263 12.8322 72.3675 12.8829C72.2447 13.5628 71.9338 13.897 71.3463 14.0085C70.7025 14.1307 70.1042 13.9008 69.8162 13.3874C69.3407 12.5385 69.3407 11.6458 69.7231 10.7785C69.9662 10.2277 70.4182 9.88397 71.0754 9.93209C71.7154 9.9783 72.1358 10.3259 72.3194 10.9222C72.4409 11.316 72.4878 11.7332 72.5903 12.2523H72.591ZM71.5951 11.5933C71.4881 10.9862 71.2875 10.7348 70.9646 10.7507C70.6303 10.7671 70.4417 11.0634 70.4448 11.5933H71.5951Z" fill="#3A2911"/>
<path d="M69.187 13.9579H68.2855C68.0627 13.4267 67.8399 12.8968 67.5632 12.2378C67.2467 12.8683 67.4815 13.4027 67.322 13.9357H66.5237V10.0094H67.353C67.3701 10.526 67.3866 11.0337 67.4037 11.5414C67.4505 11.5503 67.4974 11.5591 67.5436 11.5686C67.6183 11.4363 67.7075 11.3091 67.7645 11.1692C67.8354 10.9951 67.8753 10.8083 67.9373 10.6298C68.1507 10.0119 68.333 9.90428 69.0668 9.98405C69.0794 10.155 69.0933 10.3348 69.1085 10.538C68.3539 10.6925 68.6204 11.5174 68.1254 11.882C68.7471 12.4417 68.9357 13.1836 69.1864 13.9579H69.187Z" fill="#3A2911"/>
<path d="M99.6443 10.0005H100.47V11.6541C100.653 11.4806 100.762 11.4211 100.801 11.3306C100.893 11.1191 100.95 10.8925 101.022 10.6728C101.235 10.0296 101.386 9.92703 102.109 9.95868C102.199 10.2334 102.315 10.4898 101.92 10.6747C101.794 10.7336 101.714 10.9254 101.647 11.071C101.516 11.3521 101.409 11.6439 101.286 11.9446C101.878 12.4492 101.997 13.2133 102.312 13.9553H101.411C101.045 13.4963 101.091 12.8044 100.522 12.2618V13.9325H99.6443V10.0005Z" fill="#3A2911"/>
<path d="M115.886 11.5692C115.996 11.2647 116.113 10.9634 116.213 10.6557C116.376 10.1474 116.649 9.7884 117.314 9.98022C117.391 10.2524 117.472 10.5069 117.092 10.6855C116.968 10.7437 116.899 10.9425 116.83 11.0887C116.707 11.3527 116.603 11.6256 116.497 11.8807C116.687 12.1998 116.91 12.5239 117.079 12.874C117.24 13.2076 117.343 13.5685 117.49 13.9629H116.577C116.348 13.4261 116.123 12.8955 115.897 12.365C115.571 12.874 115.76 13.4033 115.639 13.9395H114.9C114.765 13.5337 114.72 11.116 114.84 10.0277H115.673V11.5211C115.744 11.537 115.815 11.5534 115.886 11.5692Z" fill="#3A2911"/>
<path d="M90.9212 9.99593H91.7803C91.8354 11.3058 91.8088 12.5966 91.7948 13.9362H90.9256V12.4358C90.7003 12.4643 90.5433 12.4909 90.385 12.5029C89.5082 12.5707 88.9783 12.1427 88.8973 11.2646C88.8612 10.8715 88.8909 10.472 88.8909 10.0251H89.7842C89.7842 10.322 89.7747 10.61 89.7861 10.8974C89.8159 11.6369 90.1508 11.8344 90.9199 11.5134V9.9953L90.9212 9.99593Z" fill="#3A2911"/>
<path d="M98.1485 12.4827C98.4023 12.5321 98.6448 12.5789 98.8828 12.6252C98.8347 13.4114 98.4619 13.8938 97.8364 14.0059C97.04 14.149 96.4316 13.847 96.1454 13.1373C95.851 12.408 95.8289 11.6566 96.1017 10.9197C96.3727 10.1884 96.8564 9.89154 97.6072 9.93079C98.2935 9.96687 98.6094 10.2473 98.881 11.1191C98.6214 11.1773 98.3669 11.2349 98.1308 11.2875C98.0712 11.2501 98.0206 11.2368 98.006 11.2058C97.8687 10.9197 97.6844 10.6917 97.3286 10.7728C97.0159 10.8443 96.8969 11.1191 96.8703 11.3919C96.8342 11.7648 96.8367 12.1472 96.8728 12.5207C96.9051 12.8531 97.0805 13.1462 97.4388 13.1968C97.8066 13.2487 97.9345 12.9525 98.0345 12.6612C98.0478 12.6226 98.0788 12.5903 98.1491 12.4827H98.1485Z" fill="#3A2911"/>
<path d="M135.209 11.5464V10.0295H136.062V13.9514H135.235V12.4517C135.011 12.4732 134.855 12.4897 134.699 12.5023C133.814 12.5758 133.282 12.1535 133.199 11.2735C133.161 10.8791 133.192 10.4784 133.192 10.0086C133.467 9.99471 133.708 9.98268 134.034 9.96622C134.05 10.2771 134.069 10.56 134.079 10.8437C134.106 11.6027 134.397 11.8066 135.209 11.5464Z" fill="#3A2911"/>
<path d="M5.6698 24.4016C5.84959 23.9933 5.99013 23.6736 6.15094 23.3089C6.69285 23.4849 7.20627 23.6508 7.71907 23.8173C7.73236 23.7919 7.74502 23.7666 7.75832 23.7419C7.34618 23.5387 6.93342 23.3374 6.52255 23.1323C6.11168 22.9272 5.70208 22.7195 5.18359 22.4581C5.60839 22.2403 5.94708 22.0662 6.313 21.8788C7.47596 22.6815 8.2211 24.0015 9.57968 24.6156C8.30403 24.5459 7.02838 24.4763 5.66916 24.4016H5.6698Z" fill="#3A2911"/>
<path d="M106.65 10.0099H108.682C108.695 10.2176 108.708 10.4139 108.723 10.6658C108.305 10.6842 107.934 10.7013 107.478 10.7215C107.417 11.7788 107.485 12.8398 107.44 13.9395H106.675C106.538 13.5178 106.511 10.7171 106.651 10.0099H106.65Z" fill="#3A2911"/>
<path d="M9.51186 13.3349C10.0259 13.0551 10.4273 12.836 10.8477 12.6068C11.7726 13.4191 12.6823 14.2174 13.592 15.0163C13.5724 15.0524 13.5534 15.0891 13.5338 15.1252C12.2379 14.5485 10.942 13.9711 9.51123 13.3342L9.51186 13.3349Z" fill="#3A2911"/>
</svg>
