<svg width="130" height="23" viewBox="0 0 130 23" fill="none" xmlns="http://www.w3.org/2000/svg">
<path d="M0 0H26.9005V22.7776H0V0ZM13.6709 7.18935C13.5546 7.17514 13.5056 7.16341 13.4567 7.16341C12.312 7.1597 11.1678 7.15167 10.0231 7.16341C9.90108 7.16464 9.7494 7.25113 9.66334 7.34502C8.48143 8.63488 7.3088 9.93277 6.13369 11.2282C6.00058 11.3746 5.86437 11.5185 5.66687 11.7304C5.66687 11.521 5.66687 11.411 5.66687 11.3011C5.66687 8.77388 5.66378 6.24667 5.67183 3.72008C5.67244 3.46804 5.60682 3.38464 5.34555 3.38773C4.37661 3.40008 3.40706 3.39576 2.4375 3.38402C2.20595 3.38155 2.11494 3.43344 2.11556 3.68981C2.12299 8.41558 2.12237 13.1407 2.1168 17.8665C2.1168 18.0907 2.17252 18.1717 2.40964 18.1686C3.39963 18.1556 4.38961 18.1538 5.3796 18.1649C5.61858 18.1674 5.6743 18.0827 5.67121 17.8609C5.65944 17.1011 5.66378 16.3407 5.66997 15.5802C5.67059 15.474 5.68173 15.3362 5.74612 15.2664C6.32562 14.6419 6.91813 14.0291 7.5224 13.3965C7.58369 13.5046 7.63136 13.5818 7.67223 13.6627C8.38237 15.0761 9.09436 16.4883 9.79645 17.9054C9.89056 18.0957 10.002 18.1704 10.2199 18.168C11.3957 18.1556 12.5708 18.1606 13.7465 18.1581C13.8332 18.1581 13.9198 18.1439 14.0406 18.1334C13.9743 17.9999 13.9279 17.8999 13.8753 17.8023C12.6971 15.6148 11.5226 13.4255 10.332 11.2455C10.2026 11.0083 10.2323 10.8736 10.4094 10.6938C10.8211 10.2762 11.213 9.83949 11.6124 9.40954C12.2835 8.68677 12.9534 7.96339 13.6703 7.18997L13.6709 7.18935ZM25.1106 14.0315C23.9999 13.9679 22.9133 13.9055 21.828 13.8431C21.7475 14.105 21.6899 14.3441 21.6007 14.5714C21.2844 15.3807 20.5878 15.8143 19.7322 15.7489C18.8159 15.6784 18.2209 15.1972 18.0166 14.3361C17.8228 13.5194 17.7702 12.6861 17.8816 11.8583C17.9504 11.3474 18.0668 10.8223 18.2779 10.3559C18.6215 9.59857 19.3304 9.30946 20.2783 9.42189C21.0027 9.50776 21.4837 9.95068 21.6924 10.7352C21.7468 10.9397 21.7809 11.1491 21.8267 11.369C22.925 11.3103 24.0017 11.2523 25.0926 11.1936C25.0926 11.1158 25.0976 11.0663 25.092 11.0175C24.9645 9.85555 24.4035 8.93449 23.5275 8.17651C21.7017 6.59755 18.4308 6.63585 16.5357 7.78054C14.8064 8.82453 13.9811 10.4035 13.8796 12.3809C13.8226 13.4947 13.9725 14.5819 14.5167 15.5728C15.4658 17.3 16.9845 18.1779 18.9162 18.3477C20.3817 18.4768 21.802 18.2853 23.0613 17.4452C24.2686 16.6397 24.9564 15.5154 25.1106 14.0315Z" fill="#3A2911"/>
<path d="M101.918 7.17863C101.918 7.30527 101.918 7.40473 101.918 7.5048C101.918 10.9358 101.915 14.3667 101.923 17.7971C101.924 18.0701 101.865 18.169 101.57 18.1622C100.652 18.1424 99.7346 18.1554 98.817 18.1542C98.7161 18.1542 98.6158 18.1449 98.4889 18.1387V11.6307C98.4697 11.6258 98.4499 11.6202 98.4307 11.6153C98.3873 11.7098 98.3378 11.8019 98.3013 11.8995C97.5528 13.8849 96.8011 15.8691 96.0656 17.8595C95.9777 18.0973 95.8662 18.164 95.6223 18.1603C94.6224 18.1461 93.6219 18.1474 92.622 18.1603C92.3979 18.1634 92.3001 18.0899 92.2239 17.883C91.4872 15.8821 90.7405 13.8849 89.9957 11.8871C89.9585 11.7883 89.9171 11.6907 89.8087 11.6091V18.1375H86.7607V7.18172C86.8548 7.17555 86.9533 7.16319 87.0523 7.16319C88.5061 7.16195 89.9604 7.16875 91.4141 7.15639C91.6587 7.15454 91.7466 7.24226 91.8165 7.46218C92.588 9.87263 93.3699 12.28 94.1754 14.7689C94.246 14.6077 94.2943 14.5094 94.3327 14.4069C95.2001 12.1046 96.0699 9.80283 96.9274 7.49677C97.0191 7.25091 97.1305 7.15145 97.4085 7.15516C98.7898 7.17184 100.172 7.16257 101.554 7.16319C101.664 7.16319 101.775 7.17246 101.918 7.17863H101.918Z" fill="#3A2911"/>
<path d="M64.6079 17.3009V21.7388H61.1147V7.18467H64.5348V8.25152C64.5905 8.24287 64.6171 8.24658 64.6246 8.23669C65.895 6.37418 69.7342 6.35565 71.2257 9.11884C71.7049 10.0065 71.895 10.9653 71.9445 11.9586C72.0083 13.2306 71.9191 14.4852 71.4263 15.6781C70.4654 18.0058 68.179 18.8076 65.9786 18.1515C65.726 18.0762 65.4852 17.9434 65.2592 17.8038C65.0443 17.6709 64.8561 17.4955 64.6079 17.3003V17.3009ZM64.684 12.6968C64.702 12.6975 64.7205 12.6981 64.7385 12.6987C64.7385 13.191 64.7249 13.6846 64.7422 14.1763C64.7583 14.6236 64.8543 15.0461 65.2066 15.376C66.1823 16.289 67.5407 15.9264 67.8886 14.6341C68.1728 13.5802 68.1654 12.4985 68.0471 11.4249C68.0007 11.0054 67.8688 10.5817 67.7004 10.1919C67.4856 9.6952 67.0701 9.42153 66.5086 9.40547C65.6468 9.38076 64.9478 9.92994 64.8091 10.8275C64.7144 11.4422 64.7218 12.0729 64.6834 12.6962L64.684 12.6968Z" fill="#3A2911"/>
<path d="M129.611 7.19703C129.482 7.33541 129.379 7.44722 129.276 7.55841C128.296 8.61414 127.32 9.6742 126.33 10.7207C126.168 10.8924 126.152 11.0116 126.264 11.2186C127.452 13.4005 128.629 15.5879 129.809 17.7741C129.866 17.8797 129.921 17.9866 130 18.1349C129.858 18.1435 129.761 18.1546 129.664 18.1546C128.499 18.1559 127.334 18.1491 126.169 18.1608C125.949 18.1633 125.846 18.0873 125.751 17.8958C125.058 16.4991 124.352 15.1085 123.649 13.7167C123.599 13.6191 123.543 13.5246 123.471 13.3949C122.855 14.0404 122.257 14.66 121.671 15.2908C121.613 15.3525 121.615 15.4823 121.615 15.5805C121.611 16.4225 121.613 17.2639 121.613 18.1306H118.106V3.41641H121.61V11.6454C121.638 11.6658 121.667 11.6862 121.694 11.706C121.751 11.6263 121.8 11.5404 121.865 11.4688C123.109 10.0974 124.354 8.72596 125.606 7.36135C125.693 7.26684 125.84 7.17232 125.96 7.17108C127.115 7.15688 128.27 7.16244 129.425 7.16429C129.473 7.16429 129.521 7.18097 129.611 7.19765V7.19703Z" fill="#3A2911"/>
<path d="M35.8022 3.41275H39.2997V11.7097C39.4068 11.6103 39.473 11.5565 39.53 11.4941C40.7844 10.1172 42.035 8.73712 43.2943 7.3651C43.3816 7.26997 43.5271 7.17236 43.6466 7.17113C44.8118 7.15692 45.977 7.16248 47.1422 7.16433C47.1806 7.16433 47.219 7.17916 47.2926 7.19522C47.2084 7.29159 47.1459 7.36757 47.079 7.43985C46.05 8.54871 45.0235 9.66004 43.9871 10.7615C43.8472 10.9097 43.849 11.0129 43.9413 11.1828C45.1319 13.3752 46.3138 15.5719 47.4976 17.7674C47.5551 17.8742 47.6121 17.9817 47.7043 18.1547H47.3657C46.2005 18.1547 45.0353 18.1497 43.8701 18.159C43.6584 18.1609 43.5444 18.1022 43.446 17.9033C42.7544 16.5053 42.0474 15.1154 41.3441 13.723C41.2945 13.6247 41.2388 13.529 41.1651 13.3949C40.8271 13.7471 40.5429 14.1202 40.1857 14.4006C39.4458 14.9807 39.1709 15.6979 39.2935 16.6227C39.3585 17.1144 39.3053 17.6222 39.3053 18.138H35.8022V3.41275Z" fill="#3A2911"/>
<path d="M108.063 7.16246C108.063 8.20769 108.063 9.21277 108.063 10.2185C108.063 11.2242 108.063 12.2113 108.063 13.3121C108.177 13.1466 108.245 13.0564 108.305 12.9619C109.464 11.1303 110.628 9.30049 111.776 7.46145C111.922 7.22733 112.078 7.15196 112.345 7.15629C113.273 7.17235 114.201 7.16246 115.13 7.16246C115.241 7.16246 115.353 7.16246 115.485 7.16246V18.1368H112.027V12.1829C111.975 12.2169 111.944 12.2268 111.931 12.2471C110.997 13.6735 110.064 15.1005 109.133 16.5288C108.825 17.002 108.53 17.4844 108.213 17.952C108.15 18.0447 108.015 18.1448 107.912 18.146C106.85 18.1596 105.787 18.1547 104.725 18.1528C104.686 18.1528 104.646 18.1411 104.576 18.13C104.57 18.0194 104.559 17.91 104.559 17.8007C104.558 14.3691 104.561 10.9369 104.553 7.50531C104.552 7.24215 104.61 7.14949 104.892 7.15505C105.841 7.17296 106.79 7.16185 107.739 7.16185C107.839 7.16185 107.939 7.16185 108.065 7.16185L108.063 7.16246Z" fill="#3A2911"/>
<path d="M80.5249 11.1588C80.4902 10.8265 80.4896 10.4762 80.411 10.1438C80.2785 9.58478 79.8315 9.36857 79.3102 9.30803C79.0167 9.27405 78.709 9.27653 78.418 9.32409C77.5673 9.46309 77.2156 9.82138 77.0361 10.6677C77.0256 10.7171 77.0033 10.7641 76.976 10.8431C75.8443 10.7461 74.71 10.6485 73.5486 10.5491C73.7244 9.3278 74.2767 8.39685 75.3539 7.81432C76.2919 7.30714 77.3085 7.05016 78.3641 6.97294C79.5529 6.88584 80.7428 6.93402 81.8746 7.3368C82.3674 7.51224 82.8423 7.79146 83.2608 8.10775C83.8676 8.56612 84.1313 9.23822 84.166 9.99064C84.1938 10.5954 84.2149 11.2014 84.2205 11.8068C84.2291 12.7724 84.2105 13.7379 84.226 14.7034C84.244 15.8469 84.1096 17.0008 84.4731 18.1542C83.8254 18.1542 83.2088 18.1542 82.5928 18.1542C82.108 18.1542 81.6232 18.1387 81.1391 18.1604C80.884 18.1715 80.7936 18.0708 80.7688 17.8391C80.7317 17.4938 80.6778 17.1497 80.627 16.776C80.5602 16.8384 80.4989 16.8853 80.4487 16.9428C79.6278 17.8818 78.5784 18.3463 77.3426 18.3469C76.7513 18.3469 76.1396 18.3129 75.5725 18.1616C74.3119 17.8243 73.4284 17.0441 73.252 15.6968C73.0774 14.3692 73.5479 13.274 74.6617 12.4894C75.5 11.8995 76.469 11.6586 77.4645 11.5208C78.462 11.383 79.4637 11.2817 80.5255 11.1576L80.5249 11.1588ZM80.4865 13.0244C80.1311 13.0763 79.7968 13.1115 79.4687 13.1758C78.8 13.3067 78.1382 13.4692 77.5995 13.9189C77.1816 14.2673 77.0336 14.7214 77.1828 15.2452C77.3215 15.7326 77.6546 16.0279 78.1635 16.1051C78.9393 16.2231 79.5541 15.9464 80.0283 15.3366C80.5571 14.6577 80.5206 13.8682 80.4865 13.0238V13.0244Z" fill="#3A2911"/>
<path d="M59.1471 13.324H51.5919C51.3752 14.4595 51.9318 15.4577 52.954 15.7567C53.5539 15.9322 54.1606 15.9223 54.7302 15.6319C55.3141 15.3342 55.5202 14.7733 55.6565 14.1728C56.8018 14.2507 57.9194 14.3266 59.0703 14.4051C58.3955 16.3986 57.1801 17.7805 55.0862 18.216C53.7322 18.4977 52.3745 18.4514 51.0675 17.9578C48.851 17.1201 47.4679 14.8746 47.6258 12.4703C47.71 11.1885 48.035 10.0036 48.8652 8.99425C49.8577 7.7884 51.1523 7.13791 52.6976 6.98348C54.3284 6.82039 55.8298 7.15397 57.1436 8.18314C58.2376 9.03996 58.7694 10.2007 58.975 11.5301C59.0635 12.104 59.0883 12.6878 59.1471 13.3253V13.324ZM51.5758 11.1897H55.402C55.3952 10.1192 54.7556 9.35501 53.8325 9.29015C52.5125 9.1981 51.7671 9.81956 51.5758 11.1897Z" fill="#3A2911"/>
<path d="M34.2192 11.5385V13.894H28.5796V11.5385H34.2192Z" fill="#3A2911"/>
</svg>
