<svg width="130" height="69" viewBox="0 0 130 69" fill="none" xmlns="http://www.w3.org/2000/svg">
<path fill-rule="evenodd" clip-rule="evenodd" d="M82.053 23.1821L82.095 23.1818C82.3984 23.7407 82.6806 24.2936 82.9626 24.8462C83.2591 25.4271 83.5554 26.0076 83.876 26.5945C84.3354 27.4362 84.7813 28.2847 85.2273 29.1332C85.5262 29.702 85.8252 30.2709 86.1283 30.8378C86.5239 31.578 86.9225 32.3166 87.3212 33.0553C87.8565 34.047 88.3918 35.0388 88.9198 36.0346C89.2199 36.6012 89.0516 36.8562 88.3971 36.8562C87.106 36.8545 85.943 36.9059 84.78 36.9572C83.6169 37.0086 82.4539 37.0599 81.1628 37.0583C80.813 37.0574 80.7823 36.9784 80.6979 36.7613C80.6717 36.6938 80.6403 36.613 80.5925 36.517C80.174 35.6799 79.7521 34.845 79.3224 34.0134C79.0386 33.4638 78.752 32.9159 78.4654 32.368C78.0947 31.6591 77.7239 30.9503 77.3592 30.2379C76.4131 28.3908 75.4719 26.5414 74.5322 24.6911C74.2205 24.2082 73.9145 23.7211 73.6126 23.2318C73.5445 23.1216 73.4761 23.0115 73.4077 22.9013C73.09 22.3898 72.7718 21.8775 72.482 21.3502C72.2624 20.9499 72.0598 20.5399 71.8571 20.1299C71.7022 19.8164 71.5473 19.503 71.3847 19.1936C71.1234 18.6958 71.2197 18.2146 71.4423 17.7577C72.015 16.5855 72.6061 15.4224 73.1972 14.2592C73.2563 14.1429 73.3154 14.0266 73.3745 13.9102C74.5583 11.5774 75.7431 9.24557 76.9357 6.91711C77.3004 6.20484 77.6711 5.49609 78.0418 4.78729C78.3284 4.23934 78.615 3.69136 78.8989 3.14169C79.3286 2.3101 79.7504 1.47518 80.169 0.638042C80.3705 0.233334 80.6784 0.0348609 81.1368 0.0337521C82.4279 0.0320889 83.7188 0.0270994 85.0096 0.0221098C86.3005 0.0171203 87.5913 0.0121307 88.8825 0.0104675C89.5369 0.0104675 89.7052 0.265489 89.4051 0.83208C88.8771 1.82791 88.3418 2.81974 87.8065 3.81153C87.4078 4.55016 87.0092 5.28876 86.6136 6.02898C86.3105 6.59587 86.0116 7.16472 85.7126 7.73353C85.2666 8.58211 84.8207 9.43059 84.3613 10.2723C84.0563 10.8307 83.7374 11.3814 83.4185 11.9321C83.0832 12.511 82.748 13.0898 82.429 13.6774C82.3679 13.7899 82.3066 13.9024 82.2454 14.0149C81.5263 15.336 80.8066 16.6583 80.1668 18.0183C79.8009 18.7962 80.1826 19.5638 80.5351 20.2724C80.5464 20.2951 80.5576 20.3176 80.5688 20.3401C80.861 20.9304 81.1703 21.512 81.4794 22.0935C81.672 22.4557 81.8646 22.8179 82.053 23.1821Z" fill="#3A2911"/>
<path d="M23.0551 46.4215C22.918 44.9203 23.5624 43.7722 24.7073 42.9161C25.339 42.4442 26.0845 42.1329 26.9035 42.0902C27.1258 42.0785 27.3489 42.0701 27.5687 42.0433C27.9305 41.9981 28.1319 41.8082 28.1779 41.4224C28.2481 40.8333 28.4127 40.7237 29.0103 40.7806C29.1757 40.7965 29.3437 40.8191 29.5092 40.8099C30.0348 40.7814 30.1184 40.8408 30.2237 41.3663C30.3307 41.9019 30.4953 42.1044 31.0176 42.081C32.2477 42.0258 33.2848 42.5195 34.1932 43.245C34.6019 43.5705 34.9036 44.1094 35.0958 44.6123C35.5596 45.824 35.5529 47.106 35.11 48.301C34.6445 49.5579 33.7085 50.4215 32.3455 50.7143C31.8458 50.8215 31.341 50.906 30.8362 50.9913C30.3733 51.07 30.1752 51.3076 30.1543 51.8373C30.1318 52.408 30.0231 52.4909 29.4724 52.4122C29.2409 52.3796 29.0027 52.3788 28.7687 52.3855C28.4294 52.3938 28.2581 52.2499 28.223 51.9026C28.1378 51.0658 27.9707 50.9185 27.1341 50.875C25.8731 50.8097 24.7691 50.3771 23.9167 49.4215C23.381 48.8206 23.1771 48.0617 23.0609 47.2851C23.0183 46.9989 23.0543 46.701 23.0543 46.4215H23.0551ZM28.1988 44.9035C28.2765 44.0249 28.1395 43.7872 27.6222 43.7036C26.9636 43.5973 25.8689 44.1471 25.4895 44.7052C24.9789 45.4567 25.0332 46.2793 25.0691 47.1177C25.1268 48.4625 26.3243 49.2349 27.3572 49.275C28.0325 49.3018 28.2214 49.1294 28.2255 48.4382C28.2272 48.188 28.2005 47.9378 28.1996 47.6876C28.1963 46.7018 28.198 45.7161 28.198 44.9027L28.1988 44.9035ZM30.2412 46.4215C30.2345 46.4215 30.2287 46.4215 30.222 46.4215C30.222 47.0474 30.2178 47.6734 30.2245 48.2993C30.2262 48.4926 30.2254 48.6951 30.2813 48.8767C30.4142 49.311 30.5972 49.3378 31.3301 49.2081C33.3676 48.8466 33.7729 46.7504 33.1812 45.2173C32.821 44.2826 32.0555 43.8634 31.0845 43.7404C30.4677 43.6626 30.2396 43.8282 30.2404 44.4609C30.2412 45.1144 30.2404 45.768 30.2404 46.4215H30.2412Z" fill="#3A2911"/>
<path d="M78.6472 52.3846C77.84 52.3846 77.0327 52.3879 76.2262 52.3838C75.5853 52.3804 75.4457 52.234 75.4449 51.5871C75.4415 49.2767 75.4315 46.9654 75.439 44.655C75.4415 43.9169 75.495 43.1789 75.5117 42.4408C75.5209 42.04 75.4992 41.6383 75.495 41.2375C75.4908 40.8751 75.7023 40.7463 76.0315 40.7555C77.9904 40.8073 79.9518 40.8224 81.9081 40.9262C83.348 41.0023 84.7553 42.3747 84.5314 43.9956C84.4286 44.7378 84.0082 45.2951 83.4425 45.7587C82.997 46.1236 83.0179 46.2985 83.5235 46.5688C85.8108 47.7939 85.4297 50.6231 83.6773 51.767C83.231 52.0582 82.6427 52.2281 82.107 52.2616C80.9579 52.3352 79.8013 52.2842 78.6481 52.2842C78.6481 52.3176 78.6481 52.3511 78.6481 52.3846H78.6472ZM79.6426 47.0976C79.6384 47.1211 79.6334 47.1453 79.6292 47.1688C79.1846 47.1688 78.7408 47.1671 78.2963 47.1688C77.8283 47.1713 77.6394 47.3027 77.6202 47.7671C77.5876 48.5562 77.5959 49.3478 77.6101 50.1378C77.616 50.465 77.7815 50.7001 78.1517 50.6926C79.2473 50.67 80.3429 50.6474 81.4376 50.6131C82.1806 50.5905 82.6327 50.1846 82.8817 49.4993C83.1817 48.6725 82.6903 47.624 81.8413 47.4374C81.1184 47.2784 80.3755 47.2073 79.6417 47.0976H79.6426ZM79.4863 45.5269C79.4905 45.5546 79.4946 45.5813 79.4988 45.609C80.1933 45.511 80.9011 45.4675 81.5772 45.2977C82.1496 45.1537 82.565 44.4014 82.5182 43.8215C82.4647 43.1563 82.0828 42.6684 81.3633 42.6031C80.2743 42.5052 79.1746 42.4977 78.0806 42.5077C77.9219 42.5094 77.6402 42.814 77.6302 42.9914C77.5909 43.6818 77.6252 44.378 77.6578 45.0717C77.6728 45.3847 77.8784 45.532 78.1943 45.5278C78.6247 45.5228 79.0559 45.5269 79.4863 45.5269Z" fill="#3A2911"/>
<path d="M118.11 46.6508C118.11 48.3378 118.113 50.024 118.109 51.711C118.107 52.3018 118.014 52.3788 117.418 52.3637C117.237 52.3587 117.056 52.3662 116.875 52.3737C116.301 52.3972 116.165 52.3026 116.145 51.7361C116.119 51.0265 116.132 50.3144 116.14 49.6039C116.155 48.2399 116.188 46.8759 116.188 45.5119C116.188 45.3554 116.05 45.1069 115.925 45.0684C115.801 45.0307 115.547 45.1621 115.463 45.2927C115.063 45.9069 114.707 46.5495 114.325 47.1755C113.536 48.4667 112.74 49.7529 111.948 51.0415C111.758 51.3503 111.591 51.6733 111.385 51.9696C111.15 52.3068 110.857 52.5319 110.395 52.3997C110.215 52.3478 110.009 52.3788 109.814 52.3804C109.121 52.3846 108.936 52.2189 108.936 51.5294C108.935 48.4491 108.939 45.3688 108.941 42.2885C108.941 42.0241 108.936 41.7588 108.939 41.4944C108.943 41.0333 109.121 40.8208 109.577 40.7848C109.88 40.7613 110.192 40.7488 110.489 40.8007C110.631 40.8258 110.782 40.9898 110.86 41.1295C110.928 41.2509 110.912 41.4274 110.91 41.5789C110.898 42.804 110.881 44.0282 110.865 45.2525C110.856 45.9747 110.842 46.6968 110.836 47.419C110.834 47.5721 110.832 47.7294 110.864 47.8767C110.951 48.2709 111.278 48.3822 111.518 48.0658C111.834 47.6483 112.074 47.173 112.352 46.7261C112.734 46.1144 113.126 45.5102 113.502 44.8952C113.923 44.2082 114.331 43.5136 114.743 42.8216C115.048 42.3078 115.344 41.7881 115.659 41.2793C115.737 41.153 115.857 40.9756 115.974 40.9622C116.585 40.8927 117.203 40.8341 117.815 40.8601C117.925 40.8651 118.103 41.2793 118.106 41.5069C118.131 43.2207 118.12 44.9362 118.12 46.65C118.118 46.65 118.116 46.65 118.114 46.65L118.11 46.6508Z" fill="#3A2911"/>
<path d="M56.6527 64.5108C56.6527 63.5359 56.6527 62.5602 56.6527 61.5853C56.6527 61.4464 56.6744 61.2958 56.6301 61.1711C56.5833 61.038 56.4922 60.8799 56.3761 60.8255C56.2959 60.7878 56.1037 60.8749 56.0284 60.9627C55.822 61.2037 55.6357 61.4657 55.4694 61.7359C54.8225 62.7861 54.1841 63.8422 53.5456 64.8982C53.03 65.7518 52.4951 66.5953 52.0163 67.4689C51.6928 68.058 51.2491 68.3149 50.5914 68.2354C50.441 68.217 50.2864 68.2254 50.1334 68.2329C49.5083 68.2647 49.3972 68.1727 49.3997 67.5367C49.4072 65.0715 49.4256 62.6071 49.4365 60.1427C49.4406 59.1418 49.4406 58.141 49.4315 57.1402C49.4281 56.7343 49.6128 56.5477 50.0123 56.5603C50.2906 56.5687 50.5688 56.5837 50.8463 56.5804C51.2299 56.5762 51.3661 56.7979 51.3627 57.1377C51.3469 59.0866 51.3251 61.0355 51.3093 62.9836C51.3076 63.2196 51.2926 63.4648 51.3536 63.6874C51.3937 63.8347 51.5483 64.043 51.6661 64.0531C51.7998 64.0648 51.9912 63.9142 52.084 63.7828C52.2411 63.5577 52.3255 63.2832 52.4667 63.0456C53.3174 61.6146 54.174 60.1887 55.0306 58.7611C55.3799 58.1795 55.7318 57.5996 56.0844 57.0197C56.2674 56.7193 56.5449 56.5854 56.8884 56.5787C57.236 56.572 57.5837 56.5653 57.9321 56.5661C58.4461 56.5678 58.5489 56.6674 58.5497 57.172C58.5514 58.6197 58.5564 60.0673 58.5464 61.5159C58.5364 62.9368 58.5013 64.3577 58.4954 65.7786C58.4929 66.3769 58.5422 66.9744 58.5631 67.5727C58.5798 68.0664 58.4595 68.1861 57.9597 68.1953C57.6814 68.2003 57.4032 68.2212 57.1265 68.2095C56.7789 68.1944 56.5967 68.002 56.5967 67.6447C56.5975 66.6003 56.5967 65.556 56.5967 64.5116C56.6159 64.5116 56.6352 64.5116 56.6544 64.5116L56.6527 64.5108Z" fill="#3A2911"/>
<path d="M120.868 46.6048C120.868 44.9186 120.868 43.2324 120.868 41.5463C120.868 40.8961 121.005 40.763 121.656 40.7806C121.795 40.7839 121.934 40.8015 122.073 40.8065C122.755 40.83 122.883 40.9647 122.872 41.6668C122.843 43.5872 122.811 45.5077 122.785 47.4282C122.783 47.6207 122.775 47.8307 122.845 48.0022C122.899 48.1353 123.059 48.2759 123.194 48.3052C123.278 48.3236 123.437 48.1587 123.508 48.0432C124.136 47.009 124.748 45.9663 125.37 44.9295C126.135 43.655 126.895 42.3781 127.684 41.1195C127.787 40.9563 128.049 40.8283 128.252 40.8065C128.635 40.7638 129.028 40.8115 129.417 40.8191C129.865 40.8283 130.001 40.9705 130 41.4308C129.993 44.2458 129.987 47.06 129.982 49.875C129.981 50.4742 129.985 51.0733 129.986 51.6725C129.987 52.2909 129.862 52.4072 129.256 52.3788C129.118 52.3721 128.979 52.3938 128.841 52.408C128.401 52.4541 128.141 52.2566 128.135 51.8047C128.116 50.6081 128.117 49.4114 128.119 48.2148C128.12 47.3395 128.147 46.4634 128.129 45.5881C128.125 45.4073 127.973 45.2299 127.889 45.0508C127.726 45.1328 127.548 45.1956 127.404 45.3027C127.298 45.3822 127.225 45.5136 127.154 45.6316C126.53 46.6625 125.91 47.696 125.288 48.7286C124.93 49.3244 124.572 49.9202 124.21 50.5135C123.922 50.9863 123.639 51.4625 123.334 51.9252C123.133 52.2298 122.866 52.4164 122.46 52.3746C122.13 52.3403 121.793 52.3679 121.46 52.3721C120.98 52.3788 120.865 52.2683 120.864 51.788C120.863 50.06 120.864 48.3319 120.864 46.6048H120.868Z" fill="#3A2911"/>
<path d="M48.4159 46.306C48.3917 47.937 48.1151 49.4926 47.0412 50.798C46.1922 51.8298 45.0573 52.3394 43.7628 52.5227C42.3053 52.7294 40.8913 52.5562 39.6286 51.7771C38.6266 51.1587 37.9079 50.2859 37.5519 49.106C37.2527 48.1135 37.0847 47.1169 37.1909 46.1002C37.2694 45.3487 37.4708 44.6065 37.6614 43.8717C37.9221 42.8659 38.6308 42.1446 39.418 41.563C39.9478 41.1722 40.6197 40.8902 41.2682 40.7638C42.6605 40.4935 44.0778 40.4935 45.3924 41.1354C45.8821 41.3739 46.3351 41.7329 46.7295 42.1153C47.8218 43.1739 48.2814 44.5245 48.3892 46.0148C48.3959 46.1119 48.4068 46.209 48.4151 46.306H48.4159ZM46.1913 46.6424C46.1913 46.3219 46.2247 45.9972 46.1855 45.6818C46.0292 44.4324 45.6013 43.3579 44.3879 42.727C42.5218 41.7563 40.1735 42.6584 39.5927 44.6123C39.3077 45.5713 39.2701 46.537 39.3537 47.5077C39.4331 48.4282 39.7924 49.2466 40.4676 49.9177C41.7446 51.1863 43.9358 51.1696 45.1551 49.8474C45.9882 48.9445 46.2381 47.8357 46.1905 46.6424H46.1913Z" fill="#3A2911"/>
<path d="M73.3022 46.819C73.2053 47.3914 73.1928 48.4081 72.8476 49.2934C72.3094 50.6742 71.3292 51.7227 69.8433 52.2173C68.7477 52.5813 67.6513 52.6993 66.5147 52.5202C65.42 52.3478 64.4982 51.8424 63.7026 51.0876C62.2844 49.742 62.0254 48.0282 62.1023 46.1822C62.1415 45.2349 62.292 44.3261 62.6797 43.4676C62.831 43.1329 63.0541 42.8232 63.2839 42.5329C64.2065 41.3664 65.4208 40.7638 66.9033 40.6517C67.8869 40.5772 68.8455 40.6375 69.7865 40.9421C70.8018 41.2701 71.5799 41.8935 72.1958 42.7655C72.9755 43.8676 73.2538 45.1002 73.3022 46.8198V46.819ZM71.0868 46.2525C71.0868 46.0717 71.1077 45.8876 71.0835 45.7094C70.9205 44.5069 70.5127 43.4291 69.4029 42.7873C69.077 42.599 68.675 42.5396 68.304 42.4333C66.7404 41.9822 64.9119 43.0375 64.5183 44.6165C64.235 45.7546 64.0344 46.8625 64.3954 48.0625C64.6795 49.0073 65.0757 49.7771 65.8888 50.3236C67.2167 51.2173 69.0009 50.9922 70.0748 49.8399C71.0208 48.8248 71.1361 47.5554 71.0868 46.2516V46.2525Z" fill="#3A2911"/>
<path d="M61.3032 62.4338C61.3032 60.6924 61.3032 58.951 61.3032 57.2105C61.3032 56.7795 61.4587 56.5946 61.8924 56.572C62.2534 56.5527 62.6153 56.5636 62.9771 56.5653C63.2888 56.567 63.3916 56.7879 63.3933 57.0389C63.3975 58.1385 63.4083 59.2397 63.3657 60.3385C63.3406 60.9962 63.5212 61.2598 64.163 61.2648C65.2753 61.2732 66.3884 61.279 67.5007 61.2807C68.1877 61.2807 68.3356 61.1418 68.3398 60.4473C68.3456 59.3761 68.3381 58.3059 68.3281 57.2347C68.3222 56.6465 68.4016 56.5603 68.9991 56.5628C69.2774 56.5645 69.5566 56.5444 69.8323 56.567C70.3747 56.6113 70.5042 56.7636 70.4959 57.3117C70.4741 58.6766 70.4248 60.0406 70.4282 61.4054C70.4332 63.3962 70.475 65.3878 70.4984 67.3785C70.5067 68.0907 70.4023 68.2036 69.6936 68.2396C69.4446 68.2522 69.1939 68.2279 68.944 68.2313C68.4275 68.2379 68.3256 68.1409 68.3298 67.6338C68.3381 66.5191 68.349 65.4053 68.354 64.2907C68.3598 62.9761 68.3582 62.9828 67.0378 62.9819C66.0801 62.9819 65.1215 62.9644 64.1638 62.9443C63.6524 62.9334 63.3841 63.1727 63.3849 63.6891C63.3866 64.9292 63.3933 66.1685 63.4033 67.4087C63.4092 68.0856 63.364 68.1518 62.7038 68.1995C62.4005 68.2212 62.0946 68.2053 61.7896 68.202C61.4311 68.1986 61.3099 67.9877 61.3099 67.658C61.3124 65.9166 61.3107 64.1761 61.3107 62.4347C61.3082 62.4347 61.3057 62.4347 61.3032 62.4347V62.4338Z" fill="#3A2911"/>
<path d="M59.7698 46.5495C59.7698 48.2491 59.7698 49.9495 59.7698 51.649C59.7698 52.2758 59.6436 52.3955 59.041 52.3729C58.8054 52.3637 58.5672 52.3628 58.3324 52.3829C57.897 52.4197 57.6596 52.2499 57.6605 51.8156C57.663 50.6348 57.6672 49.4533 57.7123 48.2734C57.7424 47.4709 57.4833 47.1679 56.686 47.1738C55.6155 47.1822 54.545 47.178 53.4745 47.1755C52.8886 47.1746 52.6379 47.3888 52.6404 47.9612C52.6455 49.1989 52.6663 50.4365 52.6948 51.6741C52.7073 52.2064 52.4198 52.4783 51.8942 52.4139C51.6343 52.3821 51.3635 52.3478 51.1086 52.3863C50.7501 52.4407 50.6239 52.2641 50.5721 51.967C50.5529 51.8582 50.5512 51.7453 50.5512 51.634C50.5529 49.4892 50.5596 47.3445 50.5587 45.1998C50.5587 43.9755 50.5504 42.7513 50.5412 41.5278C50.537 40.9379 50.6097 40.8458 51.1913 40.8166C51.4955 40.8015 51.8022 40.8023 52.1064 40.8191C52.5477 40.8433 52.7073 41.0542 52.6948 41.496C52.6663 42.5103 52.6363 43.5253 52.6388 44.5404C52.6404 45.342 52.8494 45.5085 53.6408 45.5002C54.6411 45.4893 55.6423 45.491 56.6426 45.5052C57.454 45.5169 57.6555 45.3638 57.6655 44.568C57.678 43.5814 57.6596 42.5939 57.6454 41.6073C57.6362 40.9806 57.7917 40.8165 58.426 40.8157C58.6625 40.8157 58.899 40.8115 59.1355 40.8149C59.6118 40.8207 59.7355 40.9396 59.7355 41.4065C59.7355 42.7579 59.7313 44.1102 59.7288 45.4617C59.7288 45.824 59.7288 46.1864 59.7288 46.5487H59.7689L59.7698 46.5495Z" fill="#3A2911"/>
<path d="M88.0039 68.2438C86.6827 68.2438 85.3623 68.2405 84.041 68.2455C83.5705 68.2472 83.3808 68.0723 83.3833 67.5426C83.3883 66.5836 83.4318 65.6238 83.431 64.6648C83.4285 62.382 83.4084 60.0983 83.3984 57.8155C83.3934 56.5904 83.4393 56.5645 84.6578 56.5703C86.8005 56.5804 88.9424 56.5662 91.0851 56.567C91.7386 56.567 91.8096 56.6423 91.8631 57.3076C91.8723 57.4189 91.884 57.5293 91.8874 57.6415C91.9041 58.1519 91.7762 58.2967 91.2673 58.295C89.6402 58.2891 88.0131 58.2833 86.3868 58.2607C85.6581 58.2507 85.404 58.5184 85.4642 59.2473C85.4951 59.6197 85.4692 59.9971 85.4667 60.372C85.4617 61.0397 85.674 61.2489 86.3266 61.2473C87.8568 61.2431 89.3878 61.2548 90.918 61.2397C91.3024 61.2364 91.4403 61.4113 91.4645 61.7586C91.5397 62.8146 91.4536 62.9159 90.4065 62.9175C89.0293 62.92 87.6529 62.915 86.2757 62.9192C85.7492 62.9209 85.4767 63.2146 85.4884 63.7225C85.5052 64.4045 85.5127 65.0865 85.5152 65.7685C85.5169 66.3033 85.74 66.5275 86.2765 66.525C87.7348 66.5167 89.1939 66.5141 90.6522 66.5024C90.9856 66.4999 91.3182 66.4731 91.6509 66.4514C91.981 66.4296 92.1439 66.5886 92.1656 66.9108C92.1673 66.9384 92.1732 66.9669 92.1723 66.9945C92.1163 68.2204 92.3035 68.2187 91.009 68.2078C90.007 68.1995 89.0051 68.2062 88.0039 68.2062C88.0039 68.2196 88.0039 68.2338 88.0039 68.2472V68.2438Z" fill="#3A2911"/>
<path d="M42.5646 56.5745C43.7061 56.5745 44.8468 56.5695 45.9884 56.577C46.4179 56.5795 46.5868 56.7452 46.5884 57.2004C46.5918 57.8824 46.55 58.5653 46.5517 59.2481C46.5575 61.1008 46.5784 62.9543 46.5901 64.807C46.596 65.6974 46.5943 66.5878 46.5943 67.4781C46.5943 68.0396 46.4673 68.176 45.9165 68.1869C45.5965 68.1928 45.2764 68.1819 44.9563 68.1718C44.612 68.161 44.4582 67.9668 44.4608 67.6329C44.4791 65.1945 44.4975 62.756 44.5167 60.3176C44.5201 59.8858 44.536 59.454 44.5351 59.0213C44.5351 58.5318 44.3463 58.3159 43.8691 58.3C43.0493 58.2732 42.2278 58.2557 41.4071 58.2632C40.7252 58.2691 40.5163 58.5971 40.5539 59.2874C40.6074 60.274 40.6007 61.2657 40.5915 62.2548C40.5789 63.5644 40.538 64.8731 40.5104 66.1819C40.492 67.0689 40.0082 67.658 39.2886 68.094C39.2193 68.1359 39.134 68.1677 39.0546 68.1727C38.4855 68.2078 37.9164 68.2505 37.3465 68.2597C36.8852 68.2672 36.7607 68.1208 36.7523 67.653C36.7506 67.5693 36.7556 67.4857 36.7556 67.402C36.7515 66.7267 36.8601 66.6154 37.5512 66.5878C38.0836 66.5668 38.4028 66.3233 38.5307 65.8037C38.58 65.6037 38.5908 65.3895 38.59 65.1819C38.5833 62.5192 38.5724 59.8573 38.5607 57.1946C38.5582 56.7335 38.6819 56.5795 39.139 56.5762C40.2806 56.567 41.4213 56.5728 42.5629 56.5745H42.5646Z" fill="#3A2911"/>
<path d="M64.6021 36.8757C62.1057 36.8757 59.6103 36.8812 57.1139 36.8724C56.3428 36.869 56.1973 36.7126 56.1995 35.9721C56.2039 34.5055 56.2106 33.0378 56.2228 31.5712C56.2306 30.65 56.3939 30.5255 57.345 30.52C60.9102 30.4979 64.4744 30.4715 68.0396 30.4164C69.0207 30.401 69.7384 30.6269 70.2584 31.5778C71.1116 33.1359 72.1182 34.6113 73.0615 36.1198C73.3125 36.522 73.1748 36.8162 72.6415 36.8448C71.7016 36.8944 70.7572 36.8933 69.8151 36.8966C68.0774 36.9032 66.3387 36.8988 64.601 36.8988C64.601 36.8911 64.601 36.8834 64.601 36.8757H64.6021Z" fill="#3A2911"/>
<path d="M64.7398 0C67.2255 0 69.71 0 72.1956 0C72.3438 0 72.4931 -5.01875e-09 72.6401 0.0123494C73.1794 0.0606244 73.322 0.341293 73.0446 0.797099C72.0006 2.50469 70.9522 4.21003 69.9183 5.92435C69.6699 6.33637 69.3033 6.43068 68.8777 6.4318C66.1537 6.43405 63.4285 6.4318 60.7045 6.43854C59.519 6.44191 58.3336 6.45538 57.1481 6.48344C56.4151 6.50028 56.2078 6.33188 56.2045 5.59541C56.1978 4.00682 56.1978 2.41824 56.2045 0.829656C56.2078 0.106654 56.2936 0.0134721 57.0044 0.0123494C59.5825 0.00561337 62.1606 0.0101041 64.7387 0.0101041V0.00224535L64.7398 0Z" fill="#3A2911"/>
<path d="M21.6504 52.3704C21.3588 52.3704 21.0655 52.3511 20.7763 52.3746C20.208 52.4197 19.8905 52.1101 19.6958 51.634C19.5378 51.2474 19.3982 50.8524 19.2704 50.4549C19.074 49.8449 18.6712 49.6173 18.0494 49.6365C16.9538 49.67 15.8549 49.66 14.7593 49.6248C14.2353 49.6081 13.8802 49.7796 13.7021 50.2892C13.5191 50.8148 13.3378 51.3411 13.1698 51.8716C13.0612 52.2131 12.8322 52.3679 12.4879 52.3754C12.0592 52.3854 11.6305 52.4022 11.2017 52.3997C10.9009 52.398 10.9101 52.1587 10.9652 51.9779C11.099 51.5394 11.2636 51.1093 11.4274 50.6809C11.7892 49.7361 12.1536 48.7922 12.5247 47.8516C12.8715 46.9738 13.2383 46.1035 13.5793 45.224C13.9403 44.2918 14.2804 43.3512 14.6323 42.4157C14.7936 41.9873 14.9373 41.5496 15.1387 41.1404C15.2097 40.9965 15.422 40.8442 15.5783 40.8341C16.1181 40.799 16.6622 40.8166 17.2037 40.8299C17.594 40.84 17.7244 41.1429 17.853 41.4467C18.1113 42.0559 18.3854 42.6575 18.6378 43.2684C18.8275 43.7287 18.9871 44.2006 19.1709 44.6634C19.9632 46.6558 20.7604 48.6449 21.5518 50.6373C21.7165 51.0516 21.8752 51.4691 22.009 51.8934C22.1193 52.2457 21.9772 52.4273 21.6496 52.3704H21.6504ZM16.4157 48.0123C16.4157 48.0123 16.4157 48.0206 16.4157 48.024C16.7073 48.024 16.999 48.0131 17.2906 48.0265C17.94 48.055 18.2166 47.6859 17.9901 47.0734C17.7828 46.5136 17.5706 45.9562 17.3592 45.3981C17.192 44.9571 17.0525 44.5019 16.8393 44.0843C16.7491 43.9069 16.5176 43.7671 16.3204 43.7002C16.2585 43.6793 16.0764 43.9395 15.9878 44.0935C15.9067 44.2349 15.885 44.4098 15.8248 44.5655C15.4997 45.4065 15.1788 46.2491 14.8404 47.0843C14.5888 47.706 14.7518 47.988 15.4153 48.0098C15.7488 48.0206 16.0822 48.0114 16.4157 48.0114V48.0123Z" fill="#3A2911"/>
<path d="M27.5756 62.3627C27.5756 60.6899 27.5747 59.018 27.5756 57.3452C27.5756 56.7661 27.7369 56.5954 28.3093 56.572C28.5734 56.5611 28.8383 56.5628 29.1024 56.5712C29.5871 56.5862 29.72 56.7067 29.7191 57.2038C29.7183 57.9971 29.6874 58.7904 29.6757 59.5828C29.669 60.0146 29.6289 60.454 29.6932 60.8757C29.73 61.115 29.9063 61.459 30.0944 61.5175C30.315 61.5862 30.676 61.4665 30.8665 61.3016C31.1189 61.0841 31.3003 60.7602 31.449 60.4523C31.866 59.5887 32.2438 58.7059 32.6499 57.8364C32.9708 57.1502 33.5675 56.8021 34.2712 56.6582C34.7107 56.5678 35.1729 56.5377 35.6216 56.5561C36.0044 56.572 35.9802 56.9285 35.9802 57.2013C35.9802 57.4791 36.0721 57.9 35.6684 57.9117C34.2219 57.9552 33.7748 58.9828 33.4171 60.1075C33.224 60.7159 32.9566 61.2573 32.4986 61.72C32.1401 62.0824 32.1936 62.3092 32.6098 62.6054C33.204 63.0288 33.6143 63.607 33.9486 64.2372C34.5219 65.3183 35.0667 66.4137 35.6208 67.5041C35.9258 68.1049 35.8356 68.2405 35.1804 68.2128C34.7233 68.1936 34.2611 68.222 33.8082 68.1727C33.6369 68.1543 33.4054 68.0137 33.3327 67.8647C32.8287 66.8263 32.3992 65.7493 31.8635 64.7284C31.5493 64.1301 31.2802 63.4547 30.5991 63.125C30.101 62.8832 29.7459 63.0673 29.6949 63.6255C29.6673 63.9292 29.6782 64.2363 29.6832 64.5426C29.6991 65.5016 29.7175 66.4614 29.7417 67.4204C29.7584 68.0748 29.6899 68.1618 29.0481 68.1928C28.7857 68.2053 28.5199 68.2212 28.2592 68.2003C27.721 68.1568 27.5639 67.9785 27.5647 67.4195C27.5689 65.8313 27.5806 64.2422 27.5898 62.6539C27.5898 62.556 27.5898 62.4589 27.5898 62.361H27.5747L27.5756 62.3627Z" fill="#3A2911"/>
<path d="M94.467 65.0999C94.467 62.4958 94.4687 59.8916 94.4653 57.2883C94.4653 56.787 94.5982 56.577 95.0144 56.5787C96.6557 56.5854 98.297 56.6004 99.9375 56.6306C100.67 56.644 101.406 56.7544 101.957 57.2741C102.363 57.6557 102.809 58.0941 102.992 58.5962C103.719 60.587 103.112 62.9928 100.573 63.5041C99.6842 63.6832 98.7525 63.6472 97.8399 63.7033C97.6886 63.7125 97.5348 63.679 97.3819 63.6773C96.7877 63.6698 96.5613 63.869 96.5571 64.4656C96.5504 65.4405 96.5721 66.4162 96.5805 67.3911C96.5821 67.5442 96.583 67.6982 96.5704 67.8505C96.5512 68.0932 96.4284 68.2346 96.1702 68.2363C95.8233 68.2379 95.4757 68.2589 95.1289 68.2446C94.6509 68.2254 94.477 68.0371 94.4745 67.5668C94.4712 66.7451 94.4737 65.9233 94.4737 65.1016C94.4712 65.1016 94.4687 65.1016 94.4653 65.1016L94.467 65.0999ZM96.5863 60.2063H96.5671C96.5671 60.387 96.5696 60.5678 96.5671 60.7485C96.5629 60.9435 96.542 61.1385 96.5479 61.3326C96.5621 61.8221 96.7267 62.0104 97.2031 61.9937C98.0062 61.9652 98.8084 61.8832 99.6115 61.8573C100.11 61.8414 100.42 61.5702 100.723 61.2221C101.499 60.3334 100.98 58.4649 99.65 58.377C98.8611 58.3251 98.0689 58.305 97.2783 58.2983C96.8103 58.2941 96.6264 58.4732 96.5922 58.9552C96.5629 59.3703 96.5863 59.7895 96.5863 60.2063Z" fill="#3A2911"/>
<path d="M98.8295 46.609C98.8295 44.937 98.8286 43.2651 98.8295 41.5931C98.8295 40.9513 98.9782 40.8057 99.6184 40.8116C99.9109 40.8141 100.203 40.8233 100.495 40.8216C100.828 40.8199 100.98 40.9965 100.983 41.3128C100.986 41.5915 100.973 41.8701 100.969 42.1488C100.954 43.1078 100.919 44.0676 100.939 45.0266C100.945 45.2876 101.055 45.6968 101.228 45.768C101.453 45.8609 101.847 45.763 102.062 45.6031C102.325 45.4065 102.527 45.0843 102.668 44.7764C102.984 44.0818 103.219 43.3496 103.538 42.6567C103.823 42.0375 104.166 41.4366 104.799 41.0919C105.432 40.7471 106.133 40.7454 106.829 40.7379C106.881 40.7379 106.947 40.753 106.986 40.7856C107.345 41.0894 107.156 41.491 107.122 41.8383C107.108 41.9848 106.834 42.2299 106.691 42.2207C105.684 42.1555 105.279 42.7847 104.941 43.5831C104.592 44.409 104.363 45.3002 103.682 45.9621C103.394 46.2416 103.423 46.6525 103.739 46.8383C104.633 47.3654 105.06 48.2441 105.516 49.1001C105.986 49.983 106.43 50.88 106.867 51.7796C106.938 51.9252 106.972 52.1445 106.912 52.2792C106.874 52.3637 106.627 52.3779 106.473 52.3813C106.031 52.3888 105.588 52.3955 105.147 52.3629C104.773 52.3352 104.549 52.1294 104.394 51.752C104.063 50.9461 103.678 50.1604 103.282 49.3838C103.012 48.855 102.659 48.3679 102.392 47.8374C102.163 47.3813 101.754 47.2826 101.332 47.2064C101.232 47.1889 101.051 47.3236 100.996 47.4341C100.925 47.573 100.928 47.7579 100.93 47.9228C100.938 49.1345 100.958 50.3462 100.965 51.5579C100.969 52.2624 100.835 52.3855 100.137 52.3804C99.9142 52.3788 99.6919 52.3796 99.4705 52.3938C99.0326 52.4214 98.8395 52.2717 98.832 51.8332C98.8195 51.1369 98.832 50.4399 98.832 49.7437C98.832 48.6985 98.832 47.6533 98.832 46.609H98.8295Z" fill="#3A2911"/>
<path d="M75.4131 59.0916C75.4131 59.746 75.4072 60.4012 75.4147 61.0556C75.4206 61.5209 75.5861 61.6414 76.0474 61.5636C76.7669 61.4422 76.9917 60.8213 77.2658 60.295C77.5324 59.7837 77.6628 59.2021 77.9043 58.6757C78.4642 57.454 79.0392 56.5302 80.6646 56.5502C80.6922 56.5502 80.7206 56.5502 80.7481 56.5486C81.6039 56.5009 81.7259 56.6323 81.6858 57.5017C81.6716 57.8155 81.5262 57.982 81.227 57.9686C80.2091 57.9234 79.7461 58.5954 79.3835 59.3879C79.1002 60.0071 78.8586 60.6464 78.5661 61.2615C78.4625 61.4799 78.2703 61.659 78.1074 61.8464C77.9243 62.0573 77.8558 62.2874 78.1132 62.4548C79.1219 63.1117 79.5991 64.156 80.1272 65.1652C80.5551 65.9828 80.9855 66.7986 81.3941 67.6263C81.4635 67.7677 81.4852 67.9953 81.4159 68.1216C81.3649 68.2145 81.1309 68.2354 80.978 68.2363C80.5902 68.2388 80.2024 68.2062 79.8138 68.1986C79.2314 68.1869 79.0584 68.0321 78.8102 67.5024C78.226 66.2564 77.626 65.0162 76.9909 63.7962C76.8463 63.5184 76.5638 63.2782 76.2906 63.1108C75.8501 62.8414 75.4356 63.0656 75.4064 63.5845C75.3679 64.2907 75.3788 65.0003 75.383 65.7083C75.3872 66.3627 75.4147 67.0171 75.4214 67.6714C75.4256 68.0455 75.2259 68.2413 74.8515 68.2346C74.4629 68.2279 74.0734 68.2137 73.6857 68.1886C73.3848 68.1693 73.2946 67.9593 73.2954 67.694C73.308 64.8832 73.3255 62.0723 73.3347 59.2615C73.3372 58.5519 73.318 57.8414 73.3071 57.131C73.3021 56.7946 73.4726 56.6021 73.8002 56.5812C74.147 56.5586 74.4955 56.5595 74.8423 56.5636C75.3078 56.5687 75.4206 56.6917 75.4214 57.1703C75.4223 57.8113 75.4214 58.4515 75.4214 59.0925C75.4189 59.0925 75.4164 59.0925 75.4139 59.0925L75.4131 59.0916Z" fill="#3A2911"/>
<path d="M48.4038 6.47655C46.4818 6.47655 44.5597 6.48096 42.6377 6.47434C41.8094 6.47103 41.675 6.31665 41.6873 5.51052C41.7106 3.9876 41.7239 2.46468 41.7405 0.941763C41.7483 0.196292 41.9004 0.0220553 42.6477 0.018747C46.5473 0.00551383 50.4468 0 54.3464 0C55.0904 0 55.2713 0.202909 55.2725 0.962715C55.2747 2.46799 55.2713 3.97327 55.2713 5.47854C55.2713 6.32326 55.1548 6.46773 54.2809 6.47544C52.3222 6.49199 50.3636 6.48096 48.4049 6.48096V6.47655H48.4038Z" fill="#3A2911"/>
<path d="M86.3074 46.6056C86.3391 45.1102 86.7002 43.7136 87.5835 42.5429C88.3908 41.4734 89.5148 40.7555 90.8995 40.676C91.7093 40.6291 92.5534 40.64 93.3381 40.8182C94.4462 41.0693 95.3997 41.6433 95.8769 42.778C95.9404 42.9295 96.0641 43.055 96.1393 43.2031C96.3391 43.5998 96.1677 43.9236 95.7307 44.0014C95.4716 44.0475 95.2125 44.0935 94.9568 44.1537C94.5423 44.2516 94.2482 44.0918 94.0476 43.7387C93.4158 42.6266 92.4222 42.1671 91.2104 42.3621C90.017 42.5537 89.1479 43.2634 88.8237 44.4809C88.3891 46.1085 88.3373 47.7629 89.0526 49.3068C89.7563 50.8239 91.9583 51.4072 93.2804 50.2239C93.6849 49.8616 93.9949 49.4767 94.1922 48.9645C94.4111 48.3938 94.605 48.352 95.1607 48.5754C95.3914 48.6683 95.6413 48.7152 95.8744 48.8039C96.2547 48.9478 96.3733 49.2089 96.2137 49.5587C95.8051 50.4549 95.3187 51.2741 94.432 51.8105C93.4534 52.4013 92.3954 52.6222 91.2848 52.5804C89.8524 52.5268 88.6273 51.9402 87.7297 50.8256C87.2417 50.2198 86.7645 49.5654 86.6492 48.7403C86.5497 48.0265 86.4227 47.3169 86.3082 46.6056H86.3074Z" fill="#3A2911"/>
<path d="M49.0158 36.877C46.9163 36.877 44.8169 36.8781 42.7175 36.877C42.1646 36.877 41.8467 36.5889 41.8433 36.0326C41.8367 34.4292 41.8434 32.8247 41.8611 31.2213C41.8677 30.6229 42.0594 30.4567 42.6887 30.4534C44.1444 30.4478 45.6002 30.4556 47.057 30.45C49.3747 30.4412 51.6924 30.4168 54.0101 30.4157C54.9219 30.4157 55.0493 30.5099 55.077 31.4185C55.1246 32.9842 55.1235 34.5522 55.1124 36.119C55.108 36.6897 54.8377 36.9002 54.2671 36.9002C52.5166 36.9002 50.7662 36.9002 49.0158 36.9002C49.0158 36.8925 49.0158 36.8847 49.0158 36.8759V36.877Z" fill="#3A2911"/>
<path d="M5.12115 52.5528C3.535 52.639 2.17616 51.9353 1.1048 50.7118C0.31674 49.8114 0.0568391 48.6533 0.0150543 47.4826C-0.0183735 46.5546 -0.00500241 45.6081 0.147094 44.696C0.247378 44.0935 0.612577 43.5287 0.890028 42.9621C1.4115 41.8977 2.31907 41.2559 3.40631 40.9212C4.89301 40.4626 6.37804 40.4283 7.81962 41.1864C8.69125 41.645 9.22358 42.3864 9.68823 43.199C9.86874 43.5153 9.66567 43.8651 9.29128 43.9672C8.99711 44.0475 8.69877 44.1153 8.40544 44.1981C8.11378 44.2801 7.89399 44.1906 7.71097 43.9546C7.42517 43.5864 7.15691 43.1965 6.82681 42.8709C6.25018 42.3027 5.50641 42.2492 4.76013 42.3663C3.18401 42.6132 2.36169 43.691 2.19622 45.1412C2.09092 46.0609 2.07672 47.0098 2.17282 47.9294C2.34581 49.5771 3.12802 50.4851 4.79106 50.8415C5.73205 51.0432 7.02654 50.3562 7.41514 49.4658C7.54216 49.1746 7.67671 48.8759 7.87143 48.6307C7.96419 48.5144 8.21991 48.4458 8.37619 48.4784C8.74055 48.5537 9.09656 48.6876 9.44421 48.8273C9.77932 48.9621 9.83197 49.224 9.67486 49.6332C8.90518 51.6407 7.18783 52.6106 5.12115 52.5528Z" fill="#3A2911"/>
<path d="M46.7164 14.1944C45.3724 14.1944 44.0284 14.2021 42.6844 14.1911C42.0157 14.1857 41.8397 13.9909 41.8408 13.3311C41.843 11.8386 41.8464 10.3471 41.853 8.85461C41.8563 8.07224 42.0014 7.88732 42.7674 7.88513C44.6262 7.87966 46.485 7.91467 48.3438 7.92124C49.0778 7.92452 49.8118 7.91577 50.5447 7.87856C51.3019 7.83917 51.5543 8.05474 51.5543 8.78896C51.5543 10.3176 51.5621 11.8462 51.5676 13.3749C51.5709 14.085 51.4525 14.2043 50.7472 14.2043C49.4033 14.2032 48.0593 14.2043 46.7164 14.2043C46.7164 14.201 46.7164 14.1977 46.7164 14.1955V14.1944Z" fill="#3A2911"/>
<path d="M46.7396 29.1774C45.4112 29.1774 44.0817 29.1862 42.7533 29.1741C41.9942 29.1676 41.8422 28.9997 41.8433 28.267C41.8433 26.7534 41.8377 25.2386 41.8433 23.7249C41.8455 23.0558 42.0086 22.8562 42.6867 22.8529C44.8263 22.8431 46.966 22.8639 49.1067 22.8749C49.7138 22.8782 50.3208 22.9012 50.9268 22.8891C51.3573 22.8814 51.5538 23.1184 51.5571 23.4869C51.5715 25.22 51.5715 26.953 51.5549 28.686C51.5504 29.1259 51.1975 29.1807 50.838 29.1796C49.473 29.1785 48.1068 29.1796 46.7418 29.1774H46.7396Z" fill="#3A2911"/>
<path d="M46.8267 15.1328C48.1859 15.1328 49.5462 15.1361 50.9054 15.1307C51.4026 15.1285 51.5485 15.4775 51.554 15.8474C51.5761 17.503 51.5684 19.1585 51.5518 20.8141C51.5485 21.1676 51.3938 21.4455 50.9551 21.4466C48.4743 21.4488 45.9946 21.4597 43.5138 21.4608C43.1647 21.4608 42.8166 21.4247 42.4674 21.4061C42.0408 21.3831 41.8386 21.1599 41.8408 20.7386C41.8475 19.1728 41.8441 17.6069 41.8563 16.0411C41.8618 15.3517 42.0961 15.1416 42.7989 15.1405C44.1415 15.1405 45.483 15.1405 46.8256 15.1405C46.8256 15.1372 46.8256 15.135 46.8256 15.1318L46.8267 15.1328Z" fill="#3A2911"/>
<path d="M63.6488 29.1682C62.402 29.1682 61.1552 29.1716 59.9084 29.1671C59.1398 29.1637 58.9957 29.0273 58.989 28.2555C58.9778 26.7466 58.9756 25.2366 58.9823 23.7277C58.9856 22.9381 59.227 22.7065 60.0291 22.7032C61.3507 22.6987 62.6724 22.7244 63.9929 22.6965C64.6297 22.683 65.0777 22.9414 65.3726 23.4649C66.0765 24.712 66.7591 25.9726 67.4506 27.2265C67.6484 27.5844 67.8472 27.9423 68.0494 28.2969C68.4114 28.9333 68.2729 29.1805 67.5545 29.1805C66.2519 29.1805 64.9503 29.1805 63.6477 29.1805V29.1682H63.6488Z" fill="#3A2911"/>
<path d="M64.4636 7.41214C65.7001 7.41214 66.9355 7.40876 68.172 7.41326C68.8762 7.41664 69.027 7.68359 68.6821 8.32111C67.8127 9.92843 66.9289 11.5267 66.0672 13.1386C65.801 13.6364 65.4251 13.8955 64.8728 13.8955C63.4511 13.8932 62.0294 13.8989 60.6077 13.8797C60.0299 13.8718 59.7516 13.5914 59.7505 13C59.7505 11.3882 59.7693 9.77637 59.8026 8.16455C59.8137 7.61713 60.0477 7.43128 60.6975 7.4234C61.9529 7.40988 63.2083 7.41889 64.4636 7.41889C64.4636 7.41664 64.4636 7.41326 64.4636 7.41101V7.41214Z" fill="#3A2911"/>
<path d="M125.43 39.368C124.768 39.4392 124.052 39.1588 123.527 38.445C123.478 38.3781 123.416 38.3203 123.372 38.2501C123.156 37.8994 123.173 37.5764 123.41 37.4291C123.663 37.2727 123.893 37.3948 124.113 37.8032C124.626 38.7538 126.179 38.8074 126.772 37.8978C126.869 37.748 126.975 37.589 127.116 37.4877C127.221 37.4124 127.437 37.3563 127.516 37.4132C127.623 37.4902 127.703 37.6869 127.693 37.8258C127.681 38.0116 127.614 38.2233 127.499 38.3664C127.022 38.9563 126.454 39.4057 125.431 39.3672L125.43 39.368Z" fill="#3A2911"/>
</svg>
