<svg width="158" height="56" viewBox="0 0 158 56" fill="none" xmlns="http://www.w3.org/2000/svg">
<path d="M53 0C50.0198 6.11708 39.509 10.637 27 10.637C14.491 10.637 3.98017 6.11708 1 0" stroke="white" stroke-width="1.01305"/>
<path d="M53 11.1436C50.0198 5.02648 39.509 0.506556 27 0.506556C14.491 0.506556 3.98017 5.02648 1 11.1436" stroke="white" stroke-width="1.01305"/>
<path d="M105 0C102.02 6.11708 91.509 10.637 79 10.637C66.491 10.637 55.9802 6.11708 53 0" stroke="white" stroke-width="1.01305"/>
<path d="M105 11.1436C102.02 5.02648 91.509 0.506556 79 0.506556C66.491 0.506556 55.9802 5.02648 53 11.1436" stroke="white" stroke-width="1.01305"/>
<path d="M157 0C154.02 6.11708 143.509 10.637 131 10.637C118.491 10.637 107.98 6.11708 105 0" stroke="white" stroke-width="1.01305"/>
<path d="M157 11.1436C154.02 5.02648 143.509 0.506556 131 0.506556C118.491 0.506556 107.98 5.02648 105 11.1436" stroke="white" stroke-width="1.01305"/>
<path d="M53 11.1436C50.0198 17.2606 39.509 21.7806 27 21.7806C14.491 21.7806 3.98017 17.2606 1 11.1436" stroke="white" stroke-width="1.01305"/>
<path d="M53 22.2871C50.0198 16.17 39.509 11.6501 27 11.6501C14.491 11.6501 3.98017 16.17 1 22.2871" stroke="white" stroke-width="1.01305"/>
<path d="M105 11.1436C102.02 17.2606 91.509 21.7806 79 21.7806C66.491 21.7806 55.9802 17.2606 53 11.1436" stroke="white" stroke-width="1.01305"/>
<path d="M105 22.2871C102.02 16.17 91.509 11.6501 79 11.6501C66.491 11.6501 55.9802 16.17 53 22.2871" stroke="white" stroke-width="1.01305"/>
<path d="M157 11.1436C154.02 17.2606 143.509 21.7806 131 21.7806C118.491 21.7806 107.98 17.2606 105 11.1436" stroke="white" stroke-width="1.01305"/>
<path d="M157 22.2871C154.02 16.17 143.509 11.6501 131 11.6501C118.491 11.6501 107.98 16.17 105 22.2871" stroke="white" stroke-width="1.01305"/>
<path d="M53 22.2871C50.0198 28.4042 39.509 32.9241 27 32.9241C14.491 32.9241 3.98017 28.4042 1 22.2871" stroke="white" stroke-width="1.01305"/>
<path d="M53 33.4307C50.0198 27.3136 39.509 22.7937 27 22.7937C14.491 22.7937 3.98017 27.3136 1 33.4307" stroke="white" stroke-width="1.01305"/>
<path d="M105 22.2871C102.02 28.4042 91.509 32.9241 79 32.9241C66.491 32.9241 55.9802 28.4042 53 22.2871" stroke="white" stroke-width="1.01305"/>
<path d="M105 33.4307C102.02 27.3136 91.509 22.7937 79 22.7937C66.491 22.7937 55.9802 27.3136 53 33.4307" stroke="white" stroke-width="1.01305"/>
<path d="M157 22.2871C154.02 28.4042 143.509 32.9241 131 32.9241C118.491 32.9241 107.98 28.4042 105 22.2871" stroke="white" stroke-width="1.01305"/>
<path d="M157 33.4307C154.02 27.3136 143.509 22.7937 131 22.7937C118.491 22.7937 107.98 27.3136 105 33.4307" stroke="white" stroke-width="1.01305"/>
<path d="M53 33.4307C50.0198 39.5477 39.509 44.0677 27 44.0677C14.491 44.0677 3.98017 39.5477 1 33.4307" stroke="white" stroke-width="1.01305"/>
<path d="M53 44.5742C50.0198 38.4571 39.509 33.9372 27 33.9372C14.491 33.9372 3.98017 38.4571 1 44.5742" stroke="white" stroke-width="1.01305"/>
<path d="M105 33.4307C102.02 39.5477 91.509 44.0677 79 44.0677C66.491 44.0677 55.9802 39.5477 53 33.4307" stroke="white" stroke-width="1.01305"/>
<path d="M105 44.5742C102.02 38.4571 91.509 33.9372 79 33.9372C66.491 33.9372 55.9802 38.4571 53 44.5742" stroke="white" stroke-width="1.01305"/>
<path d="M157 33.4307C154.02 39.5477 143.509 44.0677 131 44.0677C118.491 44.0677 107.98 39.5477 105 33.4307" stroke="white" stroke-width="1.01305"/>
<path d="M157 44.5742C154.02 38.4571 143.509 33.9372 131 33.9372C118.491 33.9372 107.98 38.4571 105 44.5742" stroke="white" stroke-width="1.01305"/>
<path d="M53 44.5742C50.0198 50.6913 39.509 55.2112 27 55.2112C14.491 55.2112 3.98017 50.6913 1 44.5742" stroke="white" stroke-width="1.01305"/>
<path d="M53 55.7178C50.0198 49.6007 39.509 45.0808 27 45.0808C14.491 45.0808 3.98017 49.6007 1 55.7178" stroke="white" stroke-width="1.01305"/>
<path d="M105 44.5742C102.02 50.6913 91.509 55.2112 79 55.2112C66.491 55.2112 55.9802 50.6913 53 44.5742" stroke="white" stroke-width="1.01305"/>
<path d="M105 55.7178C102.02 49.6007 91.509 45.0808 79 45.0808C66.491 45.0808 55.9802 49.6007 53 55.7178" stroke="white" stroke-width="1.01305"/>
<path d="M157 44.5742C154.02 50.6913 143.509 55.2112 131 55.2112C118.491 55.2112 107.98 50.6913 105 44.5742" stroke="white" stroke-width="1.01305"/>
<path d="M157 55.7178C154.02 49.6007 143.509 45.0808 131 45.0808C118.491 45.0808 107.98 49.6007 105 55.7178" stroke="white" stroke-width="1.01305"/>
</svg>
