<svg width="24" height="24" viewBox="0 0 24 24" fill="none" xmlns="http://www.w3.org/2000/svg">
<path d="M17.6719 6.42188H20.4844V7.82812H17.6719V6.42188Z" fill="#F2C69E"/>
<path d="M23.2969 2.85938H7.03125V19.7812H23.2969C23.6852 19.7812 24 19.4665 24 19.0781V3.5625C24 3.17413 23.6852 2.85938 23.2969 2.85938ZM9.84375 5.01562H14.1562C14.545 5.01562 14.8594 5.3302 14.8594 5.71875C14.8594 6.10748 14.545 6.42187 14.1562 6.42187H9.84375C9.4552 6.42187 9.14062 6.10748 9.14062 5.71875C9.14062 5.3302 9.4552 5.01562 9.84375 5.01562ZM9.84375 7.82812H14.1562C14.545 7.82812 14.8594 8.14269 14.8594 8.53124C14.8594 8.91997 14.545 9.23437 14.1562 9.23437H9.84375C9.4552 9.23437 9.14062 8.91997 9.14062 8.53124C9.14062 8.14269 9.4552 7.82812 9.84375 7.82812ZM21.1875 17.6719H9.84375C9.4552 17.6719 9.14062 17.3575 9.14062 16.9687C9.14062 16.5802 9.4552 16.2656 9.84375 16.2656H21.1875C21.5762 16.2656 21.8906 16.5802 21.8906 16.9687C21.8906 17.3575 21.5762 17.6719 21.1875 17.6719ZM21.1875 14.8594H9.84375C9.4552 14.8594 9.14062 14.545 9.14062 14.1562C9.14062 13.7677 9.4552 13.4531 9.84375 13.4531H21.1875C21.5762 13.4531 21.8906 13.7677 21.8906 14.1562C21.8906 14.545 21.5762 14.8594 21.1875 14.8594ZM21.1875 12.0469H9.84375C9.4552 12.0469 9.14062 11.7325 9.14062 11.3437C9.14062 10.9552 9.4552 10.6406 9.84375 10.6406H21.1875C21.5762 10.6406 21.8906 10.9552 21.8906 11.3437C21.8906 11.7325 21.5762 12.0469 21.1875 12.0469ZM21.8906 8.53124C21.8906 8.91997 21.5762 9.23437 21.1875 9.23437H16.9687C16.5802 9.23437 16.2656 8.91997 16.2656 8.53124V5.71875C16.2656 5.3302 16.5802 5.01562 16.9687 5.01562H21.1875C21.5762 5.01562 21.8906 5.3302 21.8906 5.71875V8.53124Z" fill="#F2C69E"/>
<path d="M2.81252 18.375C1.10452 18.375 -0.248082 19.8975 0.0384772 21.6597C0.26333 23.0425 1.56191 24 2.96285 24H20.4844C20.8727 24 21.1875 23.6852 21.1875 23.2969V21.1875H6.2516C5.92806 21.1875 5.63527 20.9683 5.57393 20.6506C5.32326 19.3541 4.18215 18.375 2.81252 18.375Z" fill="#F2C69E"/>
<path d="M5.62499 18.0584V2.8125C5.62499 1.25921 4.36578 0 2.8125 0C1.25921 0 0 1.25921 0 2.8125V18.0661C0.748168 17.3913 1.72815 16.9687 2.8125 16.9687C3.89501 16.9687 4.87737 17.3858 5.62499 18.0584Z" fill="#F2C69E"/>
</svg>
