<svg width="16" height="16" viewBox="0 0 16 16" fill="none" xmlns="http://www.w3.org/2000/svg">
<path d="M11.8335 3.10254H4.48111C3.72098 3.10254 3.10254 3.72098 3.10254 4.48111V11.8335C3.10254 12.5937 3.72098 13.2121 4.48111 13.2121H11.8335C12.5937 13.2121 13.2121 12.5937 13.2121 11.8335V4.48111C13.2121 3.72098 12.5937 3.10254 11.8335 3.10254ZM8.15732 11.374C6.38384 11.374 4.94064 9.9308 4.94064 8.15732C4.94064 6.38384 6.38384 4.94064 8.15732 4.94064C9.9308 4.94064 11.374 6.38384 11.374 8.15732C11.374 9.9308 9.9308 11.374 8.15732 11.374ZM11.374 5.85969C10.8673 5.85969 10.4549 5.44731 10.4549 4.94064C10.4549 4.43397 10.8673 4.02159 11.374 4.02159C11.8807 4.02159 12.293 4.43397 12.293 4.94064C12.293 5.44731 11.8807 5.85969 11.374 5.85969Z" fill="white"/>
<path d="M8.15749 5.85986C6.89068 5.85986 5.85986 6.89068 5.85986 8.15749C5.85986 9.4243 6.89068 10.4551 8.15749 10.4551C9.4243 10.4551 10.4551 9.4243 10.4551 8.15749C10.4551 6.89068 9.4243 5.85986 8.15749 5.85986Z" fill="white"/>
<path d="M13.6718 0.314941H2.6432C1.3764 0.314941 0.314941 1.3764 0.314941 2.6432V13.6718C0.314941 14.9386 1.3764 16.0001 2.6432 16.0001H13.6718C14.9386 16.0001 16.0001 14.9386 16.0001 13.6718V2.6432C16.0001 1.3764 14.9386 0.314941 13.6718 0.314941ZM14.1313 11.8337C14.1313 13.1005 13.1005 14.1313 11.8337 14.1313H4.4813C3.2145 14.1313 2.18368 13.1005 2.18368 11.8337V4.4813C2.18368 3.2145 3.2145 2.18368 4.4813 2.18368H11.8337C13.1005 2.18368 14.1313 3.2145 14.1313 4.4813V11.8337Z" fill="white"/>
</svg>
