<svg width="154" height="29" viewBox="0 0 154 29" fill="none" xmlns="http://www.w3.org/2000/svg">
<g clip-path="url(#clip0_106_22018)">
<path d="M6.68357 2.1672C8.31048 2.1672 9.80182 2.46314 11.1576 3.05503C12.538 3.64692 13.7335 4.49776 14.7442 5.60755C15.7548 6.71734 16.5436 8.07375 17.1106 9.67678C17.6776 11.2798 17.961 13.0925 17.961 15.1147C17.961 17.1617 17.6776 18.9867 17.1106 20.5897C16.5436 22.1927 15.7548 23.5492 14.7442 24.6589C13.7335 25.7687 12.538 26.6196 11.1576 27.2115C9.80182 27.7787 8.31048 28.0623 6.68357 28.0623H0.212891V27.6924L2.43141 27.1375V3.09202L0.212891 2.53713V2.1672H6.68357ZM5.57431 2.90706V27.3224H6.68357C7.74353 27.3224 8.74186 27.1005 9.67857 26.6566C10.6399 26.188 11.4657 25.4605 12.1559 24.474C12.8708 23.4875 13.4254 22.2297 13.8198 20.7007C14.2389 19.147 14.4484 17.285 14.4484 15.1147C14.4484 12.9445 14.2389 11.0948 13.8198 9.5658C13.4254 8.01209 12.8708 6.742 12.1559 5.75552C11.4657 4.76904 10.6399 4.05384 9.67857 3.60993C8.74186 3.14135 7.74353 2.90706 6.68357 2.90706H5.57431ZM38.0965 15.1147C38.0965 17.3837 37.8377 19.3689 37.3201 21.0706C36.8271 22.7476 36.1615 24.1534 35.3234 25.2878C34.5099 26.3976 33.5856 27.2361 32.5503 27.8033C31.5149 28.3459 30.4673 28.6172 29.4074 28.6172C28.3475 28.6172 27.2999 28.3459 26.2646 27.8033C25.2293 27.2361 24.2926 26.3976 23.4545 25.2878C22.641 24.1534 21.9754 22.7476 21.4578 21.0706C20.9648 19.3689 20.7183 17.3837 20.7183 15.1147C20.7183 12.8458 20.9648 10.8729 21.4578 9.19587C21.9754 7.49419 22.641 6.08846 23.4545 4.97867C24.2926 3.84422 25.2293 3.00571 26.2646 2.46314C27.2999 1.89592 28.3475 1.6123 29.4074 1.6123C30.4673 1.6123 31.5149 1.89592 32.5503 2.46314C33.5856 3.00571 34.5099 3.84422 35.3234 4.97867C36.1615 6.08846 36.8271 7.49419 37.3201 9.19587C37.8377 10.8729 38.0965 12.8458 38.0965 15.1147ZM34.5839 15.1147C34.5839 12.5746 34.4237 10.4783 34.1032 8.82594C33.8074 7.14892 33.4007 5.81718 32.883 4.8307C32.39 3.84422 31.8354 3.15368 31.2191 2.75909C30.6029 2.3645 29.999 2.1672 29.4074 2.1672C28.8159 2.1672 28.2119 2.3645 27.5957 2.75909C26.9794 3.15368 26.4125 3.84422 25.8948 4.8307C25.4018 5.81718 24.9951 7.14892 24.6746 8.82594C24.3788 10.4783 24.2309 12.5746 24.2309 15.1147C24.2309 17.6549 24.3788 19.7635 24.6746 21.4406C24.9951 23.0929 25.4018 24.4123 25.8948 25.3988C26.4125 26.3853 26.9794 27.0758 27.5957 27.4704C28.2119 27.865 28.8159 28.0623 29.4074 28.0623C29.999 28.0623 30.6029 27.865 31.2191 27.4704C31.8354 27.0758 32.39 26.3853 32.883 25.3988C33.4007 24.4123 33.8074 23.0929 34.1032 21.4406C34.4237 19.7635 34.5839 17.6549 34.5839 15.1147ZM61.7537 2.1672H66.9302V2.53713L64.7117 3.09202V27.1375L66.9302 27.6924V28.0623H59.3503V27.6924L61.5688 27.1375V5.3116L53.6191 28.6172H53.0645L44.1904 5.3116V26.7675L46.5938 27.6924V28.0623H41.0475V27.6924L43.4509 26.7675V3.27699L41.0475 2.53713V2.1672H46.4089L54.5065 23.4382L61.7537 2.1672ZM80.9867 20.4787H73.4067L71.558 26.7675L73.9614 27.6924V28.0623H68.4151V27.6924L70.8185 26.7675L78.0286 1.6123H78.5833L86.3481 27.1375L88.5666 27.6924V28.0623H80.8018V27.6924L83.0203 27.1375L80.9867 20.4787ZM73.5916 19.7759H80.7648L77.0673 7.53118L73.5916 19.7759ZM89.2888 26.3976C89.2888 25.8304 89.4861 25.3495 89.8805 24.9549C90.2749 24.5603 90.7555 24.363 91.3225 24.363C91.8895 24.363 92.3701 24.5603 92.7645 24.9549C93.1589 25.3495 93.3561 25.8304 93.3561 26.3976C93.3561 26.9648 93.1589 27.4457 92.7645 27.8403C92.3701 28.2349 91.8895 28.4322 91.3225 28.4322C90.7555 28.4322 90.2749 28.2349 89.8805 27.8403C89.4861 27.4457 89.2888 26.9648 89.2888 26.3976ZM94.4811 2.53713V2.1672H102.246V2.53713L100.027 3.09202L105.943 22.5133L111.12 3.46195L108.717 2.53713V2.1672H114.263V2.53713L111.859 3.46195L105.019 28.6172H104.464L96.6996 3.09202L94.4811 2.53713ZM122.023 2.1672C123.601 2.1672 124.969 2.33983 126.128 2.6851C127.286 3.03037 128.248 3.49895 129.012 4.09084C129.776 4.68272 130.343 5.37326 130.713 6.16244C131.082 6.92697 131.267 7.75314 131.267 8.64097C131.267 9.35617 131.156 9.99738 130.934 10.5646C130.737 11.1072 130.466 11.6004 130.121 12.0443C129.801 12.4636 129.418 12.8212 128.975 13.1171C128.531 13.4131 128.087 13.6597 127.644 13.857C126.584 14.3256 125.388 14.6215 124.057 14.7448C125.142 14.8681 126.128 15.1271 127.015 15.5217C127.779 15.8669 128.494 16.3725 129.16 17.0384C129.825 17.7043 130.22 18.6044 130.343 19.7389L131.082 26.2126C131.132 26.6812 131.243 27.0142 131.415 27.2115C131.588 27.4088 131.785 27.5074 132.007 27.5074C132.13 27.5074 132.253 27.4704 132.376 27.3964C132.524 27.2978 132.66 27.1868 132.783 27.0635C132.906 26.9402 133.017 26.7799 133.116 26.5826L133.486 26.9525C133.338 27.2731 133.128 27.5567 132.857 27.8033C132.635 28.0006 132.339 28.1856 131.97 28.3582C131.625 28.5309 131.206 28.6172 130.713 28.6172C129.874 28.6172 129.184 28.3829 128.642 27.9143C128.124 27.4211 127.829 26.8539 127.755 26.2126L127.015 19.7389C126.916 18.9004 126.756 18.1975 126.534 17.6303C126.313 17.0384 126.004 16.5575 125.61 16.1875C125.24 15.8176 124.76 15.5463 124.168 15.3737C123.576 15.2011 122.861 15.1147 122.023 15.1147H120.544V27.1375L122.763 27.6924V28.0623H115.183V27.6924L117.401 27.1375V3.09202L115.183 2.53713V2.1672H122.023ZM127.755 8.64097C127.755 6.79132 127.262 5.37326 126.276 4.38678C125.29 3.4003 123.872 2.90706 122.023 2.90706H120.544V14.3749H122.023C123.872 14.3749 125.29 13.8816 126.276 12.8952C127.262 11.9087 127.755 10.4906 127.755 8.64097ZM150.857 3.46195L148.454 2.53713V2.1672H154V2.53713L151.597 3.46195V28.4322H151.042L138.47 5.3116V26.7675L140.874 27.6924V28.0623H135.327V27.6924L137.731 26.7675V3.27699L135.327 2.53713V2.1672H140.319L150.857 21.5885V3.46195Z" fill="white"/>
</g>
<defs>
<clipPath id="clip0_106_22018">
<rect width="154" height="28" fill="white" transform="translate(0 0.717773)"/>
</clipPath>
</defs>
</svg>
