<svg width="20" height="20" viewBox="0 0 20 20" fill="none" xmlns="http://www.w3.org/2000/svg">
<path fill-rule="evenodd" clip-rule="evenodd" d="M18.9202 0.600428C19.2087 0.985652 19.3969 1.52967 19.4 2.14221V17.2417C19.4 17.856 19.2137 18.4063 18.9239 18.7962C18.6344 19.1857 18.2561 19.4 17.8588 19.4H1.54114C1.15252 19.4 0.773911 19.1909 0.482373 18.8046C0.190937 18.4185 0 17.8689 0 17.2417V2.15785C0.000177115 1.53862 0.189151 0.988693 0.480018 0.60032C0.770925 0.211893 1.14926 2.64347e-05 1.54053 0H17.8595C18.2508 0 18.6292 0.211962 18.9202 0.600428ZM0.57188 2.15744C0.57188 2.48652 0.692326 2.81753 0.930716 3.03141L0.935208 3.03543L9.12927 10.3295C9.29117 10.4736 9.48981 10.556 9.70005 10.556C9.91028 10.556 10.1089 10.4736 10.2708 10.3295L18.4662 3.03414C18.7065 2.82037 18.8281 2.48814 18.8281 2.15874C18.8281 1.85338 18.7357 1.56539 18.5723 1.34695C18.4088 1.12854 18.1599 0.964733 17.8595 0.964733H1.54052C1.24012 0.964733 0.99124 1.12848 0.827832 1.34664C0.664385 1.56486 0.57188 1.85255 0.57188 2.15744ZM8.87814 11.1831L0.57188 3.7893V17.2417C0.57188 17.5506 0.665685 17.8391 0.830437 18.0569C0.994996 18.2745 1.24392 18.4353 1.54114 18.4353H17.8589C18.1628 18.4353 18.4121 18.2693 18.5748 18.0499C18.7373 17.8309 18.8281 17.5434 18.8281 17.2418V3.7893L10.5219 11.1831C10.2608 11.4155 9.97462 11.5214 9.7 11.5214C9.42543 11.5214 9.13925 11.4156 8.87814 11.1831Z" fill="#886639"/>
</svg>
