<svg width="25" height="25" viewBox="0 0 25 25" fill="none" xmlns="http://www.w3.org/2000/svg">
<path d="M12.0469 0V1.40654C17.8639 1.40654 22.5959 6.13851 22.5959 11.9556H24.0024C24.0024 5.36313 18.6394 0 12.0469 0Z" fill="#F2C69E"/>
<path d="M12.0469 4.21973V5.62626C15.5371 5.62626 18.3763 8.46545 18.3763 11.9557H19.7828C19.7828 7.69008 16.3125 4.21973 12.0469 4.21973Z" fill="#F2C69E"/>
<path d="M12.0469 9.84599C13.2103 9.84599 14.1567 10.7924 14.1567 11.9558H15.5632C15.5632 10.017 13.9857 8.43945 12.0469 8.43945V9.84599Z" fill="#F2C69E"/>
<path d="M16.2198 24.0049H16.9231V18.5793L12.0064 16.8974L9.92404 18.286C8.11228 17.4619 6.54831 15.851 5.72417 14.0393L7.11214 11.957L5.43091 7.03271H0.163282C0.120101 7.4603 0.0202372 8.09095 0.00246796 9.05874C-0.0637331 12.6545 1.2037 16.2463 3.589 18.9234C5.65412 21.2413 9.56074 24.0049 16.2198 24.0049Z" fill="#F2C69E"/>
</svg>
