<svg width="24" height="26" viewBox="0 0 24 26" fill="none" xmlns="http://www.w3.org/2000/svg">
<path d="M16.3919 17.6706C16.3266 17.736 16.2492 17.7898 16.1625 17.8286L11.2108 20.0408C11.1103 20.0857 11.0039 20.1075 10.8983 20.1075C10.8982 20.1075 10.8981 20.1075 10.8981 20.1075H4.14378C3.72036 20.1075 3.37713 19.7642 3.37713 19.3408C3.37713 18.9174 3.72036 18.5742 4.14378 18.5742H10.4009L11.2246 16.7303H4.14378C3.72036 16.7303 3.37713 16.3871 3.37713 15.9637C3.37713 15.5403 3.72036 15.197 4.14378 15.197H11.9096L12.4103 14.0763C12.449 13.9897 12.5029 13.9123 12.5682 13.847L13.0619 13.3532H4.14378C3.72036 13.3532 3.37713 13.01 3.37713 12.5866C3.37713 12.1631 3.72036 11.8199 4.14378 11.8199H14.2752C14.3704 11.8199 14.4612 11.8381 14.5453 11.8698L18.4189 7.9962V0.766649C18.4189 0.34323 18.0757 0 17.6523 0H0.766699C0.343279 0 0 0.34323 0 0.766649V24.4065C0 24.8299 0.34323 25.1731 0.76665 25.1731H17.6523C18.0757 25.1731 18.4189 24.8299 18.4189 24.4065V15.6436L16.3919 17.6706ZM4.14378 5.06565H14.2752C14.6986 5.06565 15.0418 5.40888 15.0418 5.8323C15.0418 6.25572 14.6986 6.59895 14.2752 6.59895H4.14378C3.72036 6.59895 3.37713 6.25572 3.37713 5.8323C3.37713 5.40888 3.72036 5.06565 4.14378 5.06565ZM4.14378 8.44278H14.2752C14.6986 8.44278 15.0418 8.78601 15.0418 9.20943C15.0418 9.63285 14.6986 9.97608 14.2752 9.97608H4.14378C3.72036 9.97608 3.37713 9.63285 3.37713 9.20943C3.37713 8.78606 3.72036 8.44278 4.14378 8.44278Z" fill="#F2C69E"/>
<path d="M23.7753 7.0349L23.2042 6.46379C22.9048 6.16441 22.4194 6.16441 22.12 6.46379L14.1943 14.3894L15.8497 16.0448L23.7753 8.11912C24.0747 7.81974 24.0747 7.33433 23.7753 7.0349Z" fill="#F2C69E"/>
<path d="M14.5199 16.8829L13.3558 15.7188L12.4158 17.823L14.5199 16.8829Z" fill="#F2C69E"/>
</svg>
