<svg width="21" height="21" viewBox="0 0 21 21" fill="none" xmlns="http://www.w3.org/2000/svg">
<path fill-rule="evenodd" clip-rule="evenodd" d="M19.5276 1.46542C19.8161 1.85064 20.0043 2.39466 20.0074 3.0072V18.1067C20.0074 18.721 19.8211 19.2713 19.5314 19.6612C19.2419 20.0506 18.8635 20.265 18.4662 20.265H2.14856C1.75994 20.265 1.38133 20.0559 1.08979 19.6696C0.798359 19.2835 0.607422 18.7339 0.607422 18.1067V3.02284C0.607599 2.40361 0.796573 1.85368 1.08744 1.46531C1.37835 1.07688 1.75668 0.865017 2.14795 0.86499H18.4669C18.8583 0.86499 19.2367 1.07695 19.5276 1.46542ZM1.1793 3.02243C1.1793 3.35151 1.29975 3.68253 1.53814 3.8964L1.54263 3.90042L9.73669 11.1944C9.89859 11.3386 10.0972 11.421 10.3075 11.421C10.5177 11.4209 10.7163 11.3385 10.8782 11.1945L19.0737 3.89913C19.3139 3.68536 19.4355 3.35313 19.4355 3.02373C19.4355 2.71837 19.3431 2.43038 19.1797 2.21194C19.0163 1.99353 18.7674 1.82972 18.4669 1.82972H2.14794C1.84754 1.82972 1.59866 1.99347 1.43525 2.21163C1.27181 2.42985 1.1793 2.71754 1.1793 3.02243ZM9.48556 12.0481L1.1793 4.65429V18.1067C1.1793 18.4156 1.27311 18.7041 1.43786 18.9219C1.60242 19.1395 1.85134 19.3003 2.14856 19.3003H18.4663C18.7702 19.3003 19.0195 19.1343 19.1822 18.9149C19.3447 18.6959 19.4355 18.4084 19.4355 18.1068V4.65429L11.1293 12.0481C10.8682 12.2805 10.582 12.3864 10.3074 12.3864C10.0329 12.3864 9.74667 12.2805 9.48556 12.0481Z" fill="#886639"/>
</svg>
