<svg width="21" height="21" viewBox="0 0 21 21" fill="none" xmlns="http://www.w3.org/2000/svg">
<path d="M19.7747 15.983L15.728 13.282C15.4803 13.118 15.1798 13.0534 14.8866 13.1012C14.5933 13.1489 14.3289 13.3054 14.1459 13.5395L12.9673 15.0556C12.8946 15.153 12.7889 15.2205 12.67 15.2456C12.5511 15.2707 12.4271 15.2515 12.3212 15.1918L12.0975 15.0668C10.7741 14.3448 9.58047 13.407 8.56571 12.2921C7.45133 11.277 6.51333 10.0837 5.79001 8.76115L5.66503 8.53742C5.60474 8.43117 5.58544 8.30651 5.61076 8.187C5.63609 8.06749 5.7043 7.96138 5.80251 7.88873L7.31721 6.71008C7.55102 6.52689 7.70732 6.2624 7.75502 5.9692C7.80272 5.67601 7.73833 5.3756 7.57466 5.12772L4.87394 1.08058C4.70652 0.828871 4.44853 0.651386 4.15362 0.585041C3.8587 0.518696 3.54957 0.568597 3.2905 0.724366L1.59834 1.74053C1.06521 2.05396 0.674514 2.56209 0.508552 3.1579C-0.101328 5.37895 0.357332 9.21111 6.00747 14.8581C10.4978 19.349 13.8409 20.5564 16.1392 20.5564C16.668 20.5585 17.1947 20.4895 17.7052 20.3514C18.2989 20.1848 18.8051 19.7946 19.1174 19.2627L20.1347 17.5716C20.2916 17.3116 20.3418 17.001 20.2747 16.7048C20.2076 16.4086 20.0284 16.1499 19.7747 15.983ZM19.5573 17.2266L18.5425 18.919C18.3181 19.3028 17.954 19.5849 17.5264 19.7064C15.4768 20.2689 11.8951 19.8027 6.47487 14.3831C1.05469 8.96363 0.588536 5.38395 1.15217 3.33038C1.27391 2.90218 1.55647 2.53762 1.94077 2.31297L3.63293 1.29806C3.74543 1.23046 3.87966 1.20885 4.00769 1.23772C4.13572 1.26658 4.24769 1.34371 4.3203 1.45305L5.78626 3.65785L7.01727 5.50394C7.08836 5.61136 7.11639 5.74162 7.09577 5.86878C7.07516 5.99594 7.00742 6.11067 6.90604 6.19013L5.39009 7.36377C5.16633 7.53444 5.01183 7.78028 4.9551 8.05593C4.89836 8.33159 4.94322 8.61847 5.0814 8.86364L5.20637 9.08237C5.95637 10.4613 6.93076 11.7057 8.08955 12.7645C9.14886 13.9267 10.3944 14.9042 11.7751 15.6568L11.9938 15.7818C12.2389 15.92 12.5258 15.9648 12.8014 15.9081C13.077 15.8514 13.3228 15.6968 13.4935 15.4731L14.672 13.9582C14.7516 13.857 14.8663 13.7895 14.9934 13.7689C15.1205 13.7483 15.2506 13.7761 15.3581 13.8469L19.4048 16.5467C19.5114 16.6195 19.5864 16.7301 19.6147 16.856C19.643 16.982 19.6225 17.114 19.5573 17.2254V17.2266Z" fill="#886639"/>
</svg>
