<svg width="231" height="57" viewBox="0 0 231 57" fill="none" xmlns="http://www.w3.org/2000/svg">
<mask id="mask0_106_26477" style="mask-type:alpha" maskUnits="userSpaceOnUse" x="0" y="0" width="231" height="57">
<path d="M2.06517 10.9369C2.67154 4.91983 7.79071 0.452148 13.8382 0.452148H217.688C223.735 0.452148 228.855 4.91983 229.461 10.9369C230.019 16.4771 230.56 23.207 230.56 28.5039C230.56 33.8008 230.019 40.5307 229.461 46.0709C228.855 52.088 223.735 56.5556 217.688 56.5556H13.8383C7.79072 56.5556 2.67154 52.0879 2.06517 46.0709C1.50686 40.5307 0.966553 33.8008 0.966553 28.5039C0.966553 23.207 1.50686 16.4771 2.06517 10.9369Z" fill="#646464"/>
</mask>
<g mask="url(#mask0_106_26477)">
<path d="M-1.58569 -11.3086C-1.58569 -7.31002 1.98328 -7.31003 1.98328 -3.31145C1.98328 0.687118 -1.58569 0.687112 -1.58569 4.68568C-1.58569 8.68426 1.98328 8.68429 1.98328 12.6829C1.98328 16.6814 -1.58569 16.6814 -1.58569 20.68C-1.58569 24.6786 1.98328 24.6786 1.98328 28.6771C1.98328 32.6757 -1.58569 32.6757 -1.58569 36.6743C-1.58569 40.6729 1.98328 40.6729 1.98328 44.6714C1.98328 48.67 -1.58569 48.67 -1.58569 52.6686C-1.58569 56.6671 1.98328 56.6672 1.98328 60.6657C1.98328 64.6643 -1.58569 64.6627 -1.58569 68.6613" stroke="#2F6264" stroke-width="1.09091" stroke-miterlimit="10"/>
<path d="M1.9834 -11.3086C1.9834 -7.31002 5.55238 -7.31003 5.55238 -3.31145C5.55238 0.687118 1.9834 0.687112 1.9834 4.68568C1.9834 8.68426 5.55238 8.68429 5.55238 12.6829C5.55238 16.6814 1.9834 16.6814 1.9834 20.68C1.9834 24.6786 5.55237 24.6786 5.55237 28.6771C5.55237 32.6757 1.9834 32.6757 1.9834 36.6743C1.9834 40.6729 5.55237 40.6729 5.55237 44.6714C5.55237 48.67 1.9834 48.67 1.9834 52.6686C1.9834 56.6671 5.55237 56.6672 5.55237 60.6657C5.55237 64.6643 1.9834 64.6627 1.9834 68.6613" stroke="#2F6264" stroke-width="1.09091" stroke-miterlimit="10"/>
<path d="M5.55225 -11.3086C5.55225 -7.31002 9.12122 -7.31003 9.12122 -3.31145C9.12122 0.687118 5.55225 0.687112 5.55225 4.68568C5.55225 8.68426 9.12122 8.68429 9.12122 12.6829C9.12122 16.6814 5.55225 16.6814 5.55225 20.68C5.55225 24.6786 9.12122 24.6786 9.12122 28.6771C9.12122 32.6757 5.55225 32.6757 5.55225 36.6743C5.55225 40.6729 9.12122 40.6729 9.12122 44.6714C9.12122 48.67 5.55225 48.67 5.55225 52.6686C5.55225 56.6671 9.12122 56.6672 9.12122 60.6657C9.12122 64.6643 5.55225 64.6627 5.55225 68.6613" stroke="#2F6264" stroke-width="1.09091" stroke-miterlimit="10"/>
<path d="M9.12134 -11.3086C9.12134 -7.31002 12.6903 -7.31003 12.6903 -3.31145C12.6903 0.687118 9.12134 0.687112 9.12134 4.68568C9.12134 8.68426 12.6903 8.68429 12.6903 12.6829C12.6903 16.6814 9.12134 16.6814 9.12134 20.68C9.12134 24.6786 12.6903 24.6786 12.6903 28.6771C12.6903 32.6757 9.12134 32.6757 9.12134 36.6743C9.12134 40.6729 12.6903 40.6729 12.6903 44.6714C12.6903 48.67 9.12134 48.67 9.12134 52.6686C9.12134 56.6671 12.6903 56.6672 12.6903 60.6657C12.6903 64.6643 9.12134 64.6627 9.12134 68.6613" stroke="#2F6264" stroke-width="1.09091" stroke-miterlimit="10"/>
<path d="M12.6904 -11.3086C12.6904 -7.31002 16.2594 -7.31003 16.2594 -3.31145C16.2594 0.687118 12.6904 0.687112 12.6904 4.68568C12.6904 8.68426 16.2594 8.68429 16.2594 12.6829C16.2594 16.6814 12.6904 16.6814 12.6904 20.68C12.6904 24.6786 16.2594 24.6786 16.2594 28.6771C16.2594 32.6757 12.6904 32.6757 12.6904 36.6743C12.6904 40.6729 16.2594 40.6729 16.2594 44.6714C16.2594 48.67 12.6904 48.67 12.6904 52.6686C12.6904 56.6671 16.2594 56.6672 16.2594 60.6657C16.2594 64.6643 12.6904 64.6627 12.6904 68.6613" stroke="#2F6264" stroke-width="1.09091" stroke-miterlimit="10"/>
<path d="M16.2593 -11.3086C16.2593 -7.31002 19.8283 -7.31003 19.8283 -3.31145C19.8283 0.687118 16.2593 0.687112 16.2593 4.68568C16.2593 8.68426 19.8283 8.68429 19.8283 12.6829C19.8283 16.6814 16.2593 16.6814 16.2593 20.68C16.2593 24.6786 19.8283 24.6786 19.8283 28.6771C19.8283 32.6757 16.2593 32.6757 16.2593 36.6743C16.2593 40.6729 19.8283 40.6729 19.8283 44.6714C19.8283 48.67 16.2593 48.67 16.2593 52.6686C16.2593 56.6671 19.8283 56.6672 19.8283 60.6657C19.8283 64.6643 16.2593 64.6627 16.2593 68.6613" stroke="#2F6264" stroke-width="1.09091" stroke-miterlimit="10"/>
<path d="M19.8284 -11.3086C19.8284 -7.31002 23.3973 -7.31003 23.3973 -3.31145C23.3973 0.687118 19.8284 0.687112 19.8284 4.68568C19.8284 8.68426 23.3973 8.68429 23.3973 12.6829C23.3973 16.6814 19.8284 16.6814 19.8284 20.68C19.8284 24.6786 23.3973 24.6786 23.3973 28.6771C23.3973 32.6757 19.8284 32.6757 19.8284 36.6743C19.8284 40.6729 23.3973 40.6729 23.3973 44.6714C23.3973 48.67 19.8284 48.67 19.8284 52.6686C19.8284 56.6671 23.3973 56.6672 23.3973 60.6657C23.3973 64.6643 19.8284 64.6627 19.8284 68.6613" stroke="#2F6264" stroke-width="1.09091" stroke-miterlimit="10"/>
<path d="M23.3972 -11.3086C23.3972 -7.31002 26.9662 -7.31003 26.9662 -3.31145C26.9662 0.687118 23.3972 0.687112 23.3972 4.68568C23.3972 8.68426 26.9662 8.68429 26.9662 12.6829C26.9662 16.6814 23.3972 16.6814 23.3972 20.68C23.3972 24.6786 26.9662 24.6786 26.9662 28.6771C26.9662 32.6757 23.3972 32.6757 23.3972 36.6743C23.3972 40.6729 26.9662 40.6729 26.9662 44.6714C26.9662 48.67 23.3972 48.67 23.3972 52.6686C23.3972 56.6671 26.9662 56.6672 26.9662 60.6657C26.9662 64.6643 23.3972 64.6627 23.3972 68.6613" stroke="#2F6264" stroke-width="1.09091" stroke-miterlimit="10"/>
<path d="M26.9663 -11.3086C26.9663 -7.31002 30.5353 -7.31003 30.5353 -3.31145C30.5353 0.687118 26.9663 0.687112 26.9663 4.68568C26.9663 8.68426 30.5353 8.68429 30.5353 12.6829C30.5353 16.6814 26.9663 16.6814 26.9663 20.68C26.9663 24.6786 30.5353 24.6786 30.5353 28.6771C30.5353 32.6757 26.9663 32.6757 26.9663 36.6743C26.9663 40.6729 30.5353 40.6729 30.5353 44.6714C30.5353 48.67 26.9663 48.67 26.9663 52.6686C26.9663 56.6671 30.5353 56.6672 30.5353 60.6657C30.5353 64.6643 26.9663 64.6627 26.9663 68.6613" stroke="#2F6264" stroke-width="1.09091" stroke-miterlimit="10"/>
<path d="M30.5352 -11.3086C30.5352 -7.31002 34.1041 -7.31003 34.1041 -3.31145C34.1041 0.687118 30.5352 0.687112 30.5352 4.68568C30.5352 8.68426 34.1041 8.68429 34.1041 12.6829C34.1041 16.6814 30.5352 16.6814 30.5352 20.68C30.5352 24.6786 34.1041 24.6786 34.1041 28.6771C34.1041 32.6757 30.5352 32.6757 30.5352 36.6743C30.5352 40.6729 34.1041 40.6729 34.1041 44.6714C34.1041 48.67 30.5352 48.67 30.5352 52.6686C30.5352 56.6671 34.1041 56.6672 34.1041 60.6657C34.1041 64.6643 30.5352 64.6627 30.5352 68.6613" stroke="#2F6264" stroke-width="1.09091" stroke-miterlimit="10"/>
<path d="M34.1043 -11.3086C34.1043 -7.31002 37.6732 -7.31003 37.6732 -3.31145C37.6732 0.687118 34.1043 0.687112 34.1043 4.68568C34.1043 8.68426 37.6732 8.68429 37.6732 12.6829C37.6732 16.6814 34.1043 16.6814 34.1043 20.68C34.1042 24.6786 37.6732 24.6786 37.6732 28.6771C37.6732 32.6757 34.1042 32.6757 34.1042 36.6743C34.1042 40.6729 37.6732 40.6729 37.6732 44.6714C37.6732 48.67 34.1042 48.67 34.1042 52.6686C34.1042 56.6671 37.6732 56.6672 37.6732 60.6657C37.6732 64.6643 34.1042 64.6627 34.1042 68.6613" stroke="#2F6264" stroke-width="1.09091" stroke-miterlimit="10"/>
<path d="M37.6731 -11.3086C37.6731 -7.31002 41.2421 -7.31003 41.2421 -3.31145C41.2421 0.687118 37.6731 0.687112 37.6731 4.68568C37.6731 8.68426 41.2421 8.68429 41.2421 12.6829C41.2421 16.6814 37.6731 16.6814 37.6731 20.68C37.6731 24.6786 41.2421 24.6786 41.2421 28.6771C41.2421 32.6757 37.6731 32.6757 37.6731 36.6743C37.6731 40.6729 41.2421 40.6729 41.2421 44.6714C41.2421 48.67 37.6731 48.67 37.6731 52.6686C37.6731 56.6671 41.2421 56.6672 41.2421 60.6657C41.2421 64.6643 37.6731 64.6627 37.6731 68.6613" stroke="#2F6264" stroke-width="1.09091" stroke-miterlimit="10"/>
<path d="M41.2422 -11.3086C41.2422 -7.31002 44.8112 -7.31003 44.8112 -3.31145C44.8112 0.687118 41.2422 0.687112 41.2422 4.68568C41.2422 8.68426 44.8112 8.68429 44.8112 12.6829C44.8112 16.6814 41.2422 16.6814 41.2422 20.68C41.2422 24.6786 44.8112 24.6786 44.8112 28.6771C44.8112 32.6757 41.2422 32.6757 41.2422 36.6743C41.2422 40.6729 44.8112 40.6729 44.8112 44.6714C44.8112 48.67 41.2422 48.67 41.2422 52.6686C41.2422 56.6671 44.8112 56.6672 44.8112 60.6657C44.8112 64.6643 41.2422 64.6627 41.2422 68.6613" stroke="#2F6264" stroke-width="1.09091" stroke-miterlimit="10"/>
<path d="M44.8113 -11.3086C44.8113 -7.31002 48.3803 -7.31003 48.3803 -3.31145C48.3803 0.687118 44.8113 0.687112 44.8113 4.68568C44.8113 8.68426 48.3803 8.68429 48.3803 12.6829C48.3803 16.6814 44.8113 16.6814 44.8113 20.68C44.8113 24.6786 48.3803 24.6786 48.3803 28.6771C48.3803 32.6757 44.8113 32.6757 44.8113 36.6743C44.8113 40.6729 48.3803 40.6729 48.3803 44.6714C48.3803 48.67 44.8113 48.67 44.8113 52.6686C44.8113 56.6671 48.3803 56.6672 48.3803 60.6657C48.3803 64.6643 44.8113 64.6627 44.8113 68.6613" stroke="#2F6264" stroke-width="1.09091" stroke-miterlimit="10"/>
<path d="M48.3801 -11.3086C48.3801 -7.31002 51.9491 -7.31003 51.9491 -3.31145C51.9491 0.687118 48.3801 0.687112 48.3801 4.68568C48.3801 8.68426 51.9491 8.68429 51.9491 12.6829C51.9491 16.6814 48.3801 16.6814 48.3801 20.68C48.3801 24.6786 51.9491 24.6786 51.9491 28.6771C51.9491 32.6757 48.3801 32.6757 48.3801 36.6743C48.3801 40.6729 51.9491 40.6729 51.9491 44.6714C51.9491 48.67 48.3801 48.67 48.3801 52.6686C48.3801 56.6671 51.9491 56.6672 51.9491 60.6657C51.9491 64.6643 48.3801 64.6627 48.3801 68.6613" stroke="#2F6264" stroke-width="1.09091" stroke-miterlimit="10"/>
<path d="M51.9492 -11.3086C51.9492 -7.31002 55.5182 -7.31003 55.5182 -3.31145C55.5182 0.687118 51.9492 0.687112 51.9492 4.68568C51.9492 8.68426 55.5182 8.68429 55.5182 12.6829C55.5182 16.6814 51.9492 16.6814 51.9492 20.68C51.9492 24.6786 55.5182 24.6786 55.5182 28.6771C55.5182 32.6757 51.9492 32.6757 51.9492 36.6743C51.9492 40.6729 55.5182 40.6729 55.5182 44.6714C55.5182 48.67 51.9492 48.67 51.9492 52.6686C51.9492 56.6671 55.5182 56.6672 55.5182 60.6657C55.5182 64.6643 51.9492 64.6627 51.9492 68.6613" stroke="#2F6264" stroke-width="1.09091" stroke-miterlimit="10"/>
<path d="M55.5181 -11.3086C55.5181 -7.31002 59.087 -7.31003 59.087 -3.31145C59.087 0.687118 55.5181 0.687112 55.5181 4.68568C55.5181 8.68426 59.087 8.68429 59.087 12.6829C59.087 16.6814 55.5181 16.6814 55.5181 20.68C55.5181 24.6786 59.087 24.6786 59.087 28.6771C59.087 32.6757 55.5181 32.6757 55.5181 36.6743C55.5181 40.6729 59.087 40.6729 59.087 44.6714C59.087 48.67 55.5181 48.67 55.5181 52.6686C55.5181 56.6671 59.087 56.6672 59.087 60.6657C59.087 64.6643 55.5181 64.6627 55.5181 68.6613" stroke="#2F6264" stroke-width="1.09091" stroke-miterlimit="10"/>
<path d="M59.0872 -11.3086C59.0872 -7.31002 62.6561 -7.31003 62.6561 -3.31145C62.6561 0.687118 59.0872 0.687112 59.0872 4.68568C59.0872 8.68426 62.6561 8.68429 62.6561 12.6829C62.6561 16.6814 59.0872 16.6814 59.0872 20.68C59.0872 24.6786 62.6561 24.6786 62.6561 28.6771C62.6561 32.6757 59.0872 32.6757 59.0872 36.6743C59.0872 40.6729 62.6561 40.6729 62.6561 44.6714C62.6561 48.67 59.0872 48.67 59.0872 52.6686C59.0872 56.6671 62.6561 56.6672 62.6561 60.6657C62.6561 64.6643 59.0872 64.6627 59.0872 68.6613" stroke="#2F6264" stroke-width="1.09091" stroke-miterlimit="10"/>
<path d="M62.656 -11.3086C62.656 -7.31002 66.225 -7.31003 66.225 -3.31145C66.225 0.687118 62.656 0.687112 62.656 4.68568C62.656 8.68426 66.225 8.68429 66.225 12.6829C66.225 16.6814 62.656 16.6814 62.656 20.68C62.656 24.6786 66.225 24.6786 66.225 28.6771C66.225 32.6757 62.656 32.6757 62.656 36.6743C62.656 40.6729 66.225 40.6729 66.225 44.6714C66.225 48.67 62.656 48.67 62.656 52.6686C62.656 56.6671 66.225 56.6672 66.225 60.6657C66.225 64.6643 62.656 64.6627 62.656 68.6613" stroke="#2F6264" stroke-width="1.09091" stroke-miterlimit="10"/>
<path d="M66.2251 -11.3086C66.2251 -7.31002 69.7941 -7.31003 69.7941 -3.31145C69.7941 0.687118 66.2251 0.687112 66.2251 4.68568C66.2251 8.68426 69.7941 8.68429 69.7941 12.6829C69.7941 16.6814 66.2251 16.6814 66.2251 20.68C66.2251 24.6786 69.7941 24.6786 69.7941 28.6771C69.7941 32.6757 66.2251 32.6757 66.2251 36.6743C66.2251 40.6729 69.7941 40.6729 69.7941 44.6714C69.7941 48.67 66.2251 48.67 66.2251 52.6686C66.2251 56.6671 69.7941 56.6672 69.7941 60.6657C69.7941 64.6643 66.2251 64.6627 66.2251 68.6613" stroke="#2F6264" stroke-width="1.09091" stroke-miterlimit="10"/>
<path d="M69.7939 -11.3086C69.7939 -7.31002 73.3629 -7.31003 73.3629 -3.31145C73.3629 0.687118 69.7939 0.687112 69.7939 4.68568C69.7939 8.68426 73.3629 8.68429 73.3629 12.6829C73.3629 16.6814 69.7939 16.6814 69.7939 20.68C69.7939 24.6786 73.3629 24.6786 73.3629 28.6771C73.3629 32.6757 69.7939 32.6757 69.7939 36.6743C69.7939 40.6729 73.3629 40.6729 73.3629 44.6714C73.3629 48.67 69.7939 48.67 69.7939 52.6686C69.7939 56.6671 73.3629 56.6672 73.3629 60.6657C73.3629 64.6643 69.7939 64.6627 69.7939 68.6613" stroke="#2F6264" stroke-width="1.09091" stroke-miterlimit="10"/>
<path d="M73.363 -11.3086C73.363 -7.31002 76.932 -7.31003 76.932 -3.31145C76.932 0.687118 73.363 0.687112 73.363 4.68568C73.363 8.68426 76.932 8.68429 76.932 12.6829C76.932 16.6814 73.363 16.6814 73.363 20.68C73.363 24.6786 76.932 24.6786 76.932 28.6771C76.932 32.6757 73.363 32.6757 73.363 36.6743C73.363 40.6729 76.932 40.6729 76.932 44.6714C76.932 48.67 73.363 48.67 73.363 52.6686C73.363 56.6671 76.932 56.6672 76.932 60.6657C76.932 64.6643 73.363 64.6627 73.363 68.6613" stroke="#2F6264" stroke-width="1.09091" stroke-miterlimit="10"/>
<path d="M76.9319 -11.3086C76.9319 -7.31002 80.5009 -7.31003 80.5009 -3.31145C80.5009 0.687118 76.9319 0.687112 76.9319 4.68568C76.9319 8.68426 80.5009 8.68429 80.5009 12.6829C80.5009 16.6814 76.9319 16.6814 76.9319 20.68C76.9319 24.6786 80.5009 24.6786 80.5009 28.6771C80.5009 32.6757 76.9319 32.6757 76.9319 36.6743C76.9319 40.6729 80.5009 40.6729 80.5009 44.6714C80.5009 48.67 76.9319 48.67 76.9319 52.6686C76.9319 56.6671 80.5009 56.6672 80.5009 60.6657C80.5009 64.6643 76.9319 64.6627 76.9319 68.6613" stroke="#2F6264" stroke-width="1.09091" stroke-miterlimit="10"/>
<path d="M80.501 -11.3086C80.501 -7.31002 84.07 -7.31003 84.07 -3.31145C84.07 0.687118 80.501 0.687112 80.501 4.68568C80.501 8.68426 84.07 8.68429 84.07 12.6829C84.07 16.6814 80.501 16.6814 80.501 20.68C80.501 24.6786 84.07 24.6786 84.07 28.6771C84.07 32.6757 80.501 32.6757 80.501 36.6743C80.501 40.6729 84.07 40.6729 84.07 44.6714C84.07 48.67 80.501 48.67 80.501 52.6686C80.501 56.6671 84.07 56.6672 84.07 60.6657C84.07 64.6643 80.501 64.6627 80.501 68.6613" stroke="#2F6264" stroke-width="1.09091" stroke-miterlimit="10"/>
<path d="M84.0698 -11.3086C84.0698 -7.31002 87.6388 -7.31003 87.6388 -3.31145C87.6388 0.687118 84.0698 0.687112 84.0698 4.68568C84.0698 8.68426 87.6388 8.68429 87.6388 12.6829C87.6388 16.6814 84.0698 16.6814 84.0698 20.68C84.0698 24.6786 87.6388 24.6786 87.6388 28.6771C87.6388 32.6757 84.0698 32.6757 84.0698 36.6743C84.0698 40.6729 87.6388 40.6729 87.6388 44.6714C87.6388 48.67 84.0698 48.67 84.0698 52.6686C84.0698 56.6671 87.6388 56.6672 87.6388 60.6657C87.6388 64.6643 84.0698 64.6627 84.0698 68.6613" stroke="#2F6264" stroke-width="1.09091" stroke-miterlimit="10"/>
<path d="M87.6389 -11.3086C87.6389 -7.31002 91.2079 -7.31003 91.2079 -3.31145C91.2079 0.687118 87.6389 0.687112 87.6389 4.68568C87.6389 8.68426 91.2079 8.68429 91.2079 12.6829C91.2079 16.6814 87.6389 16.6814 87.6389 20.68C87.6389 24.6786 91.2079 24.6786 91.2079 28.6771C91.2079 32.6757 87.6389 32.6757 87.6389 36.6743C87.6389 40.6729 91.2079 40.6729 91.2079 44.6714C91.2079 48.67 87.6389 48.67 87.6389 52.6686C87.6389 56.6671 91.2079 56.6672 91.2079 60.6657C91.2079 64.6643 87.6389 64.6627 87.6389 68.6613" stroke="#2F6264" stroke-width="1.09091" stroke-miterlimit="10"/>
<path d="M91.2078 -11.3086C91.2078 -7.31002 94.7767 -7.31003 94.7767 -3.31145C94.7767 0.687118 91.2078 0.687112 91.2078 4.68568C91.2078 8.68426 94.7767 8.68429 94.7767 12.6829C94.7767 16.6814 91.2078 16.6814 91.2078 20.68C91.2078 24.6786 94.7767 24.6786 94.7767 28.6771C94.7767 32.6757 91.2078 32.6757 91.2078 36.6743C91.2078 40.6729 94.7767 40.6729 94.7767 44.6714C94.7767 48.67 91.2078 48.67 91.2078 52.6686C91.2078 56.6671 94.7767 56.6672 94.7767 60.6657C94.7767 64.6643 91.2078 64.6627 91.2078 68.6613" stroke="#2F6264" stroke-width="1.09091" stroke-miterlimit="10"/>
<path d="M94.7769 -11.3086C94.7769 -7.31002 98.3458 -7.31003 98.3458 -3.31145C98.3458 0.687118 94.7769 0.687112 94.7769 4.68568C94.7769 8.68426 98.3458 8.68429 98.3458 12.6829C98.3458 16.6814 94.7769 16.6814 94.7769 20.68C94.7769 24.6786 98.3458 24.6786 98.3458 28.6771C98.3458 32.6757 94.7769 32.6757 94.7769 36.6743C94.7769 40.6729 98.3458 40.6729 98.3458 44.6714C98.3458 48.67 94.7769 48.67 94.7769 52.6686C94.7769 56.6671 98.3458 56.6672 98.3458 60.6657C98.3458 64.6643 94.7769 64.6627 94.7769 68.6613" stroke="#2F6264" stroke-width="1.09091" stroke-miterlimit="10"/>
<path d="M98.3457 -11.3086C98.3457 -7.31002 101.915 -7.31003 101.915 -3.31145C101.915 0.687118 98.3457 0.687112 98.3457 4.68568C98.3457 8.68426 101.915 8.68429 101.915 12.6829C101.915 16.6814 98.3457 16.6814 98.3457 20.68C98.3457 24.6786 101.915 24.6786 101.915 28.6771C101.915 32.6757 98.3457 32.6757 98.3457 36.6743C98.3457 40.6729 101.915 40.6729 101.915 44.6714C101.915 48.67 98.3457 48.67 98.3457 52.6686C98.3457 56.6671 101.915 56.6672 101.915 60.6657C101.915 64.6643 98.3457 64.6627 98.3457 68.6613" stroke="#2F6264" stroke-width="1.09091" stroke-miterlimit="10"/>
<path d="M101.915 -11.3086C101.915 -7.31002 105.484 -7.31003 105.484 -3.31145C105.484 0.687118 101.915 0.687112 101.915 4.68568C101.915 8.68426 105.484 8.68429 105.484 12.6829C105.484 16.6814 101.915 16.6814 101.915 20.68C101.915 24.6786 105.484 24.6786 105.484 28.6771C105.484 32.6757 101.915 32.6757 101.915 36.6743C101.915 40.6729 105.484 40.6729 105.484 44.6714C105.484 48.67 101.915 48.67 101.915 52.6686C101.915 56.6671 105.484 56.6672 105.484 60.6657C105.484 64.6643 101.915 64.6627 101.915 68.6613" stroke="#2F6264" stroke-width="1.09091" stroke-miterlimit="10"/>
<path d="M105.484 -11.3086C105.484 -7.31002 109.053 -7.31003 109.053 -3.31145C109.053 0.687118 105.484 0.687112 105.484 4.68568C105.484 8.68426 109.053 8.68429 109.053 12.6829C109.053 16.6814 105.484 16.6814 105.484 20.68C105.484 24.6786 109.053 24.6786 109.053 28.6771C109.053 32.6757 105.484 32.6757 105.484 36.6743C105.484 40.6729 109.053 40.6729 109.053 44.6714C109.053 48.67 105.484 48.67 105.484 52.6686C105.484 56.6671 109.053 56.6672 109.053 60.6657C109.053 64.6643 105.484 64.6627 105.484 68.6613" stroke="#2F6264" stroke-width="1.09091" stroke-miterlimit="10"/>
<path d="M109.053 -11.3086C109.053 -7.31002 112.622 -7.31003 112.622 -3.31145C112.622 0.687118 109.053 0.687112 109.053 4.68568C109.053 8.68426 112.622 8.68429 112.622 12.6829C112.622 16.6814 109.053 16.6814 109.053 20.68C109.053 24.6786 112.622 24.6786 112.622 28.6771C112.622 32.6757 109.053 32.6757 109.053 36.6743C109.053 40.6729 112.622 40.6729 112.622 44.6714C112.622 48.67 109.053 48.67 109.053 52.6686C109.053 56.6671 112.622 56.6672 112.622 60.6657C112.622 64.6643 109.053 64.6627 109.053 68.6613" stroke="#2F6264" stroke-width="1.09091" stroke-miterlimit="10"/>
<path d="M112.622 -11.3086C112.622 -7.31002 116.191 -7.31003 116.191 -3.31145C116.191 0.687118 112.622 0.687112 112.622 4.68568C112.622 8.68426 116.191 8.68429 116.191 12.6829C116.191 16.6814 112.622 16.6814 112.622 20.68C112.622 24.6786 116.191 24.6786 116.191 28.6771C116.191 32.6757 112.622 32.6757 112.622 36.6743C112.622 40.6729 116.191 40.6729 116.191 44.6714C116.191 48.67 112.622 48.67 112.622 52.6686C112.622 56.6671 116.191 56.6672 116.191 60.6657C116.191 64.6643 112.622 64.6627 112.622 68.6613" stroke="#2F6264" stroke-width="1.09091" stroke-miterlimit="10"/>
<path d="M116.191 -11.3086C116.191 -7.31002 119.76 -7.31003 119.76 -3.31145C119.76 0.687118 116.191 0.687112 116.191 4.68568C116.191 8.68426 119.76 8.68429 119.76 12.6829C119.76 16.6814 116.191 16.6814 116.191 20.68C116.191 24.6786 119.76 24.6786 119.76 28.6771C119.76 32.6757 116.191 32.6757 116.191 36.6743C116.191 40.6729 119.76 40.6729 119.76 44.6714C119.76 48.67 116.191 48.67 116.191 52.6686C116.191 56.6671 119.76 56.6672 119.76 60.6657C119.76 64.6643 116.191 64.6627 116.191 68.6613" stroke="#2F6264" stroke-width="1.09091" stroke-miterlimit="10"/>
<path d="M119.76 -11.3086C119.76 -7.31002 123.329 -7.31003 123.329 -3.31145C123.329 0.687118 119.76 0.687112 119.76 4.68568C119.76 8.68426 123.329 8.68429 123.329 12.6829C123.329 16.6814 119.76 16.6814 119.76 20.68C119.76 24.6786 123.329 24.6786 123.329 28.6771C123.329 32.6757 119.76 32.6757 119.76 36.6743C119.76 40.6729 123.329 40.6729 123.329 44.6714C123.329 48.67 119.76 48.67 119.76 52.6686C119.76 56.6671 123.329 56.6672 123.329 60.6657C123.329 64.6643 119.76 64.6627 119.76 68.6613" stroke="#2F6264" stroke-width="1.09091" stroke-miterlimit="10"/>
<path d="M123.329 -11.3086C123.329 -7.31002 126.898 -7.31003 126.898 -3.31145C126.898 0.687118 123.329 0.687112 123.329 4.68568C123.329 8.68426 126.898 8.68429 126.898 12.6829C126.898 16.6814 123.329 16.6814 123.329 20.68C123.329 24.6786 126.898 24.6786 126.898 28.6771C126.898 32.6757 123.329 32.6757 123.329 36.6743C123.329 40.6729 126.898 40.6729 126.898 44.6714C126.898 48.67 123.329 48.67 123.329 52.6686C123.329 56.6671 126.898 56.6672 126.898 60.6657C126.898 64.6643 123.329 64.6627 123.329 68.6613" stroke="#2F6264" stroke-width="1.09091" stroke-miterlimit="10"/>
<path d="M126.897 -11.3086C126.897 -7.31002 130.466 -7.31003 130.466 -3.31145C130.466 0.687118 126.897 0.687112 126.897 4.68568C126.897 8.68426 130.466 8.68429 130.466 12.6829C130.466 16.6814 126.897 16.6814 126.897 20.68C126.897 24.6786 130.466 24.6786 130.466 28.6771C130.466 32.6757 126.897 32.6757 126.897 36.6743C126.897 40.6729 130.466 40.6729 130.466 44.6714C130.466 48.67 126.897 48.67 126.897 52.6686C126.897 56.6671 130.466 56.6672 130.466 60.6657C130.466 64.6643 126.897 64.6627 126.897 68.6613" stroke="#2F6264" stroke-width="1.09091" stroke-miterlimit="10"/>
<path d="M130.467 -11.3086C130.467 -7.31002 134.036 -7.31003 134.036 -3.31145C134.036 0.687118 130.467 0.687112 130.467 4.68568C130.467 8.68426 134.036 8.68429 134.036 12.6829C134.036 16.6814 130.467 16.6814 130.467 20.68C130.467 24.6786 134.036 24.6786 134.036 28.6771C134.036 32.6757 130.467 32.6757 130.467 36.6743C130.467 40.6729 134.036 40.6729 134.036 44.6714C134.036 48.67 130.467 48.67 130.467 52.6686C130.467 56.6671 134.036 56.6672 134.036 60.6657C134.036 64.6643 130.467 64.6627 130.467 68.6613" stroke="#2F6264" stroke-width="1.09091" stroke-miterlimit="10"/>
<path d="M134.036 -11.3086C134.036 -7.31002 137.605 -7.31003 137.605 -3.31145C137.605 0.687118 134.036 0.687112 134.036 4.68568C134.036 8.68426 137.605 8.68429 137.605 12.6829C137.605 16.6814 134.036 16.6814 134.036 20.68C134.036 24.6786 137.605 24.6786 137.605 28.6771C137.605 32.6757 134.036 32.6757 134.036 36.6743C134.036 40.6729 137.605 40.6729 137.605 44.6714C137.605 48.67 134.036 48.67 134.036 52.6686C134.036 56.6671 137.605 56.6672 137.605 60.6657C137.605 64.6643 134.036 64.6627 134.036 68.6613" stroke="#2F6264" stroke-width="1.09091" stroke-miterlimit="10"/>
<path d="M137.604 -11.3086C137.604 -7.31002 141.173 -7.31003 141.173 -3.31145C141.173 0.687118 137.604 0.687112 137.604 4.68568C137.604 8.68426 141.173 8.68429 141.173 12.6829C141.173 16.6814 137.604 16.6814 137.604 20.68C137.604 24.6786 141.173 24.6786 141.173 28.6771C141.173 32.6757 137.604 32.6757 137.604 36.6743C137.604 40.6729 141.173 40.6729 141.173 44.6714C141.173 48.67 137.604 48.67 137.604 52.6686C137.604 56.6671 141.173 56.6672 141.173 60.6657C141.173 64.6643 137.604 64.6627 137.604 68.6613" stroke="#2F6264" stroke-width="1.09091" stroke-miterlimit="10"/>
<path d="M141.173 -11.3086C141.173 -7.31002 144.742 -7.31003 144.742 -3.31145C144.742 0.687118 141.173 0.687112 141.173 4.68568C141.173 8.68426 144.742 8.68429 144.742 12.6829C144.742 16.6814 141.173 16.6814 141.173 20.68C141.173 24.6786 144.742 24.6786 144.742 28.6771C144.742 32.6757 141.173 32.6757 141.173 36.6743C141.173 40.6729 144.742 40.6729 144.742 44.6714C144.742 48.67 141.173 48.67 141.173 52.6686C141.173 56.6671 144.742 56.6672 144.742 60.6657C144.742 64.6643 141.173 64.6627 141.173 68.6613" stroke="#2F6264" stroke-width="1.09091" stroke-miterlimit="10"/>
<path d="M144.742 -11.3086C144.742 -7.31002 148.311 -7.31003 148.311 -3.31145C148.311 0.687118 144.742 0.687112 144.742 4.68568C144.742 8.68426 148.311 8.68429 148.311 12.6829C148.311 16.6814 144.742 16.6814 144.742 20.68C144.742 24.6786 148.311 24.6786 148.311 28.6771C148.311 32.6757 144.742 32.6757 144.742 36.6743C144.742 40.6729 148.311 40.6729 148.311 44.6714C148.311 48.67 144.742 48.67 144.742 52.6686C144.742 56.6671 148.311 56.6672 148.311 60.6657C148.311 64.6643 144.742 64.6627 144.742 68.6613" stroke="#2F6264" stroke-width="1.09091" stroke-miterlimit="10"/>
<path d="M148.312 -11.3086C148.312 -7.31002 151.881 -7.31003 151.881 -3.31145C151.881 0.687118 148.312 0.687112 148.312 4.68568C148.312 8.68426 151.881 8.68429 151.881 12.6829C151.881 16.6814 148.312 16.6814 148.312 20.68C148.312 24.6786 151.88 24.6786 151.88 28.6771C151.88 32.6757 148.312 32.6757 148.312 36.6743C148.312 40.6729 151.88 40.6729 151.88 44.6714C151.88 48.67 148.312 48.67 148.312 52.6686C148.312 56.6671 151.88 56.6672 151.88 60.6657C151.88 64.6643 148.312 64.6627 148.312 68.6613" stroke="#2F6264" stroke-width="1.09091" stroke-miterlimit="10"/>
<path d="M151.88 -11.3086C151.88 -7.31002 155.449 -7.31003 155.449 -3.31145C155.449 0.687118 151.88 0.687112 151.88 4.68568C151.88 8.68426 155.449 8.68429 155.449 12.6829C155.449 16.6814 151.88 16.6814 151.88 20.68C151.88 24.6786 155.449 24.6786 155.449 28.6771C155.449 32.6757 151.88 32.6757 151.88 36.6743C151.88 40.6729 155.449 40.6729 155.449 44.6714C155.449 48.67 151.88 48.67 151.88 52.6686C151.88 56.6671 155.449 56.6672 155.449 60.6657C155.449 64.6643 151.88 64.6627 151.88 68.6613" stroke="#2F6264" stroke-width="1.09091" stroke-miterlimit="10"/>
<path d="M155.45 -11.3086C155.45 -7.31002 159.019 -7.31003 159.019 -3.31145C159.019 0.687118 155.45 0.687112 155.45 4.68568C155.45 8.68426 159.019 8.68429 159.019 12.6829C159.019 16.6814 155.45 16.6814 155.45 20.68C155.45 24.6786 159.019 24.6786 159.019 28.6771C159.019 32.6757 155.45 32.6757 155.45 36.6743C155.45 40.6729 159.019 40.6729 159.019 44.6714C159.019 48.67 155.45 48.67 155.45 52.6686C155.45 56.6671 159.019 56.6672 159.019 60.6657C159.019 64.6643 155.45 64.6627 155.45 68.6613" stroke="#2F6264" stroke-width="1.09091" stroke-miterlimit="10"/>
<path d="M159.018 -11.3086C159.018 -7.31002 162.587 -7.31003 162.587 -3.31145C162.587 0.687118 159.018 0.687112 159.018 4.68568C159.018 8.68426 162.587 8.68429 162.587 12.6829C162.587 16.6814 159.018 16.6814 159.018 20.68C159.018 24.6786 162.587 24.6786 162.587 28.6771C162.587 32.6757 159.018 32.6757 159.018 36.6743C159.018 40.6729 162.587 40.6729 162.587 44.6714C162.587 48.67 159.018 48.67 159.018 52.6686C159.018 56.6671 162.587 56.6672 162.587 60.6657C162.587 64.6643 159.018 64.6627 159.018 68.6613" stroke="#2F6264" stroke-width="1.09091" stroke-miterlimit="10"/>
<path d="M162.587 -11.3086C162.587 -7.31002 166.156 -7.31003 166.156 -3.31145C166.156 0.687118 162.587 0.687112 162.587 4.68568C162.587 8.68426 166.156 8.68429 166.156 12.6829C166.156 16.6814 162.587 16.6814 162.587 20.68C162.587 24.6786 166.156 24.6786 166.156 28.6771C166.156 32.6757 162.587 32.6757 162.587 36.6743C162.587 40.6729 166.156 40.6729 166.156 44.6714C166.156 48.67 162.587 48.67 162.587 52.6686C162.587 56.6671 166.156 56.6672 166.156 60.6657C166.156 64.6643 162.587 64.6627 162.587 68.6613" stroke="#2F6264" stroke-width="1.09091" stroke-miterlimit="10"/>
<path d="M166.156 -11.3086C166.156 -7.31002 169.725 -7.31003 169.725 -3.31145C169.725 0.687118 166.156 0.687112 166.156 4.68568C166.156 8.68426 169.725 8.68429 169.725 12.6829C169.725 16.6814 166.156 16.6814 166.156 20.68C166.156 24.6786 169.725 24.6786 169.725 28.6771C169.725 32.6757 166.156 32.6757 166.156 36.6743C166.156 40.6729 169.725 40.6729 169.725 44.6714C169.725 48.67 166.156 48.67 166.156 52.6686C166.156 56.6671 169.725 56.6672 169.725 60.6657C169.725 64.6643 166.156 64.6627 166.156 68.6613" stroke="#2F6264" stroke-width="1.09091" stroke-miterlimit="10"/>
<path d="M169.726 -11.3086C169.726 -7.31002 173.295 -7.31003 173.295 -3.31145C173.295 0.687118 169.726 0.687112 169.726 4.68568C169.726 8.68426 173.295 8.68429 173.295 12.6829C173.295 16.6814 169.726 16.6814 169.726 20.68C169.726 24.6786 173.295 24.6786 173.295 28.6771C173.295 32.6757 169.726 32.6757 169.726 36.6743C169.726 40.6729 173.295 40.6729 173.295 44.6714C173.295 48.67 169.726 48.67 169.726 52.6686C169.726 56.6671 173.295 56.6672 173.295 60.6657C173.295 64.6643 169.726 64.6627 169.726 68.6613" stroke="#2F6264" stroke-width="1.09091" stroke-miterlimit="10"/>
<path d="M173.294 -11.3086C173.294 -7.31002 176.863 -7.31003 176.863 -3.31145C176.863 0.687118 173.294 0.687112 173.294 4.68568C173.294 8.68426 176.863 8.68429 176.863 12.6829C176.863 16.6814 173.294 16.6814 173.294 20.68C173.294 24.6786 176.863 24.6786 176.863 28.6771C176.863 32.6757 173.294 32.6757 173.294 36.6743C173.294 40.6729 176.863 40.6729 176.863 44.6714C176.863 48.67 173.294 48.67 173.294 52.6686C173.294 56.6671 176.863 56.6672 176.863 60.6657C176.863 64.6643 173.294 64.6627 173.294 68.6613" stroke="#2F6264" stroke-width="1.09091" stroke-miterlimit="10"/>
<path d="M176.864 -11.3086C176.864 -7.31002 180.433 -7.31003 180.433 -3.31145C180.433 0.687118 176.864 0.687112 176.864 4.68568C176.864 8.68426 180.433 8.68429 180.433 12.6829C180.433 16.6814 176.864 16.6814 176.864 20.68C176.864 24.6786 180.433 24.6786 180.433 28.6771C180.433 32.6757 176.864 32.6757 176.864 36.6743C176.864 40.6729 180.433 40.6729 180.433 44.6714C180.433 48.67 176.864 48.67 176.864 52.6686C176.864 56.6671 180.433 56.6672 180.433 60.6657C180.433 64.6643 176.864 64.6627 176.864 68.6613" stroke="#2F6264" stroke-width="1.09091" stroke-miterlimit="10"/>
<path d="M180.433 -11.3086C180.433 -7.31002 184.002 -7.31003 184.002 -3.31145C184.002 0.687118 180.433 0.687112 180.433 4.68568C180.433 8.68426 184.002 8.68429 184.002 12.6829C184.002 16.6814 180.433 16.6814 180.433 20.68C180.433 24.6786 184.002 24.6786 184.002 28.6771C184.002 32.6757 180.433 32.6757 180.433 36.6743C180.433 40.6729 184.002 40.6729 184.002 44.6714C184.002 48.67 180.433 48.67 180.433 52.6686C180.433 56.6671 184.002 56.6672 184.002 60.6657C184.002 64.6643 180.433 64.6627 180.433 68.6613" stroke="#2F6264" stroke-width="1.09091" stroke-miterlimit="10"/>
<path d="M184.001 -11.3086C184.001 -7.31002 187.57 -7.31003 187.57 -3.31145C187.57 0.687118 184.001 0.687112 184.001 4.68568C184.001 8.68426 187.57 8.68429 187.57 12.6829C187.57 16.6814 184.001 16.6814 184.001 20.68C184.001 24.6786 187.57 24.6786 187.57 28.6771C187.57 32.6757 184.001 32.6757 184.001 36.6743C184.001 40.6729 187.57 40.6729 187.57 44.6714C187.57 48.67 184.001 48.67 184.001 52.6686C184.001 56.6671 187.57 56.6672 187.57 60.6657C187.57 64.6643 184.001 64.6627 184.001 68.6613" stroke="#2F6264" stroke-width="1.09091" stroke-miterlimit="10"/>
<path d="M187.571 -11.3086C187.571 -7.31002 191.14 -7.31003 191.14 -3.31145C191.14 0.687118 187.571 0.687112 187.571 4.68568C187.571 8.68426 191.14 8.68429 191.14 12.6829C191.14 16.6814 187.571 16.6814 187.571 20.68C187.571 24.6786 191.14 24.6786 191.14 28.6771C191.14 32.6757 187.571 32.6757 187.571 36.6743C187.571 40.6729 191.14 40.6729 191.14 44.6714C191.14 48.67 187.571 48.67 187.571 52.6686C187.571 56.6671 191.14 56.6672 191.14 60.6657C191.14 64.6643 187.571 64.6627 187.571 68.6613" stroke="#2F6264" stroke-width="1.09091" stroke-miterlimit="10"/>
<path d="M191.139 -11.3086C191.139 -7.31002 194.708 -7.31003 194.708 -3.31145C194.708 0.687118 191.139 0.687112 191.139 4.68568C191.139 8.68426 194.708 8.68429 194.708 12.6829C194.708 16.6814 191.139 16.6814 191.139 20.68C191.139 24.6786 194.708 24.6786 194.708 28.6771C194.708 32.6757 191.139 32.6757 191.139 36.6743C191.139 40.6729 194.708 40.6729 194.708 44.6714C194.708 48.67 191.139 48.67 191.139 52.6686C191.139 56.6671 194.708 56.6672 194.708 60.6657C194.708 64.6643 191.139 64.6627 191.139 68.6613" stroke="#2F6264" stroke-width="1.09091" stroke-miterlimit="10"/>
<path d="M194.708 -11.3086C194.708 -7.31002 198.277 -7.31003 198.277 -3.31145C198.277 0.687118 194.708 0.687112 194.708 4.68568C194.708 8.68426 198.277 8.68429 198.277 12.6829C198.277 16.6814 194.708 16.6814 194.708 20.68C194.708 24.6786 198.277 24.6786 198.277 28.6771C198.277 32.6757 194.708 32.6757 194.708 36.6743C194.708 40.6729 198.277 40.6729 198.277 44.6714C198.277 48.67 194.708 48.67 194.708 52.6686C194.708 56.6671 198.277 56.6672 198.277 60.6657C198.277 64.6643 194.708 64.6627 194.708 68.6613" stroke="#2F6264" stroke-width="1.09091" stroke-miterlimit="10"/>
<path d="M198.277 -11.3086C198.277 -7.31002 201.846 -7.31003 201.846 -3.31145C201.846 0.687118 198.277 0.687112 198.277 4.68568C198.277 8.68426 201.846 8.68429 201.846 12.6829C201.846 16.6814 198.277 16.6814 198.277 20.68C198.277 24.6786 201.846 24.6786 201.846 28.6771C201.846 32.6757 198.277 32.6757 198.277 36.6743C198.277 40.6729 201.846 40.6729 201.846 44.6714C201.846 48.67 198.277 48.67 198.277 52.6686C198.277 56.6671 201.846 56.6672 201.846 60.6657C201.846 64.6643 198.277 64.6627 198.277 68.6613" stroke="#2F6264" stroke-width="1.09091" stroke-miterlimit="10"/>
<path d="M201.846 -11.3086C201.846 -7.31002 205.415 -7.31003 205.415 -3.31145C205.415 0.687118 201.846 0.687112 201.846 4.68568C201.846 8.68426 205.415 8.68429 205.415 12.6829C205.415 16.6814 201.846 16.6814 201.846 20.68C201.846 24.6786 205.415 24.6786 205.415 28.6771C205.415 32.6757 201.846 32.6757 201.846 36.6743C201.846 40.6729 205.415 40.6729 205.415 44.6714C205.415 48.67 201.846 48.67 201.846 52.6686C201.846 56.6671 205.415 56.6672 205.415 60.6657C205.415 64.6643 201.846 64.6627 201.846 68.6613" stroke="#2F6264" stroke-width="1.09091" stroke-miterlimit="10"/>
<path d="M205.415 -11.3086C205.415 -7.31002 208.984 -7.31003 208.984 -3.31145C208.984 0.687118 205.415 0.687112 205.415 4.68568C205.415 8.68426 208.984 8.68429 208.984 12.6829C208.984 16.6814 205.415 16.6814 205.415 20.68C205.415 24.6786 208.984 24.6786 208.984 28.6771C208.984 32.6757 205.415 32.6757 205.415 36.6743C205.415 40.6729 208.984 40.6729 208.984 44.6714C208.984 48.67 205.415 48.67 205.415 52.6686C205.415 56.6671 208.984 56.6672 208.984 60.6657C208.984 64.6643 205.415 64.6627 205.415 68.6613" stroke="#2F6264" stroke-width="1.09091" stroke-miterlimit="10"/>
<path d="M208.984 -11.3086C208.984 -7.31002 212.553 -7.31003 212.553 -3.31145C212.553 0.687118 208.984 0.687112 208.984 4.68568C208.984 8.68426 212.553 8.68429 212.553 12.6829C212.553 16.6814 208.984 16.6814 208.984 20.68C208.984 24.6786 212.553 24.6786 212.553 28.6771C212.553 32.6757 208.984 32.6757 208.984 36.6743C208.984 40.6729 212.553 40.6729 212.553 44.6714C212.553 48.67 208.984 48.67 208.984 52.6686C208.984 56.6671 212.553 56.6672 212.553 60.6657C212.553 64.6643 208.984 64.6627 208.984 68.6613" stroke="#2F6264" stroke-width="1.09091" stroke-miterlimit="10"/>
<path d="M212.553 -11.3086C212.553 -7.31002 216.122 -7.31003 216.122 -3.31145C216.122 0.687119 212.553 0.687112 212.553 4.68569C212.553 8.68426 216.122 8.68429 216.122 12.6829C216.122 16.6814 212.553 16.6814 212.553 20.68C212.553 24.6786 216.122 24.6786 216.122 28.6771C216.122 32.6757 212.553 32.6757 212.553 36.6743C212.553 40.6729 216.122 40.6729 216.122 44.6714C216.122 48.67 212.553 48.67 212.553 52.6686C212.553 56.6671 216.122 56.6672 216.122 60.6657C216.122 64.6643 212.553 64.6627 212.553 68.6613" stroke="#2F6264" stroke-width="1.09091" stroke-miterlimit="10"/>
<path d="M216.122 -11.3086C216.122 -7.31002 219.691 -7.31003 219.691 -3.31145C219.691 0.687118 216.122 0.687112 216.122 4.68568C216.122 8.68426 219.691 8.68429 219.691 12.6829C219.691 16.6814 216.122 16.6814 216.122 20.68C216.122 24.6786 219.691 24.6786 219.691 28.6771C219.691 32.6757 216.122 32.6757 216.122 36.6743C216.122 40.6729 219.691 40.6729 219.691 44.6714C219.691 48.67 216.122 48.67 216.122 52.6686C216.122 56.6671 219.691 56.6672 219.691 60.6657C219.691 64.6643 216.122 64.6627 216.122 68.6613" stroke="#2F6264" stroke-width="1.09091" stroke-miterlimit="10"/>
<path d="M219.691 -11.3086C219.691 -7.31002 223.26 -7.31003 223.26 -3.31145C223.26 0.687118 219.691 0.687112 219.691 4.68568C219.691 8.68426 223.26 8.68429 223.26 12.6829C223.26 16.6814 219.691 16.6814 219.691 20.68C219.691 24.6786 223.26 24.6786 223.26 28.6771C223.26 32.6757 219.691 32.6757 219.691 36.6743C219.691 40.6729 223.26 40.6729 223.26 44.6714C223.26 48.67 219.691 48.67 219.691 52.6686C219.691 56.6671 223.26 56.6672 223.26 60.6657C223.26 64.6643 219.691 64.6627 219.691 68.6613" stroke="#2F6264" stroke-width="1.09091" stroke-miterlimit="10"/>
<path d="M223.26 -11.3086C223.26 -7.31002 226.829 -7.31003 226.829 -3.31145C226.829 0.687118 223.26 0.687112 223.26 4.68568C223.26 8.68426 226.829 8.68429 226.829 12.6829C226.829 16.6814 223.26 16.6814 223.26 20.68C223.26 24.6786 226.829 24.6786 226.829 28.6771C226.829 32.6757 223.26 32.6757 223.26 36.6743C223.26 40.6729 226.829 40.6729 226.829 44.6714C226.829 48.67 223.26 48.67 223.26 52.6686C223.26 56.6671 226.829 56.6672 226.829 60.6657C226.829 64.6643 223.26 64.6627 223.26 68.6613" stroke="#2F6264" stroke-width="1.09091" stroke-miterlimit="10"/>
<path d="M226.829 -11.3086C226.829 -7.31002 230.398 -7.31003 230.398 -3.31145C230.398 0.687118 226.829 0.687112 226.829 4.68568C226.829 8.68426 230.398 8.68429 230.398 12.6829C230.398 16.6814 226.829 16.6814 226.829 20.68C226.829 24.6786 230.398 24.6786 230.398 28.6771C230.398 32.6757 226.829 32.6757 226.829 36.6743C226.829 40.6729 230.398 40.6729 230.398 44.6714C230.398 48.67 226.829 48.67 226.829 52.6686C226.829 56.6671 230.398 56.6672 230.398 60.6657C230.398 64.6643 226.829 64.6627 226.829 68.6613" stroke="#2F6264" stroke-width="1.09091" stroke-miterlimit="10"/>
<path d="M230.398 -11.3086C230.398 -7.31002 233.967 -7.31003 233.967 -3.31145C233.967 0.687118 230.398 0.687112 230.398 4.68568C230.398 8.68426 233.967 8.68429 233.967 12.6829C233.967 16.6814 230.398 16.6814 230.398 20.68C230.398 24.6786 233.967 24.6786 233.967 28.6771C233.967 32.6757 230.398 32.6757 230.398 36.6743C230.398 40.6729 233.967 40.6729 233.967 44.6714C233.967 48.67 230.398 48.67 230.398 52.6686C230.398 56.6671 233.967 56.6672 233.967 60.6657C233.967 64.6643 230.398 64.6627 230.398 68.6613" stroke="#2F6264" stroke-width="1.09091" stroke-miterlimit="10"/>
</g>
</svg>
