<svg width="16" height="20" viewBox="0 0 16 20" fill="none" xmlns="http://www.w3.org/2000/svg">
<path d="M11.3471 9.12178C12.3343 7.97685 12.8942 6.52525 12.9317 5.01397C12.9421 4.35931 12.8221 3.70912 12.5788 3.10127C12.3355 2.49342 11.9736 1.94006 11.5144 1.47342C11.0551 1.00679 10.5076 0.636195 9.90368 0.383235C9.2998 0.130274 8.65161 0 7.99689 0C7.34216 0 6.69398 0.130274 6.09009 0.383235C5.48621 0.636195 4.93868 1.00679 4.47941 1.47342C4.02014 1.94006 3.6583 2.49342 3.41497 3.10127C3.17164 3.70912 3.05168 4.35931 3.06208 5.01397C3.09956 6.52525 3.65951 7.97685 4.64665 9.12178C3.26368 9.7666 2.09255 10.7913 1.26982 12.0765C0.447102 13.3616 0.00670659 14.8542 0 16.3801V17.0125C0 17.8048 0.314743 18.5647 0.874988 19.125C1.43523 19.6852 2.19509 20 2.9874 20H13.0126C13.8049 20 14.5648 19.6852 15.125 19.125C15.6853 18.5647 16 17.8048 16 17.0125V16.3801C15.9934 14.8542 15.5531 13.3615 14.7304 12.0764C13.9076 10.7912 12.7364 9.76648 11.3534 9.12178H11.3471ZM3.77408 5.01397C3.77408 4.45949 3.88329 3.91043 4.09547 3.39816C4.30766 2.88588 4.61866 2.42041 5.01073 2.02833C5.40279 1.63626 5.86824 1.32524 6.3805 1.11305C6.89276 0.900858 7.4418 0.791644 7.99627 0.791644C8.55073 0.791644 9.09977 0.900858 9.61203 1.11305C10.1243 1.32524 10.5897 1.63626 10.9818 2.02833C11.3739 2.42041 11.6849 2.88588 11.8971 3.39816C12.1092 3.91043 12.2185 4.45949 12.2185 5.01397C12.2185 7.32306 10.3351 10.1176 7.99627 10.1176C5.65738 10.1176 3.77532 7.32555 3.77532 5.01646L3.77408 5.01397ZM15.2805 17.0113C15.2799 17.6136 15.0403 18.191 14.6145 18.6169C14.1886 19.0428 13.6111 19.2823 13.0089 19.283H2.9874C2.38468 19.2833 1.80649 19.0444 1.37984 18.6187C0.953191 18.1929 0.712986 17.6152 0.711996 17.0125V16.3801C0.718697 14.9467 1.14576 13.5468 1.94029 12.3538C2.73482 11.1607 3.8619 10.227 5.18189 9.66824C5.94366 10.3906 6.94672 10.8041 7.99627 10.8284C9.04624 10.8044 10.0498 10.3909 10.8119 9.66824C12.1319 10.2271 13.259 11.1611 14.0533 12.3544C14.8476 13.5477 15.2743 14.9479 15.2805 16.3814V17.0113Z" fill="#886639"/>
</svg>
