<svg width="352" height="57" viewBox="0 0 352 57" fill="none" xmlns="http://www.w3.org/2000/svg">
<mask id="mask0_106_26831" style="mask-type:alpha" maskUnits="userSpaceOnUse" x="0" y="0" width="352" height="57">
<path d="M2.06517 10.9369C2.67154 4.91983 7.79071 0.452148 13.8382 0.452148L339.128 0.452148C345.176 0.452148 350.295 4.91982 350.901 10.9369C351.46 16.477 352 23.2069 352 28.5039C352 33.8008 351.46 40.5307 350.901 46.0709C350.295 52.088 345.176 56.5556 339.128 56.5556H13.8382C7.79069 56.5556 2.67154 52.0879 2.06517 46.0709C1.50686 40.5307 0.966553 33.8008 0.966553 28.5039C0.966553 23.207 1.50686 16.4771 2.06517 10.9369Z" fill="#646464"/>
</mask>
<g mask="url(#mask0_106_26831)">
<path d="M-2.78442 -11.3086C-2.78442 -7.31002 0.784554 -7.31003 0.784554 -3.31145C0.784554 0.687118 -2.78442 0.687112 -2.78442 4.68568C-2.78442 8.68426 0.784553 8.68429 0.784553 12.6829C0.784553 16.6814 -2.78442 16.6814 -2.78442 20.68C-2.78442 24.6786 0.784553 24.6786 0.784553 28.6771C0.784552 32.6757 -2.78442 32.6757 -2.78442 36.6743C-2.78442 40.6729 0.784552 40.6729 0.784552 44.6714C0.784552 48.67 -2.78442 48.67 -2.78442 52.6686C-2.78442 56.6671 0.784551 56.6672 0.784551 60.6657C0.784551 64.6643 -2.78442 64.6627 -2.78442 68.6613" stroke="#E0AF84" stroke-width="1.09091" stroke-miterlimit="10"/>
<path d="M0.784427 -11.3086C0.784427 -7.31002 4.3534 -7.31003 4.3534 -3.31145C4.3534 0.687118 0.784427 0.687112 0.784427 4.68568C0.784426 8.68426 4.3534 8.68429 4.3534 12.6829C4.3534 16.6814 0.784426 16.6814 0.784426 20.68C0.784426 24.6786 4.3534 24.6786 4.3534 28.6771C4.3534 32.6757 0.784425 32.6757 0.784425 36.6743C0.784425 40.6729 4.3534 40.6729 4.3534 44.6714C4.3534 48.67 0.784425 48.67 0.784425 52.6686C0.784424 56.6671 4.3534 56.6672 4.3534 60.6657C4.3534 64.6643 0.784424 64.6627 0.784424 68.6613" stroke="#E0AF84" stroke-width="1.09091" stroke-miterlimit="10"/>
<path d="M4.35352 -11.3086C4.35352 -7.31002 7.92249 -7.31003 7.92249 -3.31145C7.92249 0.687118 4.35352 0.687112 4.35352 4.68568C4.35352 8.68426 7.92249 8.68429 7.92249 12.6829C7.92249 16.6814 4.35352 16.6814 4.35352 20.68C4.35352 24.6786 7.92249 24.6786 7.92249 28.6771C7.92249 32.6757 4.35352 32.6757 4.35352 36.6743C4.35352 40.6729 7.92249 40.6729 7.92249 44.6714C7.92249 48.67 4.35352 48.67 4.35352 52.6686C4.35352 56.6671 7.92249 56.6672 7.92249 60.6657C7.92249 64.6643 4.35352 64.6627 4.35352 68.6613" stroke="#E0AF84" stroke-width="1.09091" stroke-miterlimit="10"/>
<path d="M7.92237 -11.3086C7.92237 -7.31002 11.4913 -7.31003 11.4913 -3.31145C11.4913 0.687118 7.92237 0.687112 7.92237 4.68568C7.92237 8.68426 11.4913 8.68429 11.4913 12.6829C11.4913 16.6814 7.92237 16.6814 7.92237 20.68C7.92237 24.6786 11.4913 24.6786 11.4913 28.6771C11.4913 32.6757 7.92236 32.6757 7.92236 36.6743C7.92236 40.6729 11.4913 40.6729 11.4913 44.6714C11.4913 48.67 7.92236 48.67 7.92236 52.6686C7.92236 56.6671 11.4913 56.6672 11.4913 60.6657C11.4913 64.6643 7.92236 64.6627 7.92236 68.6613" stroke="#E0AF84" stroke-width="1.09091" stroke-miterlimit="10"/>
<path d="M11.4915 -11.3086C11.4915 -7.31002 15.0604 -7.31003 15.0604 -3.31145C15.0604 0.687118 11.4915 0.687112 11.4915 4.68568C11.4915 8.68426 15.0604 8.68429 15.0604 12.6829C15.0604 16.6814 11.4915 16.6814 11.4915 20.68C11.4915 24.6786 15.0604 24.6786 15.0604 28.6771C15.0604 32.6757 11.4915 32.6757 11.4915 36.6743C11.4915 40.6729 15.0604 40.6729 15.0604 44.6714C15.0604 48.67 11.4915 48.67 11.4915 52.6686C11.4915 56.6671 15.0604 56.6672 15.0604 60.6657C15.0604 64.6643 11.4915 64.6627 11.4915 68.6613" stroke="#E0AF84" stroke-width="1.09091" stroke-miterlimit="10"/>
<path d="M15.0603 -11.3086C15.0603 -7.31002 18.6293 -7.31003 18.6293 -3.31145C18.6293 0.687118 15.0603 0.687112 15.0603 4.68568C15.0603 8.68426 18.6293 8.68429 18.6293 12.6829C18.6293 16.6814 15.0603 16.6814 15.0603 20.68C15.0603 24.6786 18.6293 24.6786 18.6293 28.6771C18.6293 32.6757 15.0603 32.6757 15.0603 36.6743C15.0603 40.6729 18.6293 40.6729 18.6293 44.6714C18.6293 48.67 15.0603 48.67 15.0603 52.6686C15.0603 56.6671 18.6293 56.6672 18.6293 60.6657C18.6293 64.6643 15.0603 64.6627 15.0603 68.6613" stroke="#E0AF84" stroke-width="1.09091" stroke-miterlimit="10"/>
<path d="M18.6294 -11.3086C18.6294 -7.31002 22.1984 -7.31003 22.1984 -3.31145C22.1984 0.687118 18.6294 0.687112 18.6294 4.68568C18.6294 8.68426 22.1984 8.68429 22.1984 12.6829C22.1984 16.6814 18.6294 16.6814 18.6294 20.68C18.6294 24.6786 22.1984 24.6786 22.1984 28.6771C22.1984 32.6757 18.6294 32.6757 18.6294 36.6743C18.6294 40.6729 22.1984 40.6729 22.1984 44.6714C22.1984 48.67 18.6294 48.67 18.6294 52.6686C18.6294 56.6671 22.1984 56.6672 22.1984 60.6657C22.1984 64.6643 18.6294 64.6627 18.6294 68.6613" stroke="#E0AF84" stroke-width="1.09091" stroke-miterlimit="10"/>
<path d="M22.1982 -11.3086C22.1982 -7.31002 25.7672 -7.31003 25.7672 -3.31145C25.7672 0.687118 22.1982 0.687112 22.1982 4.68568C22.1982 8.68426 25.7672 8.68429 25.7672 12.6829C25.7672 16.6814 22.1982 16.6814 22.1982 20.68C22.1982 24.6786 25.7672 24.6786 25.7672 28.6771C25.7672 32.6757 22.1982 32.6757 22.1982 36.6743C22.1982 40.6729 25.7672 40.6729 25.7672 44.6714C25.7672 48.67 22.1982 48.67 22.1982 52.6686C22.1982 56.6671 25.7672 56.6672 25.7672 60.6657C25.7672 64.6643 22.1982 64.6627 22.1982 68.6613" stroke="#E0AF84" stroke-width="1.09091" stroke-miterlimit="10"/>
<path d="M25.7673 -11.3086C25.7673 -7.31002 29.3363 -7.31003 29.3363 -3.31145C29.3363 0.687118 25.7673 0.687112 25.7673 4.68568C25.7673 8.68426 29.3363 8.68429 29.3363 12.6829C29.3363 16.6814 25.7673 16.6814 25.7673 20.68C25.7673 24.6786 29.3363 24.6786 29.3363 28.6771C29.3363 32.6757 25.7673 32.6757 25.7673 36.6743C25.7673 40.6729 29.3363 40.6729 29.3363 44.6714C29.3363 48.67 25.7673 48.67 25.7673 52.6686C25.7673 56.6671 29.3363 56.6672 29.3363 60.6657C29.3363 64.6643 25.7673 64.6627 25.7673 68.6613" stroke="#E0AF84" stroke-width="1.09091" stroke-miterlimit="10"/>
<path d="M29.3362 -11.3086C29.3362 -7.31002 32.9052 -7.31003 32.9052 -3.31145C32.9052 0.687118 29.3362 0.687112 29.3362 4.68568C29.3362 8.68426 32.9052 8.68429 32.9052 12.6829C32.9052 16.6814 29.3362 16.6814 29.3362 20.68C29.3362 24.6786 32.9052 24.6786 32.9052 28.6771C32.9052 32.6757 29.3362 32.6757 29.3362 36.6743C29.3362 40.6729 32.9052 40.6729 32.9052 44.6714C32.9052 48.67 29.3362 48.67 29.3362 52.6686C29.3362 56.6671 32.9052 56.6672 32.9052 60.6657C32.9052 64.6643 29.3362 64.6627 29.3362 68.6613" stroke="#E0AF84" stroke-width="1.09091" stroke-miterlimit="10"/>
<path d="M32.9053 -11.3086C32.9053 -7.31002 36.4743 -7.31003 36.4743 -3.31145C36.4743 0.687118 32.9053 0.687112 32.9053 4.68568C32.9053 8.68426 36.4743 8.68429 36.4743 12.6829C36.4743 16.6814 32.9053 16.6814 32.9053 20.68C32.9053 24.6786 36.4742 24.6786 36.4742 28.6771C36.4742 32.6757 32.9053 32.6757 32.9053 36.6743C32.9053 40.6729 36.4742 40.6729 36.4742 44.6714C36.4742 48.67 32.9053 48.67 32.9053 52.6686C32.9053 56.6671 36.4742 56.6672 36.4742 60.6657C36.4742 64.6643 32.9053 64.6627 32.9053 68.6613" stroke="#E0AF84" stroke-width="1.09091" stroke-miterlimit="10"/>
<path d="M36.4741 -11.3086C36.4741 -7.31002 40.0431 -7.31003 40.0431 -3.31145C40.0431 0.687118 36.4741 0.687112 36.4741 4.68568C36.4741 8.68426 40.0431 8.68429 40.0431 12.6829C40.0431 16.6814 36.4741 16.6814 36.4741 20.68C36.4741 24.6786 40.0431 24.6786 40.0431 28.6771C40.0431 32.6757 36.4741 32.6757 36.4741 36.6743C36.4741 40.6729 40.0431 40.6729 40.0431 44.6714C40.0431 48.67 36.4741 48.67 36.4741 52.6686C36.4741 56.6671 40.0431 56.6672 40.0431 60.6657C40.0431 64.6643 36.4741 64.6627 36.4741 68.6613" stroke="#E0AF84" stroke-width="1.09091" stroke-miterlimit="10"/>
<path d="M40.0432 -11.3086C40.0432 -7.31002 43.6122 -7.31003 43.6122 -3.31145C43.6122 0.687118 40.0432 0.687112 40.0432 4.68568C40.0432 8.68426 43.6122 8.68429 43.6122 12.6829C43.6122 16.6814 40.0432 16.6814 40.0432 20.68C40.0432 24.6786 43.6122 24.6786 43.6122 28.6771C43.6122 32.6757 40.0432 32.6757 40.0432 36.6743C40.0432 40.6729 43.6122 40.6729 43.6122 44.6714C43.6122 48.67 40.0432 48.67 40.0432 52.6686C40.0432 56.6671 43.6122 56.6672 43.6122 60.6657C43.6122 64.6643 40.0432 64.6627 40.0432 68.6613" stroke="#E0AF84" stroke-width="1.09091" stroke-miterlimit="10"/>
<path d="M43.6123 -11.3086C43.6123 -7.31002 47.1813 -7.31003 47.1813 -3.31145C47.1813 0.687118 43.6123 0.687112 43.6123 4.68568C43.6123 8.68426 47.1813 8.68429 47.1813 12.6829C47.1813 16.6814 43.6123 16.6814 43.6123 20.68C43.6123 24.6786 47.1813 24.6786 47.1813 28.6771C47.1813 32.6757 43.6123 32.6757 43.6123 36.6743C43.6123 40.6729 47.1813 40.6729 47.1813 44.6714C47.1813 48.67 43.6123 48.67 43.6123 52.6686C43.6123 56.6671 47.1813 56.6672 47.1813 60.6657C47.1813 64.6643 43.6123 64.6627 43.6123 68.6613" stroke="#E0AF84" stroke-width="1.09091" stroke-miterlimit="10"/>
<path d="M47.1812 -11.3086C47.1812 -7.31002 50.7501 -7.31003 50.7501 -3.31145C50.7501 0.687118 47.1812 0.687112 47.1812 4.68568C47.1812 8.68426 50.7501 8.68429 50.7501 12.6829C50.7501 16.6814 47.1812 16.6814 47.1812 20.68C47.1812 24.6786 50.7501 24.6786 50.7501 28.6771C50.7501 32.6757 47.1812 32.6757 47.1812 36.6743C47.1812 40.6729 50.7501 40.6729 50.7501 44.6714C50.7501 48.67 47.1812 48.67 47.1812 52.6686C47.1812 56.6671 50.7501 56.6672 50.7501 60.6657C50.7501 64.6643 47.1812 64.6627 47.1812 68.6613" stroke="#E0AF84" stroke-width="1.09091" stroke-miterlimit="10"/>
<path d="M50.7502 -11.3086C50.7502 -7.31002 54.3192 -7.31003 54.3192 -3.31145C54.3192 0.687118 50.7502 0.687112 50.7502 4.68568C50.7502 8.68426 54.3192 8.68429 54.3192 12.6829C54.3192 16.6814 50.7502 16.6814 50.7502 20.68C50.7502 24.6786 54.3192 24.6786 54.3192 28.6771C54.3192 32.6757 50.7502 32.6757 50.7502 36.6743C50.7502 40.6729 54.3192 40.6729 54.3192 44.6714C54.3192 48.67 50.7502 48.67 50.7502 52.6686C50.7502 56.6671 54.3192 56.6672 54.3192 60.6657C54.3192 64.6643 50.7502 64.6627 50.7502 68.6613" stroke="#E0AF84" stroke-width="1.09091" stroke-miterlimit="10"/>
<path d="M54.3191 -11.3086C54.3191 -7.31002 57.8881 -7.31003 57.8881 -3.31145C57.8881 0.687118 54.3191 0.687112 54.3191 4.68568C54.3191 8.68426 57.8881 8.68429 57.8881 12.6829C57.8881 16.6814 54.3191 16.6814 54.3191 20.68C54.3191 24.6786 57.8881 24.6786 57.8881 28.6771C57.8881 32.6757 54.3191 32.6757 54.3191 36.6743C54.3191 40.6729 57.8881 40.6729 57.8881 44.6714C57.8881 48.67 54.3191 48.67 54.3191 52.6686C54.3191 56.6671 57.8881 56.6672 57.8881 60.6657C57.8881 64.6643 54.3191 64.6627 54.3191 68.6613" stroke="#E0AF84" stroke-width="1.09091" stroke-miterlimit="10"/>
<path d="M57.8882 -11.3086C57.8882 -7.31002 61.4572 -7.31003 61.4572 -3.31145C61.4572 0.687118 57.8882 0.687112 57.8882 4.68568C57.8882 8.68426 61.4572 8.68429 61.4572 12.6829C61.4572 16.6814 57.8882 16.6814 57.8882 20.68C57.8882 24.6786 61.4572 24.6786 61.4572 28.6771C61.4572 32.6757 57.8882 32.6757 57.8882 36.6743C57.8882 40.6729 61.4572 40.6729 61.4572 44.6714C61.4572 48.67 57.8882 48.67 57.8882 52.6686C57.8882 56.6671 61.4572 56.6672 61.4572 60.6657C61.4572 64.6643 57.8882 64.6627 57.8882 68.6613" stroke="#E0AF84" stroke-width="1.09091" stroke-miterlimit="10"/>
<path d="M61.457 -11.3086C61.457 -7.31002 65.026 -7.31003 65.026 -3.31145C65.026 0.687118 61.457 0.687112 61.457 4.68568C61.457 8.68426 65.026 8.68429 65.026 12.6829C65.026 16.6814 61.457 16.6814 61.457 20.68C61.457 24.6786 65.026 24.6786 65.026 28.6771C65.026 32.6757 61.457 32.6757 61.457 36.6743C61.457 40.6729 65.026 40.6729 65.026 44.6714C65.026 48.67 61.457 48.67 61.457 52.6686C61.457 56.6671 65.026 56.6672 65.026 60.6657C65.026 64.6643 61.457 64.6627 61.457 68.6613" stroke="#E0AF84" stroke-width="1.09091" stroke-miterlimit="10"/>
<path d="M65.0261 -11.3086C65.0261 -7.31002 68.5951 -7.31003 68.5951 -3.31145C68.5951 0.687118 65.0261 0.687112 65.0261 4.68568C65.0261 8.68426 68.5951 8.68429 68.5951 12.6829C68.5951 16.6814 65.0261 16.6814 65.0261 20.68C65.0261 24.6786 68.5951 24.6786 68.5951 28.6771C68.5951 32.6757 65.0261 32.6757 65.0261 36.6743C65.0261 40.6729 68.5951 40.6729 68.5951 44.6714C68.5951 48.67 65.0261 48.67 65.0261 52.6686C65.0261 56.6671 68.5951 56.6672 68.5951 60.6657C68.5951 64.6643 65.0261 64.6627 65.0261 68.6613" stroke="#E0AF84" stroke-width="1.09091" stroke-miterlimit="10"/>
<path d="M68.595 -11.3086C68.595 -7.31002 72.1639 -7.31003 72.1639 -3.31145C72.1639 0.687118 68.595 0.687112 68.595 4.68568C68.595 8.68426 72.1639 8.68429 72.1639 12.6829C72.1639 16.6814 68.595 16.6814 68.595 20.68C68.595 24.6786 72.1639 24.6786 72.1639 28.6771C72.1639 32.6757 68.595 32.6757 68.595 36.6743C68.595 40.6729 72.1639 40.6729 72.1639 44.6714C72.1639 48.67 68.595 48.67 68.595 52.6686C68.595 56.6671 72.1639 56.6672 72.1639 60.6657C72.1639 64.6643 68.595 64.6627 68.595 68.6613" stroke="#E0AF84" stroke-width="1.09091" stroke-miterlimit="10"/>
<path d="M72.1641 -11.3086C72.1641 -7.31002 75.733 -7.31003 75.733 -3.31145C75.733 0.687118 72.1641 0.687112 72.1641 4.68568C72.1641 8.68426 75.733 8.68429 75.733 12.6829C75.733 16.6814 72.1641 16.6814 72.1641 20.68C72.1641 24.6786 75.733 24.6786 75.733 28.6771C75.733 32.6757 72.1641 32.6757 72.1641 36.6743C72.1641 40.6729 75.733 40.6729 75.733 44.6714C75.733 48.67 72.1641 48.67 72.1641 52.6686C72.1641 56.6671 75.733 56.6672 75.733 60.6657C75.733 64.6643 72.1641 64.6627 72.1641 68.6613" stroke="#E0AF84" stroke-width="1.09091" stroke-miterlimit="10"/>
<path d="M75.7332 -11.3086C75.7332 -7.31002 79.3021 -7.31003 79.3021 -3.31145C79.3021 0.687118 75.7332 0.687112 75.7332 4.68568C75.7332 8.68426 79.3021 8.68429 79.3021 12.6829C79.3021 16.6814 75.7332 16.6814 75.7332 20.68C75.7332 24.6786 79.3021 24.6786 79.3021 28.6771C79.3021 32.6757 75.7332 32.6757 75.7332 36.6743C75.7332 40.6729 79.3021 40.6729 79.3021 44.6714C79.3021 48.67 75.7332 48.67 75.7332 52.6686C75.7332 56.6671 79.3021 56.6672 79.3021 60.6657C79.3021 64.6643 75.7332 64.6627 75.7332 68.6613" stroke="#E0AF84" stroke-width="1.09091" stroke-miterlimit="10"/>
<path d="M79.302 -11.3086C79.302 -7.31002 82.871 -7.31003 82.871 -3.31145C82.871 0.687118 79.302 0.687112 79.302 4.68568C79.302 8.68426 82.871 8.68429 82.871 12.6829C82.871 16.6814 79.302 16.6814 79.302 20.68C79.302 24.6786 82.871 24.6786 82.871 28.6771C82.871 32.6757 79.302 32.6757 79.302 36.6743C79.302 40.6729 82.871 40.6729 82.871 44.6714C82.871 48.67 79.302 48.67 79.302 52.6686C79.302 56.6671 82.871 56.6672 82.871 60.6657C82.871 64.6643 79.302 64.6627 79.302 68.6613" stroke="#E0AF84" stroke-width="1.09091" stroke-miterlimit="10"/>
<path d="M82.8711 -11.3086C82.8711 -7.31002 86.4401 -7.31003 86.4401 -3.31145C86.4401 0.687118 82.8711 0.687112 82.8711 4.68568C82.8711 8.68426 86.4401 8.68429 86.4401 12.6829C86.4401 16.6814 82.8711 16.6814 82.8711 20.68C82.8711 24.6786 86.4401 24.6786 86.4401 28.6771C86.4401 32.6757 82.8711 32.6757 82.8711 36.6743C82.8711 40.6729 86.4401 40.6729 86.4401 44.6714C86.4401 48.67 82.8711 48.67 82.8711 52.6686C82.8711 56.6671 86.4401 56.6672 86.4401 60.6657C86.4401 64.6643 82.8711 64.6627 82.8711 68.6613" stroke="#E0AF84" stroke-width="1.09091" stroke-miterlimit="10"/>
<path d="M86.4399 -11.3086C86.4399 -7.31002 90.0089 -7.31003 90.0089 -3.31145C90.0089 0.687118 86.4399 0.687112 86.4399 4.68568C86.4399 8.68426 90.0089 8.68429 90.0089 12.6829C90.0089 16.6814 86.4399 16.6814 86.4399 20.68C86.4399 24.6786 90.0089 24.6786 90.0089 28.6771C90.0089 32.6757 86.4399 32.6757 86.4399 36.6743C86.4399 40.6729 90.0089 40.6729 90.0089 44.6714C90.0089 48.67 86.4399 48.67 86.4399 52.6686C86.4399 56.6671 90.0089 56.6672 90.0089 60.6657C90.0089 64.6643 86.4399 64.6627 86.4399 68.6613" stroke="#E0AF84" stroke-width="1.09091" stroke-miterlimit="10"/>
<path d="M90.009 -11.3086C90.009 -7.31002 93.578 -7.31003 93.578 -3.31145C93.578 0.687118 90.009 0.687112 90.009 4.68568C90.009 8.68426 93.578 8.68429 93.578 12.6829C93.578 16.6814 90.009 16.6814 90.009 20.68C90.009 24.6786 93.578 24.6786 93.578 28.6771C93.578 32.6757 90.009 32.6757 90.009 36.6743C90.009 40.6729 93.578 40.6729 93.578 44.6714C93.578 48.67 90.009 48.67 90.009 52.6686C90.009 56.6671 93.578 56.6672 93.578 60.6657C93.578 64.6643 90.009 64.6627 90.009 68.6613" stroke="#E0AF84" stroke-width="1.09091" stroke-miterlimit="10"/>
<path d="M93.5779 -11.3086C93.5779 -7.31002 97.1469 -7.31003 97.1469 -3.31145C97.1469 0.687118 93.5779 0.687112 93.5779 4.68568C93.5779 8.68426 97.1469 8.68429 97.1469 12.6829C97.1469 16.6814 93.5779 16.6814 93.5779 20.68C93.5779 24.6786 97.1469 24.6786 97.1469 28.6771C97.1469 32.6757 93.5779 32.6757 93.5779 36.6743C93.5779 40.6729 97.1469 40.6729 97.1469 44.6714C97.1469 48.67 93.5779 48.67 93.5779 52.6686C93.5779 56.6671 97.1469 56.6672 97.1469 60.6657C97.1469 64.6643 93.5779 64.6627 93.5779 68.6613" stroke="#E0AF84" stroke-width="1.09091" stroke-miterlimit="10"/>
<path d="M97.147 -11.3086C97.147 -7.31002 100.716 -7.31003 100.716 -3.31145C100.716 0.687118 97.147 0.687112 97.147 4.68568C97.147 8.68426 100.716 8.68429 100.716 12.6829C100.716 16.6814 97.147 16.6814 97.147 20.68C97.147 24.6786 100.716 24.6786 100.716 28.6771C100.716 32.6757 97.147 32.6757 97.147 36.6743C97.147 40.6729 100.716 40.6729 100.716 44.6714C100.716 48.67 97.147 48.67 97.147 52.6686C97.147 56.6671 100.716 56.6672 100.716 60.6657C100.716 64.6643 97.147 64.6627 97.147 68.6613" stroke="#E0AF84" stroke-width="1.09091" stroke-miterlimit="10"/>
<path d="M100.716 -11.3086C100.716 -7.31002 104.285 -7.31003 104.285 -3.31145C104.285 0.687118 100.716 0.687112 100.716 4.68568C100.716 8.68426 104.285 8.68429 104.285 12.6829C104.285 16.6814 100.716 16.6814 100.716 20.68C100.716 24.6786 104.285 24.6786 104.285 28.6771C104.285 32.6757 100.716 32.6757 100.716 36.6743C100.716 40.6729 104.285 40.6729 104.285 44.6714C104.285 48.67 100.716 48.67 100.716 52.6686C100.716 56.6671 104.285 56.6672 104.285 60.6657C104.285 64.6643 100.716 64.6627 100.716 68.6613" stroke="#E0AF84" stroke-width="1.09091" stroke-miterlimit="10"/>
<path d="M104.285 -11.3086C104.285 -7.31002 107.854 -7.31003 107.854 -3.31145C107.854 0.687118 104.285 0.687112 104.285 4.68568C104.285 8.68426 107.854 8.68429 107.854 12.6829C107.854 16.6814 104.285 16.6814 104.285 20.68C104.285 24.6786 107.854 24.6786 107.854 28.6771C107.854 32.6757 104.285 32.6757 104.285 36.6743C104.285 40.6729 107.854 40.6729 107.854 44.6714C107.854 48.67 104.285 48.67 104.285 52.6686C104.285 56.6671 107.854 56.6672 107.854 60.6657C107.854 64.6643 104.285 64.6627 104.285 68.6613" stroke="#E0AF84" stroke-width="1.09091" stroke-miterlimit="10"/>
<path d="M107.854 -11.3086C107.854 -7.31002 111.423 -7.31003 111.423 -3.31145C111.423 0.687118 107.854 0.687112 107.854 4.68568C107.854 8.68426 111.423 8.68429 111.423 12.6829C111.423 16.6814 107.854 16.6814 107.854 20.68C107.854 24.6786 111.423 24.6786 111.423 28.6771C111.423 32.6757 107.854 32.6757 107.854 36.6743C107.854 40.6729 111.423 40.6729 111.423 44.6714C111.423 48.67 107.854 48.67 107.854 52.6686C107.854 56.6671 111.423 56.6672 111.423 60.6657C111.423 64.6643 107.854 64.6627 107.854 68.6613" stroke="#E0AF84" stroke-width="1.09091" stroke-miterlimit="10"/>
<path d="M111.423 -11.3086C111.423 -7.31002 114.992 -7.31003 114.992 -3.31145C114.992 0.687118 111.423 0.687112 111.423 4.68568C111.423 8.68426 114.992 8.68429 114.992 12.6829C114.992 16.6814 111.423 16.6814 111.423 20.68C111.423 24.6786 114.992 24.6786 114.992 28.6771C114.992 32.6757 111.423 32.6757 111.423 36.6743C111.423 40.6729 114.992 40.6729 114.992 44.6714C114.992 48.67 111.423 48.67 111.423 52.6686C111.423 56.6671 114.992 56.6672 114.992 60.6657C114.992 64.6643 111.423 64.6627 111.423 68.6613" stroke="#E0AF84" stroke-width="1.09091" stroke-miterlimit="10"/>
<path d="M114.992 -11.3086C114.992 -7.31002 118.561 -7.31003 118.561 -3.31145C118.561 0.687118 114.992 0.687112 114.992 4.68568C114.992 8.68426 118.561 8.68429 118.561 12.6829C118.561 16.6814 114.992 16.6814 114.992 20.68C114.992 24.6786 118.561 24.6786 118.561 28.6771C118.561 32.6757 114.992 32.6757 114.992 36.6743C114.992 40.6729 118.561 40.6729 118.561 44.6714C118.561 48.67 114.992 48.67 114.992 52.6686C114.992 56.6671 118.561 56.6672 118.561 60.6657C118.561 64.6643 114.992 64.6627 114.992 68.6613" stroke="#E0AF84" stroke-width="1.09091" stroke-miterlimit="10"/>
<path d="M118.561 -11.3086C118.561 -7.31002 122.13 -7.31003 122.13 -3.31145C122.13 0.687118 118.561 0.687112 118.561 4.68568C118.561 8.68426 122.13 8.68429 122.13 12.6829C122.13 16.6814 118.561 16.6814 118.561 20.68C118.561 24.6786 122.13 24.6786 122.13 28.6771C122.13 32.6757 118.561 32.6757 118.561 36.6743C118.561 40.6729 122.13 40.6729 122.13 44.6714C122.13 48.67 118.561 48.67 118.561 52.6686C118.561 56.6671 122.13 56.6672 122.13 60.6657C122.13 64.6643 118.561 64.6627 118.561 68.6613" stroke="#E0AF84" stroke-width="1.09091" stroke-miterlimit="10"/>
<path d="M122.13 -11.3086C122.13 -7.31002 125.699 -7.31003 125.699 -3.31145C125.699 0.687118 122.13 0.687112 122.13 4.68568C122.13 8.68426 125.699 8.68429 125.699 12.6829C125.699 16.6814 122.13 16.6814 122.13 20.68C122.13 24.6786 125.699 24.6786 125.699 28.6771C125.699 32.6757 122.13 32.6757 122.13 36.6743C122.13 40.6729 125.699 40.6729 125.699 44.6714C125.699 48.67 122.13 48.67 122.13 52.6686C122.13 56.6671 125.699 56.6672 125.699 60.6657C125.699 64.6643 122.13 64.6627 122.13 68.6613" stroke="#E0AF84" stroke-width="1.09091" stroke-miterlimit="10"/>
<path d="M125.699 -11.3086C125.699 -7.31002 129.268 -7.31003 129.268 -3.31145C129.268 0.687118 125.699 0.687112 125.699 4.68568C125.699 8.68426 129.268 8.68429 129.268 12.6829C129.268 16.6814 125.699 16.6814 125.699 20.68C125.699 24.6786 129.268 24.6786 129.268 28.6771C129.268 32.6757 125.699 32.6757 125.699 36.6743C125.699 40.6729 129.268 40.6729 129.268 44.6714C129.268 48.67 125.699 48.67 125.699 52.6686C125.699 56.6671 129.268 56.6672 129.268 60.6657C129.268 64.6643 125.699 64.6627 125.699 68.6613" stroke="#E0AF84" stroke-width="1.09091" stroke-miterlimit="10"/>
<path d="M129.268 -11.3086C129.268 -7.31002 132.837 -7.31003 132.837 -3.31145C132.837 0.687118 129.268 0.687112 129.268 4.68568C129.268 8.68426 132.837 8.68429 132.837 12.6829C132.837 16.6814 129.268 16.6814 129.268 20.68C129.268 24.6786 132.837 24.6786 132.837 28.6771C132.837 32.6757 129.268 32.6757 129.268 36.6743C129.268 40.6729 132.837 40.6729 132.837 44.6714C132.837 48.67 129.268 48.67 129.268 52.6686C129.268 56.6671 132.837 56.6672 132.837 60.6657C132.837 64.6643 129.268 64.6627 129.268 68.6613" stroke="#E0AF84" stroke-width="1.09091" stroke-miterlimit="10"/>
<path d="M132.837 -11.3086C132.837 -7.31002 136.406 -7.31003 136.406 -3.31145C136.406 0.687118 132.837 0.687112 132.837 4.68568C132.837 8.68426 136.406 8.68429 136.406 12.6829C136.406 16.6814 132.837 16.6814 132.837 20.68C132.837 24.6786 136.406 24.6786 136.406 28.6771C136.406 32.6757 132.837 32.6757 132.837 36.6743C132.837 40.6729 136.406 40.6729 136.406 44.6714C136.406 48.67 132.837 48.67 132.837 52.6686C132.837 56.6671 136.406 56.6672 136.406 60.6657C136.406 64.6643 132.837 64.6627 132.837 68.6613" stroke="#E0AF84" stroke-width="1.09091" stroke-miterlimit="10"/>
<path d="M136.406 -11.3086C136.406 -7.31002 139.974 -7.31003 139.974 -3.31145C139.974 0.687118 136.406 0.687112 136.406 4.68568C136.406 8.68426 139.974 8.68429 139.974 12.6829C139.974 16.6814 136.406 16.6814 136.406 20.68C136.406 24.6786 139.974 24.6786 139.974 28.6771C139.974 32.6757 136.406 32.6757 136.406 36.6743C136.406 40.6729 139.974 40.6729 139.974 44.6714C139.974 48.67 136.406 48.67 136.406 52.6686C136.406 56.6671 139.974 56.6672 139.974 60.6657C139.974 64.6643 136.406 64.6627 136.406 68.6613" stroke="#E0AF84" stroke-width="1.09091" stroke-miterlimit="10"/>
<path d="M139.975 -11.3086C139.975 -7.31002 143.544 -7.31003 143.544 -3.31145C143.544 0.687118 139.975 0.687112 139.975 4.68568C139.975 8.68426 143.544 8.68429 143.544 12.6829C143.544 16.6814 139.975 16.6814 139.975 20.68C139.975 24.6786 143.544 24.6786 143.544 28.6771C143.544 32.6757 139.975 32.6757 139.975 36.6743C139.975 40.6729 143.544 40.6729 143.544 44.6714C143.544 48.67 139.975 48.67 139.975 52.6686C139.975 56.6671 143.544 56.6672 143.544 60.6657C143.544 64.6643 139.975 64.6627 139.975 68.6613" stroke="#E0AF84" stroke-width="1.09091" stroke-miterlimit="10"/>
<path d="M143.543 -11.3086C143.543 -7.31002 147.112 -7.31003 147.112 -3.31145C147.112 0.687118 143.543 0.687112 143.543 4.68568C143.543 8.68426 147.112 8.68429 147.112 12.6829C147.112 16.6814 143.543 16.6814 143.543 20.68C143.543 24.6786 147.112 24.6786 147.112 28.6771C147.112 32.6757 143.543 32.6757 143.543 36.6743C143.543 40.6729 147.112 40.6729 147.112 44.6714C147.112 48.67 143.543 48.67 143.543 52.6686C143.543 56.6671 147.112 56.6672 147.112 60.6657C147.112 64.6643 143.543 64.6627 143.543 68.6613" stroke="#E0AF84" stroke-width="1.09091" stroke-miterlimit="10"/>
<path d="M147.113 -11.3086C147.113 -7.31002 150.682 -7.31003 150.682 -3.31145C150.682 0.687118 147.113 0.687112 147.113 4.68568C147.113 8.68426 150.682 8.68429 150.682 12.6829C150.682 16.6814 147.113 16.6814 147.113 20.68C147.113 24.6786 150.682 24.6786 150.682 28.6771C150.682 32.6757 147.113 32.6757 147.113 36.6743C147.113 40.6729 150.682 40.6729 150.682 44.6714C150.682 48.67 147.113 48.67 147.113 52.6686C147.113 56.6671 150.682 56.6672 150.682 60.6657C150.682 64.6643 147.113 64.6627 147.113 68.6613" stroke="#E0AF84" stroke-width="1.09091" stroke-miterlimit="10"/>
<path d="M150.682 -11.3086C150.682 -7.31002 154.251 -7.31003 154.251 -3.31145C154.251 0.687118 150.682 0.687112 150.682 4.68568C150.682 8.68426 154.251 8.68429 154.251 12.6829C154.251 16.6814 150.682 16.6814 150.682 20.68C150.682 24.6786 154.251 24.6786 154.251 28.6771C154.251 32.6757 150.682 32.6757 150.682 36.6743C150.682 40.6729 154.251 40.6729 154.251 44.6714C154.251 48.67 150.682 48.67 150.682 52.6686C150.682 56.6671 154.251 56.6672 154.251 60.6657C154.251 64.6643 150.682 64.6627 150.682 68.6613" stroke="#E0AF84" stroke-width="1.09091" stroke-miterlimit="10"/>
<path d="M154.25 -11.3086C154.25 -7.31002 157.819 -7.31003 157.819 -3.31145C157.819 0.687118 154.25 0.687112 154.25 4.68568C154.25 8.68426 157.819 8.68429 157.819 12.6829C157.819 16.6814 154.25 16.6814 154.25 20.68C154.25 24.6786 157.819 24.6786 157.819 28.6771C157.819 32.6757 154.25 32.6757 154.25 36.6743C154.25 40.6729 157.819 40.6729 157.819 44.6714C157.819 48.67 154.25 48.67 154.25 52.6686C154.25 56.6671 157.819 56.6672 157.819 60.6657C157.819 64.6643 154.25 64.6627 154.25 68.6613" stroke="#E0AF84" stroke-width="1.09091" stroke-miterlimit="10"/>
<path d="M157.819 -11.3086C157.819 -7.31002 161.388 -7.31003 161.388 -3.31145C161.388 0.687118 157.819 0.687112 157.819 4.68568C157.819 8.68426 161.388 8.68429 161.388 12.6829C161.388 16.6814 157.819 16.6814 157.819 20.68C157.819 24.6786 161.388 24.6786 161.388 28.6771C161.388 32.6757 157.819 32.6757 157.819 36.6743C157.819 40.6729 161.388 40.6729 161.388 44.6714C161.388 48.67 157.819 48.67 157.819 52.6686C157.819 56.6671 161.388 56.6672 161.388 60.6657C161.388 64.6643 157.819 64.6627 157.819 68.6613" stroke="#E0AF84" stroke-width="1.09091" stroke-miterlimit="10"/>
<path d="M161.388 -11.3086C161.388 -7.31002 164.957 -7.31003 164.957 -3.31145C164.957 0.687118 161.388 0.687112 161.388 4.68568C161.388 8.68426 164.957 8.68429 164.957 12.6829C164.957 16.6814 161.388 16.6814 161.388 20.68C161.388 24.6786 164.957 24.6786 164.957 28.6771C164.957 32.6757 161.388 32.6757 161.388 36.6743C161.388 40.6729 164.957 40.6729 164.957 44.6714C164.957 48.67 161.388 48.67 161.388 52.6686C161.388 56.6671 164.957 56.6672 164.957 60.6657C164.957 64.6643 161.388 64.6627 161.388 68.6613" stroke="#E0AF84" stroke-width="1.09091" stroke-miterlimit="10"/>
<path d="M164.958 -11.3086C164.958 -7.31002 168.526 -7.31003 168.526 -3.31145C168.526 0.687118 164.958 0.687112 164.958 4.68568C164.958 8.68426 168.526 8.68429 168.526 12.6829C168.526 16.6814 164.958 16.6814 164.958 20.68C164.958 24.6786 168.526 24.6786 168.526 28.6771C168.526 32.6757 164.958 32.6757 164.958 36.6743C164.958 40.6729 168.526 40.6729 168.526 44.6714C168.526 48.67 164.958 48.67 164.958 52.6686C164.958 56.6671 168.526 56.6672 168.526 60.6657C168.526 64.6643 164.958 64.6627 164.958 68.6613" stroke="#E0AF84" stroke-width="1.09091" stroke-miterlimit="10"/>
<path d="M168.526 -11.3086C168.526 -7.31002 172.095 -7.31003 172.095 -3.31145C172.095 0.687118 168.526 0.687112 168.526 4.68568C168.526 8.68426 172.095 8.68429 172.095 12.6829C172.095 16.6814 168.526 16.6814 168.526 20.68C168.526 24.6786 172.095 24.6786 172.095 28.6771C172.095 32.6757 168.526 32.6757 168.526 36.6743C168.526 40.6729 172.095 40.6729 172.095 44.6714C172.095 48.67 168.526 48.67 168.526 52.6686C168.526 56.6671 172.095 56.6672 172.095 60.6657C172.095 64.6643 168.526 64.6627 168.526 68.6613" stroke="#E0AF84" stroke-width="1.09091" stroke-miterlimit="10"/>
<path d="M172.095 -11.3086C172.095 -7.31002 175.664 -7.31003 175.664 -3.31145C175.664 0.687118 172.095 0.687112 172.095 4.68568C172.095 8.68426 175.664 8.68429 175.664 12.6829C175.664 16.6814 172.095 16.6814 172.095 20.68C172.095 24.6786 175.664 24.6786 175.664 28.6771C175.664 32.6757 172.095 32.6757 172.095 36.6743C172.095 40.6729 175.664 40.6729 175.664 44.6714C175.664 48.67 172.095 48.67 172.095 52.6686C172.095 56.6671 175.664 56.6672 175.664 60.6657C175.664 64.6643 172.095 64.6627 172.095 68.6613" stroke="#E0AF84" stroke-width="1.09091" stroke-miterlimit="10"/>
<path d="M175.664 -11.3086C175.664 -7.31002 179.233 -7.31003 179.233 -3.31145C179.233 0.687118 175.664 0.687112 175.664 4.68568C175.664 8.68426 179.233 8.68429 179.233 12.6829C179.233 16.6814 175.664 16.6814 175.664 20.68C175.664 24.6786 179.233 24.6786 179.233 28.6771C179.233 32.6757 175.664 32.6757 175.664 36.6743C175.664 40.6729 179.233 40.6729 179.233 44.6714C179.233 48.67 175.664 48.67 175.664 52.6686C175.664 56.6671 179.233 56.6672 179.233 60.6657C179.233 64.6643 175.664 64.6627 175.664 68.6613" stroke="#E0AF84" stroke-width="1.09091" stroke-miterlimit="10"/>
<path d="M179.233 -11.3086C179.233 -7.31002 182.802 -7.31003 182.802 -3.31145C182.802 0.687118 179.233 0.687112 179.233 4.68568C179.233 8.68426 182.802 8.68429 182.802 12.6829C182.802 16.6814 179.233 16.6814 179.233 20.68C179.233 24.6786 182.802 24.6786 182.802 28.6771C182.802 32.6757 179.233 32.6757 179.233 36.6743C179.233 40.6729 182.802 40.6729 182.802 44.6714C182.802 48.67 179.233 48.67 179.233 52.6686C179.233 56.6671 182.802 56.6672 182.802 60.6657C182.802 64.6643 179.233 64.6627 179.233 68.6613" stroke="#E0AF84" stroke-width="1.09091" stroke-miterlimit="10"/>
<path d="M182.802 -11.3086C182.802 -7.31002 186.371 -7.31003 186.371 -3.31145C186.371 0.687118 182.802 0.687112 182.802 4.68568C182.802 8.68426 186.371 8.68429 186.371 12.6829C186.371 16.6814 182.802 16.6814 182.802 20.68C182.802 24.6786 186.371 24.6786 186.371 28.6771C186.371 32.6757 182.802 32.6757 182.802 36.6743C182.802 40.6729 186.371 40.6729 186.371 44.6714C186.371 48.67 182.802 48.67 182.802 52.6686C182.802 56.6671 186.371 56.6672 186.371 60.6657C186.371 64.6643 182.802 64.6627 182.802 68.6613" stroke="#E0AF84" stroke-width="1.09091" stroke-miterlimit="10"/>
<path d="M186.372 -11.3086C186.372 -7.31002 189.941 -7.31003 189.941 -3.31145C189.941 0.687118 186.372 0.687112 186.372 4.68568C186.372 8.68426 189.941 8.68429 189.941 12.6829C189.941 16.6814 186.372 16.6814 186.372 20.68C186.372 24.6786 189.941 24.6786 189.941 28.6771C189.941 32.6757 186.372 32.6757 186.372 36.6743C186.372 40.6729 189.941 40.6729 189.941 44.6714C189.941 48.67 186.372 48.67 186.372 52.6686C186.372 56.6671 189.941 56.6672 189.941 60.6657C189.941 64.6643 186.372 64.6627 186.372 68.6613" stroke="#E0AF84" stroke-width="1.09091" stroke-miterlimit="10"/>
<path d="M189.94 -11.3086C189.94 -7.31002 193.509 -7.31003 193.509 -3.31145C193.509 0.687118 189.94 0.687112 189.94 4.68568C189.94 8.68426 193.509 8.68429 193.509 12.6829C193.509 16.6814 189.94 16.6814 189.94 20.68C189.94 24.6786 193.509 24.6786 193.509 28.6771C193.509 32.6757 189.94 32.6757 189.94 36.6743C189.94 40.6729 193.509 40.6729 193.509 44.6714C193.509 48.67 189.94 48.67 189.94 52.6686C189.94 56.6671 193.509 56.6672 193.509 60.6657C193.509 64.6643 189.94 64.6627 189.94 68.6613" stroke="#E0AF84" stroke-width="1.09091" stroke-miterlimit="10"/>
<path d="M193.509 -11.3086C193.509 -7.31002 197.078 -7.31003 197.078 -3.31145C197.078 0.687118 193.509 0.687112 193.509 4.68568C193.509 8.68426 197.078 8.68429 197.078 12.6829C197.078 16.6814 193.509 16.6814 193.509 20.68C193.509 24.6786 197.078 24.6786 197.078 28.6771C197.078 32.6757 193.509 32.6757 193.509 36.6743C193.509 40.6729 197.078 40.6729 197.078 44.6714C197.078 48.67 193.509 48.67 193.509 52.6686C193.509 56.6671 197.078 56.6672 197.078 60.6657C197.078 64.6643 193.509 64.6627 193.509 68.6613" stroke="#E0AF84" stroke-width="1.09091" stroke-miterlimit="10"/>
<path d="M197.078 -11.3086C197.078 -7.31002 200.647 -7.31003 200.647 -3.31145C200.647 0.687118 197.078 0.687112 197.078 4.68568C197.078 8.68426 200.647 8.68429 200.647 12.6829C200.647 16.6814 197.078 16.6814 197.078 20.68C197.078 24.6786 200.647 24.6786 200.647 28.6771C200.647 32.6757 197.078 32.6757 197.078 36.6743C197.078 40.6729 200.647 40.6729 200.647 44.6714C200.647 48.67 197.078 48.67 197.078 52.6686C197.078 56.6671 200.647 56.6672 200.647 60.6657C200.647 64.6643 197.078 64.6627 197.078 68.6613" stroke="#E0AF84" stroke-width="1.09091" stroke-miterlimit="10"/>
<path d="M200.647 -11.3086C200.647 -7.31002 204.216 -7.31003 204.216 -3.31145C204.216 0.687118 200.647 0.687112 200.647 4.68568C200.647 8.68426 204.216 8.68429 204.216 12.6829C204.216 16.6814 200.647 16.6814 200.647 20.68C200.647 24.6786 204.216 24.6786 204.216 28.6771C204.216 32.6757 200.647 32.6757 200.647 36.6743C200.647 40.6729 204.216 40.6729 204.216 44.6714C204.216 48.67 200.647 48.67 200.647 52.6686C200.647 56.6671 204.216 56.6672 204.216 60.6657C204.216 64.6643 200.647 64.6627 200.647 68.6613" stroke="#E0AF84" stroke-width="1.09091" stroke-miterlimit="10"/>
<path d="M204.216 -11.3086C204.216 -7.31002 207.785 -7.31003 207.785 -3.31145C207.785 0.687118 204.216 0.687112 204.216 4.68568C204.216 8.68426 207.785 8.68429 207.785 12.6829C207.785 16.6814 204.216 16.6814 204.216 20.68C204.216 24.6786 207.785 24.6786 207.785 28.6771C207.785 32.6757 204.216 32.6757 204.216 36.6743C204.216 40.6729 207.785 40.6729 207.785 44.6714C207.785 48.67 204.216 48.67 204.216 52.6686C204.216 56.6671 207.785 56.6672 207.785 60.6657C207.785 64.6643 204.216 64.6627 204.216 68.6613" stroke="#E0AF84" stroke-width="1.09091" stroke-miterlimit="10"/>
<path d="M207.785 -11.3086C207.785 -7.31002 211.354 -7.31003 211.354 -3.31145C211.354 0.687118 207.785 0.687112 207.785 4.68568C207.785 8.68426 211.354 8.68429 211.354 12.6829C211.354 16.6814 207.785 16.6814 207.785 20.68C207.785 24.6786 211.354 24.6786 211.354 28.6771C211.354 32.6757 207.785 32.6757 207.785 36.6743C207.785 40.6729 211.354 40.6729 211.354 44.6714C211.354 48.67 207.785 48.67 207.785 52.6686C207.785 56.6671 211.354 56.6672 211.354 60.6657C211.354 64.6643 207.785 64.6627 207.785 68.6613" stroke="#E0AF84" stroke-width="1.09091" stroke-miterlimit="10"/>
<path d="M211.354 -11.3086C211.354 -7.31002 214.923 -7.31003 214.923 -3.31145C214.923 0.687118 211.354 0.687112 211.354 4.68568C211.354 8.68426 214.923 8.68429 214.923 12.6829C214.923 16.6814 211.354 16.6814 211.354 20.68C211.354 24.6786 214.923 24.6786 214.923 28.6771C214.923 32.6757 211.354 32.6757 211.354 36.6743C211.354 40.6729 214.923 40.6729 214.923 44.6714C214.923 48.67 211.354 48.67 211.354 52.6686C211.354 56.6671 214.923 56.6672 214.923 60.6657C214.923 64.6643 211.354 64.6627 211.354 68.6613" stroke="#E0AF84" stroke-width="1.09091" stroke-miterlimit="10"/>
<path d="M214.923 -11.3086C214.923 -7.31002 218.492 -7.31003 218.492 -3.31145C218.492 0.687118 214.923 0.687112 214.923 4.68568C214.923 8.68426 218.492 8.68429 218.492 12.6829C218.492 16.6814 214.923 16.6814 214.923 20.68C214.923 24.6786 218.492 24.6786 218.492 28.6771C218.492 32.6757 214.923 32.6757 214.923 36.6743C214.923 40.6729 218.492 40.6729 218.492 44.6714C218.492 48.67 214.923 48.67 214.923 52.6686C214.923 56.6671 218.492 56.6672 218.492 60.6657C218.492 64.6643 214.923 64.6627 214.923 68.6613" stroke="#E0AF84" stroke-width="1.09091" stroke-miterlimit="10"/>
<path d="M218.492 -11.3086C218.492 -7.31002 222.061 -7.31003 222.061 -3.31145C222.061 0.687118 218.492 0.687112 218.492 4.68568C218.492 8.68426 222.061 8.68429 222.061 12.6829C222.061 16.6814 218.492 16.6814 218.492 20.68C218.492 24.6786 222.061 24.6786 222.061 28.6771C222.061 32.6757 218.492 32.6757 218.492 36.6743C218.492 40.6729 222.061 40.6729 222.061 44.6714C222.061 48.67 218.492 48.67 218.492 52.6686C218.492 56.6671 222.061 56.6672 222.061 60.6657C222.061 64.6643 218.492 64.6627 218.492 68.6613" stroke="#E0AF84" stroke-width="1.09091" stroke-miterlimit="10"/>
<path d="M222.061 -11.3086C222.061 -7.31002 225.63 -7.31003 225.63 -3.31145C225.63 0.687118 222.061 0.687112 222.061 4.68568C222.061 8.68426 225.63 8.68429 225.63 12.6829C225.63 16.6814 222.061 16.6814 222.061 20.68C222.061 24.6786 225.63 24.6786 225.63 28.6771C225.63 32.6757 222.061 32.6757 222.061 36.6743C222.061 40.6729 225.63 40.6729 225.63 44.6714C225.63 48.67 222.061 48.67 222.061 52.6686C222.061 56.6671 225.63 56.6672 225.63 60.6657C225.63 64.6643 222.061 64.6627 222.061 68.6613" stroke="#E0AF84" stroke-width="1.09091" stroke-miterlimit="10"/>
<path d="M225.63 -11.3086C225.63 -7.31002 229.199 -7.31003 229.199 -3.31145C229.199 0.687118 225.63 0.687112 225.63 4.68568C225.63 8.68426 229.199 8.68429 229.199 12.6829C229.199 16.6814 225.63 16.6814 225.63 20.68C225.63 24.6786 229.199 24.6786 229.199 28.6771C229.199 32.6757 225.63 32.6757 225.63 36.6743C225.63 40.6729 229.199 40.6729 229.199 44.6714C229.199 48.67 225.63 48.67 225.63 52.6686C225.63 56.6671 229.199 56.6672 229.199 60.6657C229.199 64.6643 225.63 64.6627 225.63 68.6613" stroke="#E0AF84" stroke-width="1.09091" stroke-miterlimit="10"/>
<path d="M229.199 -11.3086C229.199 -7.31002 232.768 -7.31003 232.768 -3.31145C232.768 0.687118 229.199 0.687112 229.199 4.68568C229.199 8.68426 232.768 8.68429 232.768 12.6829C232.768 16.6814 229.199 16.6814 229.199 20.68C229.199 24.6786 232.768 24.6786 232.768 28.6771C232.768 32.6757 229.199 32.6757 229.199 36.6743C229.199 40.6729 232.768 40.6729 232.768 44.6714C232.768 48.67 229.199 48.67 229.199 52.6686C229.199 56.6671 232.768 56.6672 232.768 60.6657C232.768 64.6643 229.199 64.6627 229.199 68.6613" stroke="#E0AF84" stroke-width="1.09091" stroke-miterlimit="10"/>
<path d="M232.768 -11.3086C232.768 -7.31002 236.337 -7.31003 236.337 -3.31145C236.337 0.687118 232.768 0.687112 232.768 4.68568C232.768 8.68426 236.337 8.68429 236.337 12.6829C236.337 16.6814 232.768 16.6814 232.768 20.68C232.768 24.6786 236.337 24.6786 236.337 28.6771C236.337 32.6757 232.768 32.6757 232.768 36.6743C232.768 40.6729 236.337 40.6729 236.337 44.6714C236.337 48.67 232.768 48.67 232.768 52.6686C232.768 56.6671 236.337 56.6672 236.337 60.6657C236.337 64.6643 232.768 64.6627 232.768 68.6613" stroke="#E0AF84" stroke-width="1.09091" stroke-miterlimit="10"/>
<path d="M236.337 -11.3086C236.337 -7.31002 239.906 -7.31003 239.906 -3.31145C239.906 0.687118 236.337 0.687112 236.337 4.68568C236.337 8.68426 239.906 8.68429 239.906 12.6829C239.906 16.6814 236.337 16.6814 236.337 20.68C236.337 24.6786 239.906 24.6786 239.906 28.6771C239.906 32.6757 236.337 32.6757 236.337 36.6743C236.337 40.6729 239.906 40.6729 239.906 44.6714C239.906 48.67 236.337 48.67 236.337 52.6686C236.337 56.6671 239.906 56.6672 239.906 60.6657C239.906 64.6643 236.337 64.6627 236.337 68.6613" stroke="#E0AF84" stroke-width="1.09091" stroke-miterlimit="10"/>
<path d="M239.906 -11.3086C239.906 -7.31002 243.475 -7.31003 243.475 -3.31145C243.475 0.687118 239.906 0.687112 239.906 4.68568C239.906 8.68426 243.475 8.68429 243.475 12.6829C243.475 16.6814 239.906 16.6814 239.906 20.68C239.906 24.6786 243.475 24.6786 243.475 28.6771C243.475 32.6757 239.906 32.6757 239.906 36.6743C239.906 40.6729 243.475 40.6729 243.475 44.6714C243.475 48.67 239.906 48.67 239.906 52.6686C239.906 56.6671 243.475 56.6672 243.475 60.6657C243.475 64.6643 239.906 64.6627 239.906 68.6613" stroke="#E0AF84" stroke-width="1.09091" stroke-miterlimit="10"/>
<path d="M243.475 -11.3086C243.475 -7.31002 247.044 -7.31003 247.044 -3.31145C247.044 0.687119 243.475 0.687112 243.475 4.68569C243.475 8.68426 247.044 8.68429 247.044 12.6829C247.044 16.6814 243.475 16.6814 243.475 20.68C243.475 24.6786 247.044 24.6786 247.044 28.6771C247.044 32.6757 243.475 32.6757 243.475 36.6743C243.475 40.6729 247.044 40.6729 247.044 44.6714C247.044 48.67 243.475 48.67 243.475 52.6686C243.475 56.6671 247.044 56.6672 247.044 60.6657C247.044 64.6643 243.475 64.6627 243.475 68.6613" stroke="#E0AF84" stroke-width="1.09091" stroke-miterlimit="10"/>
<path d="M247.044 -11.3086C247.044 -7.31002 250.613 -7.31003 250.613 -3.31145C250.613 0.687118 247.044 0.687112 247.044 4.68568C247.044 8.68426 250.613 8.68429 250.613 12.6829C250.613 16.6814 247.044 16.6814 247.044 20.68C247.044 24.6786 250.613 24.6786 250.613 28.6771C250.613 32.6757 247.044 32.6757 247.044 36.6743C247.044 40.6729 250.613 40.6729 250.613 44.6714C250.613 48.67 247.044 48.67 247.044 52.6686C247.044 56.6671 250.613 56.6672 250.613 60.6657C250.613 64.6643 247.044 64.6627 247.044 68.6613" stroke="#E0AF84" stroke-width="1.09091" stroke-miterlimit="10"/>
<path d="M250.613 -11.3086C250.613 -7.31002 254.182 -7.31003 254.182 -3.31145C254.182 0.687118 250.613 0.687112 250.613 4.68568C250.613 8.68426 254.182 8.68429 254.182 12.6829C254.182 16.6814 250.613 16.6814 250.613 20.68C250.613 24.6786 254.182 24.6786 254.182 28.6771C254.182 32.6757 250.613 32.6757 250.613 36.6743C250.613 40.6729 254.182 40.6729 254.182 44.6714C254.182 48.67 250.613 48.67 250.613 52.6686C250.613 56.6671 254.182 56.6672 254.182 60.6657C254.182 64.6643 250.613 64.6627 250.613 68.6613" stroke="#E0AF84" stroke-width="1.09091" stroke-miterlimit="10"/>
<path d="M254.182 -11.3086C254.182 -7.31002 257.751 -7.31003 257.751 -3.31145C257.751 0.687118 254.182 0.687112 254.182 4.68568C254.182 8.68426 257.751 8.68429 257.751 12.6829C257.751 16.6814 254.182 16.6814 254.182 20.68C254.182 24.6786 257.751 24.6786 257.751 28.6771C257.751 32.6757 254.182 32.6757 254.182 36.6743C254.182 40.6729 257.751 40.6729 257.751 44.6714C257.751 48.67 254.182 48.67 254.182 52.6686C254.182 56.6671 257.751 56.6672 257.751 60.6657C257.751 64.6643 254.182 64.6627 254.182 68.6613" stroke="#E0AF84" stroke-width="1.09091" stroke-miterlimit="10"/>
<path d="M257.751 -11.3086C257.751 -7.31002 261.32 -7.31003 261.32 -3.31145C261.32 0.687118 257.751 0.687112 257.751 4.68568C257.751 8.68426 261.32 8.68429 261.32 12.6829C261.32 16.6814 257.751 16.6814 257.751 20.68C257.751 24.6786 261.32 24.6786 261.32 28.6771C261.32 32.6757 257.751 32.6757 257.751 36.6743C257.751 40.6729 261.32 40.6729 261.32 44.6714C261.32 48.67 257.751 48.67 257.751 52.6686C257.751 56.6671 261.32 56.6672 261.32 60.6657C261.32 64.6643 257.751 64.6627 257.751 68.6613" stroke="#E0AF84" stroke-width="1.09091" stroke-miterlimit="10"/>
<path d="M261.32 -11.3086C261.32 -7.31002 264.889 -7.31003 264.889 -3.31145C264.889 0.687118 261.32 0.687112 261.32 4.68568C261.32 8.68426 264.889 8.68429 264.889 12.6829C264.889 16.6814 261.32 16.6814 261.32 20.68C261.32 24.6786 264.889 24.6786 264.889 28.6771C264.889 32.6757 261.32 32.6757 261.32 36.6743C261.32 40.6729 264.889 40.6729 264.889 44.6714C264.889 48.67 261.32 48.67 261.32 52.6686C261.32 56.6671 264.889 56.6672 264.889 60.6657C264.889 64.6643 261.32 64.6627 261.32 68.6613" stroke="#E0AF84" stroke-width="1.09091" stroke-miterlimit="10"/>
<path d="M264.889 -11.3086C264.889 -7.31002 268.458 -7.31003 268.458 -3.31145C268.458 0.687118 264.889 0.687112 264.889 4.68568C264.889 8.68426 268.458 8.68429 268.458 12.6829C268.458 16.6814 264.889 16.6814 264.889 20.68C264.889 24.6786 268.458 24.6786 268.458 28.6771C268.458 32.6757 264.889 32.6757 264.889 36.6743C264.889 40.6729 268.458 40.6729 268.458 44.6714C268.458 48.67 264.889 48.67 264.889 52.6686C264.889 56.6671 268.458 56.6672 268.458 60.6657C268.458 64.6643 264.889 64.6627 264.889 68.6613" stroke="#E0AF84" stroke-width="1.09091" stroke-miterlimit="10"/>
<path d="M268.458 -11.3086C268.458 -7.31002 272.027 -7.31003 272.027 -3.31145C272.027 0.687118 268.458 0.687112 268.458 4.68568C268.458 8.68426 272.027 8.68429 272.027 12.6829C272.027 16.6814 268.458 16.6814 268.458 20.68C268.458 24.6786 272.027 24.6786 272.027 28.6771C272.027 32.6757 268.458 32.6757 268.458 36.6743C268.458 40.6729 272.027 40.6729 272.027 44.6714C272.027 48.67 268.458 48.67 268.458 52.6686C268.458 56.6671 272.027 56.6672 272.027 60.6657C272.027 64.6643 268.458 64.6627 268.458 68.6613" stroke="#E0AF84" stroke-width="1.09091" stroke-miterlimit="10"/>
<path d="M272.027 -11.3086C272.027 -7.31002 275.596 -7.31003 275.596 -3.31145C275.596 0.687118 272.027 0.687112 272.027 4.68568C272.027 8.68426 275.596 8.68429 275.596 12.6829C275.596 16.6814 272.027 16.6814 272.027 20.68C272.027 24.6786 275.596 24.6786 275.596 28.6771C275.596 32.6757 272.027 32.6757 272.027 36.6743C272.027 40.6729 275.596 40.6729 275.596 44.6714C275.596 48.67 272.027 48.67 272.027 52.6686C272.027 56.6671 275.596 56.6672 275.596 60.6657C275.596 64.6643 272.027 64.6627 272.027 68.6613" stroke="#E0AF84" stroke-width="1.09091" stroke-miterlimit="10"/>
<path d="M275.596 -11.3086C275.596 -7.31002 279.165 -7.31003 279.165 -3.31145C279.165 0.687118 275.596 0.687112 275.596 4.68568C275.596 8.68426 279.165 8.68429 279.165 12.6829C279.165 16.6814 275.596 16.6814 275.596 20.68C275.596 24.6786 279.165 24.6786 279.165 28.6771C279.165 32.6757 275.596 32.6757 275.596 36.6743C275.596 40.6729 279.165 40.6729 279.165 44.6714C279.165 48.67 275.596 48.67 275.596 52.6686C275.596 56.6671 279.165 56.6672 279.165 60.6657C279.165 64.6643 275.596 64.6627 275.596 68.6613" stroke="#E0AF84" stroke-width="1.09091" stroke-miterlimit="10"/>
<path d="M279.165 -11.3086C279.165 -7.31002 282.734 -7.31003 282.734 -3.31145C282.734 0.687118 279.165 0.687112 279.165 4.68568C279.165 8.68426 282.734 8.68429 282.734 12.6829C282.734 16.6814 279.165 16.6814 279.165 20.68C279.165 24.6786 282.734 24.6786 282.734 28.6771C282.734 32.6757 279.165 32.6757 279.165 36.6743C279.165 40.6729 282.734 40.6729 282.734 44.6714C282.734 48.67 279.165 48.67 279.165 52.6686C279.165 56.6671 282.734 56.6672 282.734 60.6657C282.734 64.6643 279.165 64.6627 279.165 68.6613" stroke="#E0AF84" stroke-width="1.09091" stroke-miterlimit="10"/>
<path d="M282.734 -11.3086C282.734 -7.31002 286.303 -7.31003 286.303 -3.31145C286.303 0.687118 282.734 0.687112 282.734 4.68568C282.734 8.68426 286.303 8.68429 286.303 12.6829C286.303 16.6814 282.734 16.6814 282.734 20.68C282.734 24.6786 286.303 24.6786 286.303 28.6771C286.303 32.6757 282.734 32.6757 282.734 36.6743C282.734 40.6729 286.303 40.6729 286.303 44.6714C286.303 48.67 282.734 48.67 282.734 52.6686C282.734 56.6671 286.303 56.6672 286.303 60.6657C286.303 64.6643 282.734 64.6627 282.734 68.6613" stroke="#E0AF84" stroke-width="1.09091" stroke-miterlimit="10"/>
<path d="M286.303 -11.3086C286.303 -7.31002 289.872 -7.31003 289.872 -3.31145C289.872 0.687118 286.303 0.687112 286.303 4.68568C286.303 8.68426 289.872 8.68429 289.872 12.6829C289.872 16.6814 286.303 16.6814 286.303 20.68C286.303 24.6786 289.872 24.6786 289.872 28.6771C289.872 32.6757 286.303 32.6757 286.303 36.6743C286.303 40.6729 289.872 40.6729 289.872 44.6714C289.872 48.67 286.303 48.67 286.303 52.6686C286.303 56.6671 289.872 56.6672 289.872 60.6657C289.872 64.6643 286.303 64.6627 286.303 68.6613" stroke="#E0AF84" stroke-width="1.09091" stroke-miterlimit="10"/>
<path d="M289.872 -11.3086C289.872 -7.31002 293.441 -7.31003 293.441 -3.31145C293.441 0.687118 289.872 0.687112 289.872 4.68568C289.872 8.68426 293.441 8.68429 293.441 12.6829C293.441 16.6814 289.872 16.6814 289.872 20.68C289.872 24.6786 293.441 24.6786 293.441 28.6771C293.441 32.6757 289.872 32.6757 289.872 36.6743C289.872 40.6729 293.441 40.6729 293.441 44.6714C293.441 48.67 289.872 48.67 289.872 52.6686C289.872 56.6671 293.441 56.6672 293.441 60.6657C293.441 64.6643 289.872 64.6627 289.872 68.6613" stroke="#E0AF84" stroke-width="1.09091" stroke-miterlimit="10"/>
<path d="M293.441 -11.3086C293.441 -7.31002 297.01 -7.31003 297.01 -3.31145C297.01 0.687118 293.441 0.687112 293.441 4.68568C293.441 8.68426 297.01 8.68429 297.01 12.6829C297.01 16.6814 293.441 16.6814 293.441 20.68C293.441 24.6786 297.01 24.6786 297.01 28.6771C297.01 32.6757 293.441 32.6757 293.441 36.6743C293.441 40.6729 297.01 40.6729 297.01 44.6714C297.01 48.67 293.441 48.67 293.441 52.6686C293.441 56.6671 297.01 56.6672 297.01 60.6657C297.01 64.6643 293.441 64.6627 293.441 68.6613" stroke="#E0AF84" stroke-width="1.09091" stroke-miterlimit="10"/>
<path d="M297.01 -11.3086C297.01 -7.31002 300.579 -7.31003 300.579 -3.31145C300.579 0.687118 297.01 0.687112 297.01 4.68568C297.01 8.68426 300.579 8.68429 300.579 12.6829C300.579 16.6814 297.01 16.6814 297.01 20.68C297.01 24.6786 300.579 24.6786 300.579 28.6771C300.579 32.6757 297.01 32.6757 297.01 36.6743C297.01 40.6729 300.579 40.6729 300.579 44.6714C300.579 48.67 297.01 48.67 297.01 52.6686C297.01 56.6671 300.579 56.6672 300.579 60.6657C300.579 64.6643 297.01 64.6627 297.01 68.6613" stroke="#E0AF84" stroke-width="1.09091" stroke-miterlimit="10"/>
<path d="M300.579 -11.3086C300.579 -7.31002 304.148 -7.31003 304.148 -3.31145C304.148 0.687118 300.579 0.687112 300.579 4.68568C300.579 8.68426 304.148 8.68429 304.148 12.6829C304.148 16.6814 300.579 16.6814 300.579 20.68C300.579 24.6786 304.148 24.6786 304.148 28.6771C304.148 32.6757 300.579 32.6757 300.579 36.6743C300.579 40.6729 304.148 40.6729 304.148 44.6714C304.148 48.67 300.579 48.67 300.579 52.6686C300.579 56.6671 304.148 56.6672 304.148 60.6657C304.148 64.6643 300.579 64.6627 300.579 68.6613" stroke="#E0AF84" stroke-width="1.09091" stroke-miterlimit="10"/>
<path d="M304.148 -11.3086C304.148 -7.31002 307.717 -7.31003 307.717 -3.31145C307.717 0.687118 304.148 0.687112 304.148 4.68568C304.148 8.68426 307.717 8.68429 307.717 12.6829C307.717 16.6814 304.148 16.6814 304.148 20.68C304.148 24.6786 307.717 24.6786 307.717 28.6771C307.717 32.6757 304.148 32.6757 304.148 36.6743C304.148 40.6729 307.717 40.6729 307.717 44.6714C307.717 48.67 304.148 48.67 304.148 52.6686C304.148 56.6671 307.717 56.6672 307.717 60.6657C307.717 64.6643 304.148 64.6627 304.148 68.6613" stroke="#E0AF84" stroke-width="1.09091" stroke-miterlimit="10"/>
<path d="M307.717 -11.3086C307.717 -7.31002 311.286 -7.31003 311.286 -3.31145C311.286 0.687118 307.717 0.687112 307.717 4.68568C307.717 8.68426 311.286 8.68429 311.286 12.6829C311.286 16.6814 307.717 16.6814 307.717 20.68C307.717 24.6786 311.286 24.6786 311.286 28.6771C311.286 32.6757 307.717 32.6757 307.717 36.6743C307.717 40.6729 311.286 40.6729 311.286 44.6714C311.286 48.67 307.717 48.67 307.717 52.6686C307.717 56.6671 311.286 56.6672 311.286 60.6657C311.286 64.6643 307.717 64.6627 307.717 68.6613" stroke="#E0AF84" stroke-width="1.09091" stroke-miterlimit="10"/>
<path d="M311.286 -11.3086C311.286 -7.31002 314.855 -7.31003 314.855 -3.31145C314.855 0.687118 311.286 0.687112 311.286 4.68568C311.286 8.68426 314.855 8.68429 314.855 12.6829C314.855 16.6814 311.286 16.6814 311.286 20.68C311.286 24.6786 314.855 24.6786 314.855 28.6771C314.855 32.6757 311.286 32.6757 311.286 36.6743C311.286 40.6729 314.855 40.6729 314.855 44.6714C314.855 48.67 311.286 48.67 311.286 52.6686C311.286 56.6671 314.855 56.6672 314.855 60.6657C314.855 64.6643 311.286 64.6627 311.286 68.6613" stroke="#E0AF84" stroke-width="1.09091" stroke-miterlimit="10"/>
<path d="M314.854 -11.3086C314.854 -7.31002 318.423 -7.31003 318.423 -3.31145C318.423 0.687118 314.854 0.687112 314.854 4.68568C314.854 8.68426 318.423 8.68429 318.423 12.6829C318.423 16.6814 314.854 16.6814 314.854 20.68C314.854 24.6786 318.423 24.6786 318.423 28.6771C318.423 32.6757 314.854 32.6757 314.854 36.6743C314.854 40.6729 318.423 40.6729 318.423 44.6714C318.423 48.67 314.854 48.67 314.854 52.6686C314.854 56.6671 318.423 56.6672 318.423 60.6657C318.423 64.6643 314.854 64.6627 314.854 68.6613" stroke="#E0AF84" stroke-width="1.09091" stroke-miterlimit="10"/>
<path d="M318.424 -11.3086C318.424 -7.31002 321.993 -7.31003 321.993 -3.31145C321.993 0.687118 318.424 0.687112 318.424 4.68568C318.424 8.68426 321.993 8.68429 321.993 12.6829C321.993 16.6814 318.424 16.6814 318.424 20.68C318.424 24.6786 321.993 24.6786 321.993 28.6771C321.993 32.6757 318.424 32.6757 318.424 36.6743C318.424 40.6729 321.993 40.6729 321.993 44.6714C321.993 48.67 318.424 48.67 318.424 52.6686C318.424 56.6671 321.993 56.6672 321.993 60.6657C321.993 64.6643 318.424 64.6627 318.424 68.6613" stroke="#E0AF84" stroke-width="1.09091" stroke-miterlimit="10"/>
<path d="M321.992 -11.3086C321.992 -7.31002 325.561 -7.31003 325.561 -3.31145C325.561 0.687118 321.992 0.687112 321.992 4.68568C321.992 8.68426 325.561 8.68429 325.561 12.6829C325.561 16.6814 321.992 16.6814 321.992 20.68C321.992 24.6786 325.561 24.6786 325.561 28.6771C325.561 32.6757 321.992 32.6757 321.992 36.6743C321.992 40.6729 325.561 40.6729 325.561 44.6714C325.561 48.67 321.992 48.67 321.992 52.6686C321.992 56.6671 325.561 56.6672 325.561 60.6657C325.561 64.6643 321.992 64.6627 321.992 68.6613" stroke="#E0AF84" stroke-width="1.09091" stroke-miterlimit="10"/>
<path d="M325.562 -11.3086C325.562 -7.31002 329.131 -7.31003 329.131 -3.31145C329.131 0.687118 325.562 0.687112 325.562 4.68568C325.562 8.68426 329.131 8.68429 329.131 12.6829C329.131 16.6814 325.562 16.6814 325.562 20.68C325.562 24.6786 329.13 24.6786 329.13 28.6771C329.13 32.6757 325.562 32.6757 325.562 36.6743C325.562 40.6729 329.13 40.6729 329.13 44.6714C329.13 48.67 325.562 48.67 325.562 52.6686C325.562 56.6671 329.13 56.6672 329.13 60.6657C329.13 64.6643 325.562 64.6627 325.562 68.6613" stroke="#E0AF84" stroke-width="1.09091" stroke-miterlimit="10"/>
<path d="M329.13 -11.3086C329.13 -7.31002 332.699 -7.31003 332.699 -3.31145C332.699 0.687118 329.13 0.687112 329.13 4.68568C329.13 8.68426 332.699 8.68429 332.699 12.6829C332.699 16.6814 329.13 16.6814 329.13 20.68C329.13 24.6786 332.699 24.6786 332.699 28.6771C332.699 32.6757 329.13 32.6757 329.13 36.6743C329.13 40.6729 332.699 40.6729 332.699 44.6714C332.699 48.67 329.13 48.67 329.13 52.6686C329.13 56.6671 332.699 56.6672 332.699 60.6657C332.699 64.6643 329.13 64.6627 329.13 68.6613" stroke="#E0AF84" stroke-width="1.09091" stroke-miterlimit="10"/>
<path d="M332.699 -11.3086C332.699 -7.31002 336.268 -7.31003 336.268 -3.31145C336.268 0.687118 332.699 0.687112 332.699 4.68568C332.699 8.68426 336.268 8.68429 336.268 12.6829C336.268 16.6814 332.699 16.6814 332.699 20.68C332.699 24.6786 336.268 24.6786 336.268 28.6771C336.268 32.6757 332.699 32.6757 332.699 36.6743C332.699 40.6729 336.268 40.6729 336.268 44.6714C336.268 48.67 332.699 48.67 332.699 52.6686C332.699 56.6671 336.268 56.6672 336.268 60.6657C336.268 64.6643 332.699 64.6627 332.699 68.6613" stroke="#E0AF84" stroke-width="1.09091" stroke-miterlimit="10"/>
<path d="M336.268 -11.3086C336.268 -7.31002 339.837 -7.31003 339.837 -3.31145C339.837 0.687118 336.268 0.687112 336.268 4.68568C336.268 8.68426 339.837 8.68429 339.837 12.6829C339.837 16.6814 336.268 16.6814 336.268 20.68C336.268 24.6786 339.837 24.6786 339.837 28.6771C339.837 32.6757 336.268 32.6757 336.268 36.6743C336.268 40.6729 339.837 40.6729 339.837 44.6714C339.837 48.67 336.268 48.67 336.268 52.6686C336.268 56.6671 339.837 56.6672 339.837 60.6657C339.837 64.6643 336.268 64.6627 336.268 68.6613" stroke="#E0AF84" stroke-width="1.09091" stroke-miterlimit="10"/>
<path d="M339.837 -11.3086C339.837 -7.31002 343.406 -7.31003 343.406 -3.31145C343.406 0.687118 339.837 0.687112 339.837 4.68568C339.837 8.68426 343.406 8.68429 343.406 12.6829C343.406 16.6814 339.837 16.6814 339.837 20.68C339.837 24.6786 343.406 24.6786 343.406 28.6771C343.406 32.6757 339.837 32.6757 339.837 36.6743C339.837 40.6729 343.406 40.6729 343.406 44.6714C343.406 48.67 339.837 48.67 339.837 52.6686C339.837 56.6671 343.406 56.6672 343.406 60.6657C343.406 64.6643 339.837 64.6627 339.837 68.6613" stroke="#E0AF84" stroke-width="1.09091" stroke-miterlimit="10"/>
<path d="M343.406 -11.3086C343.406 -7.31002 346.975 -7.31003 346.975 -3.31145C346.975 0.687118 343.406 0.687112 343.406 4.68568C343.406 8.68426 346.975 8.68429 346.975 12.6829C346.975 16.6814 343.406 16.6814 343.406 20.68C343.406 24.6786 346.975 24.6786 346.975 28.6771C346.975 32.6757 343.406 32.6757 343.406 36.6743C343.406 40.6729 346.975 40.6729 346.975 44.6714C346.975 48.67 343.406 48.67 343.406 52.6686C343.406 56.6671 346.975 56.6672 346.975 60.6657C346.975 64.6643 343.406 64.6627 343.406 68.6613" stroke="#E0AF84" stroke-width="1.09091" stroke-miterlimit="10"/>
<path d="M346.975 -11.3086C346.975 -7.31002 350.544 -7.31003 350.544 -3.31145C350.544 0.687118 346.975 0.687112 346.975 4.68568C346.975 8.68426 350.544 8.68429 350.544 12.6829C350.544 16.6814 346.975 16.6814 346.975 20.68C346.975 24.6786 350.544 24.6786 350.544 28.6771C350.544 32.6757 346.975 32.6757 346.975 36.6743C346.975 40.6729 350.544 40.6729 350.544 44.6714C350.544 48.67 346.975 48.67 346.975 52.6686C346.975 56.6671 350.544 56.6672 350.544 60.6657C350.544 64.6643 346.975 64.6627 346.975 68.6613" stroke="#E0AF84" stroke-width="1.09091" stroke-miterlimit="10"/>
<path d="M350.544 -11.3086C350.544 -7.31002 354.113 -7.31003 354.113 -3.31145C354.113 0.687118 350.544 0.687112 350.544 4.68568C350.544 8.68426 354.113 8.68429 354.113 12.6829C354.113 16.6814 350.544 16.6814 350.544 20.68C350.544 24.6786 354.113 24.6786 354.113 28.6771C354.113 32.6757 350.544 32.6757 350.544 36.6743C350.544 40.6729 354.113 40.6729 354.113 44.6714C354.113 48.67 350.544 48.67 350.544 52.6686C350.544 56.6671 354.113 56.6672 354.113 60.6657C354.113 64.6643 350.544 64.6627 350.544 68.6613" stroke="#E0AF84" stroke-width="1.09091" stroke-miterlimit="10"/>
</g>
</svg>
