<svg width="158" height="169" viewBox="0 0 158 169" fill="none" xmlns="http://www.w3.org/2000/svg">
<path d="M53 0.717773C50.0198 6.83485 39.509 11.3548 27 11.3548C14.491 11.3548 3.98017 6.83485 1 0.717773" stroke="white" stroke-width="1.01305"/>
<path d="M53 11.8613C50.0198 5.74425 39.509 1.22433 27 1.22433C14.491 1.22433 3.98017 5.74425 1 11.8613" stroke="white" stroke-width="1.01305"/>
<path d="M105 0.717773C102.02 6.83485 91.509 11.3548 79 11.3548C66.491 11.3548 55.9802 6.83485 53 0.717773" stroke="white" stroke-width="1.01305"/>
<path d="M105 11.8613C102.02 5.74425 91.509 1.22433 79 1.22433C66.491 1.22433 55.9802 5.74425 53 11.8613" stroke="white" stroke-width="1.01305"/>
<path d="M157 0.717773C154.02 6.83485 143.509 11.3548 131 11.3548C118.491 11.3548 107.98 6.83485 105 0.717773" stroke="white" stroke-width="1.01305"/>
<path d="M157 11.8613C154.02 5.74425 143.509 1.22433 131 1.22433C118.491 1.22433 107.98 5.74425 105 11.8613" stroke="white" stroke-width="1.01305"/>
<path d="M53 11.8613C50.0198 17.9784 39.509 22.4983 27 22.4983C14.491 22.4983 3.98017 17.9784 1 11.8613" stroke="white" stroke-width="1.01305"/>
<path d="M53 23.0049C50.0198 16.8878 39.509 12.3679 27 12.3679C14.491 12.3679 3.98017 16.8878 1 23.0049" stroke="white" stroke-width="1.01305"/>
<path d="M105 11.8613C102.02 17.9784 91.509 22.4983 79 22.4983C66.491 22.4983 55.9802 17.9784 53 11.8613" stroke="white" stroke-width="1.01305"/>
<path d="M105 23.0049C102.02 16.8878 91.509 12.3679 79 12.3679C66.491 12.3679 55.9802 16.8878 53 23.0049" stroke="white" stroke-width="1.01305"/>
<path d="M157 11.8613C154.02 17.9784 143.509 22.4983 131 22.4983C118.491 22.4983 107.98 17.9784 105 11.8613" stroke="white" stroke-width="1.01305"/>
<path d="M157 23.0049C154.02 16.8878 143.509 12.3679 131 12.3679C118.491 12.3679 107.98 16.8878 105 23.0049" stroke="white" stroke-width="1.01305"/>
<path d="M53 23.0049C50.0198 29.122 39.509 33.6419 27 33.6419C14.491 33.6419 3.98017 29.122 1 23.0049" stroke="white" stroke-width="1.01305"/>
<path d="M53 34.1484C50.0198 28.0314 39.509 23.5114 27 23.5114C14.491 23.5114 3.98017 28.0314 1 34.1484" stroke="white" stroke-width="1.01305"/>
<path d="M105 23.0049C102.02 29.122 91.509 33.6419 79 33.6419C66.491 33.6419 55.9802 29.122 53 23.0049" stroke="white" stroke-width="1.01305"/>
<path d="M105 34.1484C102.02 28.0314 91.509 23.5114 79 23.5114C66.491 23.5114 55.9802 28.0314 53 34.1484" stroke="white" stroke-width="1.01305"/>
<path d="M157 23.0049C154.02 29.122 143.509 33.6419 131 33.6419C118.491 33.6419 107.98 29.122 105 23.0049" stroke="white" stroke-width="1.01305"/>
<path d="M157 34.1484C154.02 28.0314 143.509 23.5114 131 23.5114C118.491 23.5114 107.98 28.0314 105 34.1484" stroke="white" stroke-width="1.01305"/>
<path d="M53 34.1484C50.0198 40.2655 39.509 44.7854 27 44.7854C14.491 44.7854 3.98017 40.2655 1 34.1484" stroke="white" stroke-width="1.01305"/>
<path d="M53 45.292C50.0198 39.1749 39.509 34.655 27 34.655C14.491 34.655 3.98017 39.1749 1 45.292" stroke="white" stroke-width="1.01305"/>
<path d="M105 34.1484C102.02 40.2655 91.509 44.7854 79 44.7854C66.491 44.7854 55.9802 40.2655 53 34.1484" stroke="white" stroke-width="1.01305"/>
<path d="M105 45.292C102.02 39.1749 91.509 34.655 79 34.655C66.491 34.655 55.9802 39.1749 53 45.292" stroke="white" stroke-width="1.01305"/>
<path d="M157 34.1484C154.02 40.2655 143.509 44.7854 131 44.7854C118.491 44.7854 107.98 40.2655 105 34.1484" stroke="white" stroke-width="1.01305"/>
<path d="M157 45.292C154.02 39.1749 143.509 34.655 131 34.655C118.491 34.655 107.98 39.1749 105 45.292" stroke="white" stroke-width="1.01305"/>
<path d="M53 45.292C50.0198 51.4091 39.509 55.929 27 55.929C14.491 55.929 3.98017 51.4091 1 45.292" stroke="white" stroke-width="1.01305"/>
<path d="M53 56.4355C50.0198 50.3185 39.509 45.7985 27 45.7985C14.491 45.7985 3.98017 50.3185 1 56.4355" stroke="white" stroke-width="1.01305"/>
<path d="M105 45.292C102.02 51.4091 91.509 55.929 79 55.929C66.491 55.929 55.9802 51.4091 53 45.292" stroke="white" stroke-width="1.01305"/>
<path d="M105 56.4355C102.02 50.3185 91.509 45.7985 79 45.7985C66.491 45.7985 55.9802 50.3185 53 56.4355" stroke="white" stroke-width="1.01305"/>
<path d="M157 45.292C154.02 51.4091 143.509 55.929 131 55.929C118.491 55.929 107.98 51.4091 105 45.292" stroke="white" stroke-width="1.01305"/>
<path d="M157 56.4355C154.02 50.3185 143.509 45.7985 131 45.7985C118.491 45.7985 107.98 50.3185 105 56.4355" stroke="white" stroke-width="1.01305"/>
<path d="M53 56.4355C50.0198 62.5526 39.509 67.0725 27 67.0725C14.491 67.0725 3.98017 62.5526 1 56.4355" stroke="white" stroke-width="1.01305"/>
<path d="M53 67.5791C50.0198 61.462 39.509 56.9421 27 56.9421C14.491 56.9421 3.98017 61.462 1 67.5791" stroke="white" stroke-width="1.01305"/>
<path d="M105 56.4355C102.02 62.5526 91.509 67.0725 79 67.0725C66.491 67.0725 55.9802 62.5526 53 56.4355" stroke="white" stroke-width="1.01305"/>
<path d="M105 67.5791C102.02 61.462 91.509 56.9421 79 56.9421C66.491 56.9421 55.9802 61.462 53 67.5791" stroke="white" stroke-width="1.01305"/>
<path d="M157 56.4355C154.02 62.5526 143.509 67.0725 131 67.0725C118.491 67.0725 107.98 62.5526 105 56.4355" stroke="white" stroke-width="1.01305"/>
<path d="M157 67.5791C154.02 61.462 143.509 56.9421 131 56.9421C118.491 56.9421 107.98 61.462 105 67.5791" stroke="white" stroke-width="1.01305"/>
<path d="M53 67.5791C50.0198 73.6962 39.509 78.2161 27 78.2161C14.491 78.2161 3.98017 73.6962 1 67.5791" stroke="white" stroke-width="1.01305"/>
<path d="M53 78.7227C50.0198 72.6056 39.509 68.0857 27 68.0857C14.491 68.0857 3.98017 72.6056 1 78.7227" stroke="white" stroke-width="1.01305"/>
<path d="M105 67.5791C102.02 73.6962 91.509 78.2161 79 78.2161C66.491 78.2161 55.9802 73.6962 53 67.5791" stroke="white" stroke-width="1.01305"/>
<path d="M105 78.7227C102.02 72.6056 91.509 68.0857 79 68.0857C66.491 68.0857 55.9802 72.6056 53 78.7227" stroke="white" stroke-width="1.01305"/>
<path d="M157 67.5791C154.02 73.6962 143.509 78.2161 131 78.2161C118.491 78.2161 107.98 73.6962 105 67.5791" stroke="white" stroke-width="1.01305"/>
<path d="M157 78.7227C154.02 72.6056 143.509 68.0857 131 68.0857C118.491 68.0857 107.98 72.6056 105 78.7227" stroke="white" stroke-width="1.01305"/>
<path d="M53 78.7227C50.0198 84.8397 39.509 89.3597 27 89.3597C14.491 89.3597 3.98017 84.8397 1 78.7227" stroke="white" stroke-width="1.01305"/>
<path d="M53 89.8662C50.0198 83.7491 39.509 79.2292 27 79.2292C14.491 79.2292 3.98017 83.7491 1 89.8662" stroke="white" stroke-width="1.01305"/>
<path d="M105 78.7227C102.02 84.8397 91.509 89.3597 79 89.3597C66.491 89.3597 55.9802 84.8397 53 78.7227" stroke="white" stroke-width="1.01305"/>
<path d="M105 89.8662C102.02 83.7491 91.509 79.2292 79 79.2292C66.491 79.2292 55.9802 83.7491 53 89.8662" stroke="white" stroke-width="1.01305"/>
<path d="M157 78.7227C154.02 84.8397 143.509 89.3597 131 89.3597C118.491 89.3597 107.98 84.8397 105 78.7227" stroke="white" stroke-width="1.01305"/>
<path d="M157 89.8662C154.02 83.7491 143.509 79.2292 131 79.2292C118.491 79.2292 107.98 83.7491 105 89.8662" stroke="white" stroke-width="1.01305"/>
<path d="M53 89.8662C50.0198 95.9833 39.509 100.503 27 100.503C14.491 100.503 3.98017 95.9833 1 89.8662" stroke="white" stroke-width="1.01305"/>
<path d="M53 101.01C50.0198 94.8927 39.509 90.3728 27 90.3728C14.491 90.3728 3.98017 94.8927 1 101.01" stroke="white" stroke-width="1.01305"/>
<path d="M105 89.8662C102.02 95.9833 91.509 100.503 79 100.503C66.491 100.503 55.9802 95.9833 53 89.8662" stroke="white" stroke-width="1.01305"/>
<path d="M105 101.01C102.02 94.8927 91.509 90.3728 79 90.3728C66.491 90.3728 55.9802 94.8927 53 101.01" stroke="white" stroke-width="1.01305"/>
<path d="M157 89.8662C154.02 95.9833 143.509 100.503 131 100.503C118.491 100.503 107.98 95.9833 105 89.8662" stroke="white" stroke-width="1.01305"/>
<path d="M157 101.01C154.02 94.8927 143.509 90.3728 131 90.3728C118.491 90.3728 107.98 94.8927 105 101.01" stroke="white" stroke-width="1.01305"/>
<path d="M53 101.01C50.0198 107.127 39.509 111.647 27 111.647C14.491 111.647 3.98017 107.127 1 101.01" stroke="white" stroke-width="1.01305"/>
<path d="M53 112.153C50.0198 106.036 39.509 101.516 27 101.516C14.491 101.516 3.98017 106.036 1 112.153" stroke="white" stroke-width="1.01305"/>
<path d="M105 101.01C102.02 107.127 91.509 111.647 79 111.647C66.491 111.647 55.9802 107.127 53 101.01" stroke="white" stroke-width="1.01305"/>
<path d="M105 112.153C102.02 106.036 91.509 101.516 79 101.516C66.491 101.516 55.9802 106.036 53 112.153" stroke="white" stroke-width="1.01305"/>
<path d="M157 101.01C154.02 107.127 143.509 111.647 131 111.647C118.491 111.647 107.98 107.127 105 101.01" stroke="white" stroke-width="1.01305"/>
<path d="M157 112.153C154.02 106.036 143.509 101.516 131 101.516C118.491 101.516 107.98 106.036 105 112.153" stroke="white" stroke-width="1.01305"/>
<path d="M53 112.153C50.0198 118.27 39.509 122.79 27 122.79C14.491 122.79 3.98017 118.27 1 112.153" stroke="white" stroke-width="1.01305"/>
<path d="M53 123.297C50.0198 117.18 39.509 112.66 27 112.66C14.491 112.66 3.98017 117.18 1 123.297" stroke="white" stroke-width="1.01305"/>
<path d="M105 112.153C102.02 118.27 91.509 122.79 79 122.79C66.491 122.79 55.9802 118.27 53 112.153" stroke="white" stroke-width="1.01305"/>
<path d="M105 123.297C102.02 117.18 91.509 112.66 79 112.66C66.491 112.66 55.9802 117.18 53 123.297" stroke="white" stroke-width="1.01305"/>
<path d="M157 112.153C154.02 118.27 143.509 122.79 131 122.79C118.491 122.79 107.98 118.27 105 112.153" stroke="white" stroke-width="1.01305"/>
<path d="M157 123.297C154.02 117.18 143.509 112.66 131 112.66C118.491 112.66 107.98 117.18 105 123.297" stroke="white" stroke-width="1.01305"/>
<path d="M53 123.297C50.0198 129.414 39.509 133.934 27 133.934C14.491 133.934 3.98017 129.414 1 123.297" stroke="white" stroke-width="1.01305"/>
<path d="M53 134.44C50.0198 128.323 39.509 123.803 27 123.803C14.491 123.803 3.98017 128.323 1 134.44" stroke="white" stroke-width="1.01305"/>
<path d="M105 123.297C102.02 129.414 91.509 133.934 79 133.934C66.491 133.934 55.9802 129.414 53 123.297" stroke="white" stroke-width="1.01305"/>
<path d="M105 134.44C102.02 128.323 91.509 123.803 79 123.803C66.491 123.803 55.9802 128.323 53 134.44" stroke="white" stroke-width="1.01305"/>
<path d="M157 123.297C154.02 129.414 143.509 133.934 131 133.934C118.491 133.934 107.98 129.414 105 123.297" stroke="white" stroke-width="1.01305"/>
<path d="M157 134.44C154.02 128.323 143.509 123.803 131 123.803C118.491 123.803 107.98 128.323 105 134.44" stroke="white" stroke-width="1.01305"/>
<path d="M53 134.44C50.0198 140.558 39.509 145.077 27 145.077C14.491 145.077 3.98017 140.558 1 134.44" stroke="white" stroke-width="1.01305"/>
<path d="M53 145.584C50.0198 139.467 39.509 134.947 27 134.947C14.491 134.947 3.98017 139.467 1 145.584" stroke="white" stroke-width="1.01305"/>
<path d="M105 134.44C102.02 140.558 91.509 145.077 79 145.077C66.491 145.077 55.9802 140.558 53 134.44" stroke="white" stroke-width="1.01305"/>
<path d="M105 145.584C102.02 139.467 91.509 134.947 79 134.947C66.491 134.947 55.9802 139.467 53 145.584" stroke="white" stroke-width="1.01305"/>
<path d="M157 134.44C154.02 140.558 143.509 145.077 131 145.077C118.491 145.077 107.98 140.558 105 134.44" stroke="white" stroke-width="1.01305"/>
<path d="M157 145.584C154.02 139.467 143.509 134.947 131 134.947C118.491 134.947 107.98 139.467 105 145.584" stroke="white" stroke-width="1.01305"/>
<path d="M53 145.584C50.0198 151.701 39.509 156.221 27 156.221C14.491 156.221 3.98017 151.701 1 145.584" stroke="white" stroke-width="1.01305"/>
<path d="M53 156.728C50.0198 150.61 39.509 146.091 27 146.091C14.491 146.091 3.98017 150.61 1 156.728" stroke="white" stroke-width="1.01305"/>
<path d="M105 145.584C102.02 151.701 91.509 156.221 79 156.221C66.491 156.221 55.9802 151.701 53 145.584" stroke="white" stroke-width="1.01305"/>
<path d="M105 156.728C102.02 150.61 91.509 146.091 79 146.091C66.491 146.091 55.9802 150.61 53 156.728" stroke="white" stroke-width="1.01305"/>
<path d="M157 145.584C154.02 151.701 143.509 156.221 131 156.221C118.491 156.221 107.98 151.701 105 145.584" stroke="white" stroke-width="1.01305"/>
<path d="M157 156.728C154.02 150.61 143.509 146.091 131 146.091C118.491 146.091 107.98 150.61 105 156.728" stroke="white" stroke-width="1.01305"/>
<path d="M53 156.728C50.0198 162.845 39.509 167.365 27 167.365C14.491 167.365 3.98017 162.845 1 156.728" stroke="white" stroke-width="1.01305"/>
<path d="M53 167.871C50.0198 161.754 39.509 157.234 27 157.234C14.491 157.234 3.98017 161.754 1 167.871" stroke="white" stroke-width="1.01305"/>
<path d="M105 156.728C102.02 162.845 91.509 167.365 79 167.365C66.491 167.365 55.9802 162.845 53 156.728" stroke="white" stroke-width="1.01305"/>
<path d="M105 167.871C102.02 161.754 91.509 157.234 79 157.234C66.491 157.234 55.9802 161.754 53 167.871" stroke="white" stroke-width="1.01305"/>
<path d="M157 156.728C154.02 162.845 143.509 167.365 131 167.365C118.491 167.365 107.98 162.845 105 156.728" stroke="white" stroke-width="1.01305"/>
<path d="M157 167.871C154.02 161.754 143.509 157.234 131 157.234C118.491 157.234 107.98 161.754 105 167.871" stroke="white" stroke-width="1.01305"/>
</svg>
