<svg width="105" height="74" viewBox="0 0 105 74" fill="none" xmlns="http://www.w3.org/2000/svg">
<path d="M32.1251 8.82758C31.6106 8.82758 31.1421 8.82184 30.6736 8.82758C28.3519 8.85818 26.0245 8.78933 23.7124 8.94423C19.7957 9.20623 16.5771 12.1973 16.2348 15.7448C16.0015 18.1525 16.9883 20.0688 18.6789 21.6943C20.9623 23.8898 23.7774 24.5763 26.8315 24.5419C29.9468 24.5075 33.0622 24.3985 36.1794 24.3889C36.6422 24.3889 37.2389 24.6394 37.5487 24.9779C39.3903 26.9974 41.1651 29.0781 42.9589 31.1416C43.0985 31.3004 43.2018 31.4916 43.4122 31.8033C42.9551 31.8263 42.6242 31.8588 42.2953 31.8588C35.4259 31.8416 28.5527 31.7154 21.6852 31.8301C14.8388 31.9449 10.1323 27.0319 8.239 22.3139C4.31664 12.5491 11.3964 0.736144 23.305 0.76483C25.9135 0.770567 28.5221 0.783954 31.1287 0.753356C31.8153 0.745706 32.0887 0.942685 32.0887 1.66558C32.0887 3.7635 32.1576 5.86142 32.192 7.96125C32.1958 8.20795 32.1557 8.45657 32.1251 8.82758Z" fill="#3A2911"/>
<path d="M40.3101 8.92886C42.3105 7.07382 44.2402 5.28189 46.1698 3.49186C46.2157 3.44788 46.275 3.41346 46.3113 3.36373C47.9043 1.20079 50.0635 0.651927 52.651 0.900541C54.5729 1.08605 56.5274 0.934965 58.4685 0.940702C58.807 0.940702 59.1455 0.973213 59.7192 1.0019C59.287 1.45514 59.004 1.77452 58.6999 2.06711C56.449 4.2205 54.2077 6.38535 51.9281 8.51004C51.3945 9.00727 51.4385 9.30752 51.9109 9.81431C58.4838 16.8558 65.0358 23.9165 71.5915 30.9752C71.844 31.2468 72.0792 31.5374 72.433 31.9486C72.0065 31.9926 71.7407 32.0423 71.4749 32.0423C68.4858 32.0481 65.4947 32.0729 62.5056 32.0232C62.0275 32.0155 61.4194 31.7918 61.1019 31.4533C54.3607 24.2205 47.6538 16.9553 40.9412 9.69574C40.7481 9.48729 40.5779 9.2578 40.3082 8.93269L40.3101 8.92886Z" fill="#3A2911"/>
<path d="M38.4743 10.5909C45.1716 17.7395 51.7675 24.7829 58.526 31.9966C57.5985 31.9966 56.91 31.9966 56.2234 31.9966C53.263 31.9946 50.3045 31.9755 47.3441 32.0023C46.7149 32.008 46.2904 31.8283 45.8715 31.3444C43.5575 28.6785 41.188 26.0585 38.8797 23.3888C38.4303 22.8686 37.9675 22.7175 37.3154 22.7271C33.5919 22.773 29.8684 22.7825 26.145 22.8055C25.9308 22.8055 25.7185 22.8055 25.2251 22.8055C29.7346 18.6479 34.0605 14.6586 38.4724 10.5909H38.4743Z" fill="#3A2911"/>
<path d="M101.448 53.7119V47.619L101.215 47.5406C100.855 48.0378 100.484 48.5255 100.136 49.0304C99.2355 50.3404 98.3252 51.6446 97.4627 52.9795C97.1127 53.5226 96.7053 53.7272 96.057 53.7272C93.525 53.7196 93.525 53.7406 93.5231 51.1761C93.5231 48.4413 93.5499 45.7047 93.5059 42.9718C93.4925 42.161 93.6876 41.8531 94.5577 41.8626C96.9119 41.8894 96.91 41.8511 96.9138 44.2206C96.9157 45.3968 96.9291 46.5729 96.9463 47.749C96.9463 47.8313 97.0228 47.9116 97.1203 48.1086C97.3384 47.86 97.5334 47.6745 97.6826 47.4564C98.7057 45.9609 99.7461 44.475 100.721 42.9489C101.211 42.182 101.766 41.8205 102.729 41.855C104.868 41.9315 104.869 41.8741 104.871 43.9682C104.871 46.8942 104.854 49.8202 104.887 52.7462C104.894 53.471 104.718 53.798 103.929 53.7292C103.148 53.6603 102.358 53.7139 101.45 53.7139L101.448 53.7119Z" fill="#3A2911"/>
<path d="M83.3319 48.0857C83.9783 47.1582 84.6266 46.2345 85.2692 45.305C85.6306 44.7829 86.082 44.2934 86.3172 43.7177C87.0841 41.8359 88.6006 41.6657 90.2855 41.9067C90.5379 41.943 90.9319 42.3331 90.9338 42.5645C90.9758 46.0585 90.9758 49.5544 90.9338 53.0503C90.9319 53.2721 90.5054 53.494 90.2663 53.7063C90.23 53.7388 90.144 53.712 90.0789 53.7139C88.4304 53.7598 87.6036 52.956 87.5985 51.3024C87.5947 50.0727 87.5985 48.843 87.3805 47.5311C87.195 47.7548 86.9923 47.9671 86.8278 48.2062C85.7989 49.6959 84.7356 51.1647 83.7775 52.7003C83.2975 53.4691 82.7429 53.7541 81.8441 53.735C79.6735 53.6871 79.6677 53.7292 79.6639 51.5892C79.6582 48.6977 79.685 45.8061 79.6448 42.9145C79.6333 42.1285 79.8781 41.8742 80.6679 41.8703C83.047 41.8589 83.047 41.8283 83.0451 44.1996C83.0451 45.4657 83.0451 46.7317 83.0451 47.9958C83.1407 48.0264 83.2344 48.0589 83.33 48.0895L83.3319 48.0857Z" fill="#3A2911"/>
<path d="M53.808 73.7291C53.7793 73.4308 53.7372 73.1841 53.7372 72.9374C53.7334 69.6002 53.7525 66.2611 53.7181 62.924C53.7104 62.1839 53.9285 61.9314 54.6858 61.9276C57.1126 61.9161 57.1107 61.8875 57.1126 64.3124C57.1126 65.4885 57.1241 66.6647 57.1356 67.8408C57.1356 67.9249 57.1929 68.0091 57.2809 68.2443C57.5257 67.9441 57.7265 67.728 57.891 67.4889C58.9887 65.8901 60.0998 64.3028 61.1555 62.6773C61.5131 62.1265 61.9243 61.9295 62.563 61.9333C65.0472 61.9429 65.0492 61.9257 65.053 64.3621C65.0568 67.1906 65.0358 70.021 65.0664 72.8494C65.074 73.5838 64.8522 73.8343 64.0891 73.8286C61.6776 73.8133 61.6776 73.8439 61.6795 71.4438C61.6795 70.1873 61.6795 68.929 61.6795 67.6725C61.5877 67.6438 61.4959 67.617 61.4022 67.5884C60.7768 68.4795 60.1495 69.3669 59.528 70.2619C59.2201 70.7056 58.9256 71.1588 58.6234 71.6063C57.5155 73.2497 55.9091 73.958 53.8041 73.731L53.808 73.7291Z" fill="#3A2911"/>
<path d="M17.6309 68.1602C18.6674 66.6475 19.7078 65.1386 20.7386 63.6201C21.8554 61.9755 22.8728 61.5432 24.7776 61.9716C24.9612 62.0137 25.2289 62.2719 25.2289 62.4325C25.2538 66.1789 25.248 69.9273 25.248 73.7425H21.8363V67.6764C21.7522 67.6515 21.668 67.6247 21.5839 67.5999C21.0847 68.3132 20.5818 69.0246 20.0883 69.7418C19.3138 70.8682 18.5183 71.9831 17.7858 73.1382C17.453 73.6641 17.0667 73.8267 16.4586 73.8229C13.9418 73.8076 13.9418 73.8267 13.9418 71.2641C13.9418 68.4968 13.9629 65.7276 13.9227 62.9603C13.9112 62.1667 14.1752 61.9276 14.9592 61.9276C17.3096 61.9315 17.3096 61.9028 17.3077 64.2952C17.3077 65.5574 17.3077 66.8196 17.3077 68.0818C17.4148 68.1086 17.52 68.1334 17.6271 68.1602H17.6309Z" fill="#3A2911"/>
<path d="M23.6683 47.2843C24.2688 47.9651 25.0797 48.5369 25.399 49.3115C26.1736 51.1971 25.0318 53.1879 23.0047 53.4461C21.0923 53.689 19.1435 53.6737 17.2082 53.7024C14.6895 53.7406 14.6876 53.7119 14.6876 51.1608C14.6876 48.4298 14.7144 45.697 14.6723 42.9661C14.6589 42.1648 14.8444 41.8339 15.7203 41.8626C17.8144 41.9295 19.9161 41.8339 22.0102 41.9238C24.3185 42.0233 25.705 44.0256 24.8004 45.9035C24.527 46.4715 23.9838 46.9114 23.6702 47.2843H23.6683ZM20.1169 48.755C18.8994 48.7358 18.3021 49.2445 18.325 50.2811C18.3288 50.4398 18.2791 50.6329 18.3518 50.7496C18.4646 50.9332 18.6597 51.1952 18.8241 51.199C19.5815 51.2162 20.3789 51.2832 21.0865 51.0728C21.4671 50.96 21.9376 50.3155 21.9223 49.9292C21.907 49.5467 21.3849 49.1011 20.9813 48.8487C20.6964 48.6708 20.2412 48.7645 20.1189 48.7569L20.1169 48.755ZM19.9333 44.2187C19.5643 44.2187 19.4648 44.1996 19.3749 44.2225C19.0364 44.3105 18.4283 44.3755 18.4092 44.5132C18.3288 45.1233 18.4091 45.7582 18.4589 46.3797C18.4627 46.4371 18.6712 46.5213 18.784 46.5193C19.4476 46.504 20.1475 46.5844 20.7576 46.3912C21.0827 46.2879 21.4499 45.6932 21.4403 45.3298C21.4308 44.976 21.0234 44.5515 20.6811 44.3162C20.4325 44.1441 20.006 44.2264 19.9314 44.2206L19.9333 44.2187Z" fill="#3A2911"/>
<path d="M34.4659 48.9844C33.525 48.7931 33.0316 49.1852 32.6797 49.8163C32.0906 50.87 31.5016 51.9257 30.947 52.9985C30.685 53.5072 30.3561 53.752 29.7537 53.7233C28.7477 53.6774 27.738 53.7099 26.4509 53.7099C27.6099 51.7784 28.0765 49.7053 30.0291 48.4814C29.7039 48.3169 29.4572 48.1907 29.2086 48.0683C27.9216 47.4315 27.2809 46.1865 27.4607 44.668C27.6252 43.2777 28.4245 42.2068 29.8589 42.0958C32.4196 41.897 34.9994 41.9314 37.5716 41.9218C37.7418 41.9218 38.0612 42.3808 38.0631 42.6275C38.0956 46.0928 38.0822 49.5581 38.0918 53.0234C38.0918 53.4996 37.9197 53.7463 37.4263 53.7138C37.3938 53.7119 37.3632 53.7138 37.3307 53.7157C35.4221 53.8279 34.4671 52.9297 34.4659 51.0211C34.4659 50.3594 34.4659 49.6996 34.4659 48.9844ZM33.3777 44.167C32.7543 44.2205 32.3335 44.2091 31.9376 44.3009C31.232 44.4634 30.9011 45.0849 31.1115 45.7543C31.3486 46.5154 33.7353 47.1236 34.3129 46.569C34.3569 46.5269 34.4085 46.4676 34.4104 46.4141C34.4161 45.7524 34.5079 45.0677 34.3588 44.4424C34.3129 44.2511 33.5976 44.2205 33.3796 44.1651L33.3777 44.167Z" fill="#3A2911"/>
<path d="M39.8436 73.8096C39.8436 73.0389 39.8436 72.4116 39.8436 71.7843C39.8436 68.8278 39.8627 65.8712 39.8225 62.9165C39.813 62.1611 40.0501 61.9239 40.796 61.9316C43.9438 61.9622 47.0916 61.9488 50.2376 61.9411C50.7883 61.9411 51.2129 61.9526 51.2052 62.7271C51.1727 66.223 51.1899 69.7208 51.1861 73.2167C51.1861 73.3697 51.146 73.5227 51.1058 73.8C50.0788 73.8 49.071 73.8421 48.0708 73.7618C47.891 73.7484 47.6195 73.2359 47.6156 72.9509C47.5774 70.5986 47.5544 68.2464 47.6137 65.896C47.6367 64.9953 47.3269 64.7103 46.4701 64.8021C45.904 64.8614 45.3265 64.8117 44.7547 64.8117C43.8762 64.8117 43.4357 65.2675 43.4332 66.179C43.4332 68.4357 43.4141 70.6924 43.4466 72.949C43.4561 73.6107 43.2496 73.8593 42.5783 73.823C41.7254 73.7771 40.8667 73.8115 39.8398 73.8115L39.8436 73.8096Z" fill="#3A2911"/>
<path d="M40.7118 41.9485C41.0713 41.9218 41.3524 41.8854 41.6316 41.8835C42.454 41.8759 43.2744 41.8816 44.2402 41.8816V46.0086C45.5215 46.0086 46.6594 46.0411 47.7954 45.978C47.9981 45.9665 48.327 45.5687 48.3442 45.3297C48.4112 44.4442 48.392 43.5512 48.3672 42.66C48.35 42.0843 48.5928 41.9026 49.1551 41.872C51.995 41.7248 51.9931 41.7114 51.9893 44.5016C51.9874 47.1733 51.9874 49.843 51.9855 52.5146C51.9855 52.8608 51.9855 53.205 51.9855 53.6984C50.8973 53.6984 49.8875 53.7348 48.8874 53.6659C48.6999 53.6525 48.4073 53.2165 48.3959 52.9641C48.3423 51.853 48.3576 50.7399 48.3825 49.6269C48.3939 49.0991 48.1951 48.8485 47.6615 48.8868C47.629 48.8887 47.5984 48.8868 47.5659 48.8868C46.5217 48.9174 45.118 48.5559 44.5385 49.0895C43.9935 49.5906 44.3205 51.0383 44.267 52.069C44.2593 52.2278 44.2478 52.3903 44.2708 52.5452C44.4066 53.4441 44.0681 53.7558 43.1291 53.7367C40.6544 53.685 40.6468 53.7271 40.641 51.218C40.6334 48.5158 40.6372 45.8116 40.641 43.1094C40.641 42.7384 40.685 42.3655 40.7118 41.9485Z" fill="#3A2911"/>
<path d="M12.5151 73.7962C11.142 73.7962 9.97546 73.8344 8.81462 73.7656C8.56984 73.7503 8.2715 73.3888 8.13189 73.1173C7.59068 72.0731 7.13744 70.983 6.57901 69.9484C6.38394 69.587 5.98042 69.3383 5.67252 69.0381C5.56734 69.0878 5.46216 69.1394 5.35507 69.1892C5.35507 70.4131 5.30917 71.639 5.37228 72.861C5.41052 73.6336 5.13705 73.8268 4.39694 73.8249C1.76163 73.8115 1.76163 73.8383 1.76163 71.1934C1.76163 68.4567 1.78458 65.72 1.74825 62.9853C1.73869 62.2222 1.93758 61.9258 2.75609 61.9277C5.3761 61.9354 5.37419 61.9048 5.35507 64.5248C5.35124 65.1215 5.35507 65.72 5.35507 66.3167C5.44877 66.3741 5.54439 66.4296 5.6381 66.4869C5.89437 66.2383 6.22521 66.0318 6.38968 65.7315C6.71097 65.1501 6.97488 64.5286 7.19481 63.8994C7.62893 62.6717 8.49525 62.0654 9.7651 61.9717C10.0194 61.9526 10.27 61.9048 10.5243 61.8876C12.0657 61.7824 12.5687 62.4116 12.0906 63.8918C12.0332 64.0696 11.754 64.2647 11.5551 64.2915C10.6525 64.41 10.1877 64.9799 9.81291 65.7411C9.48397 66.4104 9.05559 67.0301 8.62338 67.7529C10.6735 69.0859 11.2128 71.5606 12.5132 73.7943L12.5151 73.7962Z" fill="#3A2911"/>
<path d="M71.385 46.4276C71.6336 46.1886 71.9281 45.9801 72.1156 45.699C72.324 45.3873 72.4426 45.0124 72.5822 44.6567C73.548 42.2241 74.6839 41.5184 77.2657 41.8149C77.4722 41.8378 77.7763 42.1572 77.805 42.3695C77.8815 42.926 77.8299 43.5016 77.8299 44.2149C76.3037 44.1021 75.7587 45.0966 75.2806 46.2478C75.0722 46.7508 74.6208 47.1524 74.2479 47.6439C76.3975 48.9711 76.8947 51.4362 78.2162 53.6489C76.7991 53.6489 75.5579 53.6757 74.3187 53.6183C74.1408 53.6106 73.9419 53.2205 73.8195 52.9757C73.3414 52.0061 72.9264 51.0021 72.412 50.0536C72.1863 49.6347 71.7771 49.3154 71.452 48.9501L71.0829 49.1184C71.0829 50.2754 71.035 51.4362 71.0982 52.5894C71.146 53.4424 70.905 53.8134 69.9928 53.7254C69.2106 53.6508 68.415 53.7101 67.5659 53.7101C67.5277 53.3812 67.4741 53.1402 67.4741 52.8992C67.4684 49.5582 67.4971 46.2172 67.4531 42.8763C67.4416 42.0539 67.7285 41.8646 68.4934 41.8646C71.0867 41.8646 71.0867 41.8397 71.0829 44.4559C71.0829 45.0564 71.0829 45.655 71.0829 46.2555C71.1823 46.3129 71.2837 46.3683 71.3831 46.4257L71.385 46.4276Z" fill="#3A2911"/>
<path d="M13.3241 53.6929C12.1479 53.6929 11.1324 53.7598 10.138 53.6508C9.84728 53.6183 9.45906 53.1211 9.38065 52.7749C9.18749 51.9258 8.75529 51.6351 7.90809 51.7193C7.18328 51.79 6.44509 51.7709 5.71646 51.7193C5.0299 51.6715 4.61873 51.8856 4.53268 52.6009C4.42367 53.4959 3.92835 53.8229 3.0276 53.7292C2.27985 53.6508 1.51871 53.7139 0.602661 53.7139C0.755654 53.2205 0.845537 52.8667 0.971756 52.5263C2.19379 49.2522 3.43686 45.9839 4.63786 42.7022C4.85779 42.1017 5.16568 41.8321 5.81591 41.8722C6.82757 41.9353 8.05917 41.5968 8.79162 42.0635C9.47053 42.4957 9.64648 43.7502 9.99454 44.6625C10.9928 47.2748 11.9681 49.8948 12.9473 52.5148C13.0678 52.838 13.1596 53.1708 13.326 53.691L13.3241 53.6929ZM8.27145 49.1796C7.83159 47.772 7.44337 46.5347 7.05515 45.2955C6.95188 45.3012 6.85052 45.3069 6.74725 45.3127C6.37242 46.5634 5.99758 47.8122 5.58833 49.1777H8.26954L8.27145 49.1796Z" fill="#3A2911"/>
<path d="M78.484 73.8038C77.3729 73.8038 76.4186 73.8478 75.4738 73.7694C75.2596 73.7522 74.9269 73.3123 74.9135 73.0522C74.8523 71.9163 74.8867 70.7726 74.8867 69.4473C74.445 69.5965 74.1447 69.7399 73.8292 69.7992C72.9322 69.9637 72.0238 70.241 71.1307 70.2085C69.0022 70.1339 67.5851 68.6594 67.4972 66.5405C67.4417 65.2381 67.4933 63.9319 67.4704 62.6296C67.4608 62.1476 67.6195 61.9277 68.1244 61.943C68.855 61.964 69.5874 61.964 70.3199 61.9392C70.8859 61.9201 71.1174 62.1343 71.0982 62.7195C71.0676 63.6718 71.0753 64.628 71.1097 65.5804C71.1556 66.8904 71.6911 67.401 72.9246 67.3838C74.3283 67.3647 74.8848 66.8484 74.8925 65.5479C74.8982 64.5936 74.9078 63.6393 74.8829 62.685C74.8695 62.161 75.0741 61.9105 75.6039 61.943C75.6364 61.9449 75.667 61.943 75.6995 61.943C77.5596 61.8448 78.4891 62.7354 78.4878 64.6147C78.4878 67.2863 78.4878 69.9579 78.4878 72.6296V73.8057L78.484 73.8038Z" fill="#3A2911"/>
<path d="M65.4298 45.2819C64.466 45.5095 63.613 45.7409 62.7467 45.8882C62.5574 45.9207 62.2456 45.695 62.1099 45.5038C61.4118 44.5284 60.6717 44.1651 59.5874 44.4252C58.591 44.6642 57.9542 45.3412 57.8662 46.3529C57.7782 47.355 57.7648 48.3819 57.8872 49.3783C58.0249 50.5066 58.6828 51.0727 59.6696 51.1836C60.9069 51.3252 61.6337 50.9331 62.1366 49.8545C62.2552 49.5982 62.3699 49.3382 62.5325 48.9748C63.5423 49.277 64.5271 49.5715 65.5484 49.8775C65.2634 51.2429 64.6706 52.3005 63.6015 53.0349C59.8016 55.6453 54.5309 53.1917 54.1293 48.6267C54.0796 48.0588 54.0815 47.4812 54.1255 46.9113C54.3646 43.7922 56.2732 41.8969 59.3961 41.7095C61.6987 41.5718 63.8043 41.939 65.0091 44.2473C65.1659 44.5456 65.2673 44.8727 65.4317 45.28L65.4298 45.2819Z" fill="#3A2911"/>
<path d="M27.8738 73.8075C27.8355 73.492 27.7877 73.2797 27.7877 73.0655C27.7839 69.6327 27.7934 66.1999 27.7801 62.7652C27.7781 62.2374 27.8757 61.9238 28.5049 61.9352C30.5072 61.9735 32.5133 61.9199 34.5118 62.006C36.5676 62.094 37.7055 63.3007 37.8222 65.3393C37.9369 67.3627 36.8449 68.8563 34.9115 69.1986C34.1044 69.342 33.263 69.3994 32.4444 69.3554C31.5781 69.3095 31.3295 69.6346 31.3888 70.4531C31.4519 71.3061 31.383 72.1686 31.4079 73.0273C31.4232 73.5761 31.2626 73.8439 30.6525 73.8171C29.7403 73.7769 28.8261 73.8056 27.8719 73.8056L27.8738 73.8075ZM31.4041 65.6568C31.5207 66.1598 31.0025 67.0777 32.2647 67.0337C33.6148 66.9859 34.2555 66.592 34.2727 65.6625C34.2899 64.7121 33.676 64.3334 32.3106 64.255C31.1689 64.19 31.427 64.9473 31.4041 65.6549V65.6568Z" fill="#3A2911"/>
<path d="M96.715 38.732C97.1548 38.971 97.654 39.1431 98.0211 39.4644C98.702 40.0573 99.989 40.1395 100.496 39.4051C100.936 38.7664 101.418 38.9079 101.972 38.9768C101.867 40.1854 100.886 41.0135 99.4841 41.1072C97.9733 41.2085 96.8048 40.3977 96.5314 39.0571C96.5926 38.9481 96.6538 38.841 96.715 38.732Z" fill="#3A2911"/>
</svg>
