<svg width="130" height="90" viewBox="0 0 130 90" fill="none" xmlns="http://www.w3.org/2000/svg">
<path d="M41.1758 3.52187C41.5726 3.37254 41.9639 3.20523 42.3677 3.07664C49.8993 0.665185 57.6107 -0.41333 65.5074 0.143903C71.6867 0.579457 77.7402 1.69392 83.4951 4.08878C84.6164 4.55614 85.6839 5.15762 86.7652 5.72038C87.5036 6.10616 87.8382 6.71732 87.8202 7.57875C87.722 12.4307 86.5439 17.042 84.7202 21.5054C83.0761 25.5291 80.9218 29.2707 78.3694 32.7842C78.2753 32.9142 78.1689 33.0359 78.0624 33.1548C78.0361 33.1838 77.9808 33.188 77.8315 33.2433C77.8163 32.9322 77.79 32.6528 77.7914 32.3735C77.7997 28.8061 77.7983 25.2401 77.8342 21.6727C77.8398 21.0699 77.6697 20.7657 77.071 20.5887C76.3299 20.3702 75.3689 20.2126 74.9789 19.6816C74.6098 19.1769 74.8407 18.2229 74.8324 17.4651C74.8061 15.0025 74.7785 12.5413 74.7785 10.0787C74.7785 9.59751 74.636 9.33894 74.1673 9.1578C69.6652 7.40729 65.1728 5.62774 60.672 3.87446C60.3623 3.75416 59.9986 3.72651 59.6599 3.72651C53.7446 3.71683 47.8294 3.71683 41.9155 3.71545C41.6791 3.71545 41.4426 3.71545 41.2076 3.71545C41.1965 3.65046 41.1868 3.58686 41.1758 3.52187Z" fill="#3A2911"/>
<path d="M57.9675 16.5055C57.5969 16.5055 57.3259 16.5055 57.0549 16.5055C50.5645 16.5055 44.0754 16.4931 37.5849 16.5221C36.9171 16.5249 36.6723 16.3078 36.523 15.6911C35.9188 13.1787 35.5178 10.6428 35.3906 8.05991C35.3602 7.44599 35.5136 7.22061 36.176 7.22199C43.1725 7.24826 50.169 7.25103 57.1641 7.23858C57.767 7.23858 58.0048 7.36579 57.9938 8.03364C57.9495 10.6096 57.9703 13.187 57.9661 15.7644C57.9661 15.969 57.9661 16.1723 57.9661 16.5055H57.9675Z" fill="#3A2911"/>
<path d="M61.2403 29.4838C60.9181 29.4838 60.6498 29.4838 60.3802 29.4838C54.7222 29.4866 49.0627 29.4824 43.4047 29.5046C42.8765 29.5073 42.5515 29.3677 42.3096 28.8934C40.9573 26.2317 39.5856 23.581 38.2278 20.9234C38.1089 20.6898 38.0508 20.4243 37.9319 20.0786C38.2776 20.0565 38.5195 20.0261 38.7629 20.0261C45.9627 20.0233 53.1625 20.0233 60.3622 20.0261C61.2721 20.0261 61.2748 20.0288 61.2748 20.9317C61.2762 23.5077 61.2762 26.0837 61.2748 28.6583C61.2748 28.9045 61.2541 29.152 61.2403 29.4852V29.4838Z" fill="#3A2911"/>
<path d="M0 72.5275V59.4402C0.284839 59.4402 0.548937 59.4402 0.813035 59.4402C6.86517 59.4402 12.9173 59.4581 18.9694 59.4263C20.6356 59.418 21.8911 60.0002 22.5797 61.5474C23.1922 62.9232 22.7982 64.317 21.5192 65.5877C21.4887 65.6181 21.4749 65.6665 21.4293 65.7522C22.4649 66.3952 23.166 67.294 23.3098 68.5412C23.56 70.7134 21.9049 72.5524 19.6649 72.5566C13.2906 72.569 6.91633 72.5621 0.542023 72.5607C0.385777 72.5607 0.228148 72.5427 0 72.5303L0 72.5275ZM2.50271 70.2502C2.84147 70.2502 3.11249 70.2502 3.3835 70.2502C8.37232 70.2502 13.3625 70.2502 18.3514 70.2502C18.5588 70.2502 18.7662 70.2571 18.9722 70.2433C19.8779 70.1866 20.4987 69.4994 20.4641 68.5979C20.4282 67.6548 19.7382 67.0644 18.6279 67.063C13.4552 67.0575 8.28106 67.0589 3.10834 67.0603C2.91199 67.0603 2.71565 67.0949 2.50271 67.1156V70.2516V70.2502ZM2.5193 61.7645V64.6682C2.62024 64.7028 2.68384 64.7442 2.74607 64.7442C8.12897 64.7484 13.5119 64.7512 18.8934 64.7512C18.9846 64.7512 19.0773 64.7373 19.1672 64.718C19.7908 64.5838 20.2581 64.0529 20.3134 63.4141C20.4047 62.3812 19.7368 61.7258 18.5366 61.723C13.4068 61.7133 8.27692 61.7147 3.14705 61.7147C2.94656 61.7147 2.74468 61.7451 2.51792 61.7631L2.5193 61.7645Z" fill="#3A2911"/>
<path d="M93.9069 64.83V67.1253H78.7191V70.235H97.69V72.5054H76.157V59.4969H97.7024V61.6954H96.8258C91.0502 61.6954 85.2732 61.7065 79.4976 61.6816C78.8464 61.6788 78.5919 61.8309 78.6445 62.5126C78.7012 63.2606 78.6569 64.0156 78.6569 64.8314H93.9069V64.83Z" fill="#3A2911"/>
<path d="M61.6924 37.3582C65.5833 37.3582 69.4743 37.354 73.3638 37.3665C73.6376 37.3665 73.9114 37.4964 74.1838 37.5656C74.0428 37.8145 73.946 38.1062 73.7551 38.3081C70.6745 41.545 67.2287 44.3174 63.3572 46.567C62.15 47.2681 61.0826 47.2819 59.8686 46.574C55.979 44.3077 52.5319 41.498 49.436 38.2473C49.2742 38.0786 49.1982 37.8283 49.082 37.6154C49.3254 37.5296 49.5674 37.3706 49.8107 37.3706C53.7708 37.3554 57.7295 37.3596 61.6896 37.3582H61.6924Z" fill="#3A2911"/>
<path d="M28.1659 72.5179H25.6562V59.4319C25.9356 59.4319 26.2024 59.4319 26.4707 59.4319C32.2919 59.4319 38.1131 59.4748 43.9343 59.4112C46.3361 59.3849 47.9843 60.9834 48.3189 62.738C48.7337 64.9047 47.6275 66.7285 45.4028 67.583C45.3405 67.6065 45.2797 67.637 45.1566 67.6923C46.2794 69.2782 47.3911 70.8476 48.5982 72.5511C47.6013 72.5511 46.7426 72.5746 45.8881 72.5318C45.7153 72.5235 45.5203 72.2884 45.3958 72.1142C44.4528 70.8089 43.5389 69.4829 42.5807 68.1914C42.4189 67.973 42.0829 67.7545 41.8257 67.7531C37.3858 67.7268 32.9445 67.7338 28.5033 67.7365C28.4148 67.7365 28.3249 67.7545 28.1645 67.7711V72.5193L28.1659 72.5179ZM28.1769 65.4219C30.2939 65.4219 32.3389 65.4219 34.3839 65.4219C37.513 65.4219 40.6421 65.4288 43.7712 65.4163C45.0101 65.4122 45.8397 64.5037 45.7125 63.3423C45.6019 62.3453 44.7902 61.7024 43.5928 61.701C38.669 61.6954 33.7451 61.6982 28.8227 61.701C28.6208 61.701 28.4189 61.7259 28.1783 61.7411V65.4219H28.1769Z" fill="#3A2911"/>
<path d="M73.3293 59.4692V72.5054H70.8791V67.2041H53.0905V72.5068H50.592C50.5795 72.3049 50.556 72.0865 50.556 71.868C50.5532 69.1537 50.5463 66.4381 50.556 63.7238C50.5643 61.2584 52.2858 59.4526 54.7373 59.4402C60.766 59.4111 66.796 59.4277 72.8246 59.4277C72.9808 59.4277 73.1357 59.4512 73.3307 59.4678L73.3293 59.4692ZM70.828 61.6981C70.5072 61.6981 70.2583 61.6981 70.0094 61.6981C65.1588 61.6981 60.3069 61.7313 55.4563 61.6788C53.9146 61.6622 52.6453 62.4586 53.1721 64.7982H70.828V61.6981Z" fill="#3A2911"/>
<path d="M102.748 67.735V72.5137H100.303V59.4733C100.524 59.4595 100.726 59.4346 100.927 59.4346C106.888 59.4332 112.849 59.4277 118.809 59.4374C120.888 59.4401 122.539 60.7689 122.935 62.7144C123.348 64.7373 122.297 66.6897 120.382 67.4557C120.212 67.5235 120.039 67.5843 119.773 67.6825C120.906 69.2781 122.016 70.842 123.226 72.5455C122.214 72.5455 121.334 72.569 120.459 72.5248C120.293 72.5165 120.116 72.251 119.988 72.0712C119.046 70.7646 118.126 69.4427 117.172 68.1457C117.033 67.9563 116.752 67.753 116.535 67.753C111.979 67.7309 107.423 67.7364 102.748 67.7364V67.735ZM102.78 65.4231C103.128 65.4231 103.402 65.4231 103.676 65.4231C108.463 65.4231 113.251 65.4231 118.038 65.4231C118.245 65.4231 118.453 65.4287 118.659 65.4121C119.497 65.343 120.188 64.7111 120.315 63.9049C120.455 63.0269 120.03 62.189 119.233 61.882C118.92 61.7617 118.562 61.7092 118.223 61.7078C113.274 61.6967 108.326 61.6981 103.377 61.7009C103.181 61.7009 102.984 61.7341 102.777 61.752V65.4231H102.78Z" fill="#3A2911"/>
<path d="M62.1378 88.9459H61.2058V81.6548H66.7754V88.9321H65.8863V82.4596H62.1378V88.9445V88.9459Z" fill="#3A2911"/>
<path d="M69.3761 88.9513H68.4123C68.4123 88.654 68.4123 88.3858 68.4123 88.1175C68.4123 86.1845 68.4275 84.2515 68.404 82.3198C68.3985 81.8096 68.4939 81.5787 69.0802 81.5953C70.5293 81.6381 71.9797 81.6271 73.4288 81.5981C73.9418 81.587 74.105 81.7488 74.098 82.2659C74.0718 84.2446 74.0897 86.2232 74.087 88.2019C74.087 89.0315 74.0828 89.0315 73.1509 88.9181C73.1398 88.6858 73.1163 88.4411 73.1163 88.1964C73.1135 86.4942 73.1011 84.7907 73.1246 83.0886C73.1315 82.6005 73.0251 82.3738 72.4816 82.4014C71.6548 82.4429 70.8238 82.436 69.9969 82.4014C69.5074 82.3807 69.3622 82.5549 69.3678 83.0333C69.3899 84.7354 69.3747 86.4389 69.3747 88.141C69.3747 88.3899 69.3747 88.6388 69.3747 88.9513H69.3761Z" fill="#3A2911"/>
<path d="M81.5468 88.9099C80.7973 89.1464 80.4862 88.8602 80.2816 88.22C79.9082 87.0557 79.8737 87.0668 78.6251 87.0682C78.5795 87.0682 78.5324 87.0751 78.4868 87.0682C77.2465 86.8608 76.3754 87.158 76.1666 88.585C76.0698 89.2446 75.5112 88.9224 75.0259 88.9556C75.308 88.1992 75.561 87.5148 75.8182 86.8345C76.4114 85.2679 77.0211 83.7054 77.5922 82.1305C77.7318 81.7447 77.9171 81.5954 78.3333 81.5968C78.7329 81.5968 78.8864 81.7655 79.015 82.1125C79.7976 84.2212 80.6024 86.3229 81.3988 88.4274C81.4541 88.574 81.4914 88.7274 81.5468 88.9127V88.9099ZM78.3969 82.8315C78.3389 82.8288 78.2808 82.8274 78.2213 82.8246C77.8273 83.9363 77.4332 85.048 77.017 86.222H79.593C79.1823 85.0605 78.7896 83.946 78.3955 82.8315H78.3969Z" fill="#3A2911"/>
<path d="M49.2729 88.9555H48.3464V81.6229C49.7527 81.6603 51.1713 81.4072 52.5526 81.8387C53.5012 82.1346 53.8648 82.9628 53.7169 84.2086C53.6007 85.1945 52.9495 85.8734 51.8959 85.9591C51.0552 86.0283 50.2062 85.973 49.2729 85.973V88.9555ZM49.295 82.4941V85.265C50.1398 85.2263 50.9418 85.2415 51.7299 85.1392C52.4324 85.0479 52.7766 84.5045 52.7628 83.7316C52.7504 83.0167 52.442 82.5798 51.7175 82.512C50.928 82.4374 50.126 82.4954 49.2936 82.4954L49.295 82.4941Z" fill="#3A2911"/>
<path d="M55.1218 88.9679V88.2655C55.5117 88.2296 55.892 88.2586 56.2252 88.148C56.77 87.9682 56.9871 87.27 56.7161 86.7266C55.9957 85.2885 55.2656 83.8547 54.5411 82.4194C54.4305 82.1996 54.3281 81.9756 54.2175 81.746C55.1744 81.4709 55.2615 81.5082 55.6445 82.3074C56.2169 83.5035 56.7908 84.6995 57.4448 86.067C57.8776 84.9857 58.2481 84.0621 58.6187 83.137C58.7293 82.8605 58.8787 82.5922 58.9492 82.3046C59.1096 81.6437 59.5036 81.4653 60.1881 81.6907C60.0941 81.941 60.0069 82.1926 59.906 82.4374C59.1884 84.1796 58.4818 85.9246 57.7448 87.6585C57.1904 88.9652 56.5986 89.2542 55.1218 88.9665V88.9679Z" fill="#3A2911"/>
<path d="M42.6746 81.648H47.243V82.414H43.5885V88.9321H42.6746V81.648Z" fill="#3A2911"/>
<path d="M130 59.8619C130.015 61.293 128.93 62.4227 127.512 62.4545C126.089 62.4863 124.902 61.3248 124.899 59.8992C124.896 58.4902 126.019 57.3675 127.44 57.3578C128.877 57.3481 129.983 58.4308 129.998 59.8619H130ZM125.38 59.8799C125.375 61.1243 126.265 62.0742 127.446 62.0867C128.603 62.0991 129.552 61.1215 129.56 59.9103C129.568 58.7059 128.627 57.7021 127.476 57.6896C126.323 57.6772 125.384 58.6575 125.379 59.8785L125.38 59.8799Z" fill="#3A2911"/>
<path d="M128.211 61.1603C128.129 60.9861 127.994 60.816 127.978 60.6362C127.942 60.2242 127.71 60.0209 127.353 60.1191C127.188 60.1647 127.091 60.4772 126.975 60.6763C126.894 60.8146 126.834 60.9625 126.764 61.1077C126.687 60.9722 126.549 60.8395 126.543 60.7026C126.52 60.043 126.532 59.3835 126.532 58.6188C126.914 58.6188 127.246 58.6106 127.577 58.6202C128.413 58.6451 128.61 58.9701 128.321 59.7568C128.266 59.9062 128.371 60.1122 128.388 60.2933C128.413 60.556 128.425 60.8201 128.442 61.0842C128.364 61.1105 128.287 61.1354 128.211 61.1617V61.1603ZM127.004 59.6296C127.063 59.7098 127.123 59.7914 127.181 59.8716L128.024 59.3545C127.81 59.2079 127.604 58.9548 127.378 58.9369C126.773 58.8885 127.034 59.3475 127.004 59.6296Z" fill="#3A2911"/>
</svg>
