<svg width="130" height="43" viewBox="0 0 130 43" fill="none" xmlns="http://www.w3.org/2000/svg">
<path d="M95.5707 0.553133C96.1017 0.683813 96.6457 0.775976 97.1615 0.95205C98.4842 1.40461 99.3577 2.34963 99.9712 3.63854C99.2462 4.02233 98.5344 4.39855 97.8088 4.78233C97.7551 4.71424 97.7056 4.66747 97.6753 4.61107C97.099 3.55051 96.2289 2.9707 94.9998 3.03673C93.7219 3.10551 92.9296 3.85313 92.5327 5.00311C92.0554 6.38625 92.0561 7.79484 92.5878 9.17041C92.9908 10.2138 93.7873 10.8025 94.8953 10.9188C96.0294 11.0378 96.9311 10.6051 97.5777 9.65943C97.623 9.5934 97.6629 9.52393 97.7056 9.45584C97.7482 9.38982 97.7916 9.32379 97.8583 9.222C98.3954 9.48542 98.9257 9.74403 99.4553 10.0047C100.118 10.3307 100.102 10.3211 99.6878 10.9552C97.5398 14.2456 92.8931 13.8604 90.9708 11.7923C90.098 10.8534 89.609 9.7344 89.4246 8.48675C89.1722 6.78035 89.2451 5.0994 90.0897 3.54157C90.9852 1.88881 92.3869 0.945172 94.2508 0.683125C94.4413 0.656301 94.6277 0.596464 94.8155 0.551758C95.0672 0.551758 95.3197 0.551758 95.5714 0.551758L95.5707 0.553133Z" fill="#3A2911"/>
<path d="M0 42.0061C0 41.7344 0 41.5184 0 41.3025C0.0171947 33.7155 0.0281993 26.1278 0.0529596 18.5409C0.0715298 12.8192 0.107983 7.09747 0.136182 1.37577C0.137557 1.07819 0.289329 0.927563 0.591497 0.923895C3.73056 0.888818 6.86893 0.853741 10.008 0.819351C10.4764 0.814537 10.4771 0.8166 10.4771 1.28361C10.4771 11.3659 10.4771 21.4474 10.4771 31.5297C10.4771 31.6439 10.4805 31.7587 10.4777 31.8729C10.4729 32.0779 10.5747 32.1652 10.7749 32.1522C10.8203 32.1494 10.8663 32.1522 10.9124 32.1522C16.1823 32.1522 21.4528 32.1549 26.7226 32.1501C28.3024 32.1487 29.6567 30.7229 29.5824 29.161C29.5184 27.8136 28.5906 26.7675 27.1696 26.5157C26.4853 26.3947 25.7851 26.3287 25.0905 26.308C21.6309 26.2062 18.6975 24.9187 16.3294 22.4083C14.0536 19.9962 12.852 17.1041 12.7708 13.791C12.7048 11.1004 13.5996 8.68625 15.1636 6.52179C16.9223 4.0884 19.2106 2.34074 22.0711 1.37646C23.0409 1.04976 24.0382 0.840673 25.065 0.826229C26.2446 0.809722 27.4248 0.815912 28.6051 0.815912C37.8737 0.815912 47.1423 0.856492 56.4102 0.796654C60.5239 0.769831 63.8197 2.38544 66.5331 5.34568C68.2003 7.16418 69.3007 9.29495 69.7196 11.74C70.1378 14.181 69.7629 16.5353 68.7429 18.772C67.2601 22.0224 64.8672 24.341 61.4888 25.5893C60.0335 26.1271 58.519 26.3355 56.9701 26.308C56.5182 26.2998 56.0663 26.3067 55.5065 26.3067C58.2844 31.5875 61.0067 36.7624 63.7647 42.0054C63.5859 42.0054 63.4669 42.0054 63.3479 42.0054C59.8423 42.0054 56.3366 42.0026 52.831 42.0116C52.5792 42.0116 52.4479 41.9345 52.3261 41.7151C47.7324 33.4308 43.1325 25.1498 38.5333 16.8689C38.4796 16.7726 38.4328 16.6728 38.3538 16.5181C38.5566 16.5064 38.6983 16.4906 38.84 16.4906C44.0644 16.483 49.2882 16.4782 54.5126 16.4706C55.501 16.4692 56.4735 16.4018 57.3972 15.9747C58.867 15.2938 59.3698 13.3082 58.4378 12.0296C57.8106 11.1685 56.9955 10.6458 55.8903 10.6458C46.1753 10.6478 36.4596 10.6464 26.7446 10.6478C25.4 10.6478 24.0712 11.6754 23.8077 12.9086C23.4859 14.4135 24.2803 15.7828 25.8092 16.1769C26.5864 16.3771 27.4104 16.4376 28.2171 16.472C31.055 16.5944 33.6032 17.4954 35.8227 19.2617C38.2568 21.1978 39.763 23.7082 40.3318 26.7723C41.5052 33.0958 38.102 39.0699 32.0756 41.2344C30.6547 41.7447 29.1814 42.0068 27.6676 42.0068C18.5826 42.0081 9.49765 42.0068 0.411984 42.0068C0.288871 42.0068 0.165069 42.0068 0.00137557 42.0068L0 42.0061Z" fill="#3A2911"/>
<path d="M86.1207 18.1488C85.4184 19.1199 85.3813 20.2073 85.1585 21.2411C85.0835 21.5864 85.0023 21.9337 84.8792 22.2638C84.6405 22.9069 84.1481 23.2989 83.5181 23.5342C83.4163 23.572 83.3152 23.6133 83.1377 23.6827C83.2705 23.7666 83.3338 23.8327 83.408 23.8505C84.8799 24.191 85.5567 25.1842 85.7782 26.6148C85.9157 27.5034 86.1351 28.3824 86.3676 29.2524C86.4591 29.5949 86.6847 29.9017 86.8669 30.26C86.7479 30.2683 86.6406 30.2827 86.5333 30.2827C85.8345 30.2848 85.1344 30.258 84.4377 30.2937C84.0312 30.3144 83.7485 30.1589 83.6157 29.8192C83.3819 29.2167 83.1886 28.5963 83.0112 27.9745C82.9115 27.6244 82.8943 27.2523 82.8097 26.8974C82.5387 25.7681 81.8812 25.2289 80.716 25.1849C80.2009 25.1649 79.6844 25.1924 79.1699 25.1725C78.8714 25.1608 78.7689 25.2605 78.7717 25.5638C78.784 26.9944 78.7648 28.425 78.7861 29.8549C78.7916 30.2064 78.6953 30.3068 78.3473 30.293C77.6609 30.2662 76.9731 30.2779 76.2853 30.2889C76.0515 30.2924 75.9634 30.2194 75.9641 29.976C75.9696 26.1312 75.9696 22.2865 75.9641 18.4411C75.9641 18.2004 76.0542 18.1199 76.2881 18.1233C77.0096 18.1323 77.7317 18.135 78.4532 18.122C78.7153 18.1172 78.7834 18.2183 78.7813 18.4652C78.7717 19.7238 78.7868 20.9825 78.7703 22.2411C78.7662 22.5713 78.868 22.6902 79.2002 22.6689C79.5881 22.6442 79.9787 22.6689 80.368 22.66C81.4705 22.6352 82.0545 22.1352 82.2608 21.0526C82.3722 20.4694 82.4775 19.8841 82.6109 19.3056C82.6583 19.0986 82.7698 18.9033 82.8723 18.7135C83.0965 18.2987 83.4128 18.078 83.9252 18.1158C84.5174 18.1598 85.1158 18.1247 85.7114 18.1268C85.8208 18.1268 85.9308 18.1392 86.1207 18.1509V18.1488Z" fill="#3A2911"/>
<path d="M87.4515 7.00036C87.4515 8.89934 87.4453 10.7983 87.4577 12.6973C87.4598 12.9896 87.3986 13.099 87.0815 13.0873C86.3951 13.0611 85.7073 13.0646 85.0202 13.0831C84.7141 13.0914 84.6323 12.9834 84.6337 12.687C84.6433 9.73569 84.6398 6.78371 84.6392 3.83242C84.6392 3.49494 84.4674 3.32598 84.124 3.32552C83.4596 3.32552 82.7952 3.33308 82.1315 3.32208C81.8598 3.31726 81.7601 3.41012 81.7298 3.69142C81.5393 5.45215 81.3536 7.21426 81.1094 8.96812C80.9767 9.9207 80.7002 10.852 80.1307 11.6526C79.1692 13.0027 77.7984 13.4105 76.2145 13.2915C76.0102 13.2764 75.9187 13.1787 75.9235 12.958C75.9359 12.3403 75.9194 11.722 75.9373 11.1051C75.94 11.0108 76.0618 10.8444 76.1367 10.8396C77.5467 10.7474 78.229 9.84161 78.4587 8.60428C78.7434 7.06845 78.9037 5.50786 79.086 3.95415C79.1939 3.03458 79.2462 2.10882 79.3116 1.18513C79.3274 0.962283 79.4237 0.895567 79.6355 0.896255C82.1322 0.900382 84.6288 0.903133 87.1255 0.893504C87.4233 0.892128 87.4556 1.02969 87.455 1.2711C87.4488 3.18177 87.4515 5.09175 87.4515 7.00242V7.00036Z" fill="#3A2911"/>
<path d="M101.358 6.98735C101.358 5.09937 101.365 3.2114 101.351 1.32343C101.349 1.0036 101.423 0.88393 101.766 0.889432C103.782 0.921758 105.798 0.9025 107.812 0.968528C108.417 0.988474 109.036 1.16248 109.61 1.37088C110.921 1.84546 111.527 2.90052 111.636 4.21832C111.694 4.91298 111.648 5.64685 111.485 6.32363C111.152 7.70196 110.158 8.49223 108.821 8.81067C108.093 8.98399 107.331 9.0342 106.581 9.08303C105.908 9.12705 105.229 9.10092 104.554 9.08991C104.284 9.08579 104.193 9.19033 104.195 9.45513C104.204 10.5418 104.191 11.6292 104.204 12.7159C104.208 12.9931 104.142 13.0956 103.844 13.0866C103.123 13.0646 102.401 13.0694 101.68 13.0866C101.419 13.0928 101.35 13.0089 101.352 12.7544C101.361 10.8321 101.357 8.90971 101.357 6.98804L101.358 6.98735ZM104.2 5.00102C104.2 5.53818 104.189 6.07534 104.21 6.61182C104.214 6.7198 104.345 6.91582 104.414 6.91376C105.451 6.88831 106.49 6.86974 107.522 6.7762C107.987 6.73424 108.363 6.43437 108.578 5.98662C109.259 4.56703 108.449 3.16463 106.887 3.09516C106.099 3.06009 105.308 3.08416 104.52 3.07109C104.284 3.06696 104.192 3.15156 104.197 3.39022C104.208 3.9267 104.2 4.46386 104.2 5.00102Z" fill="#3A2911"/>
<path d="M90.5602 29.5392V30.0117C90.5602 30.9952 90.5478 31.9794 90.5671 32.963C90.5733 33.2745 90.4653 33.3557 90.1723 33.3468C89.5774 33.3289 88.981 33.3426 88.3861 33.3406C88.2747 33.3406 88.1626 33.3254 88.0154 33.3144C88.0154 33.1652 88.0154 33.0428 88.0154 32.9196C88.0154 29.1788 88.0154 25.4379 88.0154 21.697C88.0154 21.4004 88.1681 21.2518 88.4734 21.2513C88.9659 21.2513 89.459 21.2699 89.9508 21.2451C90.2913 21.228 90.4068 21.3586 90.369 21.6819C90.3566 21.7871 90.3876 21.8979 90.4027 22.045C90.5059 21.9914 90.5705 21.9714 90.6173 21.9316C92.6353 20.2107 95.678 20.9659 96.5639 23.4605C97.1602 25.1394 97.1162 26.8458 96.2915 28.458C95.2715 30.4532 92.7384 31.0413 90.9082 29.7476C90.8284 29.6912 90.7404 29.6465 90.5602 29.5399V29.5392ZM94.4627 25.7103C94.3141 25.0954 94.224 24.4949 94.0198 23.9351C93.777 23.27 93.2481 22.8862 92.5231 22.8683C91.7824 22.8504 91.2349 23.226 90.9454 23.8814C90.4054 25.1023 90.4048 26.3478 90.9901 27.5583C91.2872 28.1739 91.814 28.5102 92.5087 28.491C93.1999 28.4717 93.7357 28.1203 93.9861 27.4923C94.211 26.9304 94.3066 26.3169 94.4627 25.7103Z" fill="#3A2911"/>
<path d="M106.34 30.2792C105.577 30.2792 104.846 30.2868 104.117 30.2682C104.042 30.2662 103.934 30.119 103.907 30.0206C103.852 29.8274 103.843 29.6217 103.804 29.339C103.65 29.467 103.547 29.5419 103.458 29.63C102.383 30.6844 100.465 30.8941 99.1899 30.0949C97.5399 29.0605 97.672 26.4166 99.476 25.4799C100.192 25.1078 101.027 24.9565 101.816 24.7364C102.321 24.5954 102.842 24.506 103.359 24.4042C103.566 24.3629 103.641 24.2522 103.637 24.0465C103.627 23.5548 103.613 23.0403 103.115 22.7865C102.544 22.4956 101.925 22.499 101.381 22.8601C101.182 22.9915 101.035 23.2611 100.961 23.4977C100.888 23.7301 100.78 23.7728 100.573 23.77C99.9664 23.7618 99.3584 23.7542 98.7525 23.7728C98.4444 23.7824 98.3818 23.6662 98.4278 23.3849C98.5957 22.3621 99.1755 21.6709 100.136 21.3291C101.547 20.827 102.991 20.8139 104.425 21.2218C105.483 21.5223 106.135 22.3422 106.163 23.4385C106.199 24.7756 106.152 26.1147 106.171 27.4531C106.184 28.3837 106.031 29.3253 106.341 30.2799L106.34 30.2792ZM103.631 26.6601C103.643 25.9049 103.631 25.896 103.042 26.0507C102.909 26.0858 102.775 26.1133 102.645 26.1573C102.076 26.354 101.486 26.5116 100.945 26.7695C100.499 26.9827 100.347 27.4738 100.455 27.9456C100.557 28.3926 100.913 28.7365 101.409 28.7393C101.797 28.7414 102.22 28.6939 102.568 28.5364C103.424 28.1478 103.576 27.3383 103.63 26.6601H103.631Z" fill="#3A2911"/>
<path d="M116.176 25.7523C116.176 27.1478 116.168 28.5433 116.182 29.9388C116.184 30.2133 116.102 30.2951 115.834 30.2882C115.193 30.2724 114.551 30.2731 113.91 30.2882C113.651 30.2944 113.576 30.2057 113.579 29.9526C113.592 28.923 113.574 27.8934 113.59 26.8644C113.596 26.535 113.485 26.4208 113.155 26.4304C112.491 26.4497 111.826 26.4483 111.162 26.4304C110.841 26.4222 110.745 26.5494 110.749 26.8555C110.761 27.8734 110.745 28.892 110.759 29.91C110.763 30.1823 110.699 30.2986 110.401 30.2889C109.76 30.269 109.118 30.2752 108.477 30.2869C108.25 30.291 108.186 30.2133 108.186 29.9897C108.192 27.176 108.191 24.3616 108.185 21.5478C108.185 21.3264 108.254 21.2425 108.481 21.2459C109.133 21.2562 109.786 21.2562 110.439 21.2459C110.678 21.2425 110.76 21.3353 110.757 21.5699C110.748 22.4165 110.763 23.2632 110.748 24.1092C110.743 24.4166 110.84 24.5411 111.16 24.5328C111.836 24.5156 112.512 24.517 113.187 24.5328C113.483 24.5397 113.594 24.44 113.588 24.1381C113.573 23.2921 113.592 22.4447 113.578 21.5987C113.573 21.3264 113.669 21.239 113.935 21.2445C114.565 21.2583 115.195 21.259 115.825 21.2445C116.094 21.2383 116.181 21.3271 116.179 21.5987C116.167 22.9826 116.173 24.3671 116.173 25.7509L116.176 25.7523Z" fill="#3A2911"/>
<path d="M118.219 30.2834V29.8542C118.219 27.1319 118.225 24.409 118.211 21.6867C118.209 21.3387 118.305 21.2259 118.656 21.2431C119.227 21.2706 119.801 21.261 120.373 21.2459C120.638 21.239 120.737 21.3243 120.732 21.598C120.718 22.4096 120.736 23.2226 120.722 24.0341C120.717 24.3306 120.822 24.4406 121.119 24.4406C121.817 24.4392 122.52 24.4186 123.212 24.4895C123.693 24.5383 124.185 24.669 124.627 24.8636C125.544 25.2673 126.02 26.026 126.087 27.0171C126.115 27.4359 126.119 27.8713 126.035 28.2792C125.795 29.4615 124.883 29.9188 123.829 30.1575C123.421 30.2497 122.989 30.2731 122.568 30.2779C121.263 30.293 119.958 30.2834 118.652 30.2834C118.528 30.2834 118.403 30.2834 118.219 30.2834ZM120.728 27.3273C120.728 27.6354 120.713 27.9456 120.737 28.2516C120.745 28.3431 120.865 28.502 120.931 28.5006C121.533 28.4848 122.144 28.4931 122.735 28.3899C123.315 28.2888 123.572 27.8644 123.54 27.2874C123.509 26.7144 123.205 26.3465 122.618 26.2701C122.099 26.2027 121.571 26.2027 121.047 26.1725C120.809 26.1587 120.72 26.2784 120.726 26.5054C120.734 26.7791 120.729 27.0535 120.729 27.3279L120.728 27.3273Z" fill="#3A2911"/>
<path d="M127.429 25.7887C127.429 24.4166 127.438 23.0452 127.423 21.673C127.419 21.3422 127.524 21.2315 127.854 21.2438C128.448 21.2659 129.045 21.2597 129.639 21.2452C129.899 21.239 130.001 21.3085 130 21.5905C129.99 24.3801 129.991 27.1691 130 29.9588C130.001 30.2195 129.92 30.2937 129.668 30.2875C129.039 30.2731 128.409 30.2724 127.78 30.2875C127.514 30.2937 127.422 30.2119 127.425 29.9382C127.437 28.555 127.43 27.1719 127.43 25.788L127.429 25.7887Z" fill="#3A2911"/>
</svg>
