<svg width="230" height="57" viewBox="0 0 230 57" fill="none" xmlns="http://www.w3.org/2000/svg">
<mask id="mask0_106_27872" style="mask-type:alpha" maskUnits="userSpaceOnUse" x="0" y="0" width="230" height="57">
<path d="M1.09862 10.4852C1.70499 4.46817 6.82415 0.000488281 12.8717 0.000488281H216.721C222.769 0.000488281 227.888 4.46817 228.494 10.4852C229.053 16.0254 229.593 22.7553 229.593 28.0522C229.593 33.3492 229.053 40.0791 228.494 45.6192C227.888 51.6363 222.769 56.104 216.721 56.104H12.8717C6.82417 56.104 1.70499 51.6363 1.09862 45.6192C0.540309 40.0791 0 33.3492 0 28.0522C0 22.7553 0.540309 16.0254 1.09862 10.4852Z" fill="#646464"/>
</mask>
<g mask="url(#mask0_106_27872)">
<path d="M-2.55224 -11.7603C-2.55224 -7.76168 1.01673 -7.76169 1.01673 -3.76311C1.01673 0.235458 -2.55224 0.235451 -2.55224 4.23402C-2.55224 8.2326 1.01673 8.23263 1.01673 12.2312C1.01673 16.2298 -2.55224 16.2298 -2.55224 20.2283C-2.55224 24.2269 1.01673 24.2269 1.01673 28.2255C1.01673 32.2241 -2.55224 32.2241 -2.55224 36.2226C-2.55224 40.2212 1.01673 40.2212 1.01673 44.2198C1.01673 48.2183 -2.55225 48.2183 -2.55225 52.2169C-2.55225 56.2155 1.01673 56.2155 1.01673 60.2141C1.01673 64.2127 -2.55225 64.2111 -2.55225 68.2097" stroke="#E0AF84" stroke-width="1.09091" stroke-miterlimit="10"/>
<path d="M1.01685 -11.7603C1.01685 -7.76168 4.58582 -7.76169 4.58582 -3.76311C4.58582 0.235458 1.01685 0.235451 1.01685 4.23402C1.01685 8.2326 4.58582 8.23263 4.58582 12.2312C4.58582 16.2298 1.01685 16.2298 1.01685 20.2283C1.01685 24.2269 4.58582 24.2269 4.58582 28.2255C4.58582 32.2241 1.01685 32.2241 1.01685 36.2226C1.01685 40.2212 4.58582 40.2212 4.58582 44.2198C4.58582 48.2183 1.01685 48.2183 1.01685 52.2169C1.01685 56.2155 4.58582 56.2155 4.58582 60.2141C4.58582 64.2127 1.01685 64.2111 1.01685 68.2097" stroke="#E0AF84" stroke-width="1.09091" stroke-miterlimit="10"/>
<path d="M4.58594 -11.7603C4.58594 -7.76168 8.15492 -7.76169 8.15492 -3.76311C8.15492 0.235458 4.58594 0.235451 4.58594 4.23402C4.58594 8.2326 8.15491 8.23263 8.15491 12.2312C8.15491 16.2298 4.58594 16.2298 4.58594 20.2283C4.58594 24.2269 8.15491 24.2269 8.15491 28.2255C8.15491 32.2241 4.58594 32.2241 4.58594 36.2226C4.58594 40.2212 8.15491 40.2212 8.15491 44.2198C8.15491 48.2183 4.58594 48.2183 4.58594 52.2169C4.58594 56.2155 8.15491 56.2155 8.15491 60.2141C8.15491 64.2127 4.58594 64.2111 4.58594 68.2097" stroke="#E0AF84" stroke-width="1.09091" stroke-miterlimit="10"/>
<path d="M8.15479 -11.7603C8.15479 -7.76168 11.7238 -7.76169 11.7238 -3.76311C11.7238 0.235458 8.15479 0.235451 8.15479 4.23402C8.15479 8.2326 11.7238 8.23263 11.7238 12.2312C11.7238 16.2298 8.15479 16.2298 8.15479 20.2283C8.15479 24.2269 11.7238 24.2269 11.7238 28.2255C11.7238 32.2241 8.15479 32.2241 8.15479 36.2226C8.15479 40.2212 11.7238 40.2212 11.7238 44.2198C11.7238 48.2183 8.15479 48.2183 8.15479 52.2169C8.15479 56.2155 11.7238 56.2155 11.7238 60.2141C11.7238 64.2127 8.15479 64.2111 8.15479 68.2097" stroke="#E0AF84" stroke-width="1.09091" stroke-miterlimit="10"/>
<path d="M11.7239 -11.7603C11.7239 -7.76168 15.2929 -7.76169 15.2929 -3.76311C15.2929 0.235458 11.7239 0.235451 11.7239 4.23402C11.7239 8.2326 15.2929 8.23263 15.2929 12.2312C15.2929 16.2298 11.7239 16.2298 11.7239 20.2283C11.7239 24.2269 15.2929 24.2269 15.2929 28.2255C15.2929 32.2241 11.7239 32.2241 11.7239 36.2226C11.7239 40.2212 15.2929 40.2212 15.2929 44.2198C15.2929 48.2183 11.7239 48.2183 11.7239 52.2169C11.7239 56.2155 15.2929 56.2155 15.2929 60.2141C15.2929 64.2127 11.7239 64.2111 11.7239 68.2097" stroke="#E0AF84" stroke-width="1.09091" stroke-miterlimit="10"/>
<path d="M15.2927 -11.7603C15.2927 -7.76168 18.8617 -7.76169 18.8617 -3.76311C18.8617 0.235458 15.2927 0.235451 15.2927 4.23402C15.2927 8.2326 18.8617 8.23263 18.8617 12.2312C18.8617 16.2298 15.2927 16.2298 15.2927 20.2283C15.2927 24.2269 18.8617 24.2269 18.8617 28.2255C18.8617 32.2241 15.2927 32.2241 15.2927 36.2226C15.2927 40.2212 18.8617 40.2212 18.8617 44.2198C18.8617 48.2183 15.2927 48.2183 15.2927 52.2169C15.2927 56.2155 18.8617 56.2155 18.8617 60.2141C18.8617 64.2127 15.2927 64.2111 15.2927 68.2097" stroke="#E0AF84" stroke-width="1.09091" stroke-miterlimit="10"/>
<path d="M18.8618 -11.7603C18.8618 -7.76168 22.4308 -7.76169 22.4308 -3.76311C22.4308 0.235458 18.8618 0.235451 18.8618 4.23402C18.8618 8.2326 22.4308 8.23263 22.4308 12.2312C22.4308 16.2298 18.8618 16.2298 18.8618 20.2283C18.8618 24.2269 22.4308 24.2269 22.4308 28.2255C22.4308 32.2241 18.8618 32.2241 18.8618 36.2226C18.8618 40.2212 22.4308 40.2212 22.4308 44.2198C22.4308 48.2183 18.8618 48.2183 18.8618 52.2169C18.8618 56.2155 22.4308 56.2155 22.4308 60.2141C22.4308 64.2127 18.8618 64.2111 18.8618 68.2097" stroke="#E0AF84" stroke-width="1.09091" stroke-miterlimit="10"/>
<path d="M22.4307 -11.7603C22.4307 -7.76168 25.9996 -7.76169 25.9996 -3.76311C25.9996 0.235458 22.4307 0.235451 22.4307 4.23402C22.4307 8.2326 25.9996 8.23263 25.9996 12.2312C25.9996 16.2298 22.4307 16.2298 22.4307 20.2283C22.4307 24.2269 25.9996 24.2269 25.9996 28.2255C25.9996 32.2241 22.4307 32.2241 22.4307 36.2226C22.4307 40.2212 25.9996 40.2212 25.9996 44.2198C25.9996 48.2183 22.4307 48.2183 22.4307 52.2169C22.4307 56.2155 25.9996 56.2155 25.9996 60.2141C25.9996 64.2127 22.4307 64.2111 22.4307 68.2097" stroke="#E0AF84" stroke-width="1.09091" stroke-miterlimit="10"/>
<path d="M25.9998 -11.7603C25.9998 -7.76168 29.5687 -7.76169 29.5687 -3.76311C29.5687 0.235458 25.9998 0.235451 25.9998 4.23402C25.9998 8.2326 29.5687 8.23263 29.5687 12.2312C29.5687 16.2298 25.9998 16.2298 25.9998 20.2283C25.9998 24.2269 29.5687 24.2269 29.5687 28.2255C29.5687 32.2241 25.9998 32.2241 25.9998 36.2226C25.9998 40.2212 29.5687 40.2212 29.5687 44.2198C29.5687 48.2183 25.9998 48.2183 25.9998 52.2169C25.9998 56.2155 29.5687 56.2155 29.5687 60.2141C29.5687 64.2127 25.9998 64.2111 25.9998 68.2097" stroke="#E0AF84" stroke-width="1.09091" stroke-miterlimit="10"/>
<path d="M29.5686 -11.7603C29.5686 -7.76168 33.1376 -7.76169 33.1376 -3.76311C33.1376 0.235458 29.5686 0.235451 29.5686 4.23402C29.5686 8.2326 33.1376 8.23263 33.1376 12.2312C33.1376 16.2298 29.5686 16.2298 29.5686 20.2283C29.5686 24.2269 33.1376 24.2269 33.1376 28.2255C33.1376 32.2241 29.5686 32.2241 29.5686 36.2226C29.5686 40.2212 33.1376 40.2212 33.1376 44.2198C33.1376 48.2183 29.5686 48.2183 29.5686 52.2169C29.5686 56.2155 33.1376 56.2155 33.1376 60.2141C33.1376 64.2127 29.5686 64.2111 29.5686 68.2097" stroke="#E0AF84" stroke-width="1.09091" stroke-miterlimit="10"/>
<path d="M33.1377 -11.7603C33.1377 -7.76168 36.7067 -7.76169 36.7067 -3.76311C36.7067 0.235458 33.1377 0.235451 33.1377 4.23402C33.1377 8.2326 36.7067 8.23263 36.7067 12.2312C36.7067 16.2298 33.1377 16.2298 33.1377 20.2283C33.1377 24.2269 36.7067 24.2269 36.7067 28.2255C36.7067 32.2241 33.1377 32.2241 33.1377 36.2226C33.1377 40.2212 36.7067 40.2212 36.7067 44.2198C36.7067 48.2183 33.1377 48.2183 33.1377 52.2169C33.1377 56.2155 36.7067 56.2155 36.7067 60.2141C36.7067 64.2127 33.1377 64.2111 33.1377 68.2097" stroke="#E0AF84" stroke-width="1.09091" stroke-miterlimit="10"/>
<path d="M36.7065 -11.7603C36.7065 -7.76168 40.2755 -7.76169 40.2755 -3.76311C40.2755 0.235458 36.7065 0.235451 36.7065 4.23402C36.7065 8.2326 40.2755 8.23263 40.2755 12.2312C40.2755 16.2298 36.7065 16.2298 36.7065 20.2283C36.7065 24.2269 40.2755 24.2269 40.2755 28.2255C40.2755 32.2241 36.7065 32.2241 36.7065 36.2226C36.7065 40.2212 40.2755 40.2212 40.2755 44.2198C40.2755 48.2183 36.7065 48.2183 36.7065 52.2169C36.7065 56.2155 40.2755 56.2155 40.2755 60.2141C40.2755 64.2127 36.7065 64.2111 36.7065 68.2097" stroke="#E0AF84" stroke-width="1.09091" stroke-miterlimit="10"/>
<path d="M40.2756 -11.7603C40.2756 -7.76168 43.8446 -7.76169 43.8446 -3.76311C43.8446 0.235458 40.2756 0.235451 40.2756 4.23402C40.2756 8.2326 43.8446 8.23263 43.8446 12.2312C43.8446 16.2298 40.2756 16.2298 40.2756 20.2283C40.2756 24.2269 43.8446 24.2269 43.8446 28.2255C43.8446 32.2241 40.2756 32.2241 40.2756 36.2226C40.2756 40.2212 43.8446 40.2212 43.8446 44.2198C43.8446 48.2183 40.2756 48.2183 40.2756 52.2169C40.2756 56.2155 43.8446 56.2155 43.8446 60.2141C43.8446 64.2127 40.2756 64.2111 40.2756 68.2097" stroke="#E0AF84" stroke-width="1.09091" stroke-miterlimit="10"/>
<path d="M43.8447 -11.7603C43.8447 -7.76168 47.4137 -7.76169 47.4137 -3.76311C47.4137 0.235458 43.8447 0.235451 43.8447 4.23402C43.8447 8.2326 47.4137 8.23263 47.4137 12.2312C47.4137 16.2298 43.8447 16.2298 43.8447 20.2283C43.8447 24.2269 47.4137 24.2269 47.4137 28.2255C47.4137 32.2241 43.8447 32.2241 43.8447 36.2226C43.8447 40.2212 47.4137 40.2212 47.4137 44.2198C47.4137 48.2183 43.8447 48.2183 43.8447 52.2169C43.8447 56.2155 47.4137 56.2155 47.4137 60.2141C47.4137 64.2127 43.8447 64.2111 43.8447 68.2097" stroke="#E0AF84" stroke-width="1.09091" stroke-miterlimit="10"/>
<path d="M47.4136 -11.7603C47.4136 -7.76168 50.9826 -7.76169 50.9826 -3.76311C50.9826 0.235458 47.4136 0.235451 47.4136 4.23402C47.4136 8.2326 50.9826 8.23263 50.9826 12.2312C50.9826 16.2298 47.4136 16.2298 47.4136 20.2283C47.4136 24.2269 50.9826 24.2269 50.9826 28.2255C50.9826 32.2241 47.4136 32.2241 47.4136 36.2226C47.4136 40.2212 50.9826 40.2212 50.9825 44.2198C50.9825 48.2183 47.4136 48.2183 47.4136 52.2169C47.4136 56.2155 50.9825 56.2155 50.9825 60.2141C50.9825 64.2127 47.4136 64.2111 47.4136 68.2097" stroke="#E0AF84" stroke-width="1.09091" stroke-miterlimit="10"/>
<path d="M50.9824 -11.7603C50.9824 -7.76168 54.5514 -7.76169 54.5514 -3.76311C54.5514 0.235458 50.9824 0.235451 50.9824 4.23402C50.9824 8.2326 54.5514 8.23263 54.5514 12.2312C54.5514 16.2298 50.9824 16.2298 50.9824 20.2283C50.9824 24.2269 54.5514 24.2269 54.5514 28.2255C54.5514 32.2241 50.9824 32.2241 50.9824 36.2226C50.9824 40.2212 54.5514 40.2212 54.5514 44.2198C54.5514 48.2183 50.9824 48.2183 50.9824 52.2169C50.9824 56.2155 54.5514 56.2155 54.5514 60.2141C54.5514 64.2127 50.9824 64.2111 50.9824 68.2097" stroke="#E0AF84" stroke-width="1.09091" stroke-miterlimit="10"/>
<path d="M54.5515 -11.7603C54.5515 -7.76168 58.1205 -7.76169 58.1205 -3.76311C58.1205 0.235458 54.5515 0.235451 54.5515 4.23402C54.5515 8.2326 58.1205 8.23263 58.1205 12.2312C58.1205 16.2298 54.5515 16.2298 54.5515 20.2283C54.5515 24.2269 58.1205 24.2269 58.1205 28.2255C58.1205 32.2241 54.5515 32.2241 54.5515 36.2226C54.5515 40.2212 58.1205 40.2212 58.1205 44.2198C58.1205 48.2183 54.5515 48.2183 54.5515 52.2169C54.5515 56.2155 58.1205 56.2155 58.1205 60.2141C58.1205 64.2127 54.5515 64.2111 54.5515 68.2097" stroke="#E0AF84" stroke-width="1.09091" stroke-miterlimit="10"/>
<path d="M58.1206 -11.7603C58.1206 -7.76168 61.6896 -7.76169 61.6896 -3.76311C61.6896 0.235458 58.1206 0.235451 58.1206 4.23402C58.1206 8.2326 61.6896 8.23263 61.6896 12.2312C61.6896 16.2298 58.1206 16.2298 58.1206 20.2283C58.1206 24.2269 61.6896 24.2269 61.6896 28.2255C61.6896 32.2241 58.1206 32.2241 58.1206 36.2226C58.1206 40.2212 61.6896 40.2212 61.6896 44.2198C61.6896 48.2183 58.1206 48.2183 58.1206 52.2169C58.1206 56.2155 61.6896 56.2155 61.6896 60.2141C61.6896 64.2127 58.1206 64.2111 58.1206 68.2097" stroke="#E0AF84" stroke-width="1.09091" stroke-miterlimit="10"/>
<path d="M61.6895 -11.7603C61.6895 -7.76168 65.2584 -7.76169 65.2584 -3.76311C65.2584 0.235458 61.6895 0.235451 61.6895 4.23402C61.6895 8.2326 65.2584 8.23263 65.2584 12.2312C65.2584 16.2298 61.6895 16.2298 61.6895 20.2283C61.6895 24.2269 65.2584 24.2269 65.2584 28.2255C65.2584 32.2241 61.6895 32.2241 61.6895 36.2226C61.6895 40.2212 65.2584 40.2212 65.2584 44.2198C65.2584 48.2183 61.6895 48.2183 61.6895 52.2169C61.6895 56.2155 65.2584 56.2155 65.2584 60.2141C65.2584 64.2127 61.6895 64.2111 61.6895 68.2097" stroke="#E0AF84" stroke-width="1.09091" stroke-miterlimit="10"/>
<path d="M65.2585 -11.7603C65.2585 -7.76168 68.8275 -7.76169 68.8275 -3.76311C68.8275 0.235458 65.2585 0.235451 65.2585 4.23402C65.2585 8.2326 68.8275 8.23263 68.8275 12.2312C68.8275 16.2298 65.2585 16.2298 65.2585 20.2283C65.2585 24.2269 68.8275 24.2269 68.8275 28.2255C68.8275 32.2241 65.2585 32.2241 65.2585 36.2226C65.2585 40.2212 68.8275 40.2212 68.8275 44.2198C68.8275 48.2183 65.2585 48.2183 65.2585 52.2169C65.2585 56.2155 68.8275 56.2155 68.8275 60.2141C68.8275 64.2127 65.2585 64.2111 65.2585 68.2097" stroke="#E0AF84" stroke-width="1.09091" stroke-miterlimit="10"/>
<path d="M68.8274 -11.7603C68.8274 -7.76168 72.3964 -7.76169 72.3964 -3.76311C72.3964 0.235458 68.8274 0.235451 68.8274 4.23402C68.8274 8.2326 72.3964 8.23263 72.3964 12.2312C72.3964 16.2298 68.8274 16.2298 68.8274 20.2283C68.8274 24.2269 72.3964 24.2269 72.3964 28.2255C72.3964 32.2241 68.8274 32.2241 68.8274 36.2226C68.8274 40.2212 72.3964 40.2212 72.3964 44.2198C72.3964 48.2183 68.8274 48.2183 68.8274 52.2169C68.8274 56.2155 72.3964 56.2155 72.3964 60.2141C72.3964 64.2127 68.8274 64.2111 68.8274 68.2097" stroke="#E0AF84" stroke-width="1.09091" stroke-miterlimit="10"/>
<path d="M72.3965 -11.7603C72.3965 -7.76168 75.9655 -7.76169 75.9655 -3.76311C75.9655 0.235458 72.3965 0.235451 72.3965 4.23402C72.3965 8.2326 75.9655 8.23263 75.9655 12.2312C75.9655 16.2298 72.3965 16.2298 72.3965 20.2283C72.3965 24.2269 75.9655 24.2269 75.9655 28.2255C75.9655 32.2241 72.3965 32.2241 72.3965 36.2226C72.3965 40.2212 75.9655 40.2212 75.9655 44.2198C75.9655 48.2183 72.3965 48.2183 72.3965 52.2169C72.3965 56.2155 75.9655 56.2155 75.9655 60.2141C75.9655 64.2127 72.3965 64.2111 72.3965 68.2097" stroke="#E0AF84" stroke-width="1.09091" stroke-miterlimit="10"/>
<path d="M75.9653 -11.7603C75.9653 -7.76168 79.5343 -7.76169 79.5343 -3.76311C79.5343 0.235458 75.9653 0.235451 75.9653 4.23402C75.9653 8.2326 79.5343 8.23263 79.5343 12.2312C79.5343 16.2298 75.9653 16.2298 75.9653 20.2283C75.9653 24.2269 79.5343 24.2269 79.5343 28.2255C79.5343 32.2241 75.9653 32.2241 75.9653 36.2226C75.9653 40.2212 79.5343 40.2212 79.5343 44.2198C79.5343 48.2183 75.9653 48.2183 75.9653 52.2169C75.9653 56.2155 79.5343 56.2155 79.5343 60.2141C79.5343 64.2127 75.9653 64.2111 75.9653 68.2097" stroke="#E0AF84" stroke-width="1.09091" stroke-miterlimit="10"/>
<path d="M79.5344 -11.7603C79.5344 -7.76168 83.1034 -7.76169 83.1034 -3.76311C83.1034 0.235458 79.5344 0.235451 79.5344 4.23402C79.5344 8.2326 83.1034 8.23263 83.1034 12.2312C83.1034 16.2298 79.5344 16.2298 79.5344 20.2283C79.5344 24.2269 83.1034 24.2269 83.1034 28.2255C83.1034 32.2241 79.5344 32.2241 79.5344 36.2226C79.5344 40.2212 83.1034 40.2212 83.1034 44.2198C83.1034 48.2183 79.5344 48.2183 79.5344 52.2169C79.5344 56.2155 83.1034 56.2155 83.1034 60.2141C83.1034 64.2127 79.5344 64.2111 79.5344 68.2097" stroke="#E0AF84" stroke-width="1.09091" stroke-miterlimit="10"/>
<path d="M83.1033 -11.7603C83.1033 -7.76168 86.6722 -7.76169 86.6722 -3.76311C86.6722 0.235458 83.1033 0.235451 83.1033 4.23402C83.1033 8.2326 86.6722 8.23263 86.6722 12.2312C86.6722 16.2298 83.1033 16.2298 83.1033 20.2283C83.1033 24.2269 86.6722 24.2269 86.6722 28.2255C86.6722 32.2241 83.1033 32.2241 83.1033 36.2226C83.1033 40.2212 86.6722 40.2212 86.6722 44.2198C86.6722 48.2183 83.1033 48.2183 83.1033 52.2169C83.1033 56.2155 86.6722 56.2155 86.6722 60.2141C86.6722 64.2127 83.1033 64.2111 83.1033 68.2097" stroke="#E0AF84" stroke-width="1.09091" stroke-miterlimit="10"/>
<path d="M86.6724 -11.7603C86.6724 -7.76168 90.2413 -7.76169 90.2413 -3.76311C90.2413 0.235458 86.6724 0.235451 86.6724 4.23402C86.6724 8.2326 90.2413 8.23263 90.2413 12.2312C90.2413 16.2298 86.6724 16.2298 86.6724 20.2283C86.6724 24.2269 90.2413 24.2269 90.2413 28.2255C90.2413 32.2241 86.6724 32.2241 86.6724 36.2226C86.6724 40.2212 90.2413 40.2212 90.2413 44.2198C90.2413 48.2183 86.6724 48.2183 86.6724 52.2169C86.6724 56.2155 90.2413 56.2155 90.2413 60.2141C90.2413 64.2127 86.6724 64.2111 86.6724 68.2097" stroke="#E0AF84" stroke-width="1.09091" stroke-miterlimit="10"/>
<path d="M90.2412 -11.7603C90.2412 -7.76168 93.8102 -7.76169 93.8102 -3.76311C93.8102 0.235458 90.2412 0.235451 90.2412 4.23402C90.2412 8.2326 93.8102 8.23263 93.8102 12.2312C93.8102 16.2298 90.2412 16.2298 90.2412 20.2283C90.2412 24.2269 93.8102 24.2269 93.8102 28.2255C93.8102 32.2241 90.2412 32.2241 90.2412 36.2226C90.2412 40.2212 93.8102 40.2212 93.8102 44.2198C93.8102 48.2183 90.2412 48.2183 90.2412 52.2169C90.2412 56.2155 93.8102 56.2155 93.8102 60.2141C93.8102 64.2127 90.2412 64.2111 90.2412 68.2097" stroke="#E0AF84" stroke-width="1.09091" stroke-miterlimit="10"/>
<path d="M93.8103 -11.7603C93.8103 -7.76168 97.3793 -7.76169 97.3793 -3.76311C97.3793 0.235458 93.8103 0.235451 93.8103 4.23402C93.8103 8.2326 97.3793 8.23263 97.3793 12.2312C97.3793 16.2298 93.8103 16.2298 93.8103 20.2283C93.8103 24.2269 97.3793 24.2269 97.3793 28.2255C97.3793 32.2241 93.8103 32.2241 93.8103 36.2226C93.8103 40.2212 97.3793 40.2212 97.3793 44.2198C97.3793 48.2183 93.8103 48.2183 93.8103 52.2169C93.8103 56.2155 97.3793 56.2155 97.3793 60.2141C97.3793 64.2127 93.8103 64.2111 93.8103 68.2097" stroke="#E0AF84" stroke-width="1.09091" stroke-miterlimit="10"/>
<path d="M97.3792 -11.7603C97.3792 -7.76168 100.948 -7.76169 100.948 -3.76311C100.948 0.235458 97.3792 0.235451 97.3792 4.23402C97.3792 8.2326 100.948 8.23263 100.948 12.2312C100.948 16.2298 97.3792 16.2298 97.3792 20.2283C97.3792 24.2269 100.948 24.2269 100.948 28.2255C100.948 32.2241 97.3792 32.2241 97.3792 36.2226C97.3792 40.2212 100.948 40.2212 100.948 44.2198C100.948 48.2183 97.3792 48.2183 97.3792 52.2169C97.3792 56.2155 100.948 56.2155 100.948 60.2141C100.948 64.2127 97.3792 64.2111 97.3792 68.2097" stroke="#E0AF84" stroke-width="1.09091" stroke-miterlimit="10"/>
<path d="M100.948 -11.7603C100.948 -7.76168 104.517 -7.76169 104.517 -3.76311C104.517 0.235458 100.948 0.235451 100.948 4.23402C100.948 8.2326 104.517 8.23263 104.517 12.2312C104.517 16.2298 100.948 16.2298 100.948 20.2283C100.948 24.2269 104.517 24.2269 104.517 28.2255C104.517 32.2241 100.948 32.2241 100.948 36.2226C100.948 40.2212 104.517 40.2212 104.517 44.2198C104.517 48.2183 100.948 48.2183 100.948 52.2169C100.948 56.2155 104.517 56.2155 104.517 60.2141C104.517 64.2127 100.948 64.2111 100.948 68.2097" stroke="#E0AF84" stroke-width="1.09091" stroke-miterlimit="10"/>
<path d="M104.517 -11.7603C104.517 -7.76168 108.086 -7.76169 108.086 -3.76311C108.086 0.235458 104.517 0.235451 104.517 4.23402C104.517 8.2326 108.086 8.23263 108.086 12.2312C108.086 16.2298 104.517 16.2298 104.517 20.2283C104.517 24.2269 108.086 24.2269 108.086 28.2255C108.086 32.2241 104.517 32.2241 104.517 36.2226C104.517 40.2212 108.086 40.2212 108.086 44.2198C108.086 48.2183 104.517 48.2183 104.517 52.2169C104.517 56.2155 108.086 56.2155 108.086 60.2141C108.086 64.2127 104.517 64.2111 104.517 68.2097" stroke="#E0AF84" stroke-width="1.09091" stroke-miterlimit="10"/>
<path d="M108.086 -11.7603C108.086 -7.76168 111.655 -7.76169 111.655 -3.76311C111.655 0.235458 108.086 0.235451 108.086 4.23402C108.086 8.2326 111.655 8.23263 111.655 12.2312C111.655 16.2298 108.086 16.2298 108.086 20.2283C108.086 24.2269 111.655 24.2269 111.655 28.2255C111.655 32.2241 108.086 32.2241 108.086 36.2226C108.086 40.2212 111.655 40.2212 111.655 44.2198C111.655 48.2183 108.086 48.2183 108.086 52.2169C108.086 56.2155 111.655 56.2155 111.655 60.2141C111.655 64.2127 108.086 64.2111 108.086 68.2097" stroke="#E0AF84" stroke-width="1.09091" stroke-miterlimit="10"/>
<path d="M111.655 -11.7603C111.655 -7.76168 115.224 -7.76169 115.224 -3.76311C115.224 0.235458 111.655 0.235451 111.655 4.23402C111.655 8.2326 115.224 8.23263 115.224 12.2312C115.224 16.2298 111.655 16.2298 111.655 20.2283C111.655 24.2269 115.224 24.2269 115.224 28.2255C115.224 32.2241 111.655 32.2241 111.655 36.2226C111.655 40.2212 115.224 40.2212 115.224 44.2198C115.224 48.2183 111.655 48.2183 111.655 52.2169C111.655 56.2155 115.224 56.2155 115.224 60.2141C115.224 64.2127 111.655 64.2111 111.655 68.2097" stroke="#E0AF84" stroke-width="1.09091" stroke-miterlimit="10"/>
<path d="M115.224 -11.7603C115.224 -7.76168 118.793 -7.76169 118.793 -3.76311C118.793 0.235458 115.224 0.235451 115.224 4.23402C115.224 8.2326 118.793 8.23263 118.793 12.2312C118.793 16.2298 115.224 16.2298 115.224 20.2283C115.224 24.2269 118.793 24.2269 118.793 28.2255C118.793 32.2241 115.224 32.2241 115.224 36.2226C115.224 40.2212 118.793 40.2212 118.793 44.2198C118.793 48.2183 115.224 48.2183 115.224 52.2169C115.224 56.2155 118.793 56.2155 118.793 60.2141C118.793 64.2127 115.224 64.2111 115.224 68.2097" stroke="#E0AF84" stroke-width="1.09091" stroke-miterlimit="10"/>
<path d="M118.793 -11.7603C118.793 -7.76168 122.362 -7.76169 122.362 -3.76311C122.362 0.235458 118.793 0.235451 118.793 4.23402C118.793 8.2326 122.362 8.23263 122.362 12.2312C122.362 16.2298 118.793 16.2298 118.793 20.2283C118.793 24.2269 122.362 24.2269 122.362 28.2255C122.362 32.2241 118.793 32.2241 118.793 36.2226C118.793 40.2212 122.362 40.2212 122.362 44.2198C122.362 48.2183 118.793 48.2183 118.793 52.2169C118.793 56.2155 122.362 56.2155 122.362 60.2141C122.362 64.2127 118.793 64.2111 118.793 68.2097" stroke="#E0AF84" stroke-width="1.09091" stroke-miterlimit="10"/>
<path d="M122.362 -11.7603C122.362 -7.76168 125.931 -7.76169 125.931 -3.76311C125.931 0.235458 122.362 0.235451 122.362 4.23402C122.362 8.2326 125.931 8.23263 125.931 12.2312C125.931 16.2298 122.362 16.2298 122.362 20.2283C122.362 24.2269 125.931 24.2269 125.931 28.2255C125.931 32.2241 122.362 32.2241 122.362 36.2226C122.362 40.2212 125.931 40.2212 125.931 44.2198C125.931 48.2183 122.362 48.2183 122.362 52.2169C122.362 56.2155 125.931 56.2155 125.931 60.2141C125.931 64.2127 122.362 64.2111 122.362 68.2097" stroke="#E0AF84" stroke-width="1.09091" stroke-miterlimit="10"/>
<path d="M125.931 -11.7603C125.931 -7.76168 129.5 -7.76169 129.5 -3.76311C129.5 0.235458 125.931 0.235451 125.931 4.23402C125.931 8.2326 129.5 8.23263 129.5 12.2312C129.5 16.2298 125.931 16.2298 125.931 20.2283C125.931 24.2269 129.5 24.2269 129.5 28.2255C129.5 32.2241 125.931 32.2241 125.931 36.2226C125.931 40.2212 129.5 40.2212 129.5 44.2198C129.5 48.2183 125.931 48.2183 125.931 52.2169C125.931 56.2155 129.5 56.2155 129.5 60.2141C129.5 64.2127 125.931 64.2111 125.931 68.2097" stroke="#E0AF84" stroke-width="1.09091" stroke-miterlimit="10"/>
<path d="M129.5 -11.7603C129.5 -7.76168 133.069 -7.76169 133.069 -3.76311C133.069 0.235458 129.5 0.235451 129.5 4.23402C129.5 8.2326 133.069 8.23263 133.069 12.2312C133.069 16.2298 129.5 16.2298 129.5 20.2283C129.5 24.2269 133.069 24.2269 133.069 28.2255C133.069 32.2241 129.5 32.2241 129.5 36.2226C129.5 40.2212 133.069 40.2212 133.069 44.2198C133.069 48.2183 129.5 48.2183 129.5 52.2169C129.5 56.2155 133.069 56.2155 133.069 60.2141C133.069 64.2127 129.5 64.2111 129.5 68.2097" stroke="#E0AF84" stroke-width="1.09091" stroke-miterlimit="10"/>
<path d="M133.069 -11.7603C133.069 -7.76168 136.638 -7.76169 136.638 -3.76311C136.638 0.235458 133.069 0.235451 133.069 4.23402C133.069 8.2326 136.638 8.23263 136.638 12.2312C136.638 16.2298 133.069 16.2298 133.069 20.2283C133.069 24.2269 136.638 24.2269 136.638 28.2255C136.638 32.2241 133.069 32.2241 133.069 36.2226C133.069 40.2212 136.638 40.2212 136.638 44.2198C136.638 48.2183 133.069 48.2183 133.069 52.2169C133.069 56.2155 136.638 56.2155 136.638 60.2141C136.638 64.2127 133.069 64.2111 133.069 68.2097" stroke="#E0AF84" stroke-width="1.09091" stroke-miterlimit="10"/>
<path d="M136.638 -11.7603C136.638 -7.76168 140.207 -7.76169 140.207 -3.76311C140.207 0.235458 136.638 0.235451 136.638 4.23402C136.638 8.2326 140.207 8.23263 140.207 12.2312C140.207 16.2298 136.638 16.2298 136.638 20.2283C136.638 24.2269 140.207 24.2269 140.207 28.2255C140.207 32.2241 136.638 32.2241 136.638 36.2226C136.638 40.2212 140.207 40.2212 140.207 44.2198C140.207 48.2183 136.638 48.2183 136.638 52.2169C136.638 56.2155 140.207 56.2155 140.207 60.2141C140.207 64.2127 136.638 64.2111 136.638 68.2097" stroke="#E0AF84" stroke-width="1.09091" stroke-miterlimit="10"/>
<path d="M140.207 -11.7603C140.207 -7.76168 143.776 -7.76169 143.776 -3.76311C143.776 0.235458 140.207 0.235451 140.207 4.23402C140.207 8.2326 143.776 8.23263 143.776 12.2312C143.776 16.2298 140.207 16.2298 140.207 20.2283C140.207 24.2269 143.776 24.2269 143.776 28.2255C143.776 32.2241 140.207 32.2241 140.207 36.2226C140.207 40.2212 143.776 40.2212 143.776 44.2198C143.776 48.2183 140.207 48.2183 140.207 52.2169C140.207 56.2155 143.776 56.2155 143.776 60.2141C143.776 64.2127 140.207 64.2111 140.207 68.2097" stroke="#E0AF84" stroke-width="1.09091" stroke-miterlimit="10"/>
<path d="M143.776 -11.7603C143.776 -7.76168 147.345 -7.76169 147.345 -3.76311C147.345 0.235458 143.776 0.235451 143.776 4.23402C143.776 8.2326 147.345 8.23263 147.345 12.2312C147.345 16.2298 143.776 16.2298 143.776 20.2283C143.776 24.2269 147.345 24.2269 147.345 28.2255C147.345 32.2241 143.776 32.2241 143.776 36.2226C143.776 40.2212 147.345 40.2212 147.345 44.2198C147.345 48.2183 143.776 48.2183 143.776 52.2169C143.776 56.2155 147.345 56.2155 147.345 60.2141C147.345 64.2127 143.776 64.2111 143.776 68.2097" stroke="#E0AF84" stroke-width="1.09091" stroke-miterlimit="10"/>
<path d="M147.345 -11.7603C147.345 -7.76168 150.914 -7.76169 150.914 -3.76311C150.914 0.235458 147.345 0.235451 147.345 4.23402C147.345 8.2326 150.914 8.23263 150.914 12.2312C150.914 16.2298 147.345 16.2298 147.345 20.2283C147.345 24.2269 150.914 24.2269 150.914 28.2255C150.914 32.2241 147.345 32.2241 147.345 36.2226C147.345 40.2212 150.914 40.2212 150.914 44.2198C150.914 48.2183 147.345 48.2183 147.345 52.2169C147.345 56.2155 150.914 56.2155 150.914 60.2141C150.914 64.2127 147.345 64.2111 147.345 68.2097" stroke="#E0AF84" stroke-width="1.09091" stroke-miterlimit="10"/>
<path d="M150.914 -11.7603C150.914 -7.76168 154.483 -7.76169 154.483 -3.76311C154.483 0.235458 150.914 0.235451 150.914 4.23402C150.914 8.2326 154.483 8.23263 154.483 12.2312C154.483 16.2298 150.914 16.2298 150.914 20.2283C150.914 24.2269 154.483 24.2269 154.483 28.2255C154.483 32.2241 150.914 32.2241 150.914 36.2226C150.914 40.2212 154.483 40.2212 154.483 44.2198C154.483 48.2183 150.914 48.2183 150.914 52.2169C150.914 56.2155 154.483 56.2155 154.483 60.2141C154.483 64.2127 150.914 64.2111 150.914 68.2097" stroke="#E0AF84" stroke-width="1.09091" stroke-miterlimit="10"/>
<path d="M154.483 -11.7603C154.483 -7.76168 158.052 -7.76169 158.052 -3.76311C158.052 0.235458 154.483 0.235451 154.483 4.23402C154.483 8.2326 158.052 8.23263 158.052 12.2312C158.052 16.2298 154.483 16.2298 154.483 20.2283C154.483 24.2269 158.052 24.2269 158.052 28.2255C158.052 32.2241 154.483 32.2241 154.483 36.2226C154.483 40.2212 158.052 40.2212 158.052 44.2198C158.052 48.2183 154.483 48.2183 154.483 52.2169C154.483 56.2155 158.052 56.2155 158.052 60.2141C158.052 64.2127 154.483 64.2111 154.483 68.2097" stroke="#E0AF84" stroke-width="1.09091" stroke-miterlimit="10"/>
<path d="M158.052 -11.7603C158.052 -7.76168 161.621 -7.76169 161.621 -3.76311C161.621 0.235458 158.052 0.235451 158.052 4.23402C158.052 8.2326 161.621 8.23263 161.621 12.2312C161.621 16.2298 158.052 16.2298 158.052 20.2283C158.052 24.2269 161.621 24.2269 161.621 28.2255C161.621 32.2241 158.052 32.2241 158.052 36.2226C158.052 40.2212 161.621 40.2212 161.621 44.2198C161.621 48.2183 158.052 48.2183 158.052 52.2169C158.052 56.2155 161.621 56.2155 161.621 60.2141C161.621 64.2127 158.052 64.2111 158.052 68.2097" stroke="#E0AF84" stroke-width="1.09091" stroke-miterlimit="10"/>
<path d="M161.621 -11.7603C161.621 -7.76168 165.19 -7.76169 165.19 -3.76311C165.19 0.235458 161.621 0.235451 161.621 4.23402C161.621 8.2326 165.19 8.23263 165.19 12.2312C165.19 16.2298 161.621 16.2298 161.621 20.2283C161.621 24.2269 165.19 24.2269 165.19 28.2255C165.19 32.2241 161.621 32.2241 161.621 36.2226C161.621 40.2212 165.19 40.2212 165.19 44.2198C165.19 48.2183 161.621 48.2183 161.621 52.2169C161.621 56.2155 165.19 56.2155 165.19 60.2141C165.19 64.2127 161.621 64.2111 161.621 68.2097" stroke="#E0AF84" stroke-width="1.09091" stroke-miterlimit="10"/>
<path d="M165.19 -11.7603C165.19 -7.76168 168.759 -7.76169 168.759 -3.76311C168.759 0.235458 165.19 0.235451 165.19 4.23402C165.19 8.2326 168.759 8.23263 168.759 12.2312C168.759 16.2298 165.19 16.2298 165.19 20.2283C165.19 24.2269 168.759 24.2269 168.759 28.2255C168.759 32.2241 165.19 32.2241 165.19 36.2226C165.19 40.2212 168.759 40.2212 168.759 44.2198C168.759 48.2183 165.19 48.2183 165.19 52.2169C165.19 56.2155 168.759 56.2155 168.759 60.2141C168.759 64.2127 165.19 64.2111 165.19 68.2097" stroke="#E0AF84" stroke-width="1.09091" stroke-miterlimit="10"/>
<path d="M168.759 -11.7603C168.759 -7.76168 172.328 -7.76169 172.328 -3.76311C172.328 0.235458 168.759 0.235451 168.759 4.23402C168.759 8.2326 172.328 8.23263 172.328 12.2312C172.328 16.2298 168.759 16.2298 168.759 20.2283C168.759 24.2269 172.328 24.2269 172.328 28.2255C172.328 32.2241 168.759 32.2241 168.759 36.2226C168.759 40.2212 172.328 40.2212 172.328 44.2198C172.328 48.2183 168.759 48.2183 168.759 52.2169C168.759 56.2155 172.328 56.2155 172.328 60.2141C172.328 64.2127 168.759 64.2111 168.759 68.2097" stroke="#E0AF84" stroke-width="1.09091" stroke-miterlimit="10"/>
<path d="M172.328 -11.7603C172.328 -7.76168 175.897 -7.76169 175.897 -3.76311C175.897 0.235458 172.328 0.235451 172.328 4.23402C172.328 8.2326 175.897 8.23263 175.897 12.2312C175.897 16.2298 172.328 16.2298 172.328 20.2283C172.328 24.2269 175.897 24.2269 175.897 28.2255C175.897 32.2241 172.328 32.2241 172.328 36.2226C172.328 40.2212 175.897 40.2212 175.897 44.2198C175.897 48.2183 172.328 48.2183 172.328 52.2169C172.328 56.2155 175.897 56.2155 175.897 60.2141C175.897 64.2127 172.328 64.2111 172.328 68.2097" stroke="#E0AF84" stroke-width="1.09091" stroke-miterlimit="10"/>
<path d="M175.897 -11.7603C175.897 -7.76168 179.466 -7.76169 179.466 -3.76311C179.466 0.235458 175.897 0.235451 175.897 4.23402C175.897 8.2326 179.466 8.23263 179.466 12.2312C179.466 16.2298 175.897 16.2298 175.897 20.2283C175.897 24.2269 179.466 24.2269 179.466 28.2255C179.466 32.2241 175.897 32.2241 175.897 36.2226C175.897 40.2212 179.466 40.2212 179.466 44.2198C179.466 48.2183 175.897 48.2183 175.897 52.2169C175.897 56.2155 179.466 56.2155 179.466 60.2141C179.466 64.2127 175.897 64.2111 175.897 68.2097" stroke="#E0AF84" stroke-width="1.09091" stroke-miterlimit="10"/>
<path d="M179.466 -11.7603C179.466 -7.76168 183.035 -7.76169 183.035 -3.76311C183.035 0.235458 179.466 0.235451 179.466 4.23402C179.466 8.2326 183.035 8.23263 183.035 12.2312C183.035 16.2298 179.466 16.2298 179.466 20.2283C179.466 24.2269 183.035 24.2269 183.035 28.2255C183.035 32.2241 179.466 32.2241 179.466 36.2226C179.466 40.2212 183.035 40.2212 183.035 44.2198C183.035 48.2183 179.466 48.2183 179.466 52.2169C179.466 56.2155 183.035 56.2155 183.035 60.2141C183.035 64.2127 179.466 64.2111 179.466 68.2097" stroke="#E0AF84" stroke-width="1.09091" stroke-miterlimit="10"/>
<path d="M183.035 -11.7603C183.035 -7.76168 186.604 -7.76169 186.604 -3.76311C186.604 0.235458 183.035 0.235451 183.035 4.23402C183.035 8.2326 186.604 8.23263 186.604 12.2312C186.604 16.2298 183.035 16.2298 183.035 20.2283C183.035 24.2269 186.604 24.2269 186.604 28.2255C186.604 32.2241 183.035 32.2241 183.035 36.2226C183.035 40.2212 186.604 40.2212 186.604 44.2198C186.604 48.2183 183.035 48.2183 183.035 52.2169C183.035 56.2155 186.604 56.2155 186.604 60.2141C186.604 64.2127 183.035 64.2111 183.035 68.2097" stroke="#E0AF84" stroke-width="1.09091" stroke-miterlimit="10"/>
<path d="M186.604 -11.7603C186.604 -7.76168 190.173 -7.76169 190.173 -3.76311C190.173 0.235458 186.604 0.235451 186.604 4.23402C186.604 8.2326 190.173 8.23263 190.173 12.2312C190.173 16.2298 186.604 16.2298 186.604 20.2283C186.604 24.2269 190.173 24.2269 190.173 28.2255C190.173 32.2241 186.604 32.2241 186.604 36.2226C186.604 40.2212 190.173 40.2212 190.173 44.2198C190.173 48.2183 186.604 48.2183 186.604 52.2169C186.604 56.2155 190.173 56.2155 190.173 60.2141C190.173 64.2127 186.604 64.2111 186.604 68.2097" stroke="#E0AF84" stroke-width="1.09091" stroke-miterlimit="10"/>
<path d="M190.173 -11.7603C190.173 -7.76168 193.742 -7.76169 193.742 -3.76311C193.742 0.235458 190.173 0.235451 190.173 4.23402C190.173 8.2326 193.742 8.23263 193.742 12.2312C193.742 16.2298 190.173 16.2298 190.173 20.2283C190.173 24.2269 193.742 24.2269 193.742 28.2255C193.742 32.2241 190.173 32.2241 190.173 36.2226C190.173 40.2212 193.742 40.2212 193.742 44.2198C193.742 48.2183 190.173 48.2183 190.173 52.2169C190.173 56.2155 193.742 56.2155 193.742 60.2141C193.742 64.2127 190.173 64.2111 190.173 68.2097" stroke="#E0AF84" stroke-width="1.09091" stroke-miterlimit="10"/>
<path d="M193.742 -11.7603C193.742 -7.76168 197.311 -7.76169 197.311 -3.76311C197.311 0.235458 193.742 0.235451 193.742 4.23402C193.742 8.2326 197.311 8.23263 197.311 12.2312C197.311 16.2298 193.742 16.2298 193.742 20.2283C193.742 24.2269 197.311 24.2269 197.311 28.2255C197.311 32.2241 193.742 32.2241 193.742 36.2226C193.742 40.2212 197.311 40.2212 197.311 44.2198C197.311 48.2183 193.742 48.2183 193.742 52.2169C193.742 56.2155 197.311 56.2155 197.311 60.2141C197.311 64.2127 193.742 64.2111 193.742 68.2097" stroke="#E0AF84" stroke-width="1.09091" stroke-miterlimit="10"/>
<path d="M197.311 -11.7603C197.311 -7.76168 200.88 -7.76169 200.88 -3.76311C200.88 0.235458 197.311 0.235451 197.311 4.23402C197.311 8.2326 200.88 8.23263 200.88 12.2312C200.88 16.2298 197.311 16.2298 197.311 20.2283C197.311 24.2269 200.88 24.2269 200.88 28.2255C200.88 32.2241 197.311 32.2241 197.311 36.2226C197.311 40.2212 200.88 40.2212 200.88 44.2198C200.88 48.2183 197.311 48.2183 197.311 52.2169C197.311 56.2155 200.88 56.2155 200.88 60.2141C200.88 64.2127 197.311 64.2111 197.311 68.2097" stroke="#E0AF84" stroke-width="1.09091" stroke-miterlimit="10"/>
<path d="M200.88 -11.7603C200.88 -7.76168 204.449 -7.76169 204.449 -3.76311C204.449 0.235458 200.88 0.235451 200.88 4.23402C200.88 8.2326 204.449 8.23263 204.449 12.2312C204.449 16.2298 200.88 16.2298 200.88 20.2283C200.88 24.2269 204.449 24.2269 204.449 28.2255C204.449 32.2241 200.88 32.2241 200.88 36.2226C200.88 40.2212 204.449 40.2212 204.449 44.2198C204.449 48.2183 200.88 48.2183 200.88 52.2169C200.88 56.2155 204.449 56.2155 204.449 60.2141C204.449 64.2127 200.88 64.2111 200.88 68.2097" stroke="#E0AF84" stroke-width="1.09091" stroke-miterlimit="10"/>
<path d="M204.449 -11.7603C204.449 -7.76168 208.018 -7.76169 208.018 -3.76311C208.018 0.235458 204.449 0.235451 204.449 4.23402C204.449 8.2326 208.018 8.23263 208.018 12.2312C208.018 16.2298 204.449 16.2298 204.449 20.2283C204.449 24.2269 208.018 24.2269 208.018 28.2255C208.018 32.2241 204.449 32.2241 204.449 36.2226C204.449 40.2212 208.018 40.2212 208.018 44.2198C208.018 48.2183 204.449 48.2183 204.449 52.2169C204.449 56.2155 208.018 56.2155 208.018 60.2141C208.018 64.2127 204.449 64.2111 204.449 68.2097" stroke="#E0AF84" stroke-width="1.09091" stroke-miterlimit="10"/>
<path d="M208.018 -11.7603C208.018 -7.76168 211.587 -7.76169 211.587 -3.76311C211.587 0.235458 208.018 0.235451 208.018 4.23402C208.018 8.2326 211.587 8.23263 211.587 12.2312C211.587 16.2298 208.018 16.2298 208.018 20.2283C208.018 24.2269 211.587 24.2269 211.587 28.2255C211.587 32.2241 208.018 32.2241 208.018 36.2226C208.018 40.2212 211.587 40.2212 211.587 44.2198C211.587 48.2183 208.018 48.2183 208.018 52.2169C208.018 56.2155 211.587 56.2155 211.587 60.2141C211.587 64.2127 208.018 64.2111 208.018 68.2097" stroke="#E0AF84" stroke-width="1.09091" stroke-miterlimit="10"/>
<path d="M211.587 -11.7603C211.587 -7.76168 215.156 -7.76169 215.156 -3.76311C215.156 0.235459 211.587 0.235452 211.587 4.23402C211.587 8.2326 215.156 8.23263 215.156 12.2312C215.156 16.2298 211.587 16.2298 211.587 20.2283C211.587 24.2269 215.156 24.2269 215.156 28.2255C215.156 32.2241 211.587 32.2241 211.587 36.2226C211.587 40.2212 215.156 40.2212 215.156 44.2198C215.156 48.2183 211.587 48.2183 211.587 52.2169C211.587 56.2155 215.156 56.2155 215.156 60.2141C215.156 64.2127 211.587 64.2111 211.587 68.2097" stroke="#E0AF84" stroke-width="1.09091" stroke-miterlimit="10"/>
<path d="M215.156 -11.7603C215.156 -7.76168 218.725 -7.76169 218.725 -3.76311C218.725 0.235458 215.156 0.235451 215.156 4.23402C215.156 8.2326 218.725 8.23263 218.725 12.2312C218.725 16.2298 215.156 16.2298 215.156 20.2283C215.156 24.2269 218.725 24.2269 218.725 28.2255C218.725 32.2241 215.156 32.2241 215.156 36.2226C215.156 40.2212 218.725 40.2212 218.725 44.2198C218.725 48.2183 215.156 48.2183 215.156 52.2169C215.156 56.2155 218.725 56.2155 218.725 60.2141C218.725 64.2127 215.156 64.2111 215.156 68.2097" stroke="#E0AF84" stroke-width="1.09091" stroke-miterlimit="10"/>
<path d="M218.725 -11.7603C218.725 -7.76168 222.294 -7.76169 222.294 -3.76311C222.294 0.235458 218.725 0.235451 218.725 4.23402C218.725 8.2326 222.294 8.23263 222.294 12.2312C222.294 16.2298 218.725 16.2298 218.725 20.2283C218.725 24.2269 222.294 24.2269 222.294 28.2255C222.294 32.2241 218.725 32.2241 218.725 36.2226C218.725 40.2212 222.294 40.2212 222.294 44.2198C222.294 48.2183 218.725 48.2183 218.725 52.2169C218.725 56.2155 222.294 56.2155 222.294 60.2141C222.294 64.2127 218.725 64.2111 218.725 68.2097" stroke="#E0AF84" stroke-width="1.09091" stroke-miterlimit="10"/>
<path d="M222.294 -11.7603C222.294 -7.76168 225.863 -7.76169 225.863 -3.76311C225.863 0.235458 222.294 0.235451 222.294 4.23402C222.294 8.2326 225.863 8.23263 225.863 12.2312C225.863 16.2298 222.294 16.2298 222.294 20.2283C222.294 24.2269 225.863 24.2269 225.863 28.2255C225.863 32.2241 222.294 32.2241 222.294 36.2226C222.294 40.2212 225.863 40.2212 225.863 44.2198C225.863 48.2183 222.294 48.2183 222.294 52.2169C222.294 56.2155 225.863 56.2155 225.863 60.2141C225.863 64.2127 222.294 64.2111 222.294 68.2097" stroke="#E0AF84" stroke-width="1.09091" stroke-miterlimit="10"/>
<path d="M225.863 -11.7603C225.863 -7.76168 229.432 -7.76169 229.432 -3.76311C229.432 0.235458 225.863 0.235451 225.863 4.23402C225.863 8.2326 229.432 8.23263 229.432 12.2312C229.432 16.2298 225.863 16.2298 225.863 20.2283C225.863 24.2269 229.432 24.2269 229.432 28.2255C229.432 32.2241 225.863 32.2241 225.863 36.2226C225.863 40.2212 229.432 40.2212 229.432 44.2198C229.432 48.2183 225.863 48.2183 225.863 52.2169C225.863 56.2155 229.432 56.2155 229.432 60.2141C229.432 64.2127 225.863 64.2111 225.863 68.2097" stroke="#E0AF84" stroke-width="1.09091" stroke-miterlimit="10"/>
<path d="M229.432 -11.7603C229.432 -7.76168 233.001 -7.76169 233.001 -3.76311C233.001 0.235458 229.432 0.235451 229.432 4.23402C229.432 8.2326 233.001 8.23263 233.001 12.2312C233.001 16.2298 229.432 16.2298 229.432 20.2283C229.432 24.2269 233.001 24.2269 233.001 28.2255C233.001 32.2241 229.432 32.2241 229.432 36.2226C229.432 40.2212 233.001 40.2212 233.001 44.2198C233.001 48.2183 229.432 48.2183 229.432 52.2169C229.432 56.2155 233.001 56.2155 233.001 60.2141C233.001 64.2127 229.432 64.2111 229.432 68.2097" stroke="#E0AF84" stroke-width="1.09091" stroke-miterlimit="10"/>
</g>
</svg>
