<svg width="188" height="57" viewBox="0 0 188 57" fill="none" xmlns="http://www.w3.org/2000/svg">
<path d="M137.91 6.76537C131.817 5.79052 125.905 3.8644 119.8 2.9394C111.015 1.60837 101.772 2.01909 92.9333 2.34425C76.6202 2.9444 60.3193 5.34058 44.471 9.231C34.5336 11.6704 22.3861 14.0474 14.7985 21.5591C6.24017 30.0319 15.1481 41.7055 23.0456 46.7255C31.0926 51.8407 40.5257 53.9708 49.9124 54.8026C66.2351 56.2489 82.8086 55.8615 99.1399 54.8026C115.742 53.7261 132.493 52.6473 148.963 50.2114C159.157 48.7036 170.677 47.1037 179.57 41.4542C191.358 33.9663 186.745 24.1734 177.7 17.053C163.169 5.6141 141.098 4.79897 123.541 2.9394C100.98 0.549792 77.8938 0.104104 55.3538 3.10945C42.3377 4.84493 29.1072 9.64483 17.1791 15.0125C12.5699 17.0866 7.54208 18.6605 3.83069 22.2393C0.248311 25.6937 0.647173 31.2991 1.87519 35.8428C3.5631 42.088 10.3911 45.8383 15.9888 48.0859C32.8449 54.8539 52.6806 55.0256 70.5726 55.5678C93.7933 56.2714 116.986 55.6539 140.035 52.677C155.747 50.6479 172.3 48.3441 186.882 41.9643" stroke="#E0AF84" stroke-width="1.5" stroke-linecap="round"/>
</svg>
