<svg width="20" height="20" viewBox="0 0 20 20" fill="none" xmlns="http://www.w3.org/2000/svg">
<path d="M19.471 15.4266L15.4243 12.7256C15.1766 12.5616 14.8761 12.497 14.5829 12.5448C14.2896 12.5925 14.0251 12.749 13.8421 12.9831L12.6636 14.4992C12.5909 14.5966 12.4852 14.6641 12.3663 14.6892C12.2473 14.7143 12.1234 14.6952 12.0175 14.6354L11.7938 14.5104C10.4704 13.7884 9.27676 12.8506 8.262 11.7357C7.14762 10.7206 6.20962 9.52735 5.4863 8.20475L5.36132 7.98102C5.30103 7.87477 5.28173 7.75012 5.30705 7.6306C5.33238 7.51109 5.40059 7.40499 5.4988 7.33233L7.0135 6.15369C7.24731 5.97049 7.40361 5.706 7.45131 5.41281C7.49901 5.11961 7.43462 4.8192 7.27095 4.57133L4.57023 0.524187C4.40281 0.272474 4.14482 0.09499 3.84991 0.0286448C3.55499 -0.0377003 3.24586 0.0122004 2.98679 0.167969L1.29463 1.18413C0.761495 1.49756 0.370803 2.0057 0.204841 2.6015C-0.405038 4.82255 0.0536211 8.65471 5.70375 14.3017C10.1941 18.7926 13.5372 20 15.8355 20C16.3643 20.0021 16.891 19.9331 17.4014 19.795C17.9952 19.6284 18.5014 19.2382 18.8137 18.7063L19.831 17.0152C19.9879 16.7552 20.0381 16.4446 19.971 16.1484C19.9038 15.8522 19.7247 15.5936 19.471 15.4266ZM19.2536 16.6702L18.2388 18.3626C18.0144 18.7464 17.6503 19.0285 17.2227 19.15C15.1731 19.7125 11.5913 19.2463 6.17116 13.8268C0.750983 8.40724 0.284825 4.82755 0.848464 2.77399C0.970198 2.34578 1.25276 1.98123 1.63706 1.75658L3.32922 0.741668C3.44172 0.674067 3.57595 0.652452 3.70398 0.68132C3.83201 0.710188 3.94398 0.787315 4.01659 0.896654L5.48255 3.10146L6.71356 4.94754C6.78465 5.05497 6.81268 5.18522 6.79206 5.31238C6.77145 5.43954 6.70371 5.55427 6.60233 5.63373L5.08638 6.80738C4.86262 6.97804 4.70812 7.22388 4.65139 7.49954C4.59465 7.7752 4.63951 8.06207 4.77769 8.30724L4.90266 8.52597C5.65265 9.90494 6.62704 11.1494 7.78584 12.2081C8.84515 13.3703 10.0907 14.3478 11.4714 15.1004L11.6901 15.2254C11.9352 15.3636 12.2221 15.4084 12.4977 15.3517C12.7733 15.295 13.0191 15.1404 13.1898 14.9167L14.3683 13.4018C14.4479 13.3006 14.5626 13.2331 14.6897 13.2125C14.8167 13.1919 14.9469 13.2197 15.0544 13.2906L19.1011 15.9903C19.2077 16.0631 19.2827 16.1737 19.311 16.2996C19.3393 16.4256 19.3188 16.5576 19.2536 16.669V16.6702Z" fill="#886639"/>
</svg>
