<svg width="25" height="26" viewBox="0 0 25 26" fill="none" xmlns="http://www.w3.org/2000/svg">
<path d="M13.0444 0.997559V2.4041C18.8615 2.4041 23.5935 7.13606 23.5935 12.9531H25C25 6.36069 19.6369 0.997559 13.0444 0.997559Z" fill="#D2E8E9"/>
<path d="M13.0444 5.21729V6.62382C16.5347 6.62382 19.3739 9.46301 19.3739 12.9532H20.7804C20.7804 8.68764 17.3101 5.21729 13.0444 5.21729Z" fill="#D2E8E9"/>
<path d="M13.0444 10.8435C14.2078 10.8435 15.1542 11.79 15.1542 12.9534H16.5608C16.5608 11.0145 14.9833 9.43701 13.0444 9.43701V10.8435Z" fill="#D2E8E9"/>
<path d="M17.2171 25.0025H17.9204V19.5769L13.0037 17.8949L10.9214 19.2836C9.1096 18.4595 7.54562 16.8486 6.72148 15.0368L8.10946 12.9545L6.42822 8.03027H1.1606C1.11742 8.45786 1.01755 9.08851 0.999782 10.0563C0.933581 13.6521 2.20101 17.2439 4.58631 19.921C6.65144 22.2389 10.5581 25.0025 17.2171 25.0025Z" fill="#D2E8E9"/>
</svg>
