<svg width="25" height="25" viewBox="0 0 25 25" fill="none" xmlns="http://www.w3.org/2000/svg">
<path d="M13.0444 0.545898V1.95244C18.8615 1.95244 23.5935 6.6844 23.5935 12.5015H25C25 5.90903 19.6369 0.545898 13.0444 0.545898Z" fill="#F2C69E"/>
<path d="M13.0444 4.76562V6.17216C16.5347 6.17216 19.3739 9.01135 19.3739 12.5016H20.7804C20.7804 8.23598 17.3101 4.76562 13.0444 4.76562Z" fill="#F2C69E"/>
<path d="M13.0444 10.3916C14.2078 10.3916 15.1542 11.3381 15.1542 12.5015H16.5608C16.5608 10.5626 14.9833 8.98511 13.0444 8.98511V10.3916Z" fill="#F2C69E"/>
<path d="M17.2171 24.5508H17.9204V19.1252L13.0037 17.4433L10.9214 18.8319C9.1096 18.0078 7.54562 16.3969 6.72148 14.5852L8.10946 12.5029L6.42822 7.57861H1.1606C1.11742 8.0062 1.01755 8.63685 0.999782 9.60464C0.933581 13.2004 2.20101 16.7922 4.58631 19.4693C6.65144 21.7872 10.5581 24.5508 17.2171 24.5508Z" fill="#F2C69E"/>
</svg>
