<svg width="16" height="21" viewBox="0 0 16 21" fill="none" xmlns="http://www.w3.org/2000/svg">
<path d="M11.3471 9.66987C12.3343 8.52495 12.8942 7.07334 12.9317 5.56207C12.9421 4.9074 12.8221 4.25721 12.5788 3.64936C12.3355 3.04152 11.9736 2.48816 11.5144 2.02152C11.0551 1.55488 10.5076 1.18429 9.90368 0.93133C9.2998 0.67837 8.65161 0.548096 7.99689 0.548096C7.34216 0.548096 6.69398 0.67837 6.09009 0.93133C5.48621 1.18429 4.93868 1.55488 4.47941 2.02152C4.02014 2.48816 3.6583 3.04152 3.41497 3.64936C3.17164 4.25721 3.05168 4.9074 3.06208 5.56207C3.09956 7.07334 3.65951 8.52495 4.64665 9.66987C3.26368 10.3147 2.09255 11.3394 1.26982 12.6246C0.447102 13.9097 0.00670659 15.4023 0 16.9282V17.5606C0 18.3529 0.314743 19.1128 0.874988 19.6731C1.43523 20.2333 2.19509 20.5481 2.9874 20.5481H13.0126C13.8049 20.5481 14.5648 20.2333 15.125 19.6731C15.6853 19.1128 16 18.3529 16 17.5606V16.9282C15.9934 15.4023 15.5531 13.9096 14.7304 12.6245C13.9076 11.3393 12.7364 10.3146 11.3534 9.66987H11.3471ZM3.77408 5.56207C3.77408 5.00758 3.88329 4.45853 4.09547 3.94625C4.30766 3.43398 4.61866 2.96851 5.01073 2.57643C5.40279 2.18435 5.86824 1.87334 6.3805 1.66115C6.89276 1.44895 7.4418 1.33974 7.99627 1.33974C8.55073 1.33974 9.09977 1.44895 9.61203 1.66115C10.1243 1.87334 10.5897 2.18435 10.9818 2.57643C11.3739 2.96851 11.6849 3.43398 11.8971 3.94625C12.1092 4.45853 12.2185 5.00758 12.2185 5.56207C12.2185 7.87115 10.3351 10.6657 7.99627 10.6657C5.65738 10.6657 3.77532 7.87364 3.77532 5.56456L3.77408 5.56207ZM15.2805 17.5594C15.2799 18.1617 15.0403 18.7391 14.6145 19.165C14.1886 19.5909 13.6111 19.8304 13.0089 19.8311H2.9874C2.38468 19.8314 1.80649 19.5925 1.37984 19.1667C0.953191 18.741 0.712986 18.1633 0.711996 17.5606V16.9282C0.718697 15.4948 1.14576 14.0949 1.94029 12.9019C2.73482 11.7088 3.8619 10.7751 5.18189 10.2163C5.94366 10.9387 6.94672 11.3522 7.99627 11.3765C9.04624 11.3525 10.0498 10.939 10.8119 10.2163C12.1319 10.7752 13.259 11.7092 14.0533 12.9025C14.8476 14.0958 15.2743 15.496 15.2805 16.9295V17.5594Z" fill="#886639"/>
</svg>
