<svg width="18" height="11" viewBox="0 0 18 11" fill="none" xmlns="http://www.w3.org/2000/svg">
<path fill-rule="evenodd" clip-rule="evenodd" d="M15.5355 7.34411C16.1221 7.91686 16.7413 8.45573 17.2675 9.08624C17.4999 9.36643 17.7199 9.65556 17.8883 9.98072C18.1268 10.443 17.9107 10.9516 17.4963 10.9792L14.9199 10.9781C14.2554 11.0332 13.7253 10.7657 13.2795 10.3113C12.9228 9.94801 12.5925 9.56131 12.2495 9.18572C12.1089 9.0322 11.9617 8.88775 11.7859 8.77357C11.4341 8.54528 11.1289 8.61518 10.9279 8.982C10.7232 9.3551 10.6767 9.76823 10.6566 10.184C10.629 10.7907 10.4457 10.9502 9.83624 10.978C8.53385 11.0394 7.29782 10.8424 6.14959 10.1854C5.13727 9.60617 4.35226 8.78851 3.66899 7.86282C2.33866 6.06032 1.31989 4.07966 0.404257 2.04352C0.198156 1.58477 0.348882 1.33852 0.855043 1.3298C1.69554 1.31347 2.53593 1.31464 3.37742 1.32864C3.71902 1.33364 3.94517 1.52957 4.07707 1.85229C4.53181 2.97042 5.08823 4.03422 5.78666 5.02028C5.97266 5.2828 6.16232 5.54533 6.43239 5.7301C6.73117 5.93469 6.95866 5.86688 7.09922 5.53405C7.18841 5.32301 7.22746 5.0957 7.24756 4.86967C7.31415 4.09204 7.32293 3.31574 7.20613 2.54084C7.13443 2.05723 6.86203 1.74415 6.37946 1.65264C6.13321 1.60598 6.16987 1.51435 6.28911 1.37379C6.49619 1.13137 6.69097 0.980469 7.07923 0.980469H9.99097C10.4494 1.07094 10.5512 1.27687 10.6139 1.73811L10.6164 4.97246C10.6114 5.15102 10.7056 5.68089 11.0272 5.79907C11.2846 5.88321 11.4543 5.67728 11.6088 5.51406C12.3059 4.77414 12.8035 3.89971 13.248 2.99424C13.4453 2.5961 13.6149 2.18262 13.7792 1.76949C13.901 1.46292 14.0921 1.31208 14.4375 1.31876L17.2399 1.32126C17.323 1.32126 17.407 1.32248 17.4875 1.33625C17.9597 1.41673 18.0891 1.61987 17.9433 2.08099C17.7135 2.80447 17.2664 3.40738 16.8292 4.01307C16.3618 4.65973 15.862 5.28426 15.3985 5.93475C14.9727 6.52877 15.0066 6.82819 15.5355 7.34411Z" fill="white"/>
</svg>
