<svg width="226" height="97" viewBox="0 0 226 97" fill="none" xmlns="http://www.w3.org/2000/svg">
<mask id="path-1-inside-1_106_26100" fill="white">
<path fill-rule="evenodd" clip-rule="evenodd" d="M32.6964 54.6421L37.7817 24.8978L56.6174 17.931L223.799 46.5137C224.888 46.6998 225.62 47.7333 225.434 48.8221L217.682 94.1642C217.496 95.253 216.462 95.9847 215.373 95.7986L47.7495 67.1403L32.6964 54.6421ZM54.9493 49.0956C58.2157 49.654 61.3162 47.4589 61.8747 44.1925C62.4331 40.9262 60.2379 37.8257 56.9716 37.2672C53.7053 36.7088 50.6047 38.904 50.0463 42.1703C49.4879 45.4366 51.683 48.5372 54.9493 49.0956Z"/>
</mask>
<path fill-rule="evenodd" clip-rule="evenodd" d="M32.6964 54.6421L37.7817 24.8978L56.6174 17.931L223.799 46.5137C224.888 46.6998 225.62 47.7333 225.434 48.8221L217.682 94.1642C217.496 95.253 216.462 95.9847 215.373 95.7986L47.7495 67.1403L32.6964 54.6421ZM54.9493 49.0956C58.2157 49.654 61.3162 47.4589 61.8747 44.1925C62.4331 40.9262 60.2379 37.8257 56.9716 37.2672C53.7053 36.7088 50.6047 38.904 50.0463 42.1703C49.4879 45.4366 51.683 48.5372 54.9493 49.0956Z" fill="#FBCFB0"/>
<path d="M37.7817 24.8978L37.4348 23.9599L36.8933 24.1602L36.796 24.7293L37.7817 24.8978ZM32.6964 54.6421L31.7107 54.4736L31.6134 55.0427L32.0576 55.4115L32.6964 54.6421ZM56.6174 17.931L56.786 16.9453L56.5218 16.9001L56.2705 16.9931L56.6174 17.931ZM223.799 46.5137L223.968 45.528L223.799 46.5137ZM47.7495 67.1403L47.1107 67.9097L47.3169 68.0809L47.581 68.126L47.7495 67.1403ZM36.796 24.7293L31.7107 54.4736L33.6821 54.8107L38.7674 25.0664L36.796 24.7293ZM56.2705 16.9931L37.4348 23.9599L38.1286 25.8357L56.9643 18.8689L56.2705 16.9931ZM223.968 45.528L56.786 16.9453L56.4489 18.9167L223.631 47.4994L223.968 45.528ZM226.419 48.9906C226.699 47.3575 225.601 45.8072 223.968 45.528L223.631 47.4994C224.175 47.5924 224.541 48.1092 224.448 48.6536L226.419 48.9906ZM218.667 94.3327L226.419 48.9906L224.448 48.6536L216.696 93.9957L218.667 94.3327ZM215.205 96.7843C216.838 97.0635 218.388 95.9659 218.667 94.3327L216.696 93.9957C216.603 94.5401 216.086 94.9059 215.542 94.8129L215.205 96.7843ZM47.581 68.126L215.205 96.7843L215.542 94.8129L47.918 66.1546L47.581 68.126ZM48.3883 66.371L33.3352 53.8728L32.0576 55.4115L47.1107 67.9097L48.3883 66.371ZM60.889 44.024C60.4236 46.746 57.8398 48.5753 55.1179 48.1099L54.7808 50.0813C58.5915 50.7328 62.2089 48.1718 62.8604 44.3611L60.889 44.024ZM56.8031 38.2529C59.525 38.7183 61.3543 41.3021 60.889 44.024L62.8604 44.3611C63.5119 40.5504 60.9508 36.933 57.1401 36.2815L56.8031 38.2529ZM51.032 42.3388C51.4973 39.6169 54.0812 37.7876 56.8031 38.2529L57.1401 36.2815C53.3294 35.63 49.7121 38.1911 49.0606 42.0018L51.032 42.3388ZM55.1179 48.1099C52.3959 47.6445 50.5666 45.0607 51.032 42.3388L49.0606 42.0018C48.4091 45.8125 50.9701 49.4298 54.7808 50.0813L55.1179 48.1099Z" fill="#FFF9F5" mask="url(#path-1-inside-1_106_26100)"/>
<mask id="path-3-inside-2_106_26100" fill="white">
<path fill-rule="evenodd" clip-rule="evenodd" d="M36.9629 53.4236L41.2156 28.549L58.2131 22.2621L219.183 49.7827C220.271 49.9688 221.003 51.0024 220.817 52.0911L214.413 89.5476C214.227 90.6364 213.193 91.3681 212.105 91.182L48.816 63.2649L36.9629 53.4236Z"/>
</mask>
<path d="M41.2156 28.549L40.8687 27.6111L40.3272 27.8114L40.2299 28.3805L41.2156 28.549ZM36.9629 53.4236L35.9772 53.2551L35.8799 53.8242L36.3241 54.193L36.9629 53.4236ZM58.2131 22.2621L58.3816 21.2764L58.1175 21.2313L57.8662 21.3242L58.2131 22.2621ZM219.183 49.7827L219.351 48.797L219.183 49.7827ZM220.817 52.0911L221.803 52.2596L220.817 52.0911ZM214.413 89.5476L213.427 89.3791L214.413 89.5476ZM48.816 63.2649L48.1772 64.0343L48.3834 64.2055L48.6475 64.2506L48.816 63.2649ZM40.2299 28.3805L35.9772 53.2551L37.9486 53.5921L42.2013 28.7176L40.2299 28.3805ZM57.8662 21.3242L40.8687 27.6111L41.5625 29.4869L58.56 23.2L57.8662 21.3242ZM219.351 48.797L58.3816 21.2764L58.0446 23.2478L219.014 50.7684L219.351 48.797ZM221.803 52.2596C222.082 50.6265 220.984 49.0762 219.351 48.797L219.014 50.7684C219.558 50.8615 219.924 51.3782 219.831 51.9226L221.803 52.2596ZM215.399 89.7162L221.803 52.2596L219.831 51.9226L213.427 89.3791L215.399 89.7162ZM211.936 92.1677C213.569 92.4469 215.12 91.3493 215.399 89.7162L213.427 89.3791C213.334 89.9235 212.818 90.2894 212.273 90.1963L211.936 92.1677ZM48.6475 64.2506L211.936 92.1677L212.273 90.1963L48.9845 62.2792L48.6475 64.2506ZM49.4548 62.4956L37.6017 52.6542L36.3241 54.193L48.1772 64.0343L49.4548 62.4956Z" fill="#DEB292" mask="url(#path-3-inside-2_106_26100)"/>
<circle cx="55.9604" cy="43.1812" r="7.5" transform="rotate(9.70191 55.9604 43.1812)" stroke="#D8AC8D" stroke-width="3"/>
<path d="M50.0479 41.2009C47.7718 41.4147 45.3774 41.2525 43.1103 40.8662C41.8756 40.6559 40.6742 40.4168 39.4615 40.0852C38.8359 39.9142 38.0439 39.7612 37.4931 39.4158C36.8702 39.0252 36.1244 38.7275 35.4646 38.3868C35.2079 38.2543 34.6639 37.9859 34.5164 37.7422C34.4504 37.6331 33.9644 37.2959 34.0603 37.2959" stroke="black" stroke-linecap="round"/>
<path d="M50.0479 42.2921C49.442 43.2785 47.4891 43.2347 46.4373 43.285C45.2272 43.3429 44.0014 43.1628 42.8208 42.9027C40.923 42.4845 39.3242 41.8583 37.6269 40.8984C36.7346 40.3938 35.9369 39.7547 35.0419 39.2703C34.8494 39.1661 33.8899 38.3887 34.0703 38.2959" stroke="black" stroke-linecap="round"/>
<path d="M34.0479 37.2959C34.0479 37.5716 34.0479 37.8001 34.0479 38.0955C34.0479 38.2844 34.0479 38.7996 34.0479 38.6405C34.0479 38.2815 34.0479 37.7961 34.0479 37.4009C34.0479 37.3158 34.0479 37.584 34.0479 37.6756C34.0479 37.8957 34.0479 38.1164 34.0479 38.3368C34.0479 38.4596 34.0479 39.1658 34.0479 38.6964C34.0479 38.374 34.0479 37.9956 34.0479 37.6868C34.0479 37.5969 34.0479 37.8757 34.0479 37.9704C34.0479 38.2091 34.0479 38.4436 34.0479 38.683C34.0479 38.8547 34.0479 39.0179 34.0479 39.1811C34.0479 39.2123 34.0479 39.3751 34.0479 39.2481C34.0479 38.8693 34.0479 38.4878 34.0479 38.1089C34.0479 38.0189 34.0479 37.9542 34.0479 38.0844C34.0479 38.2608 34.0479 38.4434 34.0479 38.6227C34.0479 38.787 34.0479 38.9466 34.0479 39.1118C34.0479 39.2376 34.0479 38.8602 34.0479 38.7343C34.0479 38.6249 34.0479 38.5154 34.0479 38.406C34.0479 38.3173 34.0479 38.5836 34.0479 38.6718C34.0479 38.8378 34.0479 39.0113 34.0479 39.1788C34.0479 39.2886 34.0479 38.964 34.0479 38.9354C34.0479 38.5681 34.0479 37.4691 34.0479 37.8364C34.0479 38.2031 34.0479 38.5839 34.0479 38.9443" stroke="black" stroke-linecap="round"/>
<path d="M33.0479 37.5037C33.0479 37.9802 33.0479 38.3851 33.0479 38.8322C33.0479 38.9078 33.0479 39.4738 33.0479 39.2394C33.0479 38.8322 33.0479 38.387 33.0479 37.9643C33.0479 37.7808 33.0479 37.6041 33.0479 37.4172C33.0479 37.3415 33.0479 37.2067 33.0479 37.3815C33.0479 37.84 33.0479 38.2985 33.0479 38.7507C33.0479 38.8439 33.0479 39.0706 33.0479 39.1427C33.0479 39.2301 33.0479 38.8979 33.0479 38.7762C33.0479 38.4424 33.0479 37.4257 33.0479 37.7633C33.0479 38.1671 33.0479 38.5639 33.0479 38.9696" stroke="black" stroke-linecap="round"/>
<path d="M33.0504 37.7651C30.5946 37.5066 28.1138 36.5862 25.8053 35.7617C23.8081 35.0484 21.8994 34.1479 20.0076 33.194C17.5618 31.9609 15.0572 30.8241 12.787 29.2771C9.25401 26.8697 6.59005 23.7934 4.63424 20.004C3.22319 17.2701 1.70019 14.3049 1.02805 11.2707C0.473383 8.76677 0.842915 6.45962 2.35277 4.36905C3.16522 3.24411 4.00345 2.13556 4.78961 1" stroke="black" stroke-linecap="round"/>
<path d="M4.49515 3.76367C4.11005 3.80646 4.06002 4.05371 3.90639 4.35244C3.517 5.10959 2.98122 5.77227 2.61437 6.56031C2.12848 7.60408 2.10235 8.81133 1.69852 9.88029C1.10602 11.4487 0.58575 12.9582 0.529162 14.6558C0.473396 16.3288 0.869635 17.8658 1.40413 19.4396C1.94067 21.0194 2.28898 22.6342 2.90876 24.1906C3.55479 25.8128 4.56757 27.2407 5.85258 28.41C7.50665 29.9152 9.52037 30.6631 11.3232 31.9508C13.6344 33.6017 14.1997 36.5477 16.8674 37.8303C18.4406 38.5866 20.2938 38.8163 22.0273 38.7707C24.1415 38.715 26.0074 37.4705 28.1112 37.4705C29.4994 37.4705 30.8938 37.9121 32.2407 37.9121C32.6605 37.9121 33.0803 37.9121 33.5 37.9121C33.6611 37.9121 34.4799 38.0593 33.9334 38.0593" stroke="black" stroke-linecap="round"/>
</svg>
